<svg width="24" height="24" viewBox="0 0 24 24" fill="none" xmlns="http://www.w3.org/2000/svg">
<g clip-path="url(#clip0_1803_1683)">
<path d="M18.3 19.0006H5.7C5.31 19.0006 5 18.6906 5 18.3006C5 17.9106 5.31 17.6006 5.7 17.6006H18.3C18.69 17.6006 19 17.9106 19 18.3006C19 18.6906 18.69 19.0006 18.3 19.0006Z" fill="#333333"/>
<path d="M9.2 19.0003H5.7C5.31 19.0003 5 18.6903 5 18.3003V14.8003C5 14.6103 5.07 14.4403 5.21 14.3103L14.31 5.21031C14.58 4.94031 15.03 4.94031 15.3 5.21031L18.8 8.71031C19.07 8.98031 19.07 9.43031 18.8 9.70031L9.7 18.8003C9.57 18.9303 9.39 19.0103 9.21 19.0103L9.2 19.0003ZM6.4 17.6003H8.91L17.31 9.20031L14.8 6.69031L6.4 15.0903V17.6003Z" fill="#333333"/>
<path d="M16.2 11.3002C16.02 11.3002 15.84 11.2302 15.71 11.0902L12.91 8.29016C12.64 8.02016 12.64 7.57016 12.91 7.30016C13.18 7.03016 13.63 7.03016 13.9 7.30016L16.7 10.1002C16.97 10.3702 16.97 10.8202 16.7 11.0902C16.56 11.2302 16.38 11.3002 16.21 11.3002H16.2Z" fill="#333333"/>
</g>
<defs>
<clipPath id="clip0_1803_1683">
<rect width="24" height="24" fill="white"/>
</clipPath>
</defs>
</svg>
