<svg width="32" height="32" viewBox="0 0 32 32" fill="none" xmlns="http://www.w3.org/2000/svg">
<g clip-path="url(#clip0_1784_2099)">
<path d="M17 26H10C8.35 26 7 24.65 7 23V9C7 7.35 8.35 6 10 6H17C18.65 6 20 7.35 20 9V12C20 12.55 19.55 13 19 13C18.45 13 18 12.55 18 12V9C18 8.45 17.55 8 17 8H10C9.45 8 9 8.45 9 9V23C9 23.55 9.45 24 10 24H17C17.55 24 18 23.55 18 23V20C18 19.45 18.45 19 19 19C19.55 19 20 19.45 20 20V23C20 24.65 18.65 26 17 26Z" fill="#707070"/>
<path d="M25 17.0003H16C15.45 17.0003 15 16.5503 15 16.0003C15 15.4503 15.45 15.0003 16 15.0003H22.59L21.3 13.7103C20.91 13.3203 20.91 12.6903 21.3 12.3003C21.69 11.9103 22.32 11.9103 22.71 12.3003L25.71 15.3003C26 15.5903 26.08 16.0203 25.93 16.3903C25.78 16.7603 25.41 17.0103 25.01 17.0103L25 17.0003Z" fill="#707070"/>
<path d="M22.0001 20.0003C21.7401 20.0003 21.4901 19.9003 21.2901 19.7103C20.9001 19.3203 20.9001 18.6903 21.2901 18.3003L24.2901 15.3003C24.6801 14.9103 25.3101 14.9103 25.7001 15.3003C26.0901 15.6903 26.0901 16.3203 25.7001 16.7103L22.7001 19.7103C22.5001 19.9103 22.2501 20.0003 21.9901 20.0003H22.0001Z" fill="#707070"/>
</g>
<defs>
<clipPath id="clip0_1784_2099">
<rect width="32" height="32" fill="white"/>
</clipPath>
</defs>
</svg>
