<svg width="32" height="32" viewBox="0 0 32 32" fill="none" xmlns="http://www.w3.org/2000/svg">
<g clip-path="url(#clip0_1525_4428)">
<path d="M23 26H9C6.79 26 5 24.21 5 22V13C5 10.79 6.79 9 9 9H11.02L11.82 7.19C12.14 6.47 12.86 6 13.65 6H18.32C19.14 6 19.87 6.49 20.18 7.26L20.88 9H23C25.21 9 27 10.79 27 13V22C27 24.21 25.21 26 23 26ZM9 11C7.9 11 7 11.9 7 13V22C7 23.1 7.9 24 9 24H23C24.1 24 25 23.1 25 22V13C25 11.9 24.1 11 23 11H20.2C19.79 11 19.42 10.75 19.27 10.37L18.32 8H13.65L12.58 10.41C12.42 10.77 12.06 11 11.67 11H9Z" fill="#999797"/>
<path d="M16 22C13.24 22 11 19.76 11 17C11 14.24 13.24 12 16 12C18.76 12 21 14.24 21 17C21 19.76 18.76 22 16 22ZM16 14C14.35 14 13 15.35 13 17C13 18.65 14.35 20 16 20C17.65 20 19 18.65 19 17C19 15.35 17.65 14 16 14Z" fill="#999797"/>
<path d="M23 14H22C21.45 14 21 13.55 21 13C21 12.45 21.45 12 22 12H23C23.55 12 24 12.45 24 13C24 13.55 23.55 14 23 14Z" fill="#999797"/>
</g>
<defs>
<clipPath id="clip0_1525_4428">
<rect width="32" height="32" fill="white"/>
</clipPath>
</defs>
</svg>
