<svg width="32" height="32" viewBox="0 0 32 32" fill="none" xmlns="http://www.w3.org/2000/svg">
<path d="M16 24C20.4183 24 24 20.4183 24 16C24 11.5817 20.4183 8 16 8C11.5817 8 8 11.5817 8 16C8 20.4183 11.5817 24 16 24Z" fill="#EBEAEA"/>
<path d="M19 19.5002C18.87 19.5002 18.74 19.4502 18.65 19.3502L12.65 13.3502C12.45 13.1502 12.45 12.8402 12.65 12.6402C12.85 12.4402 13.16 12.4402 13.36 12.6402L19.36 18.6402C19.56 18.8402 19.56 19.1502 19.36 19.3502C19.26 19.4502 19.13 19.5002 19.01 19.5002H19Z" fill="#707070"/>
<path d="M13 19.5002C12.87 19.5002 12.74 19.4502 12.65 19.3502C12.45 19.1502 12.45 18.8402 12.65 18.6402L18.65 12.6402C18.85 12.4402 19.16 12.4402 19.36 12.6402C19.56 12.8402 19.56 13.1502 19.36 13.3502L13.36 19.3502C13.26 19.4502 13.13 19.5002 13.01 19.5002H13Z" fill="#707070"/>
</svg>
