<svg width="24" height="24" viewBox="0 0 24 24" fill="none" xmlns="http://www.w3.org/2000/svg">
<g clip-path="url(#clip0_1784_1887)">
<path d="M12 20C16.4183 20 20 16.4183 20 12C20 7.58172 16.4183 4 12 4C7.58172 4 4 7.58172 4 12C4 16.4183 7.58172 20 12 20Z" fill="#EBEAEA"/>
<path d="M15 15.5002C14.87 15.5002 14.74 15.4502 14.65 15.3502L8.65 9.35023C8.45 9.15023 8.45 8.84023 8.65 8.64023C8.85 8.44023 9.16 8.44023 9.36 8.64023L15.36 14.6402C15.56 14.8402 15.56 15.1502 15.36 15.3502C15.26 15.4502 15.13 15.5002 15.01 15.5002H15Z" fill="#707070"/>
<path d="M9 15.5002C8.87 15.5002 8.74 15.4502 8.65 15.3502C8.45 15.1502 8.45 14.8402 8.65 14.6402L14.65 8.64023C14.85 8.44023 15.16 8.44023 15.36 8.64023C15.56 8.84023 15.56 9.15023 15.36 9.35023L9.36 15.3502C9.26 15.4502 9.13 15.5002 9.01 15.5002H9Z" fill="#707070"/>
</g>
<defs>
<clipPath id="clip0_1784_1887">
<rect width="24" height="24" fill="white"/>
</clipPath>
</defs>
</svg>
