<svg width="67" height="20" viewBox="0 0 67 20" fill="none" xmlns="http://www.w3.org/2000/svg">
<g clip-path="url(#clip0_2028_5863)">
<path d="M9.1 0.10043L0.15 7.46043C0.05 7.54043 0 7.66043 0 7.78043V18.8404C0 19.0704 0.19 19.2604 0.43 19.2604H18.33C18.57 19.2604 18.76 19.0704 18.76 18.8404V7.78043C18.76 7.66043 18.7 7.54043 18.61 7.46043L9.65 0.10043C9.49 -0.0295703 9.26 -0.0295703 9.1 0.10043Z" fill="#60B28D"/>
<path d="M11.97 18H6V18.83H11.97V18Z" fill="white"/>
<path d="M11.97 15.5H6V16.33H11.97V15.5Z" fill="white"/>
<path d="M12.8201 16.75H6.8501V17.58H12.8201V16.75Z" fill="white"/>
<path d="M12.8201 14.25H6.8501V15.08H12.8201V14.25Z" fill="white"/>
<path d="M10.2899 6.54043L9.54993 5.69043V0.0404297C9.43993 -0.00957031 9.31993 -0.00957031 9.20993 0.0404297V5.70043L8.46993 6.55043L7.69993 7.42043C7.63993 7.49043 7.69993 7.59043 7.78993 7.59043H8.94993C8.94993 7.82043 9.13993 8.01043 9.37993 8.01043C9.61993 8.01043 9.80993 7.82043 9.80993 7.59043H10.9699C11.0699 7.59043 11.1199 7.49043 11.0599 7.42043L10.2899 6.55043V6.54043Z" fill="white"/>
<path d="M23.36 9.4193C23.42 9.3993 23.48 9.3993 23.54 9.4093L23.85 9.4393C24.28 9.4893 24.66 9.5093 24.99 9.5093C25.69 9.5093 26.58 9.4593 27.65 9.3593L27.99 9.3293L28.33 9.2793C28.51 9.2293 28.67 9.2093 28.82 9.2093C28.9 9.2093 28.97 9.2293 29.02 9.2793C29.07 9.3293 29.1 9.3893 29.1 9.4693C29.1 9.6093 29.03 9.7093 28.9 9.7693C28.76 9.8193 28.6 9.8593 28.41 9.8693C26.69 9.9993 25.39 10.0593 24.52 10.0593C24.24 10.0593 23.96 10.0293 23.68 9.9593C23.4 9.8893 23.26 9.7593 23.26 9.5593C23.26 9.4993 23.29 9.4593 23.35 9.4393L23.36 9.4193ZM23.84 10.4393C23.84 10.4393 23.94 10.3893 24.01 10.3893C24.42 10.3893 24.69 10.5693 24.83 10.9393C24.97 11.3093 25.04 11.7793 25.04 12.3493V13.2093C25.03 13.6093 25.02 14.2193 25 15.0293C26.03 14.8793 27.37 14.5793 29.02 14.1293C29.09 14.1093 29.24 14.0593 29.46 13.9693C29.49 13.9693 29.58 13.9193 29.74 13.8593C29.9 13.7993 30.02 13.7593 30.1 13.7593C30.13 13.7593 30.16 13.7593 30.2 13.7893C30.24 13.8093 30.25 13.8293 30.25 13.8593C30.25 14.0093 30.13 14.1693 29.9 14.3193C29.67 14.4693 29.45 14.5793 29.25 14.6293C26.93 15.2493 25.5 15.5493 24.97 15.5493C24.79 15.5493 24.63 15.5193 24.49 15.4493C24.35 15.3793 24.29 15.2693 24.29 15.0993C24.29 14.8793 24.29 14.6893 24.3 14.5293C24.31 14.3693 24.32 14.2293 24.33 14.1093C24.36 13.7793 24.37 13.4593 24.37 13.1293C24.37 12.4393 24.35 11.9193 24.32 11.5793C24.29 11.3593 24.25 11.2093 24.18 11.1093C24.12 11.0093 24.04 10.9293 23.94 10.8493C23.89 10.7993 23.84 10.7693 23.82 10.7293C23.8 10.6893 23.78 10.6493 23.78 10.5893C23.78 10.5293 23.8 10.4793 23.84 10.4393ZM30.97 18.2593C30.93 17.9693 30.92 17.6893 30.92 17.4393C30.92 16.9093 30.94 16.0993 30.97 15.0293C31.01 13.9593 31.02 13.1493 31.02 12.6093V11.0493C31.02 9.9793 31 9.0693 30.95 8.2993C30.95 8.0993 30.89 7.9493 30.79 7.8493C30.69 7.7493 30.55 7.6593 30.37 7.5593C30.35 7.5593 30.31 7.5293 30.25 7.4893C30.19 7.4493 30.14 7.4193 30.11 7.3693C30.08 7.3293 30.06 7.2893 30.06 7.2393C30.06 7.1693 30.09 7.1093 30.15 7.0793C30.21 7.0393 30.27 7.0293 30.35 7.0293C30.72 7.0293 31.04 7.1693 31.31 7.4493C31.58 7.7293 31.71 8.0593 31.71 8.4293V12.3193H32C32.16 12.3193 32.4 12.2893 32.71 12.2393C33.02 12.1893 33.24 12.1593 33.39 12.1593C33.53 12.1593 33.64 12.1893 33.74 12.2593C33.84 12.3293 33.88 12.4293 33.88 12.5693C33.88 12.7693 33.31 12.8693 32.18 12.8693H31.72V14.0693C31.72 15.4693 31.69 16.6193 31.62 17.5093C31.6 17.6893 31.55 17.9393 31.48 18.2393C31.4 18.5493 31.31 18.6993 31.21 18.6993C31.09 18.6993 31.02 18.5493 30.98 18.2593H30.97Z" fill="#60B28D"/>
<path d="M35.8901 13.9796C35.7001 13.9196 35.6101 13.8396 35.6101 13.7396C35.6101 13.5296 35.6101 13.2296 35.6401 12.8296V11.9296C35.6501 11.6596 35.6401 11.4496 35.6401 11.3196C35.4901 11.2996 35.3301 11.2496 35.1401 11.1496C34.9501 11.0496 34.8601 10.9496 34.8601 10.8296C34.8601 10.7696 34.8901 10.7296 34.9601 10.7096C35.0201 10.6896 35.0901 10.6896 35.1501 10.6996C35.8001 10.7596 36.3501 10.7996 36.7801 10.7996C37.1501 10.7996 37.5601 10.7896 38.0001 10.7596C38.4401 10.7296 38.7301 10.7096 38.8701 10.7096L39.2501 10.6796C39.2701 10.4396 39.2801 10.2396 39.2801 10.0696C39.2801 9.89957 39.2801 9.74957 39.2801 9.63957C39.2801 9.28957 39.2801 9.01957 39.2901 8.84957L36.1501 9.02957C35.9101 9.02957 35.6401 8.99957 35.3301 8.92957C35.0201 8.85957 34.8701 8.71957 34.8701 8.52957C34.8701 8.43957 34.9401 8.38957 35.0901 8.38957C35.2401 8.38957 35.3901 8.39957 35.5501 8.42957C35.6001 8.42957 35.6701 8.44957 35.7401 8.45957C35.8101 8.45957 35.9001 8.46957 36.0001 8.46957H36.4301C37.6301 8.46957 38.5301 8.41957 39.1401 8.31957C39.2001 8.31957 39.3001 8.28957 39.4201 8.25957C39.5401 8.22957 39.6401 8.20957 39.7101 8.20957C39.8101 8.20957 39.8801 8.24957 39.9301 8.33957C39.9801 8.42957 40.0001 8.51957 40.0001 8.61957C40.0001 9.06957 39.9701 9.71957 39.9201 10.5496C40.0001 10.5496 40.0701 10.5696 40.1301 10.6196C40.1901 10.6696 40.2201 10.7396 40.2201 10.8196C40.2201 10.9596 40.1501 11.0596 40.0201 11.1096C39.8901 11.1596 39.7201 11.1896 39.5201 11.1996C38.2101 11.2996 37.1301 11.3496 36.2901 11.3496C36.2901 11.5396 36.3001 11.8196 36.3001 12.1896C36.3001 12.4896 36.3001 12.9396 36.2701 13.5396C36.8001 13.4896 37.3301 13.4096 37.8901 13.2896C38.4401 13.1696 39.1101 12.9996 39.8901 12.7796L40.4101 12.6396C40.4801 12.6196 40.6201 12.5696 40.8201 12.4796C41.1601 12.3396 41.3901 12.2596 41.4901 12.2596C41.5301 12.2596 41.5601 12.2596 41.5901 12.2896C41.6201 12.3096 41.6401 12.3396 41.6401 12.3696C41.6401 12.5196 41.5201 12.6796 41.2901 12.8396C41.0501 12.9996 40.8401 13.0996 40.6501 13.1496L40.2801 13.2496C38.1201 13.8196 36.8101 14.1096 36.3201 14.1096C36.2001 14.1096 36.0501 14.0796 35.8601 14.0096L35.8901 13.9796ZM37.3301 15.1996C37.3301 15.1996 37.4101 15.1696 37.4601 15.1696C37.6101 15.1696 37.7701 15.1796 37.9401 15.2096C37.9901 15.2096 38.0501 15.2296 38.1201 15.2396C38.2001 15.2396 38.2901 15.2496 38.4001 15.2496C38.7801 15.2496 39.0801 15.2496 39.3001 15.2596H40.3701C41.1201 15.2696 41.7201 15.2296 42.1601 15.1496C42.2201 15.1496 42.3301 15.1196 42.4701 15.0796C42.6101 15.0396 42.7001 15.0296 42.7401 15.0296C42.8501 15.0296 42.9301 15.0796 42.9801 15.1696C43.0301 15.2596 43.0501 15.3596 43.0501 15.4696C43.0501 16.4296 43.0201 17.2996 42.9801 18.0896C42.9301 18.8696 42.8001 19.2696 42.5801 19.2696C42.3901 19.2696 42.2901 18.9496 42.2901 18.3196C42.2901 17.4396 42.3001 16.5696 42.3301 15.6996L38.5501 15.8196C38.3101 15.8196 38.0301 15.7896 37.7301 15.7196C37.4301 15.6396 37.2701 15.5096 37.2701 15.3196C37.2701 15.2696 37.2901 15.2396 37.3301 15.2196V15.1996ZM41.5401 7.10957C41.6001 7.06957 41.6801 7.05957 41.7601 7.05957C42.0001 7.05957 42.2301 7.12957 42.4301 7.25957C42.6301 7.38957 42.7901 7.56957 42.9101 7.78957C43.0301 8.00957 43.0901 8.22957 43.0901 8.46957V11.2196H43.2801C43.4301 11.2196 43.6601 11.1896 43.9701 11.1396C44.2401 11.0896 44.4501 11.0596 44.6001 11.0596C44.7501 11.0596 44.8901 11.0896 45.0001 11.1396C45.1101 11.1896 45.1701 11.2896 45.1701 11.4296C45.1701 11.5796 44.9901 11.6796 44.6301 11.7196C44.2701 11.7596 43.8801 11.7696 43.4501 11.7696H43.0801C43.0801 11.7696 43.0801 12.2896 43.0501 13.1996C43.0301 14.1096 42.8901 14.5696 42.6101 14.5696C42.4901 14.5696 42.4201 14.4196 42.3801 14.1296C42.3401 13.8396 42.3301 13.5596 42.3301 13.3096C42.3301 12.9496 42.3301 12.3896 42.3601 11.6496C42.3901 10.9096 42.3901 10.3496 42.3901 9.98957C42.3901 9.37957 42.3701 8.82957 42.3401 8.32957C42.3401 8.12957 42.2801 7.97957 42.1801 7.87957C42.0801 7.77957 41.9401 7.68957 41.7601 7.58957C41.7401 7.58957 41.7001 7.55957 41.6401 7.51957C41.5801 7.47957 41.5301 7.44957 41.5001 7.39957C41.4701 7.35957 41.4501 7.31957 41.4501 7.26957C41.4501 7.19957 41.4801 7.13957 41.5501 7.10957H41.5401Z" fill="#60B28D"/>
<path d="M46.42 13.8495C47.26 13.2495 47.94 12.6595 48.46 12.0795C48.98 11.4995 49.43 10.7695 49.82 9.90953L48.01 10.0895C47.88 10.0895 47.72 10.0895 47.51 10.0595C47.3 10.0295 47.12 9.97953 46.97 9.89953C46.81 9.81953 46.73 9.71953 46.73 9.57953C46.73 9.51953 46.76 9.47953 46.83 9.45953C46.89 9.43953 46.96 9.43953 47.02 9.44953L47.33 9.47953C47.64 9.51953 47.87 9.52953 48.02 9.52953C48.27 9.52953 48.66 9.47953 49.19 9.38953C49.26 9.38953 49.42 9.35953 49.65 9.31953C49.89 9.27953 50.1 9.26953 50.3 9.26953C50.39 9.26953 50.47 9.30953 50.53 9.38953C50.59 9.46953 50.63 9.54953 50.63 9.63953C50.63 9.82953 50.49 10.1895 50.21 10.7095C49.93 11.2295 49.69 11.6195 49.5 11.8895C49.74 12.2295 50 12.4995 50.25 12.7295C50.51 12.9495 50.83 13.1695 51.22 13.3795C51.31 13.4295 51.38 13.4795 51.43 13.5195C51.48 13.5595 51.5 13.6095 51.5 13.6795C51.5 13.7495 51.45 13.8095 51.36 13.8395C51.26 13.8795 51.18 13.8895 51.09 13.8895C50.79 13.8895 50.44 13.7195 50.04 13.3895C49.64 13.0595 49.31 12.7295 49.07 12.3895C48.92 12.5595 48.66 12.7995 48.29 13.1195C47.92 13.4395 47.56 13.7095 47.19 13.9395C46.82 14.1795 46.54 14.2895 46.35 14.2895C46.32 14.2895 46.29 14.2795 46.26 14.2595C46.23 14.2395 46.21 14.2095 46.21 14.1895C46.21 14.0495 46.27 13.9495 46.4 13.8595L46.42 13.8495ZM47.32 7.92953C47.32 7.92953 47.39 7.86953 47.44 7.86953L47.71 7.94953C48.26 8.15953 48.69 8.25953 49 8.25953C49.08 8.25953 49.15 8.25953 49.21 8.24953C49.27 8.24953 49.32 8.22953 49.37 8.21953C49.48 8.18953 49.59 8.17953 49.7 8.17953C49.78 8.17953 49.85 8.19953 49.91 8.23953C49.97 8.27953 50 8.33953 50 8.40953C50 8.57953 49.88 8.67953 49.65 8.71953C49.42 8.74953 49.11 8.76953 48.73 8.76953C48.38 8.76953 48.05 8.71953 47.74 8.62953C47.43 8.53953 47.28 8.34953 47.28 8.06953C47.28 8.01953 47.29 7.96953 47.32 7.92953ZM49.56 15.0495C49.7 15.0495 49.85 15.0595 50 15.0895C50.05 15.0895 50.12 15.1095 50.2 15.1195C50.28 15.1195 50.37 15.1295 50.47 15.1295C50.86 15.1295 51.16 15.1295 51.37 15.1395H52.36C53.12 15.1495 53.75 15.1095 54.24 15.0295C54.3 15.0295 54.4 14.9995 54.52 14.9695C54.64 14.9395 54.74 14.9195 54.81 14.9195C54.92 14.9195 55 14.9595 55.05 15.0495C55.1 15.1395 55.12 15.2295 55.12 15.3395V15.8595C55.12 18.1195 54.96 19.2395 54.63 19.2395C54.45 19.2395 54.36 18.9195 54.36 18.2895C54.36 17.3695 54.37 16.4595 54.4 15.5595L50.62 15.6795C50.37 15.6795 50.09 15.6595 49.79 15.5795C49.49 15.4995 49.34 15.3695 49.34 15.1795C49.34 15.0895 49.41 15.0395 49.56 15.0395V15.0495ZM54.49 14.1395C54.45 13.8395 54.44 13.5695 54.44 13.3195V12.7595L54.48 11.6495V11.0895C54.04 11.1495 53.47 11.1895 52.79 11.2095V11.6295C52.79 12.3495 52.76 12.9895 52.7 13.5695C52.64 14.1495 52.52 14.4395 52.34 14.4395C52.22 14.4395 52.15 14.2995 52.11 14.0095C52.07 13.7195 52.06 13.4495 52.06 13.1895V11.9795C52.08 11.7095 52.09 11.3095 52.09 10.7695C52.09 9.94953 52.06 9.27953 52.01 8.73953C51.99 8.53953 51.93 8.38953 51.83 8.27953C51.73 8.17953 51.59 8.06953 51.41 7.96953C51.3 7.90953 51.22 7.85953 51.18 7.81953C51.13 7.77953 51.11 7.72953 51.11 7.66953C51.11 7.60953 51.14 7.55953 51.2 7.51953C51.26 7.47953 51.32 7.46953 51.4 7.46953C51.77 7.46953 52.09 7.60953 52.36 7.88953C52.63 8.16953 52.76 8.48953 52.76 8.84953V9.29953L52.79 10.1795V10.6295C53.18 10.6295 53.75 10.5795 54.49 10.5095C54.49 9.50953 54.47 8.76953 54.44 8.27953C54.42 8.07953 54.36 7.92953 54.26 7.81953C54.16 7.70953 54.02 7.61953 53.85 7.52953C53.74 7.47953 53.66 7.42953 53.61 7.38953C53.56 7.34953 53.54 7.29953 53.54 7.22953C53.54 7.15953 53.57 7.09953 53.64 7.06953C53.71 7.02953 53.78 7.01953 53.85 7.01953C54.09 7.01953 54.32 7.08953 54.52 7.21953C54.72 7.34953 54.89 7.52953 55.01 7.74953C55.13 7.96953 55.19 8.18953 55.19 8.41953V10.3895L55.22 11.3095C55.22 11.9295 55.2 12.6095 55.15 13.3595C55.13 13.5395 55.08 13.7895 55.01 14.0895C54.93 14.3995 54.84 14.5495 54.73 14.5495C54.62 14.5495 54.55 14.3995 54.51 14.0995L54.49 14.1395Z" fill="#60B28D"/>
<path d="M58.1299 8.57957C58.4399 8.57957 58.6699 8.68957 58.8199 8.89957C58.9699 9.10957 59.0699 9.34957 59.1199 9.59957C59.1699 9.84957 59.1999 10.1796 59.2199 10.5596C60.0799 10.5596 61.1099 10.5296 62.3199 10.4596C62.3199 9.87957 62.3099 9.44957 62.2799 9.15957C62.2599 8.94957 62.2199 8.79957 62.1599 8.69957C62.0999 8.59957 62.0099 8.51957 61.9099 8.44957C61.8099 8.37957 61.7499 8.30957 61.7499 8.23957C61.7499 8.07957 61.8299 7.99957 61.9899 7.99957C62.4199 7.99957 62.6999 8.17957 62.8299 8.53957C62.9499 8.89957 63.0099 9.35957 63.0099 9.89957V10.3796C63.0099 12.3296 62.8299 13.2996 62.4699 13.2996C62.3999 13.2996 62.3399 13.2696 62.2999 13.2196C62.2599 13.1696 62.2299 13.0996 62.2099 13.0296C61.8499 13.1296 61.4799 13.1896 61.0999 13.2196C60.7199 13.2496 60.2499 13.2596 59.6799 13.2596C59.3099 13.2596 59.0499 13.2296 58.9099 13.1596C58.7899 13.1096 58.7099 12.8896 58.6599 12.4696C58.6099 12.0596 58.5699 11.4996 58.5399 10.7996C58.5199 10.2396 58.4999 9.88957 58.4699 9.76957C58.4299 9.57957 58.3299 9.36957 58.1599 9.13957C57.9899 8.90957 57.8999 8.79957 57.8899 8.78957C57.8899 8.64957 57.9699 8.56957 58.1199 8.56957L58.1299 8.57957ZM59.2299 11.3896V11.8196C59.2199 12.4196 59.3699 12.7196 59.6899 12.7196C60.3099 12.7196 61.1499 12.6496 62.2199 12.5196L62.2499 12.0196C62.2699 11.7796 62.2899 11.4496 62.2999 11.0096C60.9399 11.0496 59.9199 11.0796 59.2399 11.1096C59.2399 11.2296 59.2399 11.3196 59.2299 11.3996V11.3896ZM61.2899 15.4296C61.6399 15.0996 62.1599 14.8196 62.8499 14.6096C62.9099 14.5896 63.0199 14.5296 63.1799 14.4296C63.3299 14.3296 63.4199 14.2796 63.4399 14.2796C63.4899 14.2796 63.5399 14.2996 63.5899 14.3296L63.7099 14.6296C64.1199 14.6296 64.4699 14.7496 64.7799 14.9796C65.0799 15.2096 65.3199 15.5096 65.4799 15.8696C65.6399 16.2296 65.7199 16.6096 65.7199 16.9996C65.7199 17.6596 65.4799 18.1696 65.0099 18.5396C64.5399 18.8996 63.9599 19.0796 63.2699 19.0796C62.5299 19.0796 61.9199 18.8996 61.4599 18.5396C60.9999 18.1796 60.7699 17.6296 60.7699 16.9096C60.7699 16.2596 60.9399 15.7596 61.2899 15.4296ZM61.9599 18.1096C62.2999 18.3696 62.7299 18.4996 63.2399 18.4996C63.7499 18.4996 64.1799 18.3796 64.5199 18.1296C64.8699 17.8896 65.0399 17.5196 65.0399 17.0296C65.0399 16.6396 64.9999 16.3496 64.9299 16.1496C64.8599 15.9496 64.7599 15.8096 64.6399 15.7196C64.5199 15.6296 64.3399 15.5296 64.0999 15.4296C63.8199 15.3196 63.5899 15.2096 63.4099 15.0896C62.8999 15.2296 62.5299 15.3596 62.2899 15.4596C62.0499 15.5596 61.8499 15.7296 61.6899 15.9596C61.5299 16.1896 61.4499 16.5196 61.4499 16.9496C61.4499 17.4596 61.6199 17.8396 61.9599 18.1096ZM66.8099 10.7796C67.0799 10.7296 67.2899 10.6996 67.4399 10.6996C67.5899 10.6996 67.7299 10.7296 67.8399 10.7796C67.9499 10.8296 68.0099 10.9296 68.0099 11.0696C68.0099 11.2196 67.8299 11.3196 67.4699 11.3596C67.1099 11.3996 66.7199 11.4096 66.2899 11.4096H65.9199C65.9199 12.0196 65.8899 12.6796 65.8399 13.3596C65.7899 14.0396 65.6599 14.3896 65.4599 14.3896C65.3399 14.3896 65.2699 14.2396 65.2299 13.9496C65.1899 13.6596 65.1799 13.3796 65.1799 13.1296C65.1799 12.7696 65.1799 12.2296 65.2099 11.5296C65.2299 10.8196 65.2399 10.2896 65.2399 9.92957C65.2399 9.32957 65.2199 8.79957 65.1899 8.32957C65.1899 8.12957 65.1299 7.97957 65.0299 7.87957C64.9299 7.77957 64.7899 7.68957 64.6099 7.58957C64.5899 7.58957 64.5499 7.55957 64.4899 7.51957C64.4299 7.47957 64.3799 7.44957 64.3499 7.39957C64.3199 7.35957 64.2999 7.31957 64.2999 7.26957C64.2999 7.19957 64.3299 7.13957 64.3999 7.10957C64.4599 7.06957 64.5399 7.05957 64.6199 7.05957C64.8599 7.05957 65.0899 7.12957 65.2899 7.25957C65.4899 7.38957 65.6499 7.56957 65.7699 7.78957C65.8899 8.00957 65.9499 8.22957 65.9499 8.46957V10.8796H66.1399C66.2899 10.8796 66.5199 10.8496 66.8299 10.7996L66.8099 10.7796Z" fill="#60B28D"/>
</g>
<defs>
<clipPath id="clip0_2028_5863">
<rect width="67" height="19.25" fill="white"/>
</clipPath>
</defs>
</svg>
