<svg width="390" height="275" viewBox="0 0 390 275" fill="none" xmlns="http://www.w3.org/2000/svg">
<g clip-path="url(#clip0_2034_6546)">
<path d="M390 4H0V278H390V4Z" fill="#FFFEF8"/>
<path d="M35.1477 158.389C34.9677 158.699 28.5177 162.569 27.6377 160.979C26.7577 159.389 30.5777 158.209 30.5777 158.209C30.5777 158.209 26.7077 157.179 27.0177 155.609C27.3277 154.039 31.6377 156.239 31.6377 156.239C31.6377 156.239 28.8777 152.919 30.3777 152.099C32.2377 151.069 35.1477 158.379 35.1477 158.379V158.389Z" fill="#FFEDA1"/>
<path d="M35.5877 158.1C33.8177 156.15 33.2677 156.51 33.2677 156.51C33.2877 157.1 34.0577 157.8 34.0577 157.8C33.0277 157.76 32.6277 158.08 32.6277 158.08C33.2877 158.51 34.1077 158.48 34.1077 158.48C32.8577 159.15 32.7677 159.84 32.7677 159.84C33.4077 159.72 35.5877 158.1 35.5877 158.1Z" fill="#8DC9A6"/>
<path d="M96.0647 103.658C95.6947 103.708 88.2947 100.818 89.0547 99.0583C89.8147 97.2983 93.2647 99.7283 93.2647 99.7283C93.2647 99.7283 91.6347 95.8383 93.1347 95.0783C94.6347 94.3183 95.5847 99.3383 95.5847 99.3383C95.5847 99.3383 96.5847 94.8983 98.2347 95.6083C100.295 96.4983 96.0647 103.648 96.0647 103.648V103.658Z" fill="#FFF8B3"/>
<path d="M96.5847 103.838C97.0747 101.098 96.4247 100.878 96.4247 100.878C95.9447 101.278 95.8647 102.368 95.8647 102.368C95.2347 101.478 94.7147 101.348 94.7147 101.348C94.7847 102.178 95.3347 102.838 95.3347 102.838C93.9747 102.218 93.3347 102.598 93.3347 102.598C93.8447 103.058 96.6047 103.828 96.6047 103.828" fill="#8DC9A6"/>
<path d="M168.66 123.08C168.19 123.37 156.38 124.02 156.32 121.17C156.26 118.32 162.44 119.49 162.44 119.49C162.44 119.49 157.82 115.22 159.4 113.27C160.98 111.31 165.35 117.54 165.35 117.54C165.35 117.54 163.96 110.9 166.64 110.85C169.98 110.79 168.66 123.09 168.66 123.09V123.08Z" fill="#FFF8B3"/>
<path d="M169.48 123.01C168.45 118.99 167.43 119.1 167.43 119.1C167.03 119.93 167.59 121.47 167.59 121.47C166.19 120.66 165.4 120.81 165.4 120.81C166 121.9 167.16 122.45 167.16 122.45C164.93 122.45 164.3 123.36 164.3 123.36C165.27 123.66 169.49 123.01 169.49 123.01" fill="#8DC9A6"/>
<path d="M207.101 85.5828C206.731 85.6328 199.321 82.8828 200.051 81.1128C200.781 79.3528 204.251 81.7128 204.251 81.7128C204.251 81.7128 202.561 77.8628 204.051 77.0828C205.541 76.3028 206.561 81.2928 206.561 81.2928C206.561 81.2928 207.481 76.8528 209.141 77.5428C211.211 78.3928 207.111 85.5828 207.111 85.5828H207.101Z" fill="#FFEDA1"/>
<path d="M207.621 85.7625C208.061 83.0225 207.411 82.8125 207.411 82.8125C206.941 83.2125 206.871 84.3125 206.871 84.3125C206.231 83.4425 205.701 83.3225 205.701 83.3225C205.781 84.1525 206.341 84.8025 206.341 84.8025C204.971 84.2125 204.341 84.5925 204.341 84.5925C204.851 85.0425 207.611 85.7625 207.611 85.7625" fill="#8DC9A6"/>
<path d="M177.329 177.981C176.946 178.106 168.541 176.428 169.02 174.416C169.499 172.403 173.62 174.339 173.62 174.339C173.62 174.339 171.147 170.515 172.614 169.422C174.071 168.339 176.016 173.486 176.016 173.486C176.016 173.486 176.237 168.579 178.125 169.029C180.483 169.585 177.329 177.981 177.329 177.981Z" fill="#FFF8B3"/>
<path d="M177.914 178.077C177.914 175.077 177.186 174.962 177.186 174.962C176.754 175.47 176.869 176.649 176.869 176.649C176.036 175.825 175.451 175.786 175.451 175.786C175.681 176.658 176.39 177.253 176.39 177.253C174.828 176.86 174.215 177.377 174.215 177.377C174.838 177.77 177.914 178.067 177.914 178.067" fill="#8DC9A6"/>
<g opacity="0.5">
<path d="M39.7267 102.785C38.5792 102.785 37.5161 103.156 36.6471 103.781C36.2337 101.376 34.1412 99.5537 31.6185 99.5537C28.9186 99.5537 26.708 101.655 26.5308 104.312C26.5308 104.312 26.5224 104.312 26.5139 104.312C24.0249 104.312 22 106.329 22 108.826C22 111.324 24.0165 113.34 26.5139 113.34H39.7267C42.6376 113.34 45 110.978 45 108.067C45 105.156 42.6376 102.794 39.7267 102.794V102.785ZM34.5293 108.961H34.3522C34.4028 108.928 34.4619 108.894 34.5125 108.86C34.5125 108.894 34.5209 108.928 34.5293 108.961Z" fill="#FFEFAE"/>
</g>
<g opacity="0.5">
<path d="M102.709 141.223C101.553 141.223 100.5 141.596 99.627 142.225C99.2161 139.824 97.1228 138 94.6058 138C91.8962 138 89.7002 140.106 89.5204 142.764C89.5204 142.764 89.5204 142.764 89.5075 142.764C87.0162 142.764 85 144.781 85 147.272C85 149.763 87.0162 151.779 89.5075 151.779H102.722C105.637 151.779 108 149.417 108 146.501C108 143.586 105.637 141.223 102.722 141.223H102.709ZM97.5209 147.4H97.3411C97.3411 147.4 97.4439 147.336 97.4953 147.298C97.4953 147.336 97.4953 147.362 97.5081 147.4H97.5209Z" fill="#FFEFAE"/>
</g>
<g opacity="0.5">
<path d="M147.44 62.2996C147.44 66.2196 150.62 69.3896 154.53 69.3896H172.29C175.64 69.3896 178.36 66.6696 178.36 63.3196C178.36 59.9696 175.64 57.2496 172.29 57.2496H172.27C172.03 53.6796 169.06 50.8496 165.43 50.8496C162.04 50.8496 159.23 53.3096 158.67 56.5396C157.5 55.6996 156.08 55.1996 154.53 55.1996C150.61 55.1996 147.44 58.3796 147.44 62.2896V62.2996ZM161.54 63.3796C161.61 63.4296 161.68 63.4696 161.75 63.5196H161.51C161.51 63.5196 161.52 63.4296 161.53 63.3796H161.54Z" fill="#FFEFAE"/>
</g>
<g opacity="0.5">
<path d="M331 51.1468C331 53.936 333.263 56.1915 336.045 56.1915H348.681C351.065 56.1915 353 54.2561 353 51.8726C353 49.489 351.065 47.5537 348.681 47.5537H348.667C348.496 45.0136 346.383 43 343.8 43C341.388 43 339.389 44.7503 338.99 47.0485C338.158 46.4508 337.147 46.0951 336.045 46.0951C333.255 46.0951 331 48.3577 331 51.1397V51.1468ZM341.032 51.9153C341.082 51.9508 341.132 51.9793 341.182 52.0149H341.011C341.011 52.0149 341.018 51.9508 341.025 51.9153H341.032Z" fill="#FFEFAE"/>
</g>
<g opacity="0.5">
<path d="M230 35.71C230 38.01 231.87 39.88 234.17 39.88H244.6C246.57 39.88 248.16 38.28 248.16 36.32C248.16 34.36 246.56 32.76 244.6 32.76C244.6 32.76 244.6 32.76 244.59 32.76C244.45 30.66 242.71 29 240.57 29C238.58 29 236.93 30.44 236.6 32.34C235.91 31.85 235.08 31.55 234.17 31.55C231.87 31.55 230 33.42 230 35.72V35.71ZM238.28 36.34C238.28 36.34 238.36 36.39 238.41 36.42H238.27C238.27 36.42 238.27 36.37 238.28 36.34Z" fill="#FFEFAE"/>
</g>
<path d="M363.36 176.721H221.13V274.001H363.36V176.721Z" fill="#FFF5E6"/>
<path d="M327.56 273.931L307.45 273.931C306.898 273.931 306.45 274.378 306.45 274.931L306.45 224.521C306.45 214.292 314.742 206.001 324.97 206.001C335.199 206.001 343.49 214.292 343.49 224.521L343.49 239.966L343.49 272.931C343.49 273.483 343.043 273.931 342.49 273.931L327.57 273.931L327.56 273.931Z" fill="#E9CCA8"/>
<path d="M286.61 224.561V186.891H235.71V224.561H286.61Z" fill="#FCEED9"/>
<path d="M287.19 225.141H235.12V186.311H287.19V225.141ZM236.29 223.981H286.03V187.471H236.29V223.981Z" fill="#FFDB92"/>
<path d="M260.637 187.696L260.565 225.446L261.725 225.449L261.797 187.699L260.637 187.696Z" fill="#FFDB92"/>
<path d="M245.84 197.061H238.78C238.636 197.061 238.52 197.177 238.52 197.321V205.631C238.52 205.774 238.636 205.891 238.78 205.891H245.84C245.984 205.891 246.1 205.774 246.1 205.631V197.321C246.1 197.177 245.984 197.061 245.84 197.061Z" fill="#FFD997"/>
<path d="M245.8 206.181H238.83C238.5 206.181 238.23 205.911 238.23 205.581V197.361C238.23 197.031 238.5 196.761 238.83 196.761H245.8C246.13 196.761 246.4 197.031 246.4 197.361V205.581C246.4 205.911 246.13 206.181 245.8 206.181ZM238.83 197.351V205.581L245.8 205.601C245.8 205.601 245.81 205.601 245.81 205.581V197.361L238.82 197.341L238.83 197.351Z" fill="#F7C75C"/>
<path d="M247.23 213.271H238.83C238.686 213.271 238.57 213.387 238.57 213.531V223.18C238.57 223.324 238.686 223.441 238.83 223.441H247.23C247.374 223.441 247.49 223.324 247.49 223.18V213.531C247.49 213.387 247.374 213.271 247.23 213.271Z" fill="#A7D1BA"/>
<path d="M247.19 223.731H238.88C238.55 223.731 238.28 223.461 238.28 223.131V213.571C238.28 213.241 238.55 212.971 238.88 212.971H247.19C247.52 212.971 247.79 213.241 247.79 213.571V223.131C247.79 223.461 247.52 223.731 247.19 223.731ZM238.88 213.561L238.86 223.141H247.18H247.19V213.581H238.87L238.88 213.561Z" fill="#60A582"/>
<path d="M254.97 213.431H253.15C253.056 213.431 252.98 213.507 252.98 213.601V223.271C252.98 223.365 253.056 223.441 253.15 223.441H254.97C255.064 223.441 255.14 223.365 255.14 223.271V213.601C255.14 213.507 255.064 213.431 254.97 213.431Z" fill="#A7D1BA"/>
<path d="M254.95 223.73H253.18C252.91 223.73 252.7 223.51 252.7 223.25V213.63C252.7 213.36 252.92 213.15 253.18 213.15H254.95C255.22 213.15 255.43 213.37 255.43 213.63V223.25C255.43 223.52 255.21 223.73 254.95 223.73ZM253.28 223.15H254.86V213.72H253.28V223.15Z" fill="#60A582"/>
<path d="M257.83 215.671H255.67V223.441H257.83V215.671Z" fill="#FFC697"/>
<path d="M257.83 223.731H255.67C255.51 223.731 255.38 223.601 255.38 223.441V215.671C255.38 215.511 255.51 215.381 255.67 215.381H257.83C257.99 215.381 258.12 215.511 258.12 215.671V223.441C258.12 223.601 257.99 223.731 257.83 223.731ZM255.96 223.151H257.54V215.961H255.96V223.151Z" fill="#F9A769"/>
<path d="M248.64 195.791H246.76C246.683 195.791 246.62 195.854 246.62 195.931V205.661C246.62 205.738 246.683 205.801 246.76 205.801H248.64C248.717 205.801 248.78 205.738 248.78 205.661V195.931C248.78 195.854 248.717 195.791 248.64 195.791Z" fill="#A7D1BA"/>
<path d="M248.62 206.091H246.79C246.54 206.091 246.34 205.891 246.34 205.641V195.961C246.34 195.711 246.54 195.511 246.79 195.511H248.62C248.87 195.511 249.08 195.711 249.08 195.961V205.641C249.08 205.891 248.88 206.091 248.62 206.091ZM246.92 205.511H248.5V196.081H246.92V205.511Z" fill="#60A582"/>
<path d="M251.47 198.03H249.31V205.8H251.47V198.03Z" fill="#FFC697"/>
<path d="M251.47 206.09H249.31C249.15 206.09 249.02 205.96 249.02 205.8V198.03C249.02 197.87 249.15 197.74 249.31 197.74H251.47C251.63 197.74 251.76 197.87 251.76 198.03V205.8C251.76 205.96 251.63 206.09 251.47 206.09ZM249.6 205.51H251.18V198.32H249.6V205.51Z" fill="#F9A769"/>
<path d="M266.796 198.864L265.188 198.198C265.081 198.154 264.958 198.205 264.914 198.312L262.257 204.734C262.212 204.841 262.263 204.964 262.37 205.008L263.978 205.674C264.085 205.718 264.208 205.667 264.253 205.56L266.91 199.138C266.954 199.031 266.903 198.908 266.796 198.864Z" fill="#A7D1BA"/>
<path d="M264.04 205.97C263.97 205.97 263.9 205.96 263.83 205.93L262.29 205.29C262.16 205.23 262.05 205.13 262 205C261.94 204.87 261.94 204.72 262 204.59L264.63 198.24C264.69 198.11 264.79 198 264.92 197.95C265.05 197.89 265.2 197.89 265.33 197.95L266.87 198.59C267.14 198.7 267.27 199.02 267.16 199.29L264.53 205.64C264.48 205.77 264.37 205.88 264.24 205.93C264.17 205.96 264.1 205.97 264.03 205.97H264.04ZM265.11 198.48L262.54 204.81L264.02 205.38L266.62 199.06L265.11 198.48Z" fill="#60A582"/>
<path d="M269.57 198.051H267.41V205.821H269.57V198.051Z" fill="#FFC697"/>
<path d="M269.56 206.111H267.4C267.24 206.111 267.11 205.981 267.11 205.821V198.051C267.11 197.891 267.24 197.761 267.4 197.761H269.56C269.72 197.761 269.85 197.891 269.85 198.051V205.821C269.85 205.981 269.72 206.111 269.56 206.111ZM267.69 205.531H269.27V198.341H267.69V205.531Z" fill="#F9A769"/>
<path d="M271.54 195.79H270.1V205.82H271.54V195.79Z" fill="#FFD997"/>
<path d="M271.53 206.11H270.09C269.93 206.11 269.8 205.98 269.8 205.82V195.79C269.8 195.63 269.93 195.5 270.09 195.5H271.53C271.69 195.5 271.82 195.63 271.82 195.79V205.82C271.82 205.98 271.69 206.11 271.53 206.11ZM270.39 205.53H271.24V196.08H270.39V205.53Z" fill="#F7C75C"/>
<path d="M250.93 216.211H243.37V223.441H250.93V216.211Z" fill="#FFC697"/>
<path d="M250.93 223.731H243.37C243.21 223.731 243.08 223.601 243.08 223.441V216.211C243.08 216.051 243.21 215.921 243.37 215.921H250.93C251.09 215.921 251.22 216.051 251.22 216.211V223.441C251.22 223.601 251.09 223.731 250.93 223.731ZM243.67 223.151H250.64V216.501H243.67V223.151Z" fill="#F9A769"/>
<path d="M286.61 206H235.71V207.16H286.61V206Z" fill="#FFDB92"/>
<path d="M310.54 213.04C310.27 213.37 310.01 213.72 309.77 214.07V274.02H310.54V213.03V213.04Z" fill="#B59A88"/>
<path d="M316.47 208.181C316.21 208.321 315.95 208.461 315.7 208.611V274.031H316.47V208.181Z" fill="#B59A88"/>
<path d="M322.4 206.271C322.14 206.311 321.88 206.341 321.63 206.391V274.001H322.4V206.271Z" fill="#B59A88"/>
<path d="M328.33 206.41C328.08 206.36 327.82 206.33 327.56 206.29V274.02H328.33V206.41Z" fill="#B59A88"/>
<path d="M334.26 208.611C334.01 208.461 333.75 208.321 333.49 208.181V274.031H334.26V208.611Z" fill="#B59A88"/>
<path d="M339.42 213.04V274.03H340.19V214.08C339.94 213.73 339.69 213.38 339.42 213.05V213.04Z" fill="#B59A88"/>
<path d="M289.21 226.571V223.931H232.84V226.571H289.21Z" fill="#FFD997"/>
<path d="M289.21 226.861H232.84C232.68 226.861 232.55 226.731 232.55 226.571V223.931C232.55 223.771 232.68 223.641 232.84 223.641H289.21C289.37 223.641 289.5 223.771 289.5 223.931V226.571C289.5 226.731 289.37 226.861 289.21 226.861ZM233.13 226.281H288.92V224.231H233.13V226.281Z" fill="#F7C75C"/>
<path d="M365.86 187.83H362.88V273.99H365.86V187.83Z" fill="#FFCD92"/>
<path d="M223.57 185.12H220.93V273.99H223.57V185.12Z" fill="#FFCD92"/>
<path d="M215.96 168.3L233.42 159.53H351.12L370 168.3" fill="#BFE2CE"/>
<path d="M215.96 168.381H370V183.991C370 186.751 367.76 188.991 365 188.991H222.57C218.92 188.991 215.96 186.031 215.96 182.381V168.381Z" fill="#8DC9A6"/>
<path d="M288.46 179.84C289.66 179.84 290.57 179.78 291.61 179.6L291.7 180.3C290.57 180.51 289.57 180.55 288.23 180.55H287.62V175.63H291.08V176.32H288.47V179.84H288.46ZM294.23 178.49H293.07V182.38H292.22V174.93H293.07V177.8H294.23V178.5V178.49Z" fill="white"/>
<path d="M299.31 178.87C298.19 179.07 297.22 179.11 295.79 179.11H295.19V176.87H297.71V176.03H295.17V175.35H298.55V177.52H296.02V178.43C297.3 178.43 298.19 178.38 299.21 178.19L299.3 178.88L299.31 178.87ZM295.81 179.82H300.7V182.37H299.85V180.5H295.81V179.82ZM301.75 177.48H300.7V179.45H299.85V174.93H300.7V176.78H301.75V177.48Z" fill="white"/>
<path d="M305.76 179.16C305.08 178.9 304.61 178.42 304.34 177.81C304.08 178.47 303.61 179 302.9 179.29L302.5 178.66C303.45 178.29 303.92 177.45 303.92 176.58V176.52H302.67V175.84H303.92V175H304.74V175.84H305.96V176.52H304.74V176.58C304.74 177.41 305.23 178.19 306.16 178.53L305.77 179.16H305.76ZM303.72 179.85H308.76V182.37H307.91V180.53H303.72V179.85ZM308.76 174.93V179.48H307.95V177.54H307.18V179.43H306.38V175.04H307.18V176.84H307.95V174.91H308.76V174.93Z" fill="white"/>
<path d="M313.8 178.86H310.29V175.4H311.14V176.43H312.96V175.4H313.8V178.86ZM315.92 180.96C315.92 181.85 314.97 182.38 313.44 182.38C311.91 182.38 310.96 181.85 310.96 180.96C310.96 180.07 311.91 179.54 313.44 179.54C314.97 179.54 315.92 180.07 315.92 180.96ZM312.96 177.1H311.14V178.19H312.96V177.1ZM315.08 180.96C315.08 180.48 314.48 180.22 313.44 180.22C312.4 180.22 311.8 180.48 311.8 180.96C311.8 181.44 312.4 181.71 313.44 181.71C314.48 181.71 315.08 181.45 315.08 180.96ZM316.89 176.74V177.44H315.84V179.37H314.99V174.93H315.84V176.74H316.89Z" fill="white"/>
<path d="M278.33 179.851H268.23C267.9 179.851 267.63 179.581 267.63 179.251V177.511C267.63 177.181 267.9 176.911 268.23 176.911H278.33V179.851Z" fill="#F9D395"/>
<path d="M278.39 179.911H268.33C267.91 179.911 267.57 179.571 267.57 179.151V177.611C267.57 177.191 267.91 176.851 268.33 176.851H278.39V179.901V179.911ZM268.33 176.971C267.98 176.971 267.69 177.261 267.69 177.611V179.151C267.69 179.501 267.98 179.791 268.33 179.791H278.28V176.971H268.33Z" fill="#F7C75C"/>
<path d="M275.16 179.38H283.77V177.39H275.16V179.38Z" fill="#FFFEF8"/>
<path d="M275.24 179.78H284.03V179.38H275.2V177.39H284.03V176.99H275.24C274.92 176.99 274.66 177.23 274.66 177.52V179.25C274.66 179.54 274.92 179.78 275.24 179.78Z" fill="#F9E2AF"/>
<path d="M284.08 179.841H275.24C274.89 179.841 274.61 179.571 274.61 179.251V177.521C274.61 177.191 274.89 176.931 275.24 176.931H284.08V177.461H275.25V179.331H284.08V179.861V179.841ZM275.24 177.051C274.95 177.051 274.71 177.261 274.71 177.521V179.251C274.71 179.511 274.95 179.721 275.24 179.721H283.98V179.451H275.15V177.331H283.98V177.061H275.24V177.051Z" fill="#F7C75C"/>
<path d="M282.8 176.86H267.83V174.07H282.8C283.66 174.04 283.72 174.48 283.72 174.99V175.94C283.72 176.86 283.31 176.86 282.8 176.86Z" fill="#A7D1BA"/>
<path d="M283.18 176.92H267.78V174H283.18C283.51 174 283.77 174.33 283.77 174.74V176.18C283.77 176.59 283.5 176.92 283.18 176.92ZM267.88 176.79H283.18C283.45 176.79 283.67 176.52 283.67 176.18V174.74C283.67 174.4 283.45 174.13 283.18 174.13H267.88V176.8V176.79Z" fill="#6B9980"/>
<path d="M275.92 174.471H267.63V176.461H275.92V174.471Z" fill="#FFFEF8"/>
<path d="M275.92 174.07H267.32V174.47H275.95V176.46H267.32V176.86H275.92C276.23 176.86 276.49 176.62 276.49 176.33V174.6C276.49 174.31 276.24 174.07 275.92 174.07Z" fill="#99CEB3"/>
<path d="M275.92 176.92H267.27V176.39H275.9V174.52H267.27V173.99H275.92C276.26 173.99 276.54 174.26 276.54 174.58V176.31C276.54 176.64 276.26 176.9 275.92 176.9V176.92ZM267.37 176.79H275.92C276.21 176.79 276.44 176.58 276.44 176.32V174.59C276.44 174.33 276.21 174.12 275.92 174.12H267.37V174.39H276V176.51H267.37V176.78V176.79Z" fill="#6B9980"/>
<path d="M275.9 175.4H267.63V175.53H275.9V175.4Z" fill="#FFEFD9"/>
<path d="M275.9 174.641H267.63V174.771H275.9V174.641Z" fill="#FFEFD9"/>
<path d="M283.77 179.08H275.25V179.21H283.77V179.08Z" fill="#FFEFD9"/>
<path d="M275.91 176.101H267.63V176.231H275.91V176.101Z" fill="#FFEFD9"/>
<path d="M283.77 178.32H275.26V178.45H283.77V178.32Z" fill="#FFEFD9"/>
<path d="M283.77 177.561H275.25V177.691H283.77V177.561Z" fill="#FFEFD9"/>
<path d="M278.18 177.62V178.46L278.72 178.19L279.21 178.46V177.62H278.18Z" fill="#F9E2AF"/>
<path d="M278.18 178.52C278.18 178.52 278.16 178.52 278.15 178.51C278.14 178.5 278.13 178.48 278.13 178.46V177.63C278.13 177.63 278.15 177.57 278.18 177.57H279.21C279.21 177.57 279.26 177.6 279.26 177.63V178.46C279.26 178.46 279.26 178.5 279.24 178.51C279.23 178.52 279.21 178.52 279.19 178.51L278.73 178.25L278.2 178.51C278.2 178.51 278.19 178.51 278.18 178.51V178.52ZM278.23 177.69V178.37L278.71 178.13C278.71 178.13 278.74 178.13 278.75 178.13L279.16 178.36V177.69H278.23Z" fill="#F7C75C"/>
<path d="M279.45 177.69H278.22C278.22 177.69 278.17 177.66 278.17 177.63C278.17 177.6 278.19 177.57 278.22 177.57H279.45C279.45 177.57 279.5 177.6 279.5 177.63C279.5 177.66 279.48 177.69 279.45 177.69Z" fill="#F7C75C"/>
<path d="M282.72 182.7H267.73V179.91H282.72C283.58 179.9 283.62 180.31 283.62 180.81V181.81C283.62 182.31 283.22 182.71 282.72 182.71V182.7Z" fill="#A7D1BA"/>
<path d="M283.08 182.76H267.68V179.84H283.08C283.41 179.84 283.67 180.17 283.67 180.58V182.02C283.67 182.43 283.4 182.76 283.08 182.76ZM267.78 182.63H283.08C283.35 182.63 283.57 182.36 283.57 182.02V180.58C283.57 180.24 283.35 179.97 283.08 179.97H267.78V182.64V182.63Z" fill="#6B9980"/>
<path d="M275.82 180.311H267.53V182.301H275.82V180.311Z" fill="#FFFEF8"/>
<path d="M275.82 179.91H267.22V180.31H275.85V182.3H267.22V182.7H275.82C276.13 182.7 276.39 182.46 276.39 182.17V180.44C276.39 180.15 276.14 179.91 275.82 179.91Z" fill="#99CEB3"/>
<path d="M275.82 182.76H267.17V182.23H275.8V180.36H267.17V179.83H275.82C276.16 179.83 276.44 180.1 276.44 180.42V182.15C276.44 182.48 276.16 182.74 275.82 182.74V182.76ZM267.27 182.63H275.82C276.11 182.63 276.34 182.42 276.34 182.16V180.43C276.34 180.17 276.11 179.96 275.82 179.96H267.27V180.23H275.9V182.35H267.27V182.62V182.63Z" fill="#6B9980"/>
<path d="M275.8 181.24H267.53V181.37H275.8V181.24Z" fill="#FFEFD9"/>
<path d="M275.8 180.48H267.53V180.61H275.8V180.48Z" fill="#FFEFD9"/>
<path d="M275.81 182H267.53V182.13H275.81V182Z" fill="#FFEFD9"/>
<path d="M271.48 180.54H271.96V181.48L271.72 181.73L271.48 181.48V180.54Z" fill="#60B28D"/>
<path d="M272.13 180.6H271.52C271.52 180.6 271.47 180.57 271.47 180.54C271.47 180.51 271.49 180.48 271.52 180.48H272.13C272.13 180.48 272.18 180.51 272.18 180.54C272.18 180.57 272.16 180.6 272.13 180.6Z" fill="#60A582"/>
<path d="M243 153.601L242.91 98.2107L291.79 55.9307L343.32 100.761L344.16 153.601H243Z" fill="#FFF5E6"/>
<path d="M244.8 99H241.79V153.6H244.8V99Z" fill="#FFCD92"/>
<path d="M346.07 99H343.06V153.6H346.07V99Z" fill="#FFCD92"/>
<path d="M355.11 105.13L296.82 54.0404L296.83 54.0304L293.02 50.6904L230.95 105.1L234.76 108.44L293.02 57.3704L351.3 108.47L355.11 105.13Z" fill="#8DC9A6"/>
<path d="M209.59 252.631H224.97L229.98 262.651C229.98 262.651 225.67 270.471 224.71 274.031H208.63C208.63 274.031 204.63 263.621 204.06 263.001C204.06 263.001 208.63 255.971 209.6 252.631H209.59Z" fill="#CCB6A3"/>
<path d="M213.97 252.631C213.97 252.631 207.14 220.901 208.55 214.471C208.55 214.471 216.8 238.721 216.27 252.631H213.97Z" fill="#619B78"/>
<path d="M216.09 252.63C216.09 252.63 218.24 223.77 222.49 215.4C222.49 215.4 221.88 246.76 218.67 252.63H216.09Z" fill="#83CCA1"/>
<path d="M217.64 252.631C217.64 252.631 225.71 225.351 231.32 220.591C231.32 220.591 227.41 240.721 220.14 252.631H217.63H217.64Z" fill="#83CCA1"/>
<path d="M212.82 252.631C212.82 252.631 206.27 239.491 206.93 229.171C206.93 229.171 214.59 243.021 215.38 252.631H212.82Z" fill="#7EBC97"/>
<path d="M219.29 252.63C219.29 252.63 223.61 239.37 231 234.07C231 234.07 228.42 245.6 221.58 252.63H219.3H219.29Z" fill="#7EBC97"/>
<path d="M215.26 252.63C215.26 252.63 213.87 227.72 218.04 219.53C218.04 219.53 219.5 239.45 216.89 252.63H215.26Z" fill="#7EBC97"/>
<path d="M216.74 252.631C216.74 252.631 220.76 230.811 226.12 226.501C226.12 226.501 222.8 245.431 219.3 252.631H216.74Z" fill="#619B78"/>
<path d="M210 268.35H206.64C206.58 268.35 206.52 268.3 206.52 268.23C206.52 268.16 206.57 268.11 206.64 268.11H210C210.06 268.11 210.12 268.16 210.12 268.23C210.12 268.3 210.07 268.35 210 268.35Z" fill="#BF9C8A"/>
<path d="M214.51 268.35H211.15C211.09 268.35 211.03 268.3 211.03 268.23C211.03 268.16 211.08 268.11 211.15 268.11H214.51C214.57 268.11 214.63 268.16 214.63 268.23C214.63 268.3 214.58 268.35 214.51 268.35Z" fill="#BF9C8A"/>
<path d="M219.01 268.35H215.65C215.59 268.35 215.53 268.3 215.53 268.23C215.53 268.16 215.58 268.11 215.65 268.11H219.01C219.07 268.11 219.13 268.16 219.13 268.23C219.13 268.3 219.08 268.35 219.01 268.35Z" fill="#BF9C8A"/>
<path d="M223.43 268.35H220.07C220.01 268.35 219.95 268.3 219.95 268.23C219.95 268.16 220 268.11 220.07 268.11H223.43C223.49 268.11 223.55 268.16 223.55 268.23C223.55 268.3 223.5 268.35 223.43 268.35Z" fill="#BF9C8A"/>
<path d="M208.36 264.27H205C204.94 264.27 204.88 264.22 204.88 264.15C204.88 264.08 204.93 264.03 205 264.03H208.36C208.42 264.03 208.48 264.08 208.48 264.15C208.48 264.22 208.43 264.27 208.36 264.27Z" fill="#BF9C8A"/>
<path d="M212.86 264.27H209.5C209.44 264.27 209.38 264.22 209.38 264.15C209.38 264.08 209.43 264.03 209.5 264.03H212.86C212.92 264.03 212.98 264.08 212.98 264.15C212.98 264.22 212.93 264.27 212.86 264.27Z" fill="#BF9C8A"/>
<path d="M217.36 264.27H214C213.94 264.27 213.88 264.22 213.88 264.15C213.88 264.08 213.93 264.03 214 264.03H217.36C217.42 264.03 217.48 264.08 217.48 264.15C217.48 264.22 217.43 264.27 217.36 264.27Z" fill="#BF9C8A"/>
<path d="M221.78 264.27H218.42C218.36 264.27 218.3 264.22 218.3 264.15C218.3 264.08 218.35 264.03 218.42 264.03H221.78C221.84 264.03 221.9 264.08 221.9 264.15C221.9 264.22 221.85 264.27 221.78 264.27Z" fill="#BF9C8A"/>
<path d="M226.03 264.27H222.67C222.61 264.27 222.55 264.22 222.55 264.15C222.55 264.08 222.6 264.03 222.67 264.03H226.03C226.09 264.03 226.15 264.08 226.15 264.15C226.15 264.22 226.1 264.27 226.03 264.27Z" fill="#BF9C8A"/>
<path d="M209.34 260.211H205.98C205.92 260.211 205.86 260.161 205.86 260.091C205.86 260.021 205.91 259.971 205.98 259.971H209.34C209.4 259.971 209.46 260.021 209.46 260.091C209.46 260.161 209.41 260.211 209.34 260.211Z" fill="#BF9C8A"/>
<path d="M213.85 260.211H210.49C210.43 260.211 210.37 260.161 210.37 260.091C210.37 260.021 210.42 259.971 210.49 259.971H213.85C213.91 259.971 213.97 260.021 213.97 260.091C213.97 260.161 213.92 260.211 213.85 260.211Z" fill="#BF9C8A"/>
<path d="M218.35 260.211H214.99C214.93 260.211 214.87 260.161 214.87 260.091C214.87 260.021 214.92 259.971 214.99 259.971H218.35C218.41 259.971 218.47 260.021 218.47 260.091C218.47 260.161 218.42 260.211 218.35 260.211Z" fill="#BF9C8A"/>
<path d="M222.77 260.211H219.41C219.35 260.211 219.29 260.161 219.29 260.091C219.29 260.021 219.34 259.971 219.41 259.971H222.77C222.83 259.971 222.89 260.021 222.89 260.091C222.89 260.161 222.84 260.211 222.77 260.211Z" fill="#BF9C8A"/>
<path d="M227.02 260.211H223.66C223.6 260.211 223.54 260.161 223.54 260.091C223.54 260.021 223.59 259.971 223.66 259.971H227.02C227.08 259.971 227.14 260.021 227.14 260.091C227.14 260.161 227.09 260.211 227.02 260.211Z" fill="#BF9C8A"/>
<path d="M209.96 257.971H207.09C207.05 258.041 207.01 258.111 206.97 258.181C206.99 258.181 207.01 258.201 207.03 258.201H209.97C210.03 258.201 210.09 258.151 210.09 258.081C210.09 258.011 210.04 257.961 209.97 257.961L209.96 257.971Z" fill="#BF9C8A"/>
<path d="M214.46 258.201H211.1C211.04 258.201 210.98 258.151 210.98 258.081C210.98 258.011 211.03 257.961 211.1 257.961H214.46C214.52 257.961 214.58 258.011 214.58 258.081C214.58 258.151 214.53 258.201 214.46 258.201Z" fill="#BF9C8A"/>
<path d="M218.96 258.201H215.6C215.54 258.201 215.48 258.151 215.48 258.081C215.48 258.011 215.53 257.961 215.6 257.961H218.96C219.02 257.961 219.08 258.011 219.08 258.081C219.08 258.151 219.03 258.201 218.96 258.201Z" fill="#BF9C8A"/>
<path d="M223.38 258.201H220.02C219.96 258.201 219.9 258.151 219.9 258.081C219.9 258.011 219.95 257.961 220.02 257.961H223.38C223.44 257.961 223.5 258.011 223.5 258.081C223.5 258.151 223.45 258.201 223.38 258.201Z" fill="#BF9C8A"/>
<path d="M211.11 256.47H208.17C208.11 256.47 208.05 256.42 208.05 256.35C208.05 256.28 208.1 256.23 208.17 256.23H211.11C211.17 256.23 211.23 256.28 211.23 256.35C211.23 256.42 211.18 256.47 211.11 256.47Z" fill="#BF9C8A"/>
<path d="M215.62 256.47H212.26C212.2 256.47 212.14 256.42 212.14 256.35C212.14 256.28 212.19 256.23 212.26 256.23H215.62C215.68 256.23 215.74 256.28 215.74 256.35C215.74 256.42 215.69 256.47 215.62 256.47Z" fill="#BF9C8A"/>
<path d="M220.12 256.47H216.76C216.7 256.47 216.64 256.42 216.64 256.35C216.64 256.28 216.69 256.23 216.76 256.23H220.12C220.18 256.23 220.24 256.28 220.24 256.35C220.24 256.42 220.19 256.47 220.12 256.47Z" fill="#BF9C8A"/>
<path d="M224.53 256.47H221.17C221.11 256.47 221.05 256.42 221.05 256.35C221.05 256.28 221.1 256.23 221.17 256.23H224.53C224.59 256.23 224.65 256.28 224.65 256.35C224.65 256.42 224.6 256.47 224.53 256.47Z" fill="#BF9C8A"/>
<path d="M212.26 254.611H209.32C209.26 254.611 209.2 254.561 209.2 254.491C209.2 254.421 209.25 254.371 209.32 254.371H212.26C212.32 254.371 212.38 254.421 212.38 254.491C212.38 254.561 212.33 254.611 212.26 254.611Z" fill="#BF9C8A"/>
<path d="M216.76 254.611H213.4C213.34 254.611 213.28 254.561 213.28 254.491C213.28 254.421 213.33 254.371 213.4 254.371H216.76C216.82 254.371 216.88 254.421 216.88 254.491C216.88 254.561 216.83 254.611 216.76 254.611Z" fill="#BF9C8A"/>
<path d="M221.26 254.611H217.9C217.84 254.611 217.78 254.561 217.78 254.491C217.78 254.421 217.83 254.371 217.9 254.371H221.26C221.32 254.371 221.38 254.421 221.38 254.491C221.38 254.561 221.33 254.611 221.26 254.611Z" fill="#BF9C8A"/>
<path d="M225.68 254.611H222.32C222.26 254.611 222.2 254.561 222.2 254.491C222.2 254.421 222.25 254.371 222.32 254.371H225.68C225.74 254.371 225.8 254.421 225.8 254.491C225.8 254.561 225.75 254.611 225.68 254.611Z" fill="#BF9C8A"/>
<path d="M225.78 256.47H226.83C226.83 256.47 226.87 256.47 226.89 256.45L226.78 256.24H225.78C225.72 256.24 225.66 256.29 225.66 256.36C225.66 256.43 225.71 256.48 225.78 256.48V256.47Z" fill="#BF9C8A"/>
<path d="M227.63 258.201H224.27C224.21 258.201 224.15 258.151 224.15 258.081C224.15 258.011 224.2 257.961 224.27 257.961H227.63C227.69 257.961 227.75 258.011 227.75 258.081C227.75 258.151 227.7 258.201 227.63 258.201Z" fill="#BF9C8A"/>
<path d="M228.09 260.21H228.7C228.7 260.21 228.74 260.21 228.75 260.2L228.64 259.98H228.08C228.02 259.98 227.96 260.03 227.96 260.1C227.96 260.17 228.01 260.22 228.08 260.22L228.09 260.21Z" fill="#BF9C8A"/>
<path d="M211.85 262.291H208.49C208.43 262.291 208.37 262.241 208.37 262.171C208.37 262.101 208.42 262.051 208.49 262.051H211.85C211.91 262.051 211.97 262.101 211.97 262.171C211.97 262.241 211.92 262.291 211.85 262.291Z" fill="#BF9C8A"/>
<path d="M207.3 262.291H204.68C204.62 262.291 204.56 262.241 204.56 262.171C204.56 262.101 204.61 262.051 204.68 262.051H207.3C207.36 262.051 207.42 262.101 207.42 262.171C207.42 262.241 207.37 262.291 207.3 262.291Z" fill="#BF9C8A"/>
<path d="M216.36 262.291H213C212.94 262.291 212.88 262.241 212.88 262.171C212.88 262.101 212.93 262.051 213 262.051H216.36C216.42 262.051 216.48 262.101 216.48 262.171C216.48 262.241 216.43 262.291 216.36 262.291Z" fill="#BF9C8A"/>
<path d="M220.86 262.291H217.5C217.44 262.291 217.38 262.241 217.38 262.171C217.38 262.101 217.43 262.051 217.5 262.051H220.86C220.92 262.051 220.98 262.101 220.98 262.171C220.98 262.241 220.93 262.291 220.86 262.291Z" fill="#BF9C8A"/>
<path d="M225.27 262.291H221.91C221.85 262.291 221.79 262.241 221.79 262.171C221.79 262.101 221.84 262.051 221.91 262.051H225.27C225.33 262.051 225.39 262.101 225.39 262.171C225.39 262.241 225.34 262.291 225.27 262.291Z" fill="#BF9C8A"/>
<path d="M229.52 262.291H226.16C226.1 262.291 226.04 262.241 226.04 262.171C226.04 262.101 226.09 262.051 226.16 262.051H229.52C229.58 262.051 229.64 262.101 229.64 262.171C229.64 262.241 229.59 262.291 229.52 262.291Z" fill="#BF9C8A"/>
<path d="M229.08 264.27H227.09C227.03 264.27 226.97 264.22 226.97 264.15C226.97 264.08 227.02 264.03 227.09 264.03H229.08C229.14 264.03 229.2 264.08 229.2 264.15C229.2 264.22 229.15 264.27 229.08 264.27Z" fill="#BF9C8A"/>
<path d="M214.48 266.31H211.12C211.06 266.31 211 266.26 211 266.19C211 266.12 211.05 266.07 211.12 266.07H214.48C214.54 266.07 214.6 266.12 214.6 266.19C214.6 266.26 214.55 266.31 214.48 266.31Z" fill="#BF9C8A"/>
<path d="M210.04 266.31H206.68C206.62 266.31 206.56 266.26 206.56 266.19C206.56 266.12 206.61 266.07 206.68 266.07H210.04C210.1 266.07 210.16 266.12 210.16 266.19C210.16 266.26 210.11 266.31 210.04 266.31Z" fill="#BF9C8A"/>
<path d="M218.99 266.31H215.63C215.57 266.31 215.51 266.26 215.51 266.19C215.51 266.12 215.56 266.07 215.63 266.07H218.99C219.05 266.07 219.11 266.12 219.11 266.19C219.11 266.26 219.06 266.31 218.99 266.31Z" fill="#BF9C8A"/>
<path d="M223.49 266.31H220.13C220.07 266.31 220.01 266.26 220.01 266.19C220.01 266.12 220.06 266.07 220.13 266.07H223.49C223.55 266.07 223.61 266.12 223.61 266.19C223.61 266.26 223.56 266.31 223.49 266.31Z" fill="#BF9C8A"/>
<path d="M227.9 266.31H224.54C224.48 266.31 224.42 266.26 224.42 266.19C224.42 266.12 224.47 266.07 224.54 266.07H227.9C227.96 266.07 228.02 266.12 228.02 266.19C228.02 266.26 227.97 266.31 227.9 266.31Z" fill="#BF9C8A"/>
<path d="M226.99 268.35H224.56C224.5 268.35 224.44 268.3 224.44 268.23C224.44 268.16 224.49 268.11 224.56 268.11H226.99C227.05 268.11 227.11 268.16 227.11 268.23C227.11 268.3 227.06 268.35 226.99 268.35Z" fill="#BF9C8A"/>
<path d="M212.47 270.251H209.11C209.05 270.251 208.99 270.201 208.99 270.131C208.99 270.061 209.04 270.011 209.11 270.011H212.47C212.53 270.011 212.59 270.061 212.59 270.131C212.59 270.201 212.54 270.251 212.47 270.251Z" fill="#BF9C8A"/>
<path d="M208.1 270.39H207.25C207.19 270.39 207.13 270.34 207.13 270.27C207.13 270.2 207.18 270.15 207.25 270.15H208.1C208.16 270.15 208.22 270.2 208.22 270.27C208.22 270.34 208.17 270.39 208.1 270.39Z" fill="#BF9C8A"/>
<path d="M216.98 270.251H213.62C213.56 270.251 213.5 270.201 213.5 270.131C213.5 270.061 213.55 270.011 213.62 270.011H216.98C217.04 270.011 217.1 270.061 217.1 270.131C217.1 270.201 217.05 270.251 216.98 270.251Z" fill="#BF9C8A"/>
<path d="M221.48 270.251H218.12C218.06 270.251 218 270.201 218 270.131C218 270.061 218.05 270.011 218.12 270.011H221.48C221.54 270.011 221.6 270.061 221.6 270.131C221.6 270.201 221.55 270.251 221.48 270.251Z" fill="#BF9C8A"/>
<path d="M225.89 270.251H222.53C222.47 270.251 222.41 270.201 222.41 270.131C222.41 270.061 222.46 270.011 222.53 270.011H225.89C225.95 270.011 226.01 270.061 226.01 270.131C226.01 270.201 225.96 270.251 225.89 270.251Z" fill="#BF9C8A"/>
<path d="M211.61 272.341H208.25C208.19 272.341 208.13 272.291 208.13 272.221C208.13 272.151 208.18 272.101 208.25 272.101H211.61C211.67 272.101 211.73 272.151 211.73 272.221C211.73 272.291 211.68 272.341 211.61 272.341Z" fill="#BF9C8A"/>
<path d="M216.12 272.341H212.76C212.7 272.341 212.64 272.291 212.64 272.221C212.64 272.151 212.69 272.101 212.76 272.101H216.12C216.18 272.101 216.24 272.151 216.24 272.221C216.24 272.291 216.19 272.341 216.12 272.341Z" fill="#BF9C8A"/>
<path d="M220.62 272.341H217.26C217.2 272.341 217.14 272.291 217.14 272.221C217.14 272.151 217.19 272.101 217.26 272.101H220.62C220.68 272.101 220.74 272.151 220.74 272.221C220.74 272.291 220.69 272.341 220.62 272.341Z" fill="#BF9C8A"/>
<path d="M225.03 272.341H221.67C221.61 272.341 221.55 272.291 221.55 272.221C221.55 272.151 221.6 272.101 221.67 272.101H225.03C225.09 272.101 225.15 272.151 225.15 272.221C225.15 272.291 225.1 272.341 225.03 272.341Z" fill="#BF9C8A"/>
<path d="M272.58 215.08H282.42C282.42 215.08 282.43 217.81 281.72 220.37C280.5 224.71 275.48 225.19 273.69 221.13C273.07 219.73 272.62 217.78 272.59 215.08H272.58Z" fill="#FFC697"/>
<path d="M277.55 224.01C275.88 224.01 274.38 222.94 273.6 221.17C272.89 219.56 272.52 217.51 272.49 215.08C272.49 215.05 272.49 215.03 272.52 215.01C272.55 214.99 272.56 214.98 272.59 214.98H282.43C282.48 214.98 282.52 215.02 282.52 215.07C282.52 215.1 282.52 217.85 281.81 220.39C281.22 222.48 279.7 223.86 277.83 223.99C277.74 223.99 277.64 223.99 277.55 223.99V224.01ZM272.68 215.17C272.71 217.53 273.08 219.52 273.77 221.09C274.56 222.89 276.12 223.94 277.82 223.81C279.6 223.68 281.06 222.35 281.63 220.34C282.26 218.09 282.32 215.67 282.33 215.17H272.68Z" fill="#F9A769"/>
<path d="M268.25 258.451C267.02 249.041 263.56 221.191 271.6 215.121C273.12 214.011 275.24 214.111 276.82 215.031C275.1 214.111 272.87 214.151 271.39 215.491C264.2 221.861 267.4 248.961 268.24 258.451H268.25Z" fill="#60A582"/>
<path d="M266.81 229.971C266.81 229.971 264.1 232.181 264.02 234.141C264.02 234.141 266.03 232.911 266.81 229.971Z" fill="#A7D1BA"/>
<path d="M267.2 225.511C267.2 225.511 264.33 227.601 264.13 229.471C264.13 229.471 266.22 228.391 267.2 225.511Z" fill="#A7D1BA"/>
<path d="M267.24 225.57C267.24 225.57 269.66 228.17 269.51 230.04C269.51 230.04 267.66 228.58 267.24 225.57Z" fill="#A7D1BA"/>
<path d="M266.81 230.101C266.81 230.101 268.92 232.361 268.79 234.001C268.79 234.001 267.18 232.731 266.81 230.101Z" fill="#A7D1BA"/>
<path d="M272.16 234.24C272.16 234.24 274.79 235.87 275.09 237.48C275.09 237.48 273.2 236.67 272.16 234.24Z" fill="#A7D1BA"/>
<path d="M272.25 237.2C272.25 237.2 274.13 239.14 274.04 240.57C274.04 240.57 272.61 239.49 272.25 237.2Z" fill="#A7D1BA"/>
<path d="M272.49 244.37C272.49 244.37 273.6 246.83 274.96 247.28C274.96 247.28 274.48 245.55 272.49 244.37Z" fill="#A7D1BA"/>
<path d="M267.99 221.57C267.99 221.57 264.83 223.19 264.34 225.01C264.34 225.01 266.58 224.27 267.99 221.57Z" fill="#A7D1BA"/>
<path d="M268.96 225.75C268.96 225.75 269.15 222.79 268.06 221.66C268.06 221.66 267.64 223.58 268.96 225.75Z" fill="#A7D1BA"/>
<path d="M265.9 218.21C265.9 218.21 267.83 215.89 270.4 216.23C270.4 216.23 268.87 217.52 265.9 218.21Z" fill="#A7D1BA"/>
<path d="M270.57 216.25C270.57 216.25 272.09 218.55 271.12 220.72C271.12 220.72 270.39 219.04 270.57 216.25Z" fill="#A7D1BA"/>
<path d="M274.6 215.15C274.6 215.15 275.86 217.05 275.05 218.84C275.05 218.84 274.45 217.45 274.6 215.15Z" fill="#A7D1BA"/>
<path d="M264.49 220.85C264.49 220.85 266.42 218.53 268.99 218.87C268.99 218.87 267.46 220.16 264.49 220.85Z" fill="#A7D1BA"/>
<path d="M268.95 218.84C268.95 218.84 270.1 220.92 269.12 222.7C269.12 222.7 268.61 221.21 268.95 218.84Z" fill="#A7D1BA"/>
<path d="M272.74 222.261C272.74 222.261 274.68 223.631 274.57 225.671C274.57 225.671 273.46 224.551 272.74 222.261Z" fill="#A7D1BA"/>
<path d="M273.06 219.2C273.06 219.2 274.8 220.82 274.43 222.82C274.43 222.82 273.48 221.57 273.06 219.2Z" fill="#A7D1BA"/>
<path d="M277.34 215.101C277.34 215.101 279.28 216.531 279.61 218.051C279.61 218.051 278.39 217.161 277.34 215.101Z" fill="#A7D1BA"/>
<path d="M277.32 219.75C277.32 219.75 278.88 221.48 278.69 223.37C278.69 223.37 277.74 222.12 277.32 219.75Z" fill="#A7D1BA"/>
<path d="M277.41 217.5C277.41 217.5 279.15 219.12 278.78 221.12C278.78 221.12 278.25 219.86 277.41 217.5Z" fill="#A7D1BA"/>
<path d="M278.83 218.19C278.83 218.19 280.94 218.38 281.78 220.01C281.78 220.01 280.43 219.64 278.83 218.19Z" fill="#A7D1BA"/>
<path d="M279.94 220.391C279.94 220.391 281.9 221.191 282.22 222.991C282.22 222.991 281.03 222.241 279.94 220.391Z" fill="#A7D1BA"/>
<path d="M281.15 229.73C281.15 229.73 282.91 230.27 283.34 231.8C283.34 231.8 282.25 231.25 281.15 229.73Z" fill="#A7D1BA"/>
<path d="M281.55 232.38C281.55 232.38 283.18 233.23 283.31 234.82C283.31 234.82 282.34 234.07 281.55 232.38Z" fill="#A7D1BA"/>
<path d="M281.76 239.601C281.76 239.601 283.01 240.251 283.11 241.471C283.11 241.471 282.37 240.901 281.76 239.601Z" fill="#A7D1BA"/>
<path d="M281.76 244.63C281.76 244.63 283.07 245.66 283.13 247.67C283.13 247.67 282.36 246.76 281.76 244.63Z" fill="#A7D1BA"/>
<path d="M281.38 247.15C281.38 247.15 282.67 248 282.75 249.64C282.75 249.64 281.99 248.89 281.38 247.15Z" fill="#A7D1BA"/>
<path d="M281.44 249.4C281.44 249.4 282.83 250.07 283.13 251.68C283.13 251.68 282.27 251.04 281.44 249.4Z" fill="#A7D1BA"/>
<path d="M278.51 216.391C278.51 216.391 280.34 216.591 281.03 218.011C281.03 218.011 279.86 217.671 278.51 216.391Z" fill="#A7D1BA"/>
<path d="M282.87 215.63C282.87 215.63 284.67 216.02 285.21 217.51C285.21 217.51 284.08 217.05 282.87 215.63Z" fill="#A7D1BA"/>
<path d="M284.04 218.03C284.04 218.03 285.71 218.8 285.93 220.36C285.93 220.36 284.92 219.67 284.04 218.03Z" fill="#A7D1BA"/>
<path d="M284.85 224.34C284.85 224.34 286.52 225.11 286.74 226.67C286.74 226.67 285.73 225.98 284.85 224.34Z" fill="#A7D1BA"/>
<path d="M284.84 226.65C284.84 226.65 286.81 227.76 287.07 230.09C287.07 230.09 285.88 229.08 284.84 226.65Z" fill="#A7D1BA"/>
<path d="M284.31 241.82C284.31 241.82 286.28 242.93 286.54 245.26C286.54 245.26 285.35 244.25 284.31 241.82Z" fill="#A7D1BA"/>
<path d="M284.98 232.36C284.98 232.36 286.43 233.3 286.61 235.28C286.61 235.28 285.74 234.42 284.98 232.36Z" fill="#A7D1BA"/>
<path d="M276.9 222.71C276.9 222.71 278.4 223.51 278.51 224.97C278.51 224.97 277.62 224.28 276.9 222.71Z" fill="#A7D1BA"/>
<path d="M276.14 228.34C276.14 228.34 277.99 229.32 278.12 231.12C278.12 231.12 277.03 230.27 276.14 228.34Z" fill="#A7D1BA"/>
<path d="M276.41 233.95C276.41 233.95 278.26 234.93 278.39 236.73C278.39 236.73 277.3 235.88 276.41 233.95Z" fill="#A7D1BA"/>
<path d="M273.06 219.391C273.06 219.391 271.01 220.581 270.93 222.621C270.93 222.621 272.13 221.611 273.06 219.391Z" fill="#A7D1BA"/>
<path d="M277.38 217.391C277.38 217.391 275.59 218.271 275.41 219.981C275.41 219.981 276.48 219.201 277.38 217.391Z" fill="#A7D1BA"/>
<path d="M277.29 219.42C277.29 219.42 275.37 220.5 275.28 222.33C275.28 222.33 276.41 221.42 277.29 219.42Z" fill="#A7D1BA"/>
<path d="M279.83 221C279.83 221 279.03 222.99 279.64 224.53C279.64 224.53 280.13 223.16 279.83 221Z" fill="#A7D1BA"/>
<path d="M280.97 227.63C280.97 227.63 279.26 229.02 279.48 230.83C279.48 230.83 280.44 229.74 280.97 227.63Z" fill="#A7D1BA"/>
<path d="M284.82 230.16C284.82 230.16 283.73 230.79 283.69 231.84C283.69 231.84 284.33 231.31 284.82 230.16Z" fill="#A7D1BA"/>
<path d="M284.68 235.931C284.68 235.931 283.08 236.861 283.03 238.391C283.03 238.391 283.97 237.611 284.68 235.931Z" fill="#A7D1BA"/>
<path d="M284.68 237.84C284.68 237.84 283.08 238.77 283.03 240.3C283.03 240.3 283.97 239.52 284.68 237.84Z" fill="#A7D1BA"/>
<path d="M281.52 232.721C281.52 232.721 279.67 233.701 279.55 235.431C279.55 235.431 280.64 234.591 281.52 232.721Z" fill="#A7D1BA"/>
<path d="M281.67 239.181C281.67 239.181 279.82 240.161 279.7 241.891C279.7 241.891 280.79 241.051 281.67 239.181Z" fill="#A7D1BA"/>
<path d="M281.74 241.63C281.74 241.63 280.05 242.53 279.93 244.11C279.93 244.11 280.93 243.34 281.74 241.63Z" fill="#A7D1BA"/>
<path d="M281.28 249.761C281.28 249.761 279.97 250.451 279.89 251.681C279.89 251.681 280.66 251.091 281.28 249.761Z" fill="#A7D1BA"/>
<path d="M276.88 222.471C276.88 222.471 274.96 223.551 274.87 225.381C274.87 225.381 276 224.471 276.88 222.471Z" fill="#A7D1BA"/>
<path d="M272.25 226.811C272.25 226.811 270.2 228.001 270.12 230.041C270.12 230.041 271.32 229.031 272.25 226.811Z" fill="#A7D1BA"/>
<path d="M276.14 228.58C276.14 228.58 274.63 229.45 274.58 230.95C274.58 230.95 275.46 230.21 276.14 228.58Z" fill="#A7D1BA"/>
<path d="M276.16 233.851C276.16 233.851 274.79 234.921 274.94 236.411C274.94 236.411 275.71 235.551 276.16 233.851Z" fill="#A7D1BA"/>
<path d="M272.36 244.37C272.36 244.37 270.31 245.56 270.23 247.6C270.23 247.6 271.43 246.59 272.36 244.37Z" fill="#A7D1BA"/>
<path d="M277.74 248.65C277.74 248.65 275.69 249.84 275.61 251.88C275.61 251.88 276.81 250.87 277.74 248.65Z" fill="#A7D1BA"/>
<path d="M277.8 251.561C277.8 251.561 275.97 252.131 275.55 253.721C275.55 253.721 276.68 253.141 277.8 251.561Z" fill="#A7D1BA"/>
<path d="M277.67 254.061C277.67 254.061 275.7 254.761 275.22 256.651C275.22 256.651 276.44 255.951 277.67 254.061Z" fill="#A7D1BA"/>
<path d="M277.44 256.891C277.44 256.891 275.47 257.591 274.99 259.481C274.99 259.481 276.21 258.781 277.44 256.891Z" fill="#A7D1BA"/>
<path d="M272.11 230.25C272.11 230.25 269.35 231.86 269.24 234.6C269.24 234.6 270.86 233.24 272.11 230.25Z" fill="#A7D1BA"/>
<path d="M272.32 240.33C272.32 240.33 269.81 241.79 269.72 244.28C269.72 244.28 271.19 243.04 272.32 240.33Z" fill="#A7D1BA"/>
<path d="M266.73 240.82C266.73 240.82 268.97 241.61 269.42 243.6C269.42 243.6 268.05 242.83 266.73 240.82Z" fill="#A7D1BA"/>
<path d="M267.29 250.641C267.29 250.641 269.53 251.431 269.98 253.421C269.98 253.421 268.61 252.651 267.29 250.641Z" fill="#A7D1BA"/>
<path d="M267.01 245.021C267.01 245.021 269.25 245.811 269.7 247.801C269.7 247.801 268.33 247.031 267.01 245.021Z" fill="#A7D1BA"/>
<path d="M266.73 236.851C266.73 236.851 264.43 239.691 264.59 241.631C264.59 241.631 266.42 240.041 266.73 236.851Z" fill="#A7D1BA"/>
<path d="M266.64 233.761C266.64 233.761 264.31 235.311 264.74 236.611C264.74 236.611 266.12 235.771 266.64 233.761Z" fill="#A7D1BA"/>
<path d="M267.49 250.9C267.49 250.9 265.46 252.81 266.08 254.06C266.08 254.06 267.29 253.01 267.49 250.9Z" fill="#A7D1BA"/>
<path d="M267.63 254.351C267.63 254.351 266 255.881 266.5 256.881C266.5 256.881 267.47 256.041 267.63 254.351Z" fill="#A7D1BA"/>
<path d="M267.95 256.891C267.95 256.891 265.93 258.791 266.55 260.031C266.55 260.031 267.75 258.981 267.95 256.891Z" fill="#A7D1BA"/>
<path d="M266.97 244.95C266.97 244.95 264.64 246.5 265.07 247.8C265.07 247.8 266.45 246.96 266.97 244.95Z" fill="#A7D1BA"/>
<path d="M267 248.09C267 248.09 266.9 250.89 265.56 251.2C265.56 251.2 265.56 249.59 267 248.09Z" fill="#A7D1BA"/>
<path d="M268.18 257.101C268.18 257.101 269.67 258.031 269.42 258.851C269.42 258.851 268.55 258.351 268.18 257.101Z" fill="#A7D1BA"/>
<path d="M266.69 240.82C266.69 240.82 264.7 242.34 265.12 243.54C265.12 243.54 266.29 242.71 266.69 240.82Z" fill="#A7D1BA"/>
<path d="M266.69 233.95C266.69 233.95 269.64 234.21 268.93 237.64C268.93 237.64 268.72 236.01 266.69 233.95Z" fill="#A7D1BA"/>
<path d="M274.48 215.28C274.48 215.28 271.53 215.54 272.24 218.97C272.24 218.97 272.45 217.34 274.48 215.28Z" fill="#A7D1BA"/>
<path d="M272.11 234.141C272.11 234.141 269.16 234.401 269.87 237.831C269.87 237.831 270.08 236.201 272.11 234.141Z" fill="#A7D1BA"/>
<path d="M277.4 241.301C277.4 241.301 275.06 241.891 275.34 245.991C275.34 245.991 275.53 243.921 277.4 241.301Z" fill="#A7D1BA"/>
<path d="M276.46 224.971C276.46 224.971 274.1 225.181 274.66 227.921C274.66 227.921 274.82 226.621 276.46 224.971Z" fill="#A7D1BA"/>
<path d="M280.56 223.84C280.56 223.84 278.57 225.13 280.36 227.29C280.36 227.29 279.9 226.06 280.56 223.84Z" fill="#A7D1BA"/>
<path d="M282.64 215.15C282.64 215.15 280.39 215.9 281.58 218.44C281.58 218.44 281.44 217.14 282.64 215.15Z" fill="#A7D1BA"/>
<path d="M283.87 217.771C283.87 217.771 281.62 218.521 282.81 221.061C282.81 221.061 282.67 219.761 283.87 217.771Z" fill="#A7D1BA"/>
<path d="M284.92 224.261C284.92 224.261 282.55 224.241 282.85 227.031C282.85 227.031 283.14 225.751 284.92 224.261Z" fill="#A7D1BA"/>
<path d="M284.32 220.25C284.32 220.25 282.34 220.94 283.21 224.2C283.21 224.2 282.89 223.25 284.32 220.25Z" fill="#A7D1BA"/>
<path d="M284.85 226.681C284.85 226.681 282.89 226.961 283.17 230.001C283.17 230.001 283.33 228.531 284.85 226.681Z" fill="#A7D1BA"/>
<path d="M284.85 232.29C284.85 232.29 283.08 232.54 283.34 235.28C283.34 235.28 283.49 233.96 284.85 232.29Z" fill="#A7D1BA"/>
<path d="M284.57 239.99C284.57 239.99 282.79 239.88 282.48 242.6C282.48 242.6 282.89 241.34 284.57 239.99Z" fill="#A7D1BA"/>
<path d="M284.26 241.94C284.26 241.94 282.96 242.6 283.33 244.43C283.33 244.43 283.4 243.33 284.26 241.94Z" fill="#A7D1BA"/>
<path d="M281.28 230.391C281.28 230.391 279.51 230.651 280.02 233.311C280.02 233.311 280.1 232.041 281.28 230.391Z" fill="#A7D1BA"/>
<path d="M281.59 235.931C281.59 235.931 279.8 235.931 279.92 238.641C279.92 238.641 280.19 237.391 281.59 235.931Z" fill="#A7D1BA"/>
<path d="M281.59 243.95C281.59 243.95 279.8 243.95 279.92 246.66C279.92 246.66 280.19 245.41 281.59 243.95Z" fill="#A7D1BA"/>
<path d="M281.59 246.92C281.59 246.92 279.8 246.92 279.92 249.63C279.92 249.63 280.19 248.38 281.59 246.92Z" fill="#A7D1BA"/>
<path d="M276.37 236.04C276.37 236.04 274.15 236.87 275.43 239.36C275.43 239.36 275.24 238.06 276.37 236.04Z" fill="#A7D1BA"/>
<path d="M276.06 231.12C276.06 231.12 274.12 231.29 274.58 233.54C274.58 233.54 274.72 232.47 276.06 231.12Z" fill="#A7D1BA"/>
<path d="M277.09 238.61C277.09 238.61 275.15 238.78 275.61 241.03C275.61 241.03 275.75 239.96 277.09 238.61Z" fill="#A7D1BA"/>
<path d="M277.67 244.95C277.67 244.95 275.3 245.75 276.6 248.65C276.6 248.65 276.43 247.17 277.67 244.95Z" fill="#A7D1BA"/>
<path d="M272.16 226.351C272.16 226.351 275.11 226.611 274.4 230.041C274.4 230.041 274.19 228.411 272.16 226.351Z" fill="#A7D1BA"/>
<path d="M276.39 225.34C276.39 225.34 279.34 225.6 278.63 229.03C278.63 229.03 278.42 227.4 276.39 225.34Z" fill="#A7D1BA"/>
<path d="M280.5 223.37C280.5 223.37 283.12 223.6 282.49 226.64C282.49 226.64 282.31 225.2 280.5 223.37Z" fill="#A7D1BA"/>
<path d="M284.75 229.48C284.75 229.48 286.79 229.66 286.3 232.03C286.3 232.03 286.16 230.9 284.75 229.48Z" fill="#A7D1BA"/>
<path d="M284.57 237.601C284.57 237.601 286.75 237.791 286.23 240.331C286.23 240.331 286.08 239.131 284.57 237.601Z" fill="#A7D1BA"/>
<path d="M284.75 234.971C284.75 234.971 287.08 235.161 286.53 237.721C286.53 237.721 286.7 236.411 284.75 234.971Z" fill="#A7D1BA"/>
<path d="M284.41 240.11C284.41 240.11 287.32 240.35 286.63 243.53C286.63 243.53 286.84 241.89 284.41 240.11Z" fill="#A7D1BA"/>
<path d="M280.89 226.811C280.89 226.811 283.51 227.041 282.88 230.081C282.88 230.081 282.7 228.641 280.89 226.811Z" fill="#A7D1BA"/>
<path d="M281.55 236.08C281.55 236.08 283.4 236.24 282.96 238.4C282.96 238.4 282.83 237.38 281.55 236.08Z" fill="#A7D1BA"/>
<path d="M284.48 221.471C284.48 221.471 284.43 223.331 286.62 223.141C286.62 223.141 285.62 222.891 284.48 221.471Z" fill="#A7D1BA"/>
<path d="M281.61 241.96C281.61 241.96 283.44 242.26 282.84 244.37C282.84 244.37 282.79 243.34 281.61 241.96Z" fill="#A7D1BA"/>
<path d="M277.5 242.46C277.5 242.46 277.69 244.53 280.01 244.46C280.01 244.46 278.83 244.16 277.5 242.46Z" fill="#A7D1BA"/>
<path d="M280.68 247.821C280.68 247.821 278.68 248.741 277.87 246.261C277.87 246.261 278.6 247.241 280.68 247.821Z" fill="#A7D1BA"/>
<path d="M276.66 236.41C276.66 236.41 279.29 236.59 278.66 239.03C278.66 239.03 278.48 237.87 276.66 236.41Z" fill="#A7D1BA"/>
<path d="M277.71 249.33C277.71 249.33 280.38 249.7 280.13 252.5C280.13 252.5 279.91 251.1 277.71 249.33Z" fill="#A7D1BA"/>
<path d="M277.74 251.69C277.74 251.69 280.62 252.17 279.87 255.11C279.87 255.11 279.94 253.46 277.74 251.69Z" fill="#A7D1BA"/>
<path d="M276.11 231.011C276.11 231.011 278.11 231.181 277.63 233.511C277.63 233.511 277.49 232.411 276.11 231.011Z" fill="#A7D1BA"/>
<path d="M277.16 239.37C277.16 239.37 279.01 239.68 279.28 241.96C279.28 241.96 278.54 240.77 277.16 239.37Z" fill="#A7D1BA"/>
<path d="M277.28 257.48C277.28 257.48 279.32 258.38 278.8 260.93C278.8 260.93 278.43 259.3 277.28 257.48Z" fill="#A7D1BA"/>
<path d="M277.71 254.811C277.71 254.811 279.56 255.121 279.83 257.401C279.83 257.401 279.09 256.211 277.71 254.811Z" fill="#A7D1BA"/>
<path d="M272.11 230.04C272.11 230.04 274.9 230.34 274.23 234.32C274.23 234.32 274.03 232.43 272.11 230.04Z" fill="#A7D1BA"/>
<path d="M272.16 240.49C272.16 240.49 274.52 240.74 273.96 244.11C273.96 244.11 273.8 242.51 272.16 240.49Z" fill="#A7D1BA"/>
<path d="M272.59 246.931C272.59 246.931 274.93 246.531 275.31 249.921C275.31 249.921 274.71 248.431 272.59 246.931Z" fill="#A7D1BA"/>
<path d="M272.7 249.19C272.7 249.19 274.6 249.17 274.46 251.91C274.46 251.91 274.18 250.65 272.7 249.19Z" fill="#A7D1BA"/>
<path d="M272.59 246.801C272.59 246.801 270.06 247.691 271.45 250.551C271.45 250.551 271.26 249.071 272.59 246.801Z" fill="#A7D1BA"/>
<path d="M272.74 249.811C272.74 249.811 270.21 250.701 271.6 253.561C271.6 253.561 271.41 252.081 272.74 249.811Z" fill="#A7D1BA"/>
<path d="M272.36 237.4C272.36 237.4 269.41 237.66 270.12 241.09C270.12 241.09 270.33 239.46 272.36 237.4Z" fill="#A7D1BA"/>
<path d="M269.24 225.731C269.24 225.731 271.71 226.661 272.47 223.641C272.47 223.641 271.68 224.871 269.24 225.731Z" fill="#A7D1BA"/>
<path d="M266.54 237.13C266.54 237.13 269.92 237.43 269.11 241.36C269.11 241.36 269.16 239.43 266.54 237.13Z" fill="#A7D1BA"/>
<path d="M267 247.801C267 247.801 270.07 248.071 269.66 251.491C269.65 251.581 269.52 251.591 269.5 251.501C269.33 250.771 268.79 249.371 267 247.801Z" fill="#A7D1BA"/>
<path d="M267.63 254.061C267.63 254.061 270.22 254.291 269.61 257.301C269.61 257.301 269.64 255.821 267.63 254.061Z" fill="#A7D1BA"/>
<path d="M277.98 215.02C272.53 209.85 272.39 227.68 272.34 230.36C272.21 236.94 272.52 243.51 272.77 250.08C272.21 243.52 271.87 236.94 271.96 230.35C272.03 227.06 272.19 223.76 272.71 220.49C273.05 218.67 273.39 216.78 274.38 215.19C275.33 213.62 276.84 213.62 277.97 215.02H277.98Z" fill="#60A582"/>
<path d="M277.26 215.15C277.86 218.07 277.16 221.07 276.68 223.95C276.36 225.88 276.16 227.84 276.22 229.8C276.27 231.26 276.45 232.75 276.51 234.22C276.59 235.7 276.92 237.12 277.16 238.59C278.33 246.36 278.51 254.48 276.23 262.07C278.2 254.43 277.99 246.39 276.79 238.65C276.56 237.2 276.23 235.73 276.16 234.25C276.11 232.76 275.93 231.31 275.89 229.82C275.84 227.84 276.09 225.86 276.44 223.92C276.96 221.04 277.75 218.09 277.25 215.16L277.26 215.15Z" fill="#60A582"/>
<path d="M277.26 215.15C279.03 217.52 279.77 220.54 280.43 223.39C281.93 230.64 281.98 238.13 281.63 245.5L281.32 249.92L281.45 245.49C281.6 238.13 281.51 230.7 280.15 223.45C279.88 222.05 279.52 220.53 279.08 219.17C278.64 217.78 278.11 216.36 277.26 215.16V215.15Z" fill="#60A582"/>
<path d="M278.58 215.1C280.39 213.14 282.34 213.87 283.3 216.17C283.99 217.68 284.31 219.37 284.55 221.01C285.41 227.93 284.97 234.97 284.33 241.89C284.55 236.6 284.8 231.29 284.6 225.99C284.48 222.95 283.98 210.47 278.59 215.09L278.58 215.1Z" fill="#60A582"/>
<path d="M289.5 85.5002L297.74 84.9102C302.5 86.0002 311.67 93.3102 311.67 101V121.86H275.97V99.5002C279.5 88.0002 288.15 86.0901 289.5 85.5002Z" fill="#FCEED9"/>
<path d="M312.3 122.49H275.34V102.76C275.34 92.5703 283.63 84.2803 293.82 84.2803C304.01 84.2803 312.3 92.5703 312.3 102.76V122.49ZM276.6 121.23H311.04V102.76C311.04 93.2703 303.32 85.5403 293.82 85.5403C284.32 85.5403 276.6 93.2603 276.6 102.76V121.23Z" fill="#FFDB92"/>
<path d="M314.23 118.631H273.41V122.331H314.23V118.631Z" fill="#FFD997"/>
<path d="M314.23 122.591H273.41C273.24 122.591 273.09 122.481 273.09 122.341V118.641C273.09 118.501 273.23 118.391 273.41 118.391H314.23C314.4 118.391 314.55 118.501 314.55 118.641V122.341C314.55 122.481 314.41 122.591 314.23 122.591ZM273.72 122.081H313.91V118.881H273.72V122.081Z" fill="#F7C75C"/>
<path d="M301.8 109.741L300.618 109.251C300.51 109.207 300.388 109.258 300.343 109.365L297.051 117.321C297.007 117.428 297.058 117.551 297.165 117.595L298.348 118.084C298.455 118.129 298.578 118.078 298.622 117.971L301.914 110.015C301.958 109.908 301.908 109.785 301.8 109.741Z" fill="#A7D1BA"/>
<path d="M298.39 118.4C298.32 118.4 298.24 118.39 298.17 118.36L297.09 117.91C296.79 117.79 296.65 117.44 296.77 117.15L300.02 109.3C300.14 109 300.48 108.86 300.78 108.98L301.86 109.43C302.16 109.55 302.3 109.9 302.18 110.19L298.93 118.04C298.84 118.26 298.62 118.4 298.39 118.4ZM300.54 109.56L297.35 117.38L298.36 117.75L301.59 109.94L300.54 109.56Z" fill="#60A582"/>
<path d="M305.19 108.671H302.54V118.191H305.19V108.671Z" fill="#FFD997"/>
<path d="M305.19 118.511H302.54C302.37 118.511 302.22 118.371 302.22 118.191V108.671C302.22 108.501 302.36 108.351 302.54 108.351H305.19C305.36 108.351 305.51 108.491 305.51 108.671V118.191C305.51 118.361 305.37 118.511 305.19 118.511ZM302.86 117.881H304.87V108.991H302.86V117.881Z" fill="#F7C75C"/>
<path d="M307.6 105.9H305.84V118.2H307.6V105.9Z" fill="#FFC697"/>
<path d="M307.6 118.51H305.84C305.67 118.51 305.52 118.37 305.52 118.19V105.89C305.52 105.72 305.66 105.57 305.84 105.57H307.6C307.77 105.57 307.92 105.71 307.92 105.89V118.19C307.92 118.36 307.78 118.51 307.6 118.51ZM306.16 117.88H307.29V106.22H306.16V117.88Z" fill="#F9A769"/>
<path d="M290.04 115.671V113.021H278.28V115.671H290.04Z" fill="#FFC697"/>
<path d="M290.04 115.99H278.28C278.11 115.99 277.96 115.85 277.96 115.67V113.02C277.96 112.85 278.1 112.7 278.28 112.7H290.04C290.21 112.7 290.36 112.84 290.36 113.02V115.67C290.36 115.84 290.22 115.99 290.04 115.99ZM278.59 115.36H289.72V113.35H278.59V115.36Z" fill="#F9A769"/>
<path d="M290.57 118.08V116.32H278.27V118.08H290.57Z" fill="#A7D1BA"/>
<path d="M290.89 118.401H277.96V116.011H290.89V118.401ZM278.59 117.771H290.25V116.641H278.59V117.771Z" fill="#60A582"/>
<path d="M288.83 112.369V110.609H278.28V112.369H288.83Z" fill="#A7D1BA"/>
<path d="M289.14 112.69H277.96V110.3H289.14V112.69ZM278.59 112.06H288.51V110.93H278.59V112.06Z" fill="#60A582"/>
<path d="M294.45 85.2607H293.19V118.431H294.45V85.2607Z" fill="#FFDB92"/>
<g opacity="0.8">
<path d="M259.24 111.021H252.44V113.081H259.24V111.021Z" fill="#FFC67B"/>
</g>
<g opacity="0.8">
<path d="M263 113.08H256.2V115.14H263V113.08Z" fill="#FFDAA9"/>
</g>
<g opacity="0.8">
<path d="M296.84 73.3809H290.04V75.4409H296.84V73.3809Z" fill="#FFC67B"/>
</g>
<g opacity="0.8">
<path d="M300.59 75.4404H293.79V77.5004H300.59V75.4404Z" fill="#FFDAA9"/>
</g>
<g opacity="0.8">
<path d="M337.12 199.771H330.32V201.831H337.12V199.771Z" fill="#FFC67B"/>
</g>
<g opacity="0.8">
<path d="M340.52 197.71H333.72V199.77H340.52V197.71Z" fill="#FFDAA9"/>
</g>
<g opacity="0.8">
<path d="M330.45 125.271H323.65V127.331H330.45V125.271Z" fill="#FFC67B"/>
</g>
<g opacity="0.8">
<path d="M334.21 123.21H327.41V125.27H334.21V123.21Z" fill="#FFDAA9"/>
</g>
<g opacity="0.8">
<path d="M336.36 127.33H329.56V129.39H336.36V127.33Z" fill="#FFDAA9"/>
</g>
<g opacity="0.8">
<path d="M243.48 239.79H236.68V241.85H243.48V239.79Z" fill="#FFC67B"/>
</g>
<g opacity="0.8">
<path d="M247.24 237.73H240.44V239.79H247.24V237.73Z" fill="#FFDAA9"/>
</g>
<g opacity="0.8">
<path d="M249.39 241.851H242.59V243.911H249.39V241.851Z" fill="#FFDAA9"/>
</g>
<path d="M239.27 154.18C238.95 154.18 238.69 153.92 238.69 153.6V135.91C238.69 135.59 238.95 135.33 239.27 135.33H348.76C349.08 135.33 349.34 135.59 349.34 135.91C349.34 136.23 349.08 136.49 348.76 136.49H239.85V153.6C239.85 153.92 239.59 154.18 239.27 154.18Z" fill="#CCB6A3"/>
<path d="M249.04 154.18C248.72 154.18 248.46 153.92 248.46 153.6V136.2C248.46 135.88 248.72 135.62 249.04 135.62C249.36 135.62 249.62 135.88 249.62 136.2V153.6C249.62 153.92 249.36 154.18 249.04 154.18Z" fill="#CCB6A3"/>
<path d="M259.01 154.18C258.69 154.18 258.43 153.92 258.43 153.6V136.2C258.43 135.88 258.69 135.62 259.01 135.62C259.33 135.62 259.59 135.88 259.59 136.2V153.6C259.59 153.92 259.33 154.18 259.01 154.18Z" fill="#CCB6A3"/>
<path d="M268.98 154.18C268.66 154.18 268.4 153.92 268.4 153.6V136.2C268.4 135.88 268.66 135.62 268.98 135.62C269.3 135.62 269.56 135.88 269.56 136.2V153.6C269.56 153.92 269.3 154.18 268.98 154.18Z" fill="#CCB6A3"/>
<path d="M278.95 154.18C278.63 154.18 278.37 153.92 278.37 153.6V136.2C278.37 135.88 278.63 135.62 278.95 135.62C279.27 135.62 279.53 135.88 279.53 136.2V153.6C279.53 153.92 279.27 154.18 278.95 154.18Z" fill="#CCB6A3"/>
<path d="M288.93 154.18C288.61 154.18 288.35 153.92 288.35 153.6V136.2C288.35 135.88 288.61 135.62 288.93 135.62C289.25 135.62 289.51 135.88 289.51 136.2V153.6C289.51 153.92 289.25 154.18 288.93 154.18Z" fill="#CCB6A3"/>
<path d="M298.9 154.18C298.58 154.18 298.32 153.92 298.32 153.6V136.2C298.32 135.88 298.58 135.62 298.9 135.62C299.22 135.62 299.48 135.88 299.48 136.2V153.6C299.48 153.92 299.22 154.18 298.9 154.18Z" fill="#CCB6A3"/>
<path d="M308.87 154.18C308.55 154.18 308.29 153.92 308.29 153.6V136.2C308.29 135.88 308.55 135.62 308.87 135.62C309.19 135.62 309.45 135.88 309.45 136.2V153.6C309.45 153.92 309.19 154.18 308.87 154.18Z" fill="#CCB6A3"/>
<path d="M318.84 154.18C318.52 154.18 318.26 153.92 318.26 153.6V136.2C318.26 135.88 318.52 135.62 318.84 135.62C319.16 135.62 319.42 135.88 319.42 136.2V153.6C319.42 153.92 319.16 154.18 318.84 154.18Z" fill="#CCB6A3"/>
<path d="M328.82 154.18C328.5 154.18 328.24 153.92 328.24 153.6V136.2C328.24 135.88 328.5 135.62 328.82 135.62C329.14 135.62 329.4 135.88 329.4 136.2V153.6C329.4 153.92 329.14 154.18 328.82 154.18Z" fill="#CCB6A3"/>
<path d="M338.79 154.18C338.47 154.18 338.21 153.92 338.21 153.6V136.2C338.21 135.88 338.47 135.62 338.79 135.62C339.11 135.62 339.37 135.88 339.37 136.2V153.6C339.37 153.92 339.11 154.18 338.79 154.18Z" fill="#CCB6A3"/>
<path d="M348.76 154.18C348.44 154.18 348.18 153.92 348.18 153.6V136.2C348.18 135.88 348.44 135.62 348.76 135.62C349.08 135.62 349.34 135.88 349.34 136.2V153.6C349.34 153.92 349.08 154.18 348.76 154.18Z" fill="#CCB6A3"/>
<path d="M351.14 153.58H233.37V159.54H351.14V153.58Z" fill="#8DC9A6"/>
<path d="M355.51 264.3C355.62 264.08 355.78 258.65 354.7 258.65C353.62 258.65 354.11 261.48 354.11 261.48C354.11 261.48 352.47 259.39 351.74 260.14C351.01 260.89 353.39 262.84 353.39 262.84C353.39 262.84 350.88 262.26 350.88 263.49C350.88 265.03 355.5 264.31 355.5 264.31L355.51 264.3Z" fill="#FFC697"/>
<path d="M356.22 274C356.29 274 356.35 273.94 356.35 273.87C356.35 273.52 356.24 265.33 355.48 264.33C355.44 264.27 355.36 264.26 355.3 264.31C355.24 264.35 355.23 264.44 355.28 264.49C355.87 265.26 356.07 271.52 356.09 273.87C356.09 273.94 356.15 274 356.22 274Z" fill="#A5816D"/>
<path d="M356.29 274C356.29 274 358.49 270.39 357.03 268.96C357.03 268.96 355.51 269.93 356.29 274Z" fill="#8DC9A6"/>
<path d="M356.3 274.001C356.3 274.001 352.38 274.291 351.88 272.421C351.88 272.421 353.35 271.551 356.3 274.001Z" fill="#8DC9A6"/>
<path d="M356.3 274C356.3 274 355.6 269.81 353.58 269.73C353.58 269.73 353.07 271.49 356.3 274Z" fill="#A7D1BA"/>
<path d="M355.49 264.68C355.49 264.68 355.71 262.74 355.58 262.29C355.58 262.29 355.24 262.59 355.26 263.61C355.26 263.61 355.05 263.08 354.63 262.81C354.63 262.81 354.58 263.18 354.9 263.81C354.9 263.81 354.32 263.57 354.01 263.76C354.01 263.76 353.98 264.23 355.5 264.67" fill="#A5816D"/>
<path d="M248.62 263.451C248.5 263.211 248.33 257.301 249.5 257.301C250.67 257.301 250.14 260.381 250.14 260.381C250.14 260.381 251.92 258.111 252.71 258.921C253.5 259.731 250.92 261.861 250.92 261.861C250.92 261.861 253.65 261.231 253.65 262.571C253.65 264.241 248.62 263.471 248.62 263.471V263.451Z" fill="#FFC697"/>
<path d="M247.85 274C247.77 274 247.71 273.93 247.71 273.86C247.71 273.48 247.83 264.57 248.66 263.49C248.71 263.43 248.79 263.42 248.85 263.47C248.91 263.52 248.92 263.611 248.87 263.671C248.23 264.501 248.01 271.32 247.98 273.87C247.98 273.95 247.92 274.011 247.84 274.011L247.85 274Z" fill="#A5816D"/>
<path d="M247.78 274.001C247.78 274.001 245.38 270.071 246.97 268.521C246.97 268.521 248.63 269.571 247.78 274.001Z" fill="#8DC9A6"/>
<path d="M247.77 274.001C247.77 274.001 252.04 274.311 252.58 272.291C252.58 272.291 250.98 271.351 247.77 274.001Z" fill="#8DC9A6"/>
<path d="M247.77 274C247.77 274 248.53 269.44 250.73 269.36C250.73 269.36 251.28 271.27 247.77 274Z" fill="#A7D1BA"/>
<path d="M248.64 263.861C248.64 263.861 248.41 261.751 248.54 261.261C248.54 261.261 248.91 261.591 248.89 262.701C248.89 262.701 249.12 262.131 249.58 261.831C249.58 261.831 249.64 262.231 249.29 262.921C249.29 262.921 249.93 262.661 250.26 262.861C250.26 262.861 250.29 263.371 248.64 263.851" fill="#A5816D"/>
<path d="M256.4 257.491C256.65 257.341 259.85 252.011 258.53 251.291C257.21 250.571 256.25 253.721 256.25 253.721C256.25 253.721 255.4 250.531 254.1 250.781C252.8 251.031 254.63 254.591 254.63 254.591C254.63 254.591 251.89 252.321 251.21 253.551C250.36 255.091 256.4 257.491 256.4 257.491Z" fill="#FFC697"/>
<path d="M256.17 257.85C254.56 256.39 254.85 255.94 254.85 255.94C255.33 255.96 255.91 256.59 255.91 256.59C255.87 255.74 256.14 255.41 256.14 255.41C256.5 255.96 256.47 256.63 256.47 256.63C257.02 255.6 257.6 255.52 257.6 255.52C257.5 256.05 256.17 257.85 256.17 257.85Z" fill="#A5816D"/>
<path d="M256.21 274H256.2C256.12 274 256.06 273.92 256.07 273.85C256.07 273.73 257.03 261.38 255.98 257.58C255.96 257.5 256 257.42 256.08 257.4C256.16 257.37 256.23 257.42 256.26 257.5C257.32 261.35 256.4 273.36 256.36 273.87C256.36 273.94 256.29 274 256.22 274H256.21Z" fill="#A5816D"/>
<path d="M256.19 274.001C256.19 274.001 251.22 269.861 252.69 267.091C252.69 267.091 255.4 267.751 256.19 274.001Z" fill="#8DC9A6"/>
<path d="M256.16 274.001C256.16 274.001 257.27 267.501 260.47 267.381C260.47 267.381 261.27 270.111 256.16 274.001Z" fill="#A7D1BA"/>
<path d="M312.45 245C313.279 245 313.95 244.328 313.95 243.5C313.95 242.672 313.279 242 312.45 242C311.622 242 310.95 242.672 310.95 243.5C310.95 244.328 311.622 245 312.45 245Z" fill="#AA8770"/>
<path d="M343.51 271.261H306.47V274.001H343.51V271.261Z" fill="#B59A88"/>
<path d="M306.46 274C306.46 274 302.64 274.1 302.21 272.29C302.21 272.29 303.67 271.53 306.46 274Z" fill="#8DC9A6"/>
<path d="M306.46 274.001C306.46 274.001 309.03 271.481 308.09 270.021C308.09 270.021 306.62 270.501 306.46 274.001Z" fill="#8DC9A6"/>
<path d="M306.46 274C306.46 274 303.21 271.99 303.84 270.25C303.84 270.25 305.48 270.41 306.46 274Z" fill="#A7D1BA"/>
<path d="M343.51 274C343.51 274 347.26 273.45 347.37 271.61C347.37 271.61 345.81 271.11 343.51 274Z" fill="#8DC9A6"/>
<path d="M343.51 274C343.51 274 343.27 270.22 345.05 269.73C345.05 269.73 345.86 271.15 343.51 274Z" fill="#A7D1BA"/>
<path d="M98.073 38.1948C97.8367 38.4839 90.4561 41.423 89.8102 39.618C89.1642 37.813 93.3442 37.2339 93.3442 37.2339C93.3442 37.2339 89.4977 35.5037 90.0752 33.9244C90.6526 32.3451 94.7735 35.3653 94.7735 35.3653C94.7735 35.3653 92.4736 31.438 94.1641 30.8306C96.277 30.0749 98.0662 38.1875 98.0662 38.1875L98.073 38.1948Z" fill="#FFF8B3"/>
<path d="M98.576 37.9712C97.0638 35.6343 96.4386 35.9172 96.4386 35.9172C96.3609 36.5372 97.0464 37.3883 97.0464 37.3883C95.9785 37.1679 95.5097 37.4279 95.5097 37.4279C96.1274 37.9867 96.9799 38.0936 96.9799 38.0936C95.5628 38.5688 95.3545 39.2834 95.3545 39.2834C96.0412 39.2714 98.5838 37.9502 98.5838 37.9502" fill="#8DC9A6"/>
<path d="M33.7676 24.5203C33.4627 24.5985 26.981 22.9052 27.4446 21.3565C27.9082 19.8078 31.0364 21.5039 31.0364 21.5039C31.0364 21.5039 29.289 18.4061 30.4706 17.6222C31.6522 16.8383 32.9412 20.9493 32.9412 20.9493C32.9412 20.9493 33.3424 17.1325 34.7941 17.565C36.6068 18.108 33.7667 24.5119 33.7667 24.5119L33.7676 24.5203Z" fill="#FFF8B3"/>
<path d="M34.2208 24.6197C34.362 22.2767 33.796 22.1563 33.796 22.1563C33.4332 22.5385 33.4734 23.4593 33.4734 23.4593C32.8583 22.7758 32.41 22.718 32.41 22.718C32.5502 23.4063 33.0756 23.905 33.0756 23.905C31.8757 23.5194 31.377 23.9005 31.377 23.9005C31.8494 24.2356 34.2366 24.6093 34.2366 24.6093" fill="#8DC9A6"/>
</g>
<defs>
<clipPath id="clip0_2034_6546">
<rect width="390" height="274.02" fill="white"/>
</clipPath>
</defs>
</svg>
