<svg width="350" height="350" viewBox="0 0 350 350" fill="none" xmlns="http://www.w3.org/2000/svg">
<g clip-path="url(#clip0_1588_2531)">
<path d="M350 0H0V350H350V0Z" fill="#FFFEF8"/>
<path d="M74.9199 259.61H35.1999C31.5999 259.61 28.6599 256.68 28.6599 253.07V44.0296C28.6599 29.4796 40.4999 17.6396 55.0499 17.6396C69.5999 17.6396 81.4499 29.4796 81.4499 44.0296V253.08C81.4499 256.68 78.5199 259.62 74.9099 259.62L74.9199 259.61ZM55.0599 18.6296C41.0599 18.6296 29.6699 30.0196 29.6699 44.0196V253.07C29.6699 256.12 32.1499 258.61 35.2099 258.61H74.9299C77.9799 258.61 80.4699 256.13 80.4699 253.07V44.0296C80.4699 30.0296 69.0799 18.6396 55.0699 18.6396L55.0599 18.6296Z" fill="#3D322A"/>
<path d="M119.77 83.8203H36.05V269.89H119.77V83.8203Z" fill="#FFFEF8"/>
<path d="M146.96 228.96C146.96 228.96 167.94 220.34 182.45 187.7C182.45 187.7 192.61 163.37 199.26 165.49C208.78 168.52 192.61 202.06 192.61 202.06C192.61 202.06 176.89 234.7 159.06 244.07C159.06 244.07 138.81 241.65 137.6 241.05C136.39 240.45 146.97 228.96 146.97 228.96H146.96Z" fill="#FFEED4"/>
<path d="M340 260.05H10C9.72 260.05 9.5 259.83 9.5 259.55C9.5 259.27 9.72 259.05 10 259.05H340C340.28 259.05 340.5 259.27 340.5 259.55C340.5 259.83 340.28 260.05 340 260.05Z" fill="#3D322A"/>
<path d="M303.97 245.97H206.46V247.68H247.65V269.52H206.46V271.23H303.97C312.51 271.23 316.86 265.58 316.86 258.6C316.86 251.62 312.51 245.97 303.97 245.97Z" fill="#60B28D"/>
<path d="M272.07 247.52L211.28 247.64C210.72 247.64 210.26 247.65 209.51 247.65C210.49 250.85 211.06 254.59 211.06 258.59C211.06 262.59 210.5 266.32 209.51 269.53C210.11 269.53 210.72 269.55 211.28 269.55L272.07 269.67C278.19 269.67 283.14 264.71 283.14 258.6C283.14 252.49 278.18 247.53 272.07 247.53V247.52Z" fill="white"/>
<path d="M230.29 220.72H302.55H317.92H327.8V222.43H286.61V244.27H327.8V245.98H317.92H302.55H230.29C221.75 245.98 217.4 240.33 217.4 233.35C217.4 226.38 221.75 220.72 230.29 220.72Z" fill="#FFB573"/>
<path d="M262.19 222.27L322.98 222.39C323.54 222.39 324 222.4 324.75 222.4C323.77 225.6 323.2 229.34 323.2 233.34C323.2 237.34 323.76 241.07 324.75 244.28C324.15 244.28 323.54 244.3 322.98 244.3L262.19 244.42C256.07 244.42 251.12 239.46 251.12 233.35C251.12 227.23 256.08 222.28 262.19 222.28V222.27Z" fill="white"/>
<path d="M323.57 227.75H317.91C317.63 227.75 317.41 227.53 317.41 227.25C317.41 226.97 317.63 226.75 317.91 226.75H323.57C323.85 226.75 324.07 226.97 324.07 227.25C324.07 227.53 323.85 227.75 323.57 227.75Z" fill="#DBCAAD"/>
<path d="M321.8 231.35H315.11C314.83 231.35 314.61 231.13 314.61 230.85C314.61 230.57 314.83 230.35 315.11 230.35H321.8C322.08 230.35 322.3 230.57 322.3 230.85C322.3 231.13 322.08 231.35 321.8 231.35Z" fill="#DBCAAD"/>
<path d="M322.46 237.31H312.4C312.12 237.31 311.9 237.09 311.9 236.81C311.9 236.53 312.12 236.31 312.4 236.31H322.46C322.74 236.31 322.96 236.53 322.96 236.81C322.96 237.09 322.74 237.31 322.46 237.31Z" fill="#DBCAAD"/>
<path d="M310.1 237.31H307.6C307.32 237.31 307.1 237.09 307.1 236.81C307.1 236.53 307.32 236.31 307.6 236.31H310.1C310.38 236.31 310.6 236.53 310.6 236.81C310.6 237.09 310.38 237.31 310.1 237.31Z" fill="#DBCAAD"/>
<path d="M285.37 238.87H282.17C281.89 238.87 281.67 238.65 281.67 238.37C281.67 238.09 281.89 237.87 282.17 237.87H285.37C285.65 237.87 285.87 238.09 285.87 238.37C285.87 238.65 285.65 238.87 285.37 238.87Z" fill="#DBCAAD"/>
<path d="M279.91 238.87H252.89C252.61 238.87 252.39 238.65 252.39 238.37C252.39 238.09 252.61 237.87 252.89 237.87H279.91C280.19 237.87 280.41 238.09 280.41 238.37C280.41 238.65 280.19 238.87 279.91 238.87Z" fill="#DBCAAD"/>
<path d="M266.82 233.99H263.01C262.73 233.99 262.51 233.77 262.51 233.49C262.51 233.21 262.73 232.99 263.01 232.99H266.82C267.1 232.99 267.32 233.21 267.32 233.49C267.32 233.77 267.1 233.99 266.82 233.99Z" fill="#DBCAAD"/>
<path d="M259.77 233.99H251.65C251.37 233.99 251.15 233.77 251.15 233.49C251.15 233.21 251.37 232.99 251.65 232.99H259.77C260.05 232.99 260.27 233.21 260.27 233.49C260.27 233.77 260.05 233.99 259.77 233.99Z" fill="#DBCAAD"/>
<path d="M271.87 229.73H252.49C252.21 229.73 251.99 229.51 251.99 229.23C251.99 228.95 252.21 228.73 252.49 228.73H271.87C272.15 228.73 272.37 228.95 272.37 229.23C272.37 229.51 272.15 229.73 271.87 229.73Z" fill="#DBCAAD"/>
<path d="M271.41 227.13H256.58C256.3 227.13 256.08 226.91 256.08 226.63C256.08 226.35 256.3 226.13 256.58 226.13H271.41C271.69 226.13 271.91 226.35 271.91 226.63C271.91 226.91 271.69 227.13 271.41 227.13Z" fill="#DBCAAD"/>
<path d="M219.35 195.47H291.61H306.98H316.86V197.18H275.67V219.02H316.86V220.73H306.98H291.61H219.35C210.81 220.73 206.46 215.08 206.46 208.1C206.46 201.13 210.81 195.47 219.35 195.47Z" fill="#B29374"/>
<path d="M251.25 197.02L312.04 197.14C312.6 197.14 313.06 197.15 313.81 197.15C312.83 200.35 312.26 204.09 312.26 208.09C312.26 212.09 312.82 215.82 313.81 219.03C313.21 219.03 312.6 219.05 312.04 219.05L251.25 219.17C245.13 219.17 240.18 214.21 240.18 208.1C240.18 201.98 245.14 197.03 251.25 197.03V197.02Z" fill="white"/>
<path d="M255.94 208.74H252.13C251.85 208.74 251.63 208.52 251.63 208.24C251.63 207.96 251.85 207.74 252.13 207.74H255.94C256.22 207.74 256.44 207.96 256.44 208.24C256.44 208.52 256.22 208.74 255.94 208.74Z" fill="#DBCAAD"/>
<path d="M248.88 208.74H240.76C240.48 208.74 240.26 208.52 240.26 208.24C240.26 207.96 240.48 207.74 240.76 207.74H248.88C249.16 207.74 249.38 207.96 249.38 208.24C249.38 208.52 249.16 208.74 248.88 208.74Z" fill="#DBCAAD"/>
<path d="M260.99 204.48H241.61C241.33 204.48 241.11 204.26 241.11 203.98C241.11 203.7 241.33 203.48 241.61 203.48H260.99C261.27 203.48 261.49 203.7 261.49 203.98C261.49 204.26 261.27 204.48 260.99 204.48Z" fill="#DBCAAD"/>
<path d="M268.27 201.88H253.45C253.17 201.88 252.95 201.66 252.95 201.38C252.95 201.1 253.17 200.88 253.45 200.88H268.27C268.55 200.88 268.77 201.1 268.77 201.38C268.77 201.66 268.55 201.88 268.27 201.88Z" fill="#DBCAAD"/>
<path d="M226.63 145.29H298.89H314.26H324.14V147H282.95V168.84H324.14V170.55H314.26H298.89H226.63C218.09 170.55 213.74 164.9 213.74 157.92C213.74 150.95 218.09 145.29 226.63 145.29Z" fill="#FFB573"/>
<path d="M258.53 146.84L319.32 146.96C319.88 146.96 320.34 146.97 321.09 146.97C320.11 150.17 319.54 153.91 319.54 157.91C319.54 161.91 320.1 165.64 321.09 168.85C320.49 168.85 319.88 168.87 319.32 168.87L258.53 168.99C252.41 168.99 247.46 164.03 247.46 157.92C247.46 151.8 252.42 146.85 258.53 146.85V146.84Z" fill="white"/>
<path d="M319.9 152.31H314.24C313.96 152.31 313.74 152.09 313.74 151.81C313.74 151.53 313.96 151.31 314.24 151.31H319.9C320.18 151.31 320.4 151.53 320.4 151.81C320.4 152.09 320.18 152.31 319.9 152.31Z" fill="#DBCAAD"/>
<path d="M318.14 155.92H311.45C311.17 155.92 310.95 155.7 310.95 155.42C310.95 155.14 311.17 154.92 311.45 154.92H318.14C318.42 154.92 318.64 155.14 318.64 155.42C318.64 155.7 318.42 155.92 318.14 155.92Z" fill="#DBCAAD"/>
<path d="M318.8 161.87H308.74C308.46 161.87 308.24 161.65 308.24 161.37C308.24 161.09 308.46 160.87 308.74 160.87H318.8C319.08 160.87 319.3 161.09 319.3 161.37C319.3 161.65 319.08 161.87 318.8 161.87Z" fill="#DBCAAD"/>
<path d="M306.44 161.87H303.94C303.66 161.87 303.44 161.65 303.44 161.37C303.44 161.09 303.66 160.87 303.94 160.87H306.44C306.72 160.87 306.94 161.09 306.94 161.37C306.94 161.65 306.72 161.87 306.44 161.87Z" fill="#DBCAAD"/>
<path d="M281.7 163.43H278.5C278.22 163.43 278 163.21 278 162.93C278 162.65 278.22 162.43 278.5 162.43H281.7C281.98 162.43 282.2 162.65 282.2 162.93C282.2 163.21 281.98 163.43 281.7 163.43Z" fill="#DBCAAD"/>
<path d="M276.24 163.43H249.22C248.94 163.43 248.72 163.21 248.72 162.93C248.72 162.65 248.94 162.43 249.22 162.43H276.24C276.52 162.43 276.74 162.65 276.74 162.93C276.74 163.21 276.52 163.43 276.24 163.43Z" fill="#DBCAAD"/>
<path d="M263.15 158.55H259.34C259.06 158.55 258.84 158.33 258.84 158.05C258.84 157.77 259.06 157.55 259.34 157.55H263.15C263.43 157.55 263.65 157.77 263.65 158.05C263.65 158.33 263.43 158.55 263.15 158.55Z" fill="#DBCAAD"/>
<path d="M256.09 158.55H247.97C247.69 158.55 247.47 158.33 247.47 158.05C247.47 157.77 247.69 157.55 247.97 157.55H256.09C256.37 157.55 256.59 157.77 256.59 158.05C256.59 158.33 256.37 158.55 256.09 158.55Z" fill="#DBCAAD"/>
<path d="M268.2 154.3H248.82C248.54 154.3 248.32 154.08 248.32 153.8C248.32 153.52 248.54 153.3 248.82 153.3H268.2C268.48 153.3 268.7 153.52 268.7 153.8C268.7 154.08 268.48 154.3 268.2 154.3Z" fill="#DBCAAD"/>
<path d="M267.74 151.7H252.91C252.63 151.7 252.41 151.48 252.41 151.2C252.41 150.92 252.63 150.7 252.91 150.7H267.74C268.02 150.7 268.24 150.92 268.24 151.2C268.24 151.48 268.02 151.7 267.74 151.7Z" fill="#DBCAAD"/>
<path d="M215.68 120.04H287.94H303.31H313.19V121.75H272V143.59H313.19V145.3H303.31H287.94H215.68C207.14 145.3 202.79 139.65 202.79 132.67C202.79 125.7 207.14 120.04 215.68 120.04Z" fill="#B29374"/>
<path d="M247.59 121.59L308.38 121.71C308.94 121.71 309.4 121.72 310.15 121.72C309.17 124.92 308.6 128.66 308.6 132.66C308.6 136.66 309.16 140.39 310.15 143.6C309.55 143.6 308.94 143.62 308.38 143.62L247.59 143.74C241.47 143.74 236.52 138.78 236.52 132.67C236.52 126.55 241.48 121.6 247.59 121.6V121.59Z" fill="white"/>
<path d="M252.23 133.3H248.42C248.14 133.3 247.92 133.08 247.92 132.8C247.92 132.52 248.14 132.3 248.42 132.3H252.23C252.51 132.3 252.73 132.52 252.73 132.8C252.73 133.08 252.51 133.3 252.23 133.3Z" fill="#DBCAAD"/>
<path d="M245.17 133.3H237.05C236.77 133.3 236.55 133.08 236.55 132.8C236.55 132.52 236.77 132.3 237.05 132.3H245.17C245.45 132.3 245.67 132.52 245.67 132.8C245.67 133.08 245.45 133.3 245.17 133.3Z" fill="#DBCAAD"/>
<path d="M257.28 129.05H237.9C237.62 129.05 237.4 128.83 237.4 128.55C237.4 128.27 237.62 128.05 237.9 128.05H257.28C257.56 128.05 257.78 128.27 257.78 128.55C257.78 128.83 257.56 129.05 257.28 129.05Z" fill="#DBCAAD"/>
<path d="M264.56 126.45H249.73C249.45 126.45 249.23 126.23 249.23 125.95C249.23 125.67 249.45 125.45 249.73 125.45H264.56C264.84 125.45 265.06 125.67 265.06 125.95C265.06 126.23 264.84 126.45 264.56 126.45Z" fill="#DBCAAD"/>
<path d="M314.19 170.47H216.68V172.18H257.87V194.02H216.68V195.73H314.19C322.73 195.73 327.08 190.08 327.08 183.1C327.08 176.12 322.73 170.47 314.19 170.47Z" fill="#60B28D"/>
<path d="M282.29 172.02L221.5 172.14C220.94 172.14 220.48 172.15 219.73 172.15C220.71 175.35 221.28 179.09 221.28 183.09C221.28 187.09 220.72 190.82 219.73 194.03C220.33 194.03 220.94 194.05 221.5 194.05L282.29 194.17C288.41 194.17 293.36 189.21 293.36 183.1C293.36 176.99 288.4 172.03 282.29 172.03V172.02Z" fill="white"/>
<path d="M291.38 188.29H264.36C264.08 188.29 263.86 188.07 263.86 187.79C263.86 187.51 264.08 187.29 264.36 187.29H291.38C291.66 187.29 291.88 187.51 291.88 187.79C291.88 188.07 291.66 188.29 291.38 188.29Z" fill="#DBCAAD"/>
<path d="M281.26 183.41H277.45C277.17 183.41 276.95 183.19 276.95 182.91C276.95 182.63 277.17 182.41 277.45 182.41H281.26C281.54 182.41 281.76 182.63 281.76 182.91C281.76 183.19 281.54 183.41 281.26 183.41Z" fill="#DBCAAD"/>
<path d="M292.62 183.41H284.5C284.22 183.41 284 183.19 284 182.91C284 182.63 284.22 182.41 284.5 182.41H292.62C292.9 182.41 293.12 182.63 293.12 182.91C293.12 183.19 292.9 183.41 292.62 183.41Z" fill="#DBCAAD"/>
<path d="M291.78 179.15H272.4C272.12 179.15 271.9 178.93 271.9 178.65C271.9 178.37 272.12 178.15 272.4 178.15H291.78C292.06 178.15 292.28 178.37 292.28 178.65C292.28 178.93 292.06 179.15 291.78 179.15Z" fill="#DBCAAD"/>
<path d="M279.94 176.56H265.11C264.83 176.56 264.61 176.34 264.61 176.06C264.61 175.78 264.83 175.56 265.11 175.56H279.94C280.22 175.56 280.44 175.78 280.44 176.06C280.44 176.34 280.22 176.56 279.94 176.56Z" fill="#DBCAAD"/>
<path d="M165.27 227.09C165.27 272.71 137.53 273.17 110.7 273.17C87.26 273.17 54.01 272.71 54.01 227.09C54.01 181.47 78.92 144.49 109.64 144.49C140.36 144.49 165.27 181.47 165.27 227.09Z" fill="#FFEED4"/>
<path d="M139.76 159.41C139.76 159.41 181.2 196.19 163.16 249.87L119.46 252.4L139.76 159.41Z" fill="#FFEED4"/>
<path d="M143.96 132.93C143.96 132.93 143.23 127.63 142.02 123.99C142.02 123.99 141.73 106.36 134.14 102.9C134.14 102.9 129.27 100.34 123.83 114.95C123.83 114.95 117.89 113.84 110.77 113.93C103.65 113.83 97.7099 114.95 97.7099 114.95C92.2699 100.34 87.3999 102.9 87.3999 102.9C79.8099 106.37 79.5199 123.99 79.5199 123.99C78.3099 127.63 77.5799 132.93 77.5799 132.93C68.5899 147.17 79.5199 158.61 79.5199 158.61C90.5999 163.76 101.42 165.23 110.77 165C120.12 165.23 130.94 163.76 142.02 158.61C142.02 158.61 152.95 147.17 143.96 132.93Z" fill="#FFEED4"/>
<path d="M102.19 144.5C105.012 144.5 107.3 141.25 107.3 137.24C107.3 133.231 105.012 129.98 102.19 129.98C99.3679 129.98 97.0801 133.231 97.0801 137.24C97.0801 141.25 99.3679 144.5 102.19 144.5Z" fill="white"/>
<path d="M104.74 132.74H103.39C102.457 132.74 101.7 133.497 101.7 134.43V140.05C101.7 140.984 102.457 141.74 103.39 141.74H104.74C105.673 141.74 106.43 140.984 106.43 140.05V134.43C106.43 133.497 105.673 132.74 104.74 132.74Z" fill="#3D322A"/>
<path d="M117.13 144.5C119.952 144.5 122.24 141.25 122.24 137.24C122.24 133.231 119.952 129.98 117.13 129.98C114.308 129.98 112.02 133.231 112.02 137.24C112.02 141.25 114.308 144.5 117.13 144.5Z" fill="white"/>
<path d="M114.58 141.74H115.93C116.863 141.74 117.62 140.984 117.62 140.05V134.43C117.62 133.497 116.863 132.74 115.93 132.74H114.58C113.647 132.74 112.89 133.497 112.89 134.43V140.05C112.89 140.984 113.647 141.74 114.58 141.74Z" fill="#3D322A"/>
<path d="M105.89 145.1C107.02 144.6 109.94 143.6 112.6 145.1C112.84 145.24 112.97 145.55 112.9 145.85C112.71 146.68 112.04 148.27 109.67 148.89C109.41 148.96 109.13 148.94 108.87 148.87C108.01 148.62 106.14 147.88 105.55 145.95C105.45 145.61 105.6 145.23 105.89 145.1Z" fill="#3D322A"/>
<path d="M133.26 139.51C142 135.72 152.57 135.35 161.24 139.51C160.07 139.25 158.96 138.81 157.79 138.62C149.72 136.78 141.22 137.41 133.26 139.51Z" fill="#3D322A"/>
<path d="M133.29 143.46C142 141.25 152.05 143.32 158.66 149.56C157.67 149.01 156.8 148.31 155.79 147.83C149.01 144.02 140.99 142.81 133.29 143.46Z" fill="#3D322A"/>
<path d="M132.25 147.38C140.65 147.26 149.33 150.17 155.57 155.87C154.64 155.36 153.81 154.72 152.87 154.26C146.54 150.64 139.43 148.5 132.25 147.38Z" fill="#3D322A"/>
<path d="M88.2599 143.46C80.5599 142.81 72.5499 144.03 65.7599 147.83C64.7499 148.31 63.8799 149.01 62.8899 149.56C69.4999 143.32 79.5499 141.25 88.2599 143.46Z" fill="#3D322A"/>
<path d="M89.29 147.38C82.11 148.5 75 150.64 68.67 154.26C67.73 154.72 66.9 155.36 65.97 155.87C72.21 150.17 80.89 147.25 89.29 147.38Z" fill="#3D322A"/>
<path d="M136.26 118.94C136.26 116.94 136.08 110.57 133.72 108.68C133.56 108.55 133.35 108.5 133.15 108.54C132.41 108.71 130.64 109.81 128.79 116.18C128.71 116.46 128.79 116.76 128.98 116.96C129.86 117.87 132.49 120.24 135.64 119.69C136 119.63 136.27 119.32 136.27 118.94H136.26Z" fill="#3D322A"/>
<path d="M88.28 139.51C80.32 137.41 71.82 136.78 63.75 138.62C62.57 138.81 61.47 139.25 60.3 139.51C68.97 135.35 79.54 135.72 88.28 139.51Z" fill="#3D322A"/>
<path d="M85.0701 118.94C85.0701 116.94 85.2501 110.57 87.6101 108.68C87.7701 108.55 87.9801 108.5 88.1801 108.54C88.9201 108.71 90.6901 109.81 92.5401 116.18C92.6201 116.46 92.5401 116.76 92.3501 116.96C91.4701 117.87 88.8401 120.24 85.6901 119.69C85.3301 119.63 85.0601 119.32 85.0601 118.94H85.0701Z" fill="#3D322A"/>
<path d="M101.53 165.87C101.53 165.87 107.93 169.34 120.01 165.87C120.01 165.87 109.44 173.04 101.53 165.87Z" fill="#D5A57B"/>
<path d="M116.51 123.78C117.37 123.78 118.06 123 118.06 122.04V113.96C117.09 113.88 116.05 113.81 114.95 113.76V122.04C114.95 123 115.65 123.78 116.5 123.78H116.51Z" fill="#D4A980"/>
<path d="M112.17 123.81V113.7C111.91 113.7 111.66 113.7 111.4 113.7C110.6 113.69 109.82 113.7 109.06 113.71V123.8C109.06 124.76 109.76 125.54 110.61 125.54C111.47 125.54 112.16 124.76 112.16 123.8L112.17 123.81Z" fill="#D4A980"/>
<path d="M103.48 114.07V122.04C103.48 123 104.18 123.78 105.03 123.78C105.88 123.78 106.58 123 106.58 122.04V113.82C105.46 113.89 104.42 113.97 103.47 114.07H103.48Z" fill="#D4A980"/>
<path d="M105.53 151.63C108.07 152.96 110.73 153.13 113.31 152.07C113.68 151.93 114.04 151.75 114.45 151.63C114.18 151.94 113.88 152.23 113.56 152.5C111.24 154.41 107.33 154.14 105.54 151.63H105.53Z" fill="#333333"/>
<path d="M160.94 229.13C160.94 229.13 180.56 232.48 186.09 234.16C186.09 234.16 172.67 257.97 179.55 271.72C179.55 271.72 153.06 280.78 128.4 267.36L160.93 229.13H160.94Z" fill="#FFEED4"/>
<path d="M62.2799 229.61C62.2799 229.61 42.6599 232.96 37.1299 234.64C37.1299 234.64 50.5499 258.45 43.6699 272.2C43.6699 272.2 70.1599 281.26 94.8199 267.84L62.2899 229.61H62.2799Z" fill="#FFEED4"/>
<path d="M198.346 256.785C202.412 243.584 197.069 230.222 186.413 226.94C175.756 223.657 163.821 231.697 159.755 244.898C155.689 258.099 161.032 271.461 171.688 274.743C182.345 278.026 194.28 269.985 198.346 256.785Z" fill="#FFEED4"/>
<path d="M57.091 274.06C66.7477 268.484 68.9774 254.267 62.071 242.305C55.1647 230.343 41.7377 225.166 32.081 230.741C22.4243 236.316 20.1946 250.533 27.1009 262.495C34.0073 274.457 47.4343 279.635 57.091 274.06Z" fill="#FFEED4"/>
<path d="M99.7699 145.55C95.0099 145.55 91.1299 141.67 91.1299 136.91C91.1299 132.15 95.0099 128.27 99.7699 128.27C104.53 128.27 108.41 132.15 108.41 136.91C108.41 141.67 104.53 145.55 99.7699 145.55ZM99.7699 129.27C95.5599 129.27 92.1299 132.7 92.1299 136.91C92.1299 141.12 95.5599 144.55 99.7699 144.55C103.98 144.55 107.41 141.12 107.41 136.91C107.41 132.7 103.98 129.27 99.7699 129.27Z" fill="#333333"/>
<path d="M119.49 145.55C114.73 145.55 110.85 141.67 110.85 136.91C110.85 132.15 114.73 128.27 119.49 128.27C124.25 128.27 128.13 132.15 128.13 136.91C128.13 141.67 124.25 145.55 119.49 145.55ZM119.49 129.27C115.28 129.27 111.85 132.7 111.85 136.91C111.85 141.12 115.28 144.55 119.49 144.55C123.7 144.55 127.13 141.12 127.13 136.91C127.13 132.7 123.7 129.27 119.49 129.27Z" fill="#333333"/>
<path d="M111.09 137.33C109.38 136.24 108.31 137.23 108.26 137.27L107.56 136.55C108.13 135.99 109.71 135.26 111.62 136.49L111.08 137.33H111.09Z" fill="#333333"/>
<path d="M127.46 135.25L135.18 132.96" stroke="#333333" stroke-miterlimit="10" stroke-linecap="round"/>
<path d="M91.6299 135.25L83.9199 132.96" stroke="#333333" stroke-miterlimit="10" stroke-linecap="round"/>
<path d="M274.83 213.88H271.63C271.35 213.88 271.13 213.66 271.13 213.38C271.13 213.1 271.35 212.88 271.63 212.88H274.83C275.11 212.88 275.33 213.1 275.33 213.38C275.33 213.66 275.11 213.88 274.83 213.88Z" fill="#DBCAAD"/>
<path d="M269.36 213.88H242.34C242.06 213.88 241.84 213.66 241.84 213.38C241.84 213.1 242.06 212.88 242.34 212.88H269.36C269.64 212.88 269.86 213.1 269.86 213.38C269.86 213.66 269.64 213.88 269.36 213.88Z" fill="#DBCAAD"/>
<path d="M271.71 139.55H268.51C268.23 139.55 268.01 139.33 268.01 139.05C268.01 138.77 268.23 138.55 268.51 138.55H271.71C271.99 138.55 272.21 138.77 272.21 139.05C272.21 139.33 271.99 139.55 271.71 139.55Z" fill="#DBCAAD"/>
<path d="M266.25 139.55H239.23C238.95 139.55 238.73 139.33 238.73 139.05C238.73 138.77 238.95 138.55 239.23 138.55H266.25C266.53 138.55 266.75 138.77 266.75 139.05C266.75 139.33 266.53 139.55 266.25 139.55Z" fill="#DBCAAD"/>
<path d="M313.25 204.56H307.59C307.31 204.56 307.09 204.34 307.09 204.06C307.09 203.78 307.31 203.56 307.59 203.56H313.25C313.53 203.56 313.75 203.78 313.75 204.06C313.75 204.34 313.53 204.56 313.25 204.56Z" fill="#DBCAAD"/>
<path d="M311.49 208.16H304.8C304.52 208.16 304.3 207.94 304.3 207.66C304.3 207.38 304.52 207.16 304.8 207.16H311.49C311.77 207.16 311.99 207.38 311.99 207.66C311.99 207.94 311.77 208.16 311.49 208.16Z" fill="#DBCAAD"/>
<path d="M312.14 214.12H302.08C301.8 214.12 301.58 213.9 301.58 213.62C301.58 213.34 301.8 213.12 302.08 213.12H312.14C312.42 213.12 312.64 213.34 312.64 213.62C312.64 213.9 312.42 214.12 312.14 214.12Z" fill="#DBCAAD"/>
<path d="M299.78 214.12H297.28C297 214.12 296.78 213.9 296.78 213.62C296.78 213.34 297 213.12 297.28 213.12H299.78C300.06 213.12 300.28 213.34 300.28 213.62C300.28 213.9 300.06 214.12 299.78 214.12Z" fill="#DBCAAD"/>
<path d="M308.48 127.85H302.82C302.54 127.85 302.32 127.63 302.32 127.35C302.32 127.07 302.54 126.85 302.82 126.85H308.48C308.76 126.85 308.98 127.07 308.98 127.35C308.98 127.63 308.76 127.85 308.48 127.85Z" fill="#DBCAAD"/>
<path d="M306.72 131.46H300.03C299.75 131.46 299.53 131.24 299.53 130.96C299.53 130.68 299.75 130.46 300.03 130.46H306.72C307 130.46 307.22 130.68 307.22 130.96C307.22 131.24 307 131.46 306.72 131.46Z" fill="#DBCAAD"/>
<path d="M307.38 137.41H297.32C297.04 137.41 296.82 137.19 296.82 136.91C296.82 136.63 297.04 136.41 297.32 136.41H307.38C307.66 136.41 307.88 136.63 307.88 136.91C307.88 137.19 307.66 137.41 307.38 137.41Z" fill="#DBCAAD"/>
<path d="M295.02 137.41H292.52C292.24 137.41 292.02 137.19 292.02 136.91C292.02 136.63 292.24 136.41 292.52 136.41H295.02C295.3 136.41 295.52 136.63 295.52 136.91C295.52 137.19 295.3 137.41 295.02 137.41Z" fill="#DBCAAD"/>
<path d="M181.2 239.202C181.729 237.82 181.193 236.329 180.001 235.873C178.81 235.416 177.415 236.167 176.885 237.549C176.356 238.931 176.893 240.422 178.084 240.878C179.275 241.334 180.67 240.584 181.2 239.202Z" fill="#FFC0C0"/>
<path d="M195.445 250.712C196.539 249.716 196.73 248.143 195.871 247.2C195.012 246.257 193.429 246.3 192.334 247.296C191.24 248.293 191.049 249.865 191.908 250.809C192.767 251.752 194.35 251.709 195.445 250.712Z" fill="#FFC0C0"/>
<path d="M190.7 242.995C191.65 241.35 191.323 239.383 189.969 238.601C188.616 237.82 186.749 238.52 185.799 240.165C184.849 241.811 185.176 243.778 186.529 244.56C187.883 245.341 189.75 244.641 190.7 242.995Z" fill="#FFC0C0"/>
<path d="M184.292 262.292C187.051 257.514 185.949 251.713 181.831 249.336C177.713 246.958 172.138 248.904 169.38 253.682C166.621 258.461 167.723 264.261 171.841 266.639C175.959 269.017 181.534 267.071 184.292 262.292Z" fill="#FFC0C0"/>
<path d="M46.2227 240.869C47.4141 240.413 47.9506 238.923 47.4212 237.54C46.8917 236.158 45.4967 235.408 44.3053 235.864C43.114 236.32 42.5774 237.811 43.1069 239.193C43.6363 240.575 45.0313 241.326 46.2227 240.869Z" fill="#FFC0C0"/>
<path d="M32.3802 250.837C33.2392 249.894 33.0483 248.321 31.9539 247.325C30.8595 246.328 29.276 246.285 28.4171 247.229C27.5581 248.172 27.749 249.744 28.8434 250.741C29.9378 251.737 31.5213 251.781 32.3802 250.837Z" fill="#FFC0C0"/>
<path d="M37.7702 244.559C39.1238 243.777 39.451 241.81 38.5011 240.165C37.5512 238.519 35.6838 237.819 34.3302 238.601C32.9767 239.382 32.6495 241.349 33.5994 242.995C34.5493 244.64 36.4167 245.34 37.7702 244.559Z" fill="#FFC0C0"/>
<path d="M52.4516 266.648C56.5697 264.27 57.6717 258.469 54.9131 253.691C52.1544 248.913 46.5797 246.967 42.4616 249.344C38.3435 251.722 37.2415 257.523 40.0001 262.301C42.7588 267.079 48.3335 269.025 52.4516 266.648Z" fill="#FFC0C0"/>
<path d="M227.52 178.82H221.86C221.58 178.82 221.36 178.6 221.36 178.32C221.36 178.04 221.58 177.82 221.86 177.82H227.52C227.8 177.82 228.02 178.04 228.02 178.32C228.02 178.6 227.8 178.82 227.52 178.82Z" fill="#DBCAAD"/>
<path d="M230.32 182.42H223.63C223.35 182.42 223.13 182.2 223.13 181.92C223.13 181.64 223.35 181.42 223.63 181.42H230.32C230.6 181.42 230.82 181.64 230.82 181.92C230.82 182.2 230.6 182.42 230.32 182.42Z" fill="#DBCAAD"/>
<path d="M231.92 188.19H221.86C221.58 188.19 221.36 187.97 221.36 187.69C221.36 187.41 221.58 187.19 221.86 187.19H231.92C232.2 187.19 232.42 187.41 232.42 187.69C232.42 187.97 232.2 188.19 231.92 188.19Z" fill="#DBCAAD"/>
<path d="M236.73 188.19H234.22C233.94 188.19 233.72 187.97 233.72 187.69C233.72 187.41 233.94 187.19 234.22 187.19H236.73C237.01 187.19 237.23 187.41 237.23 187.69C237.23 187.97 237.01 188.19 236.73 188.19Z" fill="#DBCAAD"/>
<path d="M281.59 264.36H254.57C254.29 264.36 254.07 264.14 254.07 263.86C254.07 263.58 254.29 263.36 254.57 263.36H281.59C281.87 263.36 282.09 263.58 282.09 263.86C282.09 264.14 281.87 264.36 281.59 264.36Z" fill="#DBCAAD"/>
<path d="M271.48 259.48H267.67C267.39 259.48 267.17 259.26 267.17 258.98C267.17 258.7 267.39 258.48 267.67 258.48H271.48C271.76 258.48 271.98 258.7 271.98 258.98C271.98 259.26 271.76 259.48 271.48 259.48Z" fill="#DBCAAD"/>
<path d="M282.84 259.48H274.72C274.44 259.48 274.22 259.26 274.22 258.98C274.22 258.7 274.44 258.48 274.72 258.48H282.84C283.12 258.48 283.34 258.7 283.34 258.98C283.34 259.26 283.12 259.48 282.84 259.48Z" fill="#DBCAAD"/>
<path d="M281.99 255.22H262.61C262.33 255.22 262.11 255 262.11 254.72C262.11 254.44 262.33 254.22 262.61 254.22H281.99C282.27 254.22 282.49 254.44 282.49 254.72C282.49 255 282.27 255.22 281.99 255.22Z" fill="#DBCAAD"/>
<path d="M270.16 252.63H255.33C255.05 252.63 254.83 252.41 254.83 252.13C254.83 251.85 255.05 251.63 255.33 251.63H270.16C270.44 251.63 270.66 251.85 270.66 252.13C270.66 252.41 270.44 252.63 270.16 252.63Z" fill="#DBCAAD"/>
<path d="M217.73 254.89H212.07C211.79 254.89 211.57 254.67 211.57 254.39C211.57 254.11 211.79 253.89 212.07 253.89H217.73C218.01 253.89 218.23 254.11 218.23 254.39C218.23 254.67 218.01 254.89 217.73 254.89Z" fill="#DBCAAD"/>
<path d="M220.53 258.49H213.84C213.56 258.49 213.34 258.27 213.34 257.99C213.34 257.71 213.56 257.49 213.84 257.49H220.53C220.81 257.49 221.03 257.71 221.03 257.99C221.03 258.27 220.81 258.49 220.53 258.49Z" fill="#DBCAAD"/>
<path d="M222.14 264.27H212.08C211.8 264.27 211.58 264.05 211.58 263.77C211.58 263.49 211.8 263.27 212.08 263.27H222.14C222.42 263.27 222.64 263.49 222.64 263.77C222.64 264.05 222.42 264.27 222.14 264.27Z" fill="#DBCAAD"/>
<path d="M226.94 264.27H224.43C224.15 264.27 223.93 264.05 223.93 263.77C223.93 263.49 224.15 263.27 224.43 263.27H226.94C227.22 263.27 227.44 263.49 227.44 263.77C227.44 264.05 227.22 264.27 226.94 264.27Z" fill="#DBCAAD"/>
<path d="M79.9201 159.41C79.9201 159.41 38.4801 196.19 56.5201 249.87L100.22 252.4L79.9201 159.41Z" fill="#FFEED4"/>
<path d="M152.41 247.41C145.05 247.33 131.03 253.56 131.03 253.56C144.31 246.24 151.98 246.36 151.98 246.36L149 239.06C120.15 244.27 112.4 259.22 112.4 259.22C121.93 235.96 140.17 236.14 140.17 236.14L140.2 235.34C118.75 236.34 111.03 260.61 111.03 260.61C95.4999 237.13 73.6299 236.57 73.6299 236.57L72.4099 238.18L74.2999 238.9L68.8699 248.8L104.25 264.4L106.8 270.37L117.57 270.83L117.9 267.11L154.23 251.86L152.42 247.42L152.41 247.41Z" fill="white"/>
<path d="M117.56 258.71C117.56 258.71 129.91 244.12 150.37 242.38L150.74 243.29C150.74 243.29 134.92 243.8 117.56 258.71Z" fill="#FFF6EB"/>
<path d="M74.2999 238.899C74.2999 238.899 93.3799 242.069 105.98 257.619C105.98 257.619 93.1299 243.249 73.6799 240.029L74.2999 238.899Z" fill="#FFF6EB"/>
<path d="M72.2199 242.7C72.2199 242.7 83.6499 244.72 94.0199 252.22C94.0199 252.22 78.8899 243.74 71.6299 243.78L72.2199 242.71V242.7Z" fill="#FFF6EB"/>
<path d="M116.62 262.72C116.62 262.72 138.8 247.29 153.14 249.18" stroke="#DBCAAD" stroke-width="0.5" stroke-linecap="round" stroke-linejoin="round"/>
<path d="M72.9199 245.7C90.6899 248.9 106.74 263.04 106.74 263.04" stroke="#DBCAAD" stroke-width="0.5" stroke-linecap="round" stroke-linejoin="round"/>
<path d="M72.01 248.37C89.97 250.2 107.06 263.07 107.06 263.07" stroke="#DBCAAD" stroke-width="0.5" stroke-linecap="round" stroke-linejoin="round"/>
<path d="M67.4899 246.82L65.4399 251.27L104.11 268.99C104.11 268.99 104.49 273.66 111.21 274.3C111.21 274.3 117.57 275.16 119.77 269.9L157.28 255.12L155.61 250.63L117.02 266.3C117.02 266.3 116.73 270.63 111.4 269.78C111.4 269.78 106.87 269.7 107.39 265.65L67.4899 246.83V246.82Z" fill="#60B28D"/>
<path d="M92.26 251.73C88.69 256.58 80.91 256.91 74.88 252.47C68.85 248.03 62.07 242.31 70.44 235.65C75.15 231.9 81.79 230.47 87.82 234.91C93.85 239.35 95.83 246.88 92.26 251.73Z" fill="#FFEED4"/>
<path d="M128.65 248.77C126.41 242.8 127.91 234.66 136.29 231.55C144 228.69 151.85 229.05 154.87 234.66C157.89 240.27 154.47 247.98 147.23 251.88C139.99 255.78 132.41 258.79 128.65 248.77Z" fill="#FFEED4"/>
<path d="M83.22 240.81C83.22 240.81 85.07 248.19 92.94 249.71" stroke="#3D322A" stroke-miterlimit="10" stroke-linecap="round"/>
<path d="M78.26 244.39C78.26 244.39 81.27 253.83 89.03 254.48" stroke="#3D322A" stroke-miterlimit="10" stroke-linecap="round"/>
<path d="M143.45 244.39C143.45 244.39 140.44 253.83 132.68 254.48" stroke="#3D322A" stroke-miterlimit="10" stroke-linecap="round"/>
<path d="M138.49 240.81C138.49 240.81 136.64 248.19 128.77 249.71" stroke="#3D322A" stroke-miterlimit="10" stroke-linecap="round"/>
<path d="M75.2399 256.39C75.2399 256.39 76.8699 265.7 86.1099 270.41C86.1099 270.41 71.9999 269.42 75.2399 256.39Z" fill="#FFDDB3"/>
<path d="M149.4 259.55C149.4 259.55 145.74 268.26 138.07 270.38C138.07 270.38 150.49 270.68 149.4 259.55Z" fill="#FFDDB3"/>
<path d="M84.1699 187.29C84.1699 187.29 82.7099 219.84 92.1299 235.33C92.1299 235.33 75.8599 218.3 84.1699 187.29Z" fill="#FFDDB3"/>
<path d="M136.94 186.32C136.94 186.32 140.31 218.59 129.64 235.34C129.64 235.34 146.46 220.93 136.94 186.32Z" fill="#FFDDB3"/>
<path d="M56.4399 234.82C56.4399 234.82 77.7799 263.09 90.2099 253.71C90.2099 253.71 99.4399 247.27 89.2699 231.4C85.7599 225.92 82.7299 219.89 82.0899 213.32C81.2799 205.06 80.9599 199.56 85.5699 181.55" stroke="#3D322A" stroke-miterlimit="10" stroke-linecap="round"/>
<path d="M137.29 256.13C135.14 256.13 133.08 255.52 131.2 254.11C131.12 254.05 121.71 247.22 132.02 231.13C134.73 226.89 138.42 220.43 139.12 213.27C139.94 204.93 140.18 199.35 135.66 181.67C135.59 181.4 135.75 181.13 136.02 181.06C136.29 180.99 136.56 181.15 136.63 181.42C141.19 199.26 140.95 204.91 140.12 213.36C139.4 220.74 135.63 227.34 132.86 231.66C123.09 246.91 131.42 253.04 131.78 253.29C143.68 262.26 164.66 234.79 164.87 234.51C165.04 234.29 165.35 234.25 165.57 234.41C165.79 234.58 165.83 234.89 165.67 235.11C164.92 236.11 149.64 256.12 137.29 256.12V256.13Z" fill="#3D322A"/>
<path d="M188.42 175.67L192.21 180.47C192.66 181.03 193.47 181.11 194.03 180.67C194.59 180.22 194.67 179.41 194.23 178.85L189.86 173.33C189.37 174.1 188.89 174.88 188.43 175.68L188.42 175.67Z" fill="#D4A980"/>
<path d="M188.19 189.7C188.64 190.26 189.45 190.34 190.01 189.9C190.57 189.46 190.65 188.64 190.21 188.08L185.1 181.88C184.63 182.84 184.22 183.72 183.87 184.48L188.2 189.71L188.19 189.7Z" fill="#D4A980"/>
<path d="M180.48 191.82C180.05 192.68 179.62 193.52 179.19 194.34L183.36 199.26C183.81 199.82 184.62 199.9 185.18 199.46C185.74 199.01 185.82 198.2 185.38 197.64L180.49 191.82H180.48Z" fill="#D4A980"/>
<path d="M167.06 212.59C167.06 212.59 169.63 223.08 168.29 231.5C168.29 231.5 170.76 227.99 176.34 226.93L168.83 210.33L167.06 212.58V212.59Z" fill="#FFDDB3"/>
<path d="M80.9599 83.8202C84.8701 83.8202 88.0399 80.6503 88.0399 76.7402C88.0399 72.83 84.8701 69.6602 80.9599 69.6602C77.0497 69.6602 73.8799 72.83 73.8799 76.7402C73.8799 80.6503 77.0497 83.8202 80.9599 83.8202Z" fill="#FFE7BD"/>
<path d="M80.96 50.6797L94.67 63.2797L108.39 75.8697H80.96H53.53L67.24 63.2797L80.96 50.6797Z" fill="#60B28D"/>
<path d="M108.39 75.8701H53.53V77.6101H108.39V75.8701Z" fill="#4A8E6E"/>
<path d="M81.6501 47.0195H80.2701C78.6519 47.0195 77.3401 48.3313 77.3401 49.9495V52.6095C77.3401 54.2277 78.6519 55.5395 80.2701 55.5395H81.6501C83.2683 55.5395 84.5801 54.2277 84.5801 52.6095V49.9495C84.5801 48.3313 83.2683 47.0195 81.6501 47.0195Z" fill="#60B28D"/>
</g>
<defs>
<clipPath id="clip0_1588_2531">
<rect width="350" height="350" fill="white"/>
</clipPath>
</defs>
</svg>
