<svg width="350" height="350" viewBox="0 0 350 350" fill="none" xmlns="http://www.w3.org/2000/svg">
<g clip-path="url(#clip0_1985_2798)">
<path d="M350 0H0V350H350V0Z" fill="#FFFEF8"/>
<path d="M340 259.73H10C9.72 259.73 9.5 259.51 9.5 259.23C9.5 258.95 9.72 258.73 10 258.73H340C340.28 258.73 340.5 258.95 340.5 259.23C340.5 259.51 340.28 259.73 340 259.73Z" fill="#3D322A"/>
<path d="M277.26 260.951L286.62 246.361C286.62 246.361 290.56 245.191 292.72 249.501C294.88 253.811 291.66 264.531 291.66 264.531L288.39 269.671L287.92 264.531L285.8 261.511L282.28 260.221L277.28 260.941L277.26 260.951Z" fill="white"/>
<path d="M204.37 270.62C204.37 270.62 197.39 288.09 222.88 310.51C222.88 310.51 234.9 316.37 228.52 322.66C222.14 328.95 209 315.26 209 315.26C209 315.26 178.6 281.99 201.43 256.84" fill="#CECECE"/>
<path d="M224.36 324.73C224.36 324.73 224.29 324.73 224.25 324.73C217.49 324.64 209.05 315.92 208.69 315.55C208.38 315.21 178.29 281.71 201.11 256.56C201.27 256.39 201.53 256.38 201.7 256.53C201.87 256.68 201.88 256.95 201.73 257.12C179.42 281.7 209 314.65 209.3 314.98C209.38 315.06 217.85 323.81 224.26 323.89C225.83 323.95 227.17 323.4 228.22 322.36C229.58 321.02 230.15 319.61 229.91 318.16C229.25 314.13 222.76 310.92 222.69 310.89C222.66 310.87 222.63 310.85 222.6 310.83C197.19 288.47 203.91 270.65 203.98 270.47C204.07 270.26 204.31 270.15 204.52 270.24C204.73 270.32 204.84 270.57 204.75 270.78C204.68 270.95 198.22 288.24 223.11 310.17C223.79 310.51 230.03 313.73 230.73 318.03C231.01 319.76 230.37 321.42 228.8 322.96C227.61 324.14 226.11 324.73 224.35 324.73H224.36Z" fill="#786659"/>
<path d="M260.65 191.93L262.13 190.82L262.62 190.44L266.28 186.64C266.28 186.64 266.37 186.54 266.4 186.48L270.08 179.69C270.12 179.62 270.15 179.54 270.16 179.45L271.24 173.01C271.24 173.01 271.25 172.91 271.25 172.87L271.09 166.26C271.09 166.2 271.09 166.15 271.07 166.09L268.37 158.36C268.37 158.36 267.68 157.28 268.29 157.33L266.29 153.24C266.29 153.24 266.26 153.17 266.24 153.14L260.71 144.39L260.42 144.01L261.26 138.64C261.26 138.64 261.26 138.55 261.25 138.5L260.25 132.78C260.23 132.7 260.21 132.62 260.16 132.55L257.3 127.41C257.25 127.32 257.18 127.24 257.09 127.18L256.22 126.18C256.15 126.13 256.08 126.09 256 126.07L253.83 126.23C253.69 126.18 253.54 126.18 253.39 126.22L251.03 126.39C250.91 126.42 250.8 126.48 250.71 126.57L246.51 128.22C246.45 128.27 246.41 128.33 246.37 128.4L241.76 132.76C241.76 132.76 241.73 132.82 241.71 132.85L240.02 135.17C239.9 135.47 239.6 135.66 239.28 135.64C236.91 135.5 227.03 135.19 216.55 139.13C216.29 139.23 216 139.18 215.79 139C213.87 137.33 202.35 133.22 193.6 134.75C193.36 134.79 193.15 134.95 193.05 135.17C192.16 137.04 189.18 144.42 196.81 160.1C196.9 160.29 196.92 160.52 196.83 160.72C195.67 163.54 188.29 181.27 202.78 194.8C203 195.01 203.08 195.33 202.96 195.62C201.2 200.04 187.15 233.44 193.41 255.36C193.41 255.36 196.99 275.39 217.23 283.89C217.25 283.89 218.98 284.11 219 284.12C220.01 284.77 246.03 291.62 269.8 290.38C269.87 290.38 269.94 290.35 270.02 290.34C277.31 289.37 286.88 275.4 287.18 273.9C287.18 273.9 290.9 264.5 283.82 260.44C283.82 260.44 276.26 260.41 267.75 264.3C267.44 264.44 267.62 264.94 267.31 264.81L252.82 262.01C252.54 261.9 252.35 261.64 252.34 261.34L235.86 254.46C235.85 254.17 249.26 246.72 249.51 246.58L247.5 243.77C247.57 243.73 247.64 243.71 247.71 243.69L250.42 243.08C250.66 243.03 250.85 242.87 250.95 242.65L251.99 240.3C252.05 240.17 252.07 240.03 252.05 239.89L251.02 238.82C251 238.66 250.92 238.5 250.8 238.39L251.18 237.57C250.95 237.34 250.89 236.99 251.03 236.7L251.2 236.36C251.24 236.28 251.27 236.18 251.27 236.09L250.67 234.83C250.68 234.65 250.64 234.47 250.53 234.33L250.08 233.64C250.08 233.64 249.41 232.44 249.36 232.4L247.73 231.56C247.73 231.56 242.14 229.76 247.73 229.68L248.82 229.15C248.55 229.01 248.39 228.73 248.41 228.43L248.84 220.52L249.09 212.88C249.1 212.43 249.36 212.81 249.8 212.86L250.75 212.91C251.19 212.97 250.77 211.88 250.8 211.44V211.26C250.83 210.88 251.13 210.58 251.67 210.83L252.77 210.73C252.88 210.42 253.2 210.63 253.31 210.37L253.28 209.9C253.4 209.64 253.64 209.92 253.92 209.9L256.13 209.85C256.5 209.83 256.68 209.01 256.72 208.64H256.56C256.56 208.64 271.07 213.02 281.47 218.81C281.97 219.09 282.95 219.37 282.98 218.81L283.1 209.93C283.11 209.71 283.03 209.49 282.86 209.34C280.72 207.37 265.57 194.02 260.7 191.95" fill="white"/>
<path d="M260.65 191.93L262.13 190.82L262.62 190.44L266.28 186.64C266.28 186.64 266.37 186.54 266.4 186.48L270.08 179.69C270.12 179.62 270.15 179.54 270.16 179.45L271.24 173.01C271.24 173.01 271.25 172.91 271.25 172.87L271.09 166.26C271.09 166.2 271.09 166.15 271.07 166.09L268.37 158.36C268.37 158.36 267.68 157.28 268.29 157.33L266.29 153.24C266.29 153.24 266.26 153.17 266.24 153.14L260.71 144.39L260.42 144.01L261.26 138.64C261.26 138.64 261.26 138.55 261.25 138.5L260.25 132.78C260.23 132.7 260.21 132.62 260.16 132.55L257.3 127.41C257.25 127.32 257.18 127.24 257.09 127.18L256.22 126.18C256.15 126.13 256.08 126.09 256 126.07L253.83 126.23C253.69 126.18 253.54 126.18 253.39 126.22L251.03 126.39C250.91 126.42 250.8 126.48 250.71 126.57L246.51 128.22C246.45 128.27 246.41 128.33 246.37 128.4L241.76 132.76C241.76 132.76 241.73 132.82 241.71 132.85L240.02 135.17C239.9 135.47 239.6 135.66 239.28 135.64C236.91 135.5 227.03 135.19 216.55 139.13C216.29 139.23 216 139.18 215.79 139C213.87 137.33 202.35 133.22 193.6 134.75C193.36 134.79 193.15 134.95 193.05 135.17C192.16 137.04 189.18 144.42 196.81 160.1C196.9 160.29 196.92 160.52 196.83 160.72C195.67 163.54 188.29 181.27 202.78 194.8C203 195.01 203.08 195.33 202.96 195.62C201.2 200.04 187.15 233.44 193.41 255.36C193.41 255.36 196.99 275.39 217.23 283.89C217.25 283.89 218.98 284.11 219 284.12C220.01 284.77 246.03 291.62 269.8 290.38C269.87 290.38 269.94 290.35 270.02 290.34C277.31 289.37 286.88 275.4 287.18 273.9C287.18 273.9 290.9 264.5 283.82 260.44C283.82 260.44 276.26 260.41 267.75 264.3C267.44 264.44 267.62 264.94 267.31 264.81L252.82 262.01C252.54 261.9 252.35 261.64 252.34 261.34L235.86 254.46C235.85 254.17 249.26 246.72 249.51 246.58L247.5 243.77C247.57 243.73 247.64 243.71 247.71 243.69L250.42 243.08C250.66 243.03 250.85 242.87 250.95 242.65L251.99 240.3C252.05 240.17 252.07 240.03 252.05 239.89L251.02 238.82C251 238.66 250.92 238.5 250.8 238.39L251.18 237.57C250.95 237.34 250.89 236.99 251.03 236.7L251.2 236.36C251.24 236.28 251.27 236.18 251.27 236.09L250.67 234.83C250.68 234.65 250.64 234.47 250.53 234.33L250.08 233.64C250.08 233.64 249.41 232.44 249.36 232.4L247.73 231.56C247.73 231.56 242.14 229.76 247.73 229.68L248.82 229.15C248.55 229.01 248.39 228.73 248.41 228.43L248.84 220.52L249.09 212.88C249.1 212.43 249.36 212.81 249.8 212.86L250.75 212.91C251.19 212.97 250.77 211.88 250.8 211.44V211.26C250.83 210.88 251.13 210.58 251.67 210.83L252.77 210.73C252.88 210.42 253.2 210.63 253.31 210.37L253.28 209.9C253.4 209.64 253.64 209.92 253.92 209.9L256.13 209.85C256.5 209.83 256.68 209.01 256.72 208.64H256.56C256.56 208.64 271.07 213.02 281.47 218.81C281.97 219.09 282.95 219.37 282.98 218.81L283.1 209.93C283.11 209.71 283.03 209.49 282.86 209.34C280.72 207.37 265.57 194.02 260.7 191.95" fill="white"/>
<path d="M276.15 204.58C276.05 204.58 275.95 204.54 275.87 204.47C266.54 195.98 260.65 192.67 260.59 192.64C260.39 192.53 260.32 192.27 260.43 192.07C260.54 191.87 260.8 191.8 261 191.91C261.06 191.94 267.03 195.29 276.43 203.85C276.6 204.01 276.61 204.27 276.46 204.44C276.38 204.53 276.27 204.58 276.15 204.58Z" fill="#786659"/>
<path d="M169.11 271.5C169.11 271.5 170.13 291.6 136.56 305.51C136.56 305.51 122.36 307.28 126.65 315.86C130.94 324.44 148.98 315.12 148.98 315.12C148.98 315.12 191.28 291.94 176.86 258.57" fill="#FFEED4"/>
<path d="M68.1398 252.91C66.8598 248.32 64.5598 247.45 62.5898 247.73C60.6198 248.01 58.8598 249.55 58.1698 251.51C53.6398 264.39 58.8598 274.1 62.4898 278.84C64.3598 281.28 68.6598 282.82 71.6198 281.97C76.8398 280.48 84.4198 275.36 84.4198 275.36L84.1098 272.24L81.2398 273.04L77.0598 274.22L74.9398 273.87L72.8498 272.9L70.7098 271.94L69.3898 270.17L68.7498 268.65L68.1398 265.82L68.2598 252.89" fill="white"/>
<path d="M107.27 183.26L105.68 182.071L105.15 181.66L101.23 177.59C101.18 177.54 101.14 177.48 101.1 177.41L97.16 170.15C97.12 170.07 97.09 169.99 97.07 169.9L95.92 163.01C95.92 162.96 95.91 162.91 95.91 162.86L96.08 155.79C96.08 155.73 96.09 155.67 96.11 155.61L98.7 146.86C98.7 146.86 98.73 146.77 98.74 146.73L101.07 141.63C101.07 141.63 101.1 141.56 101.13 141.53L107.2 132.38L107.51 131.97L107.53 126.14C107.53 126.09 107.53 126.04 107.54 125.99L108.92 118.74C108.94 118.65 108.97 118.57 109.01 118.49L112.25 112.82C112.31 112.72 112.38 112.64 112.47 112.57L115.17 110.56C115.24 110.51 115.32 110.47 115.4 110.44L117.6 109.72C117.75 109.67 117.91 109.67 118.07 109.71L120.44 110.36C120.57 110.39 120.68 110.46 120.78 110.55L124.96 114.42C125.02 114.48 125.07 114.54 125.11 114.61L128.53 120.51C128.53 120.51 128.57 120.58 128.58 120.61L129.35 122.49C129.48 122.81 129.8 123.02 130.15 123C132.69 122.85 143.27 122.52 154.48 126.73C154.76 126.83 155.07 126.78 155.3 126.59C157.36 124.8 169.68 120.4 179.05 122.04C179.31 122.08 179.53 122.25 179.64 122.49C180.6 124.49 183.79 132.39 175.62 149.18C175.52 149.39 175.51 149.63 175.59 149.84C176.83 152.86 184.73 171.841 169.22 186.321C168.98 186.541 168.9 186.89 169.02 187.2C170.91 191.94 185.94 227.68 179.24 251.14C179.24 251.14 174.32 273.09 154.58 282.87C154.56 282.88 154.54 282.89 154.51 282.91C153.43 283.61 123.24 302.971 97.8 301.641C97.72 301.641 97.64 301.62 97.57 301.6C96.22 301.14 83.93 296.35 84.65 273.48C84.65 273.48 84.92 259.59 91.49 259.32C91.49 259.32 95.23 256.221 104.43 268.01C104.65 268.29 105.04 268.41 105.37 268.27L118.21 263.18C118.51 263.06 118.71 262.78 118.72 262.46L119.59 242.5C119.6 242.19 119.44 241.91 119.18 241.76L115.64 239.76C115.57 239.72 115.5 239.69 115.42 239.67L112.52 239.02C112.27 238.96 112.06 238.79 111.95 238.56L110.84 236.05C110.78 235.91 110.76 235.76 110.78 235.61L110.99 234.08C111.01 233.9 111.1 233.74 111.22 233.62L111.7 233.14C111.95 232.89 112.01 232.521 111.86 232.211L111.68 231.84C111.64 231.75 111.61 231.65 111.6 231.55L111.48 230.15C111.46 229.96 111.52 229.771 111.63 229.61L113.07 227.59C113.11 227.54 113.15 227.49 113.2 227.45L115.65 225.34C115.65 225.34 115.75 225.26 115.81 225.23L119.92 223.12C120.21 222.97 120.38 222.671 120.36 222.351L119.9 213.881L119.64 205.7C119.62 205.22 119.36 205.62 118.88 205.68L117.86 205.73C117.39 205.79 117.83 204.62 117.81 204.15V203.961C117.78 203.561 117.46 203.23 116.88 203.5L115.71 203.4C115.59 203.07 115.25 203.29 115.13 203.021L115.17 202.521C115.05 202.241 114.78 202.55 114.48 202.521L112.12 202.47C111.72 202.451 111.53 201.57 111.49 201.17H111.66C111.66 201.17 96.13 205.86 85 212.05C84.47 212.34 83.42 212.65 83.39 212.05L83.26 202.54C83.25 202.3 83.34 202.071 83.52 201.91C85.81 199.8 102.03 185.521 107.24 183.3" fill="white"/>
<path d="M83.1999 202.6C83.0999 202.6 82.9899 202.56 82.9099 202.49C82.7399 202.33 82.7399 202.07 82.8899 201.9C94.0599 190.13 106.74 183.03 106.87 182.96C107.07 182.85 107.33 182.92 107.44 183.12C107.55 183.32 107.48 183.58 107.28 183.69C107.15 183.76 94.5799 190.79 83.4999 202.47C83.4199 202.56 83.3099 202.6 83.1999 202.6Z" fill="#786659"/>
<path d="M103.65 203.7C103.65 203.7 103.63 203.7 103.62 203.7C103.39 203.68 103.22 203.49 103.23 203.26C103.56 198.25 106.3 193.88 106.42 193.7C106.54 193.5 106.8 193.45 107 193.57C107.19 193.69 107.25 193.95 107.13 194.14C107.1 194.18 104.39 198.52 104.07 203.31C104.06 203.53 103.87 203.7 103.65 203.7Z" fill="#786659"/>
<path d="M95.4234 296.026C97.6351 295.384 98.0162 290.001 96.2746 284.002C94.5329 278.003 91.3281 273.661 89.1164 274.303C86.9047 274.945 86.5237 280.329 88.2653 286.327C90.0069 292.326 93.2117 296.668 95.4234 296.026Z" fill="#FFD3C0"/>
<path d="M88.79 270.24C88.79 271.52 88.16 272.56 87.39 272.56C86.62 272.56 85.99 271.52 85.99 270.24C85.99 268.96 86.62 267.92 87.39 267.92C88.16 267.92 88.79 268.96 88.79 270.24Z" fill="#FFD3C0"/>
<path d="M96.0272 271.139C96.289 269.885 95.8877 268.74 95.1308 268.582C94.3739 268.424 93.5481 269.313 93.2863 270.567C93.0245 271.821 93.4258 272.966 94.1827 273.124C94.9396 273.282 95.7654 272.393 96.0272 271.139Z" fill="#FFD3C0"/>
<path d="M92.77 267.34C92.77 268.94 92.03 270.24 91.12 270.24C90.21 270.24 89.47 268.94 89.47 267.34C89.47 265.74 90.21 264.44 91.12 264.44C92.03 264.44 92.77 265.74 92.77 267.34Z" fill="#FFD3C0"/>
<path d="M60.1321 255.734C60.2579 254.681 59.8441 253.766 59.208 253.69C58.5719 253.614 57.9542 254.406 57.8285 255.459C57.7028 256.512 58.1165 257.427 58.7526 257.503C59.3888 257.579 60.0064 256.787 60.1321 255.734Z" fill="#FFD3C0"/>
<path d="M65.9845 257.226C66.3229 256.221 66.105 255.241 65.4979 255.037C64.8907 254.832 64.1242 255.481 63.7858 256.486C63.4474 257.491 63.6653 258.471 64.2724 258.676C64.8796 258.88 65.6461 258.231 65.9845 257.226Z" fill="#FFD3C0"/>
<path d="M63.6808 253.743C63.838 252.426 63.3563 251.287 62.605 251.197C61.8537 251.107 61.1173 252.102 60.9601 253.418C60.803 254.734 61.2846 255.874 62.0359 255.963C62.7872 256.053 63.5236 255.059 63.6808 253.743Z" fill="#FFD3C0"/>
<path d="M65.5446 278.327C67.5759 277.738 67.9257 272.792 66.3257 267.282C64.7258 261.771 61.782 257.782 59.7506 258.372C57.7193 258.961 57.3695 263.907 58.9695 269.417C60.5694 274.928 63.5132 278.917 65.5446 278.327Z" fill="#FFD3C0"/>
<path d="M74.9399 190.581C74.9399 190.581 69.9399 208.931 68.8499 218.071L68.3699 254.291L68.1199 266.961L70.3899 271.121C70.3899 271.121 73.0199 275.131 78.8499 273.491L84.7099 272.071L86.8099 262.631L89.6599 259.441L92.6399 258.331L96.0599 259.571L100.92 263.621L104.69 268.301C104.69 268.301 119.03 264.281 119.07 261.741V241.641C119.07 241.641 115.79 240.691 115.19 238.561L112.82 238.861L110.61 235.941L111.32 232.331C111.32 232.331 110.26 228.801 113.56 226.271L119.56 222.541L119.42 215.571L119.67 204.981L112.15 207.131L107.19 208.631L102.37 210.131L80.2499 220.251L77.1799 221.461L71.8399 218.061L77.4599 190.971L74.9599 190.561L74.9399 190.581Z" fill="#7DD1AC"/>
<path d="M111.5 232.98C111.34 232.98 111.19 232.89 111.12 232.73C110.13 230.48 111.07 228.14 113.84 225.97C116.13 224.17 118.22 223.23 120.66 222.37C143.59 214.29 152.7 199.13 152.79 198.98C152.91 198.78 153.16 198.72 153.36 198.83C153.56 198.95 153.63 199.2 153.51 199.4C153.42 199.55 144.18 214.96 120.94 223.15C118.58 223.98 116.56 224.89 114.36 226.62C112.66 227.95 110.85 230.04 111.89 232.39C111.98 232.6 111.89 232.85 111.68 232.94C111.63 232.96 111.57 232.98 111.51 232.98H111.5Z" fill="#786659"/>
<path d="M113.9 239.41C113.64 239.41 113.39 239.38 113.15 239.33C112.19 239.11 111.46 238.47 110.99 237.42C110.25 235.76 110.23 234.37 110.95 233.3C112.51 230.97 116.96 231.09 117.15 231.09C117.38 231.09 117.56 231.29 117.55 231.52C117.55 231.75 117.36 231.95 117.12 231.92C117.08 231.92 112.94 231.81 111.64 233.76C111.09 234.58 111.13 235.69 111.74 237.07C112.1 237.88 112.62 238.35 113.32 238.5C115.55 239 118.79 236.29 118.82 236.26C119 236.11 119.26 236.13 119.41 236.31C119.56 236.49 119.54 236.75 119.36 236.9C119.23 237.01 116.38 239.4 113.89 239.4L113.9 239.41Z" fill="#786659"/>
<path d="M122.58 242.15C120.36 242.15 118.71 241.83 117.48 241.36C115.24 240.51 114.68 239.24 114.66 239.19C114.57 238.98 114.66 238.73 114.88 238.64C115.09 238.55 115.33 238.64 115.42 238.86C115.43 238.89 115.93 239.91 117.87 240.62C121.39 241.91 130.68 242.46 153.34 231.72C153.55 231.62 153.8 231.72 153.9 231.92C154 232.13 153.91 232.38 153.7 232.48C137.88 239.98 128.33 242.16 122.58 242.16V242.15Z" fill="#786659"/>
<path d="M118.93 263.281H118.92C118.69 263.281 118.51 263.081 118.52 262.851C118.69 257.581 118.96 241.831 118.96 241.671C118.96 241.441 119.15 241.261 119.38 241.261C119.61 241.261 119.79 241.451 119.79 241.681C119.79 241.841 119.52 257.591 119.35 262.871C119.35 263.101 119.16 263.271 118.93 263.271V263.281Z" fill="#786659"/>
<path d="M70.1399 282.54C66.8799 282.54 63.3699 281.18 61.7699 279.09C55.9799 271.52 54.5099 262.2 57.3899 251.38C57.9499 249.28 59.8599 247.64 62.1499 247.31C63.5599 247.11 66.9999 247.24 68.5499 252.79C68.6099 253.01 68.4799 253.24 68.2599 253.3C68.0399 253.36 67.8099 253.23 67.7499 253.01C66.3799 248.1 63.4599 247.96 62.2699 248.13C60.3099 248.41 58.6699 249.8 58.1999 251.59C55.3899 262.14 56.8199 271.22 62.4399 278.58C64.2799 280.99 68.9499 282.31 72.4299 281.43C77.5499 280.13 84.1099 275.08 84.1699 275.03C84.3499 274.89 84.6099 274.92 84.7499 275.1C84.8899 275.28 84.8599 275.54 84.6799 275.68C84.4099 275.89 77.9199 280.89 72.6299 282.23C71.8399 282.43 70.9999 282.52 70.1399 282.52V282.54Z" fill="#786659"/>
<path d="M77.0599 274.651C76.8799 274.651 76.7099 274.531 76.6599 274.351C76.5999 274.131 76.7299 273.901 76.9499 273.841L84.5899 271.681C84.8099 271.621 85.0399 271.751 85.0999 271.971C85.1599 272.191 85.0299 272.421 84.8099 272.481L77.1699 274.641C77.1699 274.641 77.0899 274.661 77.0599 274.661V274.651Z" fill="#786659"/>
<path d="M77.6099 192.42L82.4099 193.52L79.0899 207.34L77.0099 215.87L81.1799 213.79L95.1399 207.16L107.62 201.9L110.97 200.87V202.18L114.51 202.47L115.08 203.43L117.2 203.65V205.71C117.2 205.71 88.5499 214.76 77.1599 221.45L72.3899 218.65C72.3899 218.65 76.0799 193.45 77.6099 192.4V192.42Z" fill="white"/>
<path d="M130.14 123.171C129.79 123.191 129.47 122.981 129.34 122.661L128.57 120.751C128.57 120.751 128.54 120.681 128.52 120.651L125.1 114.661C125.06 114.591 125.01 114.521 124.95 114.471L120.78 110.551C120.68 110.461 120.57 110.391 120.44 110.361L118.07 109.701C117.92 109.661 117.75 109.661 117.6 109.711L115.4 110.441C115.32 110.471 115.24 110.511 115.17 110.561L112.47 112.601C112.38 112.671 112.31 112.751 112.25 112.851L109.01 118.601C108.97 118.681 108.93 118.771 108.92 118.861L107.54 126.221C107.54 126.221 107.53 126.321 107.53 126.371L107.51 132.291L107.2 132.701L101 141.791C101 141.791 100.96 141.861 100.94 141.901L98.4399 147.131C98.4399 147.131 98.4099 147.211 98.3999 147.261L96.1099 156.311C96.1099 156.311 96.1099 156.351 96.1099 156.371C99.5799 157.441 103.26 158.021 107.08 158.021C127.88 158.021 143.08 145.941 143.08 124.841C143.08 124.531 143.06 124.231 143.06 123.931C136.75 122.911 131.79 123.071 130.16 123.171H130.14Z" fill="#FFEED4"/>
<path d="M131.43 167.4C131.19 168.67 129.39 170.19 127.52 169.84C125.65 169.49 124.41 167.4 124.65 166.13C124.89 164.86 126.6 164.11 128.47 164.46C130.34 164.81 131.67 166.12 131.44 167.39L131.43 167.4Z" fill="#786659"/>
<path d="M126.98 172.16C126.98 172.16 126.94 172.16 126.92 172.16C126.69 172.13 126.53 171.92 126.56 171.69L127.21 166.96C127.24 166.73 127.45 166.58 127.68 166.6C127.91 166.63 128.07 166.84 128.04 167.07L127.39 171.8C127.36 172.01 127.18 172.16 126.98 172.16Z" fill="#786659"/>
<path d="M106.02 171.45C109.566 171.45 112.44 168.576 112.44 165.03C112.44 161.485 109.566 158.61 106.02 158.61C102.474 158.61 99.5999 161.485 99.5999 165.03C99.5999 168.576 102.474 171.45 106.02 171.45Z" fill="#FFD3C0"/>
<path d="M150.45 178.101C153.995 178.101 156.87 175.226 156.87 171.681C156.87 168.135 153.995 165.261 150.45 165.261C146.904 165.261 144.03 168.135 144.03 171.681C144.03 175.226 146.904 178.101 150.45 178.101Z" fill="#FFD3C0"/>
<path d="M104.99 164.301C99.07 159.921 92.02 156.831 84.65 156.151C83.72 156.011 82.42 156.031 81.48 155.981C90 155.381 98.59 158.771 105 164.311L104.99 164.301Z" fill="#786659"/>
<path d="M104.62 168.471C98.7599 168.061 92.7899 168.851 87.3899 171.201C92.5399 168.261 98.8199 167.431 104.62 168.471Z" fill="#786659"/>
<path d="M116.23 168.871C115.75 168.871 115.27 168.841 114.79 168.781C111.84 168.401 109.21 166.901 107.39 164.541C105.57 162.181 104.77 159.261 105.15 156.311C105.53 153.361 107.03 150.731 109.39 148.911C111.75 147.091 114.67 146.291 117.62 146.671C123.72 147.451 128.04 153.051 127.26 159.151C126.88 162.101 125.38 164.731 123.02 166.551C121.05 168.071 118.68 168.881 116.23 168.881V168.871ZM116.18 147.191C113.87 147.191 111.63 147.951 109.77 149.391C107.55 151.111 106.12 153.591 105.77 156.381C105.41 159.171 106.16 161.931 107.88 164.151C109.6 166.371 112.08 167.801 114.87 168.151C117.66 168.511 120.42 167.761 122.64 166.041C124.86 164.321 126.29 161.841 126.64 159.051C127.38 153.301 123.3 148.011 117.54 147.271C117.09 147.211 116.63 147.181 116.18 147.181V147.191Z" fill="#786659"/>
<path d="M142.32 172.211C141.85 172.211 141.37 172.181 140.9 172.121C134.8 171.341 130.48 165.741 131.26 159.641C131.64 156.691 133.14 154.061 135.5 152.241C137.86 150.421 140.78 149.621 143.73 150.001C146.68 150.381 149.31 151.881 151.13 154.241C152.95 156.601 153.75 159.521 153.37 162.471C152.65 168.091 147.84 172.201 142.32 172.201V172.211ZM142.29 150.541C139.98 150.541 137.74 151.301 135.88 152.741C133.66 154.461 132.23 156.941 131.88 159.731C131.14 165.481 135.22 170.771 140.98 171.511C146.73 172.251 152.02 168.171 152.76 162.411C153.12 159.621 152.37 156.861 150.65 154.641C148.93 152.421 146.45 150.991 143.66 150.641C143.21 150.581 142.75 150.551 142.3 150.551L142.29 150.541Z" fill="#786659"/>
<path d="M131.56 160.001C131.49 160.001 131.41 159.971 131.35 159.921C129.15 157.921 127.16 159.331 127.14 159.351C127 159.451 126.81 159.421 126.7 159.281C126.6 159.141 126.63 158.941 126.77 158.841C126.79 158.821 129.19 157.121 131.77 159.451C131.9 159.571 131.91 159.761 131.79 159.891C131.73 159.961 131.64 159.991 131.56 159.991V160.001Z" fill="#786659"/>
<path d="M103.01 166.28C96.21 163.32 88.32 162.43 81.2 164.68L79.77 165.14C87.09 161.76 95.98 162.5 103.01 166.28Z" fill="#786659"/>
<path d="M151.05 168.63C158.28 164.22 167.31 162.29 175.62 164.29C174.67 164.18 173.4 163.95 172.46 163.94C165.08 163.4 157.61 165.29 151.05 168.64V168.63Z" fill="#786659"/>
<path d="M153.86 170.271C161.42 167.691 170.3 168.431 176.97 172.971L175.64 172.281C168.98 168.891 161.05 168.471 153.86 170.271Z" fill="#786659"/>
<path d="M151.38 171.9C157.27 171.83 163.33 173.69 167.93 177.43C162.99 174.22 157.23 172.46 151.38 171.9Z" fill="#786659"/>
<path d="M132.49 122.9C132.21 123.75 131.93 124.64 131.67 125.56C129.81 132.1 129.24 137.66 130.41 138C131.58 138.33 134.03 133.3 135.89 126.77C136.26 125.47 136.57 124.22 136.84 123.03C135.13 122.92 133.66 122.89 132.49 122.9Z" fill="#D4A980"/>
<path d="M138.17 139.38C139.34 139.71 141.79 134.68 143.65 128.15C144.06 126.7 144.4 125.31 144.68 124.01C143.24 123.74 141.86 123.53 140.56 123.37C140.17 124.49 139.79 125.69 139.43 126.94C137.57 133.48 137 139.04 138.17 139.38Z" fill="#D4A980"/>
<path d="M145.25 140.571C146.42 140.901 148.87 135.871 150.73 129.341C151.08 128.101 151.39 126.891 151.64 125.751C150.27 125.321 148.93 124.951 147.61 124.641C147.23 125.741 146.86 126.911 146.51 128.141C144.65 134.681 144.08 140.241 145.25 140.581V140.571Z" fill="#D4A980"/>
<path d="M120.737 158.729C120.882 157.178 119.988 155.826 118.739 155.71C117.491 155.593 116.362 156.755 116.216 158.306C116.071 159.856 116.965 161.208 118.213 161.325C119.462 161.442 120.591 160.28 120.737 158.729Z" fill="#786659"/>
<path d="M138.64 163.8C137.39 163.8 136.37 162.54 136.37 160.98C136.37 159.42 137.39 158.16 138.64 158.16C139.89 158.16 140.91 159.42 140.91 160.98C140.91 162.54 139.89 163.8 138.64 163.8Z" fill="#786659"/>
<path d="M82.3999 195.41L77.6799 215.29L83.1999 212.42C83.1999 212.42 83.0099 196.05 82.3999 195.41Z" fill="white"/>
<path d="M83.41 212.84C83.19 212.84 83 212.66 82.99 212.44L82.26 193.31C82.26 193.08 82.43 192.89 82.66 192.88C82.88 192.88 83.08 193.05 83.09 193.28L83.82 212.41C83.82 212.64 83.65 212.83 83.42 212.84H83.4H83.41Z" fill="#786659"/>
<path d="M77.2599 216.21C77.1699 216.21 77.0799 216.18 76.9999 216.12C76.8699 216.02 76.8099 215.85 76.8499 215.69L82.1799 193.6L77.4199 192.52C77.1999 192.47 77.0499 192.25 77.1099 192.02C77.1599 191.79 77.3799 191.65 77.6099 191.71L82.7799 192.88C82.8899 192.9 82.9799 192.97 83.0399 193.07C83.0999 193.16 83.1199 193.28 83.0899 193.39L77.8799 215.01C82.1799 212.8 102.4 202.54 111.09 200.42C111.21 200.39 111.35 200.42 111.45 200.5C111.55 200.58 111.61 200.7 111.61 200.83V201.72L114.7 201.81C114.87 201.81 115.02 201.92 115.08 202.08L115.38 202.88H117.48C117.71 202.88 117.9 203.07 117.9 203.3V205.43C117.9 205.66 117.71 205.85 117.48 205.85C117.25 205.85 117.06 205.66 117.06 205.43V203.71H115.09C114.92 203.71 114.76 203.6 114.7 203.44L114.4 202.63L111.18 202.54C110.95 202.54 110.77 202.35 110.77 202.12V201.36C100.84 204.01 77.6899 216.05 77.4499 216.17C77.3899 216.2 77.3199 216.22 77.2599 216.22V216.21Z" fill="#786659"/>
<path d="M162.2 133.041C164.47 128.251 170.85 125.871 175.62 128.301C174.32 128.261 173.1 128.171 171.88 128.321C168.15 128.651 165.01 130.491 162.2 133.031V133.041Z" fill="#786659"/>
<path d="M121.71 125.821C121.5 121.461 119.86 117.751 116.63 114.891C121.01 116.211 123.41 121.631 121.71 125.821Z" fill="#786659"/>
<path d="M179.24 251.11C185.94 227.65 170.91 191.9 169.02 187.17C168.9 186.86 168.98 186.52 169.22 186.29C170.13 185.44 170.95 184.58 171.7 183.7C162.72 188.81 158.74 208.07 162.79 229.63C165.21 242.51 169.99 253.58 175.64 260.74C178.31 255.25 179.24 251.1 179.24 251.1V251.11Z" fill="#FFEED4"/>
<path d="M179.24 251.11C180.29 247.44 180.81 243.46 180.92 239.36C180.24 238.84 179.51 238.4 178.72 238.07C169.52 234.26 156.1 245.58 148.75 263.34C144.97 272.48 143.54 281.54 144.29 288.7C150.26 285.61 154.15 283.11 154.52 282.87C154.54 282.86 154.56 282.84 154.59 282.83C174.33 273.04 179.25 251.1 179.25 251.1L179.24 251.11Z" fill="#FFEED4"/>
<path d="M101.44 302.29C100.27 302.29 99.1199 302.24 97.9899 302.14C96.2199 301.98 94.5499 301.19 93.2799 299.91C88.9999 295.59 79.7499 283.37 86.2599 263.23C86.9099 261.23 88.3898 259.65 90.3398 258.92C92.2998 258.18 94.4799 258.37 96.3099 259.45C99.1199 261.11 102.01 264 104.9 268.06C106.83 267.52 118.44 264.11 125.16 258.07C125.33 257.92 125.59 257.93 125.75 258.1C125.9 258.27 125.89 258.53 125.72 258.69C118.25 265.4 104.96 268.91 104.83 268.95C104.66 268.99 104.48 268.93 104.38 268.79C101.5 264.71 98.6399 261.81 95.8799 260.18C94.2699 259.23 92.3598 259.06 90.6298 259.71C88.9198 260.36 87.6199 261.74 87.0499 263.5C80.6799 283.2 89.6999 295.13 93.8699 299.34C94.9999 300.48 96.4899 301.19 98.0599 301.33C122.52 303.53 157.82 280.36 158.17 280.13C180.18 266.77 181.73 242.23 179.17 223.99C176.38 204.15 168.24 187.27 168.16 187.1C168.08 186.93 168.12 186.72 168.27 186.6C185.91 171.73 175.32 150.23 175.21 150.02C175.15 149.9 175.15 149.76 175.21 149.64C183.71 132.77 179.59 123.89 179.09 122.94C178.89 122.55 178.53 122.26 178.08 122.13C169.92 119.73 155.15 126.96 155 127.04C154.89 127.09 154.77 127.1 154.65 127.05C145.35 123.18 129.54 123.13 129.38 123.13C129.21 123.13 129.06 123.03 128.99 122.87C123.18 108.89 117.42 110.16 117.36 110.17C106.21 113.15 107.82 131.82 107.84 132.01C107.85 132.12 107.82 132.23 107.75 132.31C107.61 132.48 93.7899 149.69 96.7599 166.27C98.1799 174.22 103.23 180.8 111.76 185.84C111.96 185.96 112.02 186.21 111.91 186.41C111.79 186.61 111.54 186.68 111.34 186.56C102.59 181.4 97.4099 174.62 95.9499 166.42C93.0598 150.25 105.71 133.59 107.01 131.93C106.85 129.89 105.78 112.42 117.16 109.38C117.42 109.31 123.57 107.83 129.67 122.31C131.83 122.34 146.03 122.64 154.81 126.22C156.58 125.36 170.24 118.95 178.32 121.34C178.99 121.54 179.52 121.97 179.83 122.57C180.67 124.19 184.44 133.08 176.05 149.85C177.08 152.05 185.96 172.53 169.06 187.04C170.15 189.38 177.39 205.34 180.01 223.87C183.75 250.39 176.36 270.09 158.64 280.85C158.31 281.07 125.93 302.32 101.45 302.33L101.44 302.29Z" fill="#786659"/>
<path d="M77.0599 274.651C77.0599 274.651 77.0199 274.651 77.0099 274.651C70.9699 273.871 67.4199 270.221 67.5199 264.911L68.3599 219.711C68.9199 209.801 74.2199 190.301 74.2699 190.101C74.2999 189.991 74.3799 189.891 74.4799 189.841C74.5799 189.791 74.6999 189.781 74.8099 189.821L77.6099 190.821C77.8099 190.891 77.9199 191.101 77.8799 191.301C77.8399 191.461 74.2999 207.171 72.5199 218.561L77.2099 221.221C79.3499 220.131 98.1499 210.721 119.73 204.551C119.86 204.511 119.99 204.541 120.1 204.621C120.2 204.701 120.27 204.821 120.27 204.951V222.971C120.27 223.201 120.08 223.391 119.85 223.391C119.62 223.391 119.43 223.201 119.43 222.971V205.501C96.9299 212.001 77.5899 221.961 77.3899 222.061C77.2599 222.121 77.1199 222.121 76.9899 222.061L71.8499 219.151C71.6999 219.061 71.6199 218.891 71.6399 218.721C73.2699 208.241 76.4299 193.921 76.9799 191.481L74.9499 190.751C74.1599 193.691 69.6899 210.751 69.1899 219.741L68.3499 264.921C68.2599 269.711 71.2799 272.901 76.6499 273.751L77.2599 224.411C77.2599 224.181 77.4499 224.001 77.6799 224.001C77.9099 224.001 78.0899 224.191 78.0899 224.421L77.4699 274.231C77.4699 274.351 77.4199 274.461 77.3299 274.541C77.2499 274.611 77.1599 274.641 77.0599 274.641V274.651Z" fill="#786659"/>
<path d="M139.91 309.35C138.78 309.89 139.46 313.73 141.42 318.15C143.15 317.62 144.74 317.01 146.01 316.48C143.76 311.95 141.08 308.79 139.92 309.35H139.91Z" fill="#D4A980"/>
<path d="M147.2 306.23C146.05 306.78 146.77 310.71 148.79 315.22C148.92 315.16 148.99 315.12 148.99 315.12C148.99 315.12 150.54 314.27 152.94 312.66C150.77 308.51 148.31 305.7 147.2 306.23Z" fill="#D4A980"/>
<path d="M153.81 302.73C152.71 303.25 153.32 306.88 155.15 311.14C156.34 310.29 157.65 309.3 159.03 308.2C157 304.59 154.84 302.25 153.82 302.73H153.81Z" fill="#D4A980"/>
<path d="M133.83 319.911C132.56 319.911 131.35 319.761 130.26 319.401C128.43 318.801 127.09 317.671 126.27 316.041C125.22 313.951 125.14 312.051 126.02 310.401C128.22 306.291 135.65 305.201 136.44 305.091C169.26 291.481 168.69 271.711 168.68 271.511C168.67 271.281 168.85 271.081 169.08 271.071C169.31 271.051 169.51 271.231 169.52 271.461C169.53 271.661 170.17 292.021 136.71 305.871C136.68 305.881 136.64 305.891 136.6 305.901C136.52 305.901 128.82 306.921 126.75 310.781C126 312.181 126.09 313.811 127.01 315.651C127.72 317.071 128.9 318.061 130.51 318.591C137.05 320.721 148.66 314.791 148.78 314.731C149.19 314.501 190.57 291.351 176.47 258.711C176.38 258.501 176.47 258.251 176.69 258.161C176.9 258.071 177.15 258.161 177.24 258.381C183.2 272.181 180.23 286.441 168.64 299.611C159.92 309.521 149.29 315.401 149.18 315.461C148.76 315.681 140.52 319.881 133.83 319.881V319.911Z" fill="#786659"/>
<path d="M260.37 207.851C260.15 207.851 259.97 207.681 259.95 207.461C259.73 204.151 257.86 201.151 257.84 201.121C257.72 200.931 257.77 200.671 257.97 200.551C258.17 200.431 258.42 200.481 258.55 200.681C258.63 200.811 260.56 203.881 260.79 207.411C260.81 207.641 260.63 207.841 260.4 207.851C260.4 207.851 260.38 207.851 260.37 207.851Z" fill="#786659"/>
<path d="M239.96 176.66C240.18 177.85 241.87 179.27 243.62 178.94C245.37 178.61 246.53 176.66 246.31 175.48C246.09 174.3 244.49 173.59 242.74 173.92C240.99 174.25 239.75 175.47 239.97 176.66H239.96Z" fill="#786659"/>
<path d="M231.48 209.031L233.23 257.261L264.5 264.181C264.5 264.181 272.64 266.011 276.63 261.461L287.16 244.861L285.25 195.181L273.76 211.621C273.76 211.621 271.63 214.291 265.94 213.231L231.48 209.031Z" fill="#FFDF90"/>
<path d="M268.9 258.471C268.67 258.471 268.48 258.281 268.48 258.051V216.091C268.48 215.861 268.67 215.671 268.9 215.671C269.13 215.671 269.32 215.861 269.32 216.091V258.051C269.32 258.281 269.13 258.471 268.9 258.471Z" fill="#786659"/>
<path d="M275.7 252.661C275.47 252.661 275.28 252.471 275.28 252.241V214.721C275.28 214.491 275.47 214.301 275.7 214.301C275.93 214.301 276.12 214.491 276.12 214.721V252.241C276.12 252.471 275.93 252.661 275.7 252.661Z" fill="#786659"/>
<path d="M234.86 209.391L236.25 206.811L238.32 205.451L247.05 206.551L265.63 208.781L268.9 207.881L272.52 203.521L277.84 196.301L281.17 195.911L283.97 196.991L273.92 211.391L271.12 213.131L267.39 213.431L255.87 212.001L234.86 209.391Z" fill="white"/>
<path d="M234.42 209.8C234.37 209.8 234.31 209.79 234.26 209.77C234.05 209.68 233.95 209.44 234.03 209.23C234.1 209.06 235.76 205.14 239.09 204.89L264.13 207.94C264.2 207.95 268.15 208.69 269.34 206.47L276.88 196.62C277.21 196.13 277.75 195.78 278.36 195.68L278.66 195.63C279.77 195.43 281.44 195.13 284.29 196.39C284.5 196.48 284.6 196.73 284.5 196.94C284.41 197.15 284.16 197.25 283.95 197.15C281.34 195.99 279.87 196.26 278.81 196.45L278.5 196.5C278.12 196.56 277.78 196.78 277.56 197.1L270.04 206.91C268.6 209.62 264.19 208.79 264 208.75L239.07 205.7C236.34 205.92 234.82 209.5 234.8 209.53C234.73 209.69 234.58 209.79 234.41 209.79L234.42 209.8Z" fill="#786659"/>
<path d="M268.26 264.961C266.16 264.961 264.56 264.611 264.41 264.581L233.14 257.661C232.95 257.621 232.82 257.461 232.81 257.271L231.06 209.041C231.06 208.921 231.1 208.801 231.19 208.721C231.28 208.641 231.4 208.591 231.52 208.611L265.98 212.811C271.38 213.811 273.4 211.381 273.42 211.351L284.57 195.381C284.72 195.171 284.99 195.071 285.24 195.151C285.49 195.221 285.66 195.451 285.67 195.711L287.56 244.831C287.56 244.911 287.54 245.001 287.5 245.071L276.97 261.671C274.62 264.361 271 264.961 268.25 264.961H268.26ZM233.64 256.921L264.59 263.771C264.67 263.791 272.53 265.491 276.31 261.181L286.73 244.741L284.87 196.431L274.09 211.861C273.98 212.001 271.72 214.731 265.85 213.641L231.9 209.501L233.63 256.921H233.64Z" fill="#786659"/>
<path d="M248.53 230.581C246.05 229.461 242.22 228.331 238.82 226.141C226.45 218.131 220.29 221.821 219.41 226.521C218.78 229.901 225.09 240.941 229.18 243.121C230.45 246.091 234.62 246.671 238.56 247.401C240.2 247.711 241.78 248.041 243.27 247.741C243.52 247.941 247.63 247.401 247.67 247.381C252.71 244.191 256.21 245.571 254.72 239.741C253.86 236.381 259.02 236.941 248.53 230.581Z" fill="white"/>
<path d="M254.67 239.311C254.61 239.311 254.56 239.301 254.5 239.271C254.29 239.181 254.19 238.931 254.29 238.721C255.29 236.451 253.54 234.431 251.89 233.141C249.88 231.561 248.03 230.711 245.51 229.781C225.73 222.451 218.43 209.761 218.36 209.631C218.25 209.431 218.32 209.181 218.52 209.061C218.72 208.951 218.97 209.021 219.09 209.221C219.16 209.351 226.33 221.781 245.8 229.001C248.4 229.961 250.31 230.841 252.41 232.491C255.1 234.601 256.02 236.881 255.06 239.061C254.99 239.221 254.84 239.311 254.68 239.311H254.67Z" fill="#786659"/>
<path d="M252.35 245.551C249.93 245.551 247.16 243.231 247.04 243.121C246.86 242.971 246.84 242.711 246.99 242.531C247.14 242.351 247.4 242.331 247.58 242.481C247.61 242.511 250.75 245.151 252.9 244.651C253.58 244.501 254.08 244.041 254.42 243.271C255.02 241.941 255.05 240.861 254.52 240.071C253.26 238.191 249.25 238.291 249.21 238.291C248.99 238.311 248.79 238.121 248.78 237.891C248.77 237.661 248.95 237.471 249.18 237.461C249.36 237.451 253.69 237.341 255.21 239.611C255.91 240.661 255.9 242.001 255.18 243.621C254.72 244.641 254.02 245.261 253.08 245.481C252.84 245.531 252.6 245.561 252.35 245.561V245.551Z" fill="#786659"/>
<path d="M243.92 248.2C238.34 248.2 229.08 246.09 213.73 238.81C213.52 238.71 213.43 238.46 213.53 238.25C213.63 238.04 213.88 237.96 214.09 238.05C236.2 248.53 245.19 247.93 248.58 246.64C250.4 245.95 250.85 244.99 250.85 244.98C250.94 244.77 251.19 244.67 251.4 244.76C251.61 244.85 251.71 245.09 251.62 245.31C251.6 245.36 251.05 246.59 248.88 247.42C247.69 247.87 246.08 248.19 243.93 248.19L243.92 248.2Z" fill="#786659"/>
<path d="M278.9 264.65C278.84 264.65 278.78 264.64 278.72 264.61C278.51 264.51 278.43 264.26 278.53 264.05C280.37 260.24 283.77 260.28 283.91 260.3C284.14 260.3 284.32 260.5 284.31 260.73C284.31 260.96 284.13 261.16 283.88 261.14C283.76 261.14 280.87 261.12 279.27 264.42C279.2 264.57 279.05 264.66 278.89 264.66L278.9 264.65Z" fill="#786659"/>
<path d="M282.05 266.58C281.99 266.58 281.93 266.57 281.87 266.54C281.66 266.44 281.58 266.19 281.68 265.98C283.28 262.69 286.22 262.74 286.34 262.73C286.57 262.73 286.75 262.93 286.75 263.16C286.75 263.39 286.57 263.56 286.32 263.57C286.22 263.57 283.78 263.56 282.43 266.35C282.36 266.5 282.21 266.59 282.05 266.59V266.58Z" fill="#786659"/>
<path d="M286.54 251.001C286.54 251.001 286.48 251.001 286.45 251.001C286.23 250.951 286.08 250.731 286.13 250.501C286.92 246.961 289.77 246.331 289.89 246.301C290.12 246.251 290.34 246.401 290.38 246.621C290.43 246.841 290.28 247.061 290.06 247.111C289.96 247.131 287.61 247.671 286.94 250.671C286.9 250.861 286.72 251.001 286.53 251.001H286.54Z" fill="#786659"/>
<path d="M289.19 251.81C289.19 251.81 289.13 251.81 289.1 251.81C288.88 251.76 288.73 251.54 288.78 251.31C289.43 248.4 291.77 247.88 291.87 247.86C292.09 247.81 292.32 247.96 292.36 248.18C292.41 248.4 292.26 248.62 292.04 248.67C291.96 248.69 290.11 249.12 289.59 251.48C289.55 251.67 289.37 251.81 289.18 251.81H289.19Z" fill="#786659"/>
<path d="M288.06 270.41C287.94 270.41 287.83 270.36 287.75 270.27C287.6 270.1 287.61 269.83 287.79 269.68C287.85 269.62 294.24 263.81 293.07 251.4C292.89 249.53 291.84 247.87 290.32 247.06C289.17 246.45 287.86 246.28 286.42 246.57C286.19 246.62 285.97 246.47 285.93 246.24C285.88 246.01 286.03 245.79 286.26 245.75C287.9 245.43 289.4 245.62 290.72 246.32C292.51 247.28 293.71 249.15 293.91 251.32C295.12 264.18 288.63 270.06 288.35 270.3C288.27 270.37 288.17 270.4 288.07 270.4L288.06 270.41Z" fill="#786659"/>
<path d="M227.65 286.33C232.77 281.91 229.11 269.3 219.49 258.16C217.82 256.23 216.08 254.47 214.32 252.91C216.04 247.76 217.28 241.86 217.86 235.54C219.82 214.17 213.45 196.12 203.63 195.22C203.42 195.2 203.2 195.2 202.99 195.2C203.01 195.33 203 195.47 202.95 195.6C201.19 200.02 187.14 233.42 193.4 255.34C193.4 255.34 196.98 275.37 217.22 283.87C217.24 283.87 218.97 284.09 218.99 284.1C219.33 284.32 222.57 285.26 227.63 286.35C227.63 286.35 227.64 286.35 227.65 286.34V286.33Z" fill="#CECECE"/>
<path d="M232.6 162.98C234.48 160.29 236.11 156.21 236.72 153.31C247.11 161.81 250.18 163.16 255.81 165.01C261.79 166.97 266.15 167.71 271.13 167.8L271.09 166.26C271.09 166.2 271.09 166.15 271.07 166.09L268.37 158.36C268.37 158.36 267.68 157.28 268.29 157.33L266.29 153.24C266.29 153.24 266.26 153.17 266.24 153.14L260.71 144.39L260.42 144.01L261.26 138.64C261.26 138.64 261.26 138.55 261.25 138.5L260.25 132.78C260.23 132.7 260.21 132.62 260.16 132.55L257.3 127.41C257.25 127.32 257.18 127.24 257.09 127.18L256.22 126.18C256.15 126.13 256.08 126.09 256 126.07L253.83 126.23C253.69 126.18 253.54 126.18 253.39 126.22L251.03 126.39C250.91 126.42 250.8 126.48 250.71 126.57L247.86 127.69L244.45 130.49C244.45 130.49 244.41 130.55 244.4 130.58L242.45 132.9C242.31 133.2 241.97 133.39 241.59 133.37C241.51 133.37 241.43 133.37 241.34 133.36L240.02 135.17C239.9 135.47 239.6 135.66 239.28 135.64C236.91 135.5 227.03 135.19 216.55 139.13C216.29 139.23 216 139.18 215.79 139C213.87 137.33 202.35 133.22 193.6 134.75C193.36 134.79 193.15 134.95 193.05 135.17C192.16 137.04 189.18 144.42 196.81 160.1C196.9 160.29 196.92 160.52 196.83 160.72C196.02 162.7 192.17 171.98 194.9 182.02C209.4 181.64 223.38 176.24 232.61 163.02L232.6 162.98Z" fill="#CECECE"/>
<path d="M244.11 181.13C243.9 181.13 243.73 180.98 243.7 180.77L243.09 176.35C243.06 176.12 243.22 175.91 243.45 175.88C243.68 175.84 243.89 176.01 243.92 176.24L244.53 180.66C244.56 180.89 244.4 181.1 244.17 181.13C244.15 181.13 244.13 181.13 244.11 181.13Z" fill="#786659"/>
<path d="M262.68 180.8C265.872 180.8 268.46 178.212 268.46 175.02C268.46 171.828 265.872 169.24 262.68 169.24C259.488 169.24 256.9 171.828 256.9 175.02C256.9 178.212 259.488 180.8 262.68 180.8Z" fill="#FFD3C0"/>
<path d="M214.4 187.801C217.598 187.801 220.19 185.208 220.19 182.011C220.19 178.813 217.598 176.221 214.4 176.221C211.202 176.221 208.61 178.813 208.61 182.011C208.61 185.208 211.202 187.801 214.4 187.801Z" fill="#FFD3C0"/>
<path d="M262.85 172.69C268.18 168.75 274.53 165.97 281.16 165.35C281.99 165.22 283.17 165.24 284.02 165.2C276.35 164.66 268.62 167.71 262.85 172.69Z" fill="#786659"/>
<path d="M263.94 178.12C269.21 177.75 274.58 178.46 279.45 180.58C274.82 177.94 269.16 177.19 263.94 178.12Z" fill="#786659"/>
<path d="M264.63 174.93C270.75 172.27 277.85 171.47 284.26 173.49L285.54 173.9C278.95 170.86 270.95 171.52 264.62 174.93H264.63Z" fill="#786659"/>
<path d="M212.16 183.56C206.85 183.5 201.39 185.17 197.25 188.54C201.7 185.65 206.89 184.06 212.16 183.56Z" fill="#786659"/>
<path d="M250.061 170.858C251.046 170.766 251.751 169.702 251.637 168.481C251.522 167.26 250.632 166.345 249.647 166.438C248.663 166.53 247.958 167.594 248.072 168.815C248.187 170.036 249.077 170.95 250.061 170.858Z" fill="#786659"/>
<path d="M231.48 173.73C232.469 173.73 233.27 172.736 233.27 171.51C233.27 170.284 232.469 169.29 231.48 169.29C230.491 169.29 229.69 170.284 229.69 171.51C229.69 172.736 230.491 173.73 231.48 173.73Z" fill="#786659"/>
<path d="M213.85 179.251C207.34 175.281 199.2 173.541 191.72 175.341C192.58 175.251 193.72 175.031 194.57 175.021C201.22 174.541 207.95 176.241 213.86 179.251H213.85Z" fill="#786659"/>
<path d="M212.54 181.46C205.73 179.14 197.73 179.8 191.72 183.89L192.92 183.27C198.92 180.22 206.06 179.84 212.54 181.46Z" fill="#786659"/>
<path d="M195.75 216.69C205.13 217.56 212.19 217.28 212.36 215.91C212.53 214.58 206.19 212.64 197.35 211.15C196.81 212.91 196.26 214.76 195.74 216.69H195.75Z" fill="#8F8F8F"/>
<path d="M193.48 226.51C202.33 227.26 208.87 226.96 209.04 225.64C209.2 224.34 203.17 222.46 194.66 220.99C194.23 222.79 193.84 224.64 193.48 226.51Z" fill="#8F8F8F"/>
<path d="M201.16 234.86C201.28 233.89 197.93 232.59 192.67 231.38C192.45 232.95 192.26 234.53 192.12 236.11C197.49 236.25 201.04 235.83 201.16 234.86Z" fill="#8F8F8F"/>
<path d="M209.3 145.301C206.63 142.961 203.73 141.261 200.25 140.931C199.12 140.781 197.98 140.861 196.76 140.881C201.2 138.541 207.23 140.791 209.3 145.311V145.301Z" fill="#786659"/>
<path d="M246.02 137.34C247.01 133.32 251.14 130.27 255.26 130.42C251.61 132.06 248.61 134.23 246.02 137.34Z" fill="#786659"/>
<path d="M263.61 291.371C251.35 291.371 234.07 288.641 223.66 286.211C208.12 282.581 196.06 270.261 192.94 254.821C187.75 229.181 201.33 199.021 202.86 195.731C187.1 182.181 195.34 163.101 196.33 160.981C188.49 145.311 192.01 136.991 192.8 135.481C193.09 134.931 193.61 134.501 194.23 134.321C201.78 132.091 214.51 138.051 216.21 138.871C224.44 135.521 237.75 135.241 239.71 135.221C244.75 126.511 252.69 125.791 255.02 125.771C255.58 125.791 256.13 126.011 256.49 126.441C263.62 134.881 261.42 142.831 260.93 144.281C262.38 146.141 273.89 161.531 271.22 176.471C269.85 184.141 265 190.481 256.83 195.301C256.63 195.421 256.38 195.351 256.26 195.151C256.14 194.951 256.21 194.701 256.41 194.581C264.37 189.881 269.08 183.741 270.41 176.321C273.18 160.841 260.28 144.781 260.15 144.621C260.05 144.501 260.03 144.341 260.09 144.201C260.12 144.121 263.38 135.871 255.87 126.981C255.67 126.741 255.37 126.611 255.05 126.611C252.82 126.621 245.15 127.331 240.34 135.841C240.27 135.971 240.13 136.051 239.98 136.051C239.83 136.051 225.06 136.101 216.38 139.711C216.27 139.761 216.14 139.751 216.03 139.701C215.89 139.631 202.11 132.871 194.49 135.121C194.08 135.241 193.75 135.511 193.56 135.871C193.1 136.761 189.25 145.041 197.18 160.791C197.24 160.911 197.24 161.051 197.18 161.171C197.08 161.371 187.2 181.441 203.66 195.311C203.81 195.431 203.85 195.641 203.77 195.811C203.62 196.131 188.36 227.921 193.78 254.661C196.84 269.781 208.66 281.851 223.88 285.411C236.6 288.381 259.61 291.801 270.98 290.091C272.48 289.861 276.21 287.721 279.02 284.441C283.58 279.111 288.38 272.871 287.6 266.321C287.32 264.011 286.06 262.141 284.22 261.321C282.39 260.501 279.15 260.281 274.07 263.841C272.81 264.721 270.63 265.071 267.22 264.921C267.08 264.901 257.16 263.401 246.18 260.531C245.96 260.471 245.82 260.241 245.88 260.021C245.94 259.801 246.17 259.661 246.39 259.721C257.32 262.571 267.2 264.071 267.3 264.081C270.43 264.211 272.5 263.911 273.59 263.141C278.99 259.351 282.54 259.641 284.56 260.541C286.67 261.481 288.11 263.601 288.42 266.201C289.24 273.081 284.33 279.491 279.65 284.961C276.68 288.441 272.78 290.641 271.1 290.891C268.97 291.211 266.43 291.351 263.63 291.351L263.61 291.371Z" fill="#786659"/>
<g opacity="0.9">
<path d="M254.4 72.6601C254.89 71.7201 255.29 70.7501 255.64 69.7501C257.69 63.7501 267.07 41.7901 289.6 60.6401C289.6 60.6401 305.93 73.7201 318.33 78.9401C318.33 78.9401 335.97 84.0201 335.23 96.5201C334.9 102 331.52 108.95 328.74 113.81C326.77 117.26 324.37 120.43 321.62 123.29L298.23 147.57L304.21 132.05C304.21 132.05 305.08 129.73 301.75 128.38C298.52 127.07 269.22 118.12 251.76 100.25C250.13 98.5801 249.04 96.4701 248.75 94.1601C248.25 90.1801 248.89 83.2901 254.42 72.6501L254.4 72.6601Z" fill="#FFEABB" fill-opacity="0.75"/>
</g>
<g opacity="0.35">
<path d="M97.2599 108.63C97.2599 108.63 95.3999 97.0902 108.43 90.8702C121.46 84.6502 141.78 74.2902 141.59 56.8002C141.46 44.9002 134.89 33.7402 130.69 27.8102C127.53 23.3402 122.59 20.3902 117.13 19.9402C107.57 19.1502 91.2899 23.0402 68.4099 46.4902C68.4099 46.4902 63.9799 51.1402 48.0699 55.7202C48.0699 55.7202 14.9699 63.4402 19.4799 90.8202C19.4799 90.8202 20.2799 110 37.2799 118C37.2799 118 45.7999 122.57 62.2999 114.34C78.8099 106.11 87.6199 104.08 97.2699 108.63H97.2599Z" fill="#60B28D" fill-opacity="0.7"/>
</g>
<path d="M185.6 56.0299C185.6 56.0299 178.85 55.2899 179.63 49.8499C179.63 49.8499 181.69 45.3099 188.4 48.7099C188.4 48.7099 187.4 39.8699 193.4 39.8099C198.7 39.7499 196.99 48.8099 196.99 48.8099C196.99 48.8099 201.1 55.9499 192.58 54.5299C192.58 54.5299 190.14 62.0499 185.59 56.0399L185.6 56.0299Z" fill="#FFEA92"/>
<path d="M189.25 58.6C188.04 58.74 186.76 57.95 185.46 56.27C184.85 56.19 181.88 55.68 180.29 53.64C179.47 52.59 179.17 51.3 179.38 49.82L179.4 49.75C179.43 49.69 180.13 48.17 182.03 47.5C183.71 46.91 185.76 47.17 188.12 48.29C188.04 47 187.98 43.24 189.89 41.08C190.77 40.08 191.96 39.57 193.41 39.55C194.58 39.54 195.52 39.94 196.2 40.76C198.16 43.09 197.4 48 197.26 48.76C197.54 49.28 198.95 52.05 197.78 53.73C197.01 54.84 195.32 55.2 192.75 54.8C192.47 55.57 191.34 58.24 189.37 58.58C189.33 58.58 189.28 58.59 189.24 58.6H189.25ZM179.88 49.92C179.7 51.24 179.97 52.39 180.7 53.32C182.3 55.39 185.6 55.78 185.64 55.78H185.75L185.81 55.88C187.06 57.53 188.24 58.27 189.31 58.09C191.27 57.76 192.36 54.48 192.37 54.45L192.44 54.24L192.65 54.28C195.13 54.69 196.73 54.41 197.4 53.45C198.49 51.89 196.83 48.96 196.81 48.93L196.76 48.85L196.78 48.76C196.79 48.71 197.76 43.38 195.84 41.09C195.26 40.39 194.45 40.05 193.44 40.06C192.13 40.06 191.07 40.53 190.29 41.42C188.16 43.83 188.68 48.64 188.68 48.69L188.73 49.15L188.32 48.94C185.92 47.73 183.88 47.41 182.24 47.98C180.68 48.52 180.01 49.73 179.9 49.94L179.88 49.92Z" fill="#937D6F"/>
<path d="M170.09 85.1104C170.09 85.1104 166.91 84.7604 167.28 82.1904C167.28 82.1904 168.25 80.0504 171.42 81.6504C171.42 81.6504 170.95 77.4804 173.78 77.4504C176.28 77.4204 175.47 81.6904 175.47 81.6904C175.47 81.6904 177.41 85.0604 173.39 84.3904C173.39 84.3904 172.24 87.9404 170.09 85.1004V85.1104Z" fill="#FFEA92"/>
<path d="M171.83 86.4502C171.22 86.5202 170.59 86.1502 169.96 85.3402C169.57 85.2802 168.23 85.0102 167.49 84.0602C167.08 83.5302 166.93 82.9002 167.03 82.1602L167.05 82.0902C167.05 82.0902 167.42 81.2902 168.37 80.9602C169.15 80.6902 170.08 80.7802 171.14 81.2502C171.12 80.4902 171.18 78.9202 172.02 77.9702C172.46 77.4702 173.05 77.2102 173.78 77.2002C174.37 77.2002 174.85 77.4002 175.2 77.8202C176.13 78.9202 175.82 81.1702 175.74 81.6502C175.92 81.9902 176.52 83.2802 175.96 84.0902C175.58 84.6402 174.77 84.8302 173.56 84.6702C173.37 85.1402 172.83 86.2802 171.9 86.4302C171.88 86.4302 171.85 86.4302 171.83 86.4302V86.4502ZM167.52 82.2702C167.45 82.8502 167.57 83.3502 167.88 83.7502C168.6 84.6802 170.1 84.8602 170.12 84.8602H170.23L170.3 84.9602C170.86 85.6902 171.37 86.0102 171.82 85.9502C172.52 85.8302 173.02 84.7402 173.16 84.3202L173.23 84.1102L173.44 84.1502C174.54 84.3302 175.27 84.2102 175.55 83.8102C175.94 83.2502 175.47 82.1902 175.26 81.8202L175.21 81.7402L175.23 81.6502C175.23 81.6502 175.68 79.1702 174.81 78.1402C174.56 77.8402 174.22 77.7002 173.78 77.7002C173.2 77.7002 172.74 77.9002 172.39 78.3002C171.43 79.3902 171.66 81.6002 171.66 81.6202L171.71 82.0802L171.3 81.8702C170.21 81.3202 169.28 81.1702 168.54 81.4202C167.88 81.6502 167.58 82.1302 167.52 82.2602V82.2702Z" fill="#937D6F"/>
<path d="M191.72 116.5C192.648 116.5 193.4 115.747 193.4 114.82C193.4 113.892 192.648 113.14 191.72 113.14C190.792 113.14 190.04 113.892 190.04 114.82C190.04 115.747 190.792 116.5 191.72 116.5Z" fill="#FFEABB"/>
<path d="M191.92 116.62C190.93 116.73 190.03 116.02 189.92 115.03C189.81 114.04 190.52 113.14 191.51 113.03C192.5 112.92 193.4 113.63 193.51 114.62C193.62 115.61 192.91 116.51 191.92 116.62ZM191.54 113.27C190.69 113.37 190.07 114.14 190.17 115C190.27 115.86 191.04 116.47 191.9 116.37C192.76 116.27 193.37 115.5 193.27 114.64C193.17 113.78 192.4 113.17 191.54 113.27Z" fill="#937D6F"/>
<path d="M194.42 101.7C194.884 101.7 195.26 101.323 195.26 100.86C195.26 100.396 194.884 100.02 194.42 100.02C193.956 100.02 193.58 100.396 193.58 100.86C193.58 101.323 193.956 101.7 194.42 101.7Z" fill="#FFEABB"/>
<path d="M194.53 101.82C194 101.88 193.52 101.5 193.46 100.97C193.4 100.44 193.78 99.9598 194.31 99.8998C194.84 99.8398 195.32 100.22 195.38 100.75C195.44 101.28 195.06 101.76 194.53 101.82ZM194.34 100.15C193.95 100.19 193.66 100.55 193.71 100.94C193.76 101.33 194.11 101.62 194.5 101.57C194.89 101.52 195.18 101.17 195.13 100.78C195.08 100.39 194.73 100.1 194.34 100.15Z" fill="#937D6F"/>
<path d="M192.55 77.6693C193.014 77.6693 193.39 77.2932 193.39 76.8293C193.39 76.3653 193.014 75.9893 192.55 75.9893C192.086 75.9893 191.71 76.3653 191.71 76.8293C191.71 77.2932 192.086 77.6693 192.55 77.6693Z" fill="#FFEABB"/>
<path d="M192.66 77.7895C192.13 77.8495 191.65 77.4695 191.59 76.9395C191.53 76.4095 191.91 75.9295 192.44 75.8695C192.97 75.8095 193.45 76.1895 193.51 76.7195C193.57 77.2495 193.19 77.7295 192.66 77.7895ZM192.47 76.1195C192.08 76.1595 191.79 76.5195 191.84 76.9095C191.89 77.2995 192.24 77.5895 192.63 77.5395C193.02 77.4895 193.31 77.1395 193.26 76.7495C193.21 76.3595 192.86 76.0695 192.47 76.1195Z" fill="#937D6F"/>
<path d="M198.13 67.4694C199.058 67.4694 199.81 66.7172 199.81 65.7894C199.81 64.8615 199.058 64.1094 198.13 64.1094C197.202 64.1094 196.45 64.8615 196.45 65.7894C196.45 66.7172 197.202 67.4694 198.13 67.4694Z" fill="#FFEABB"/>
<path d="M198.33 67.5798C197.34 67.6898 196.44 66.9797 196.33 65.9897C196.22 64.9997 196.93 64.0998 197.92 63.9898C198.91 63.8798 199.81 64.5898 199.92 65.5798C200.03 66.5698 199.32 67.4698 198.33 67.5798ZM197.95 64.2298C197.1 64.3298 196.48 65.0997 196.58 65.9597C196.68 66.8197 197.45 67.4298 198.31 67.3298C199.17 67.2298 199.78 66.4597 199.68 65.5997C199.58 64.7397 198.81 64.1298 197.95 64.2298Z" fill="#937D6F"/>
<path d="M188.49 91.2399C189.418 91.2399 190.17 90.4877 190.17 89.5599C190.17 88.632 189.418 87.8799 188.49 87.8799C187.562 87.8799 186.81 88.632 186.81 89.5599C186.81 90.4877 187.562 91.2399 188.49 91.2399Z" fill="#FFEABB"/>
<path d="M188.69 91.3503C187.7 91.4603 186.8 90.7503 186.69 89.7603C186.58 88.7703 187.29 87.8703 188.28 87.7603C189.27 87.6503 190.17 88.3603 190.28 89.3503C190.39 90.3403 189.68 91.2403 188.69 91.3503ZM188.31 88.0003C187.46 88.1003 186.84 88.8703 186.94 89.7303C187.04 90.5903 187.81 91.2003 188.67 91.1003C189.53 91.0003 190.14 90.2303 190.04 89.3703C189.94 88.5103 189.17 87.9003 188.31 88.0003Z" fill="#937D6F"/>
</g>
<defs>
<clipPath id="clip0_1985_2798">
<rect width="350" height="350" fill="white"/>
</clipPath>
</defs>
</svg>
