<svg width="350" height="350" viewBox="0 0 350 350" fill="none" xmlns="http://www.w3.org/2000/svg">
<g clip-path="url(#clip0_1985_2498)">
<path d="M350 0H0V350H350V0Z" fill="#FFFEF8"/>
<g opacity="0.8">
<path d="M42.8101 259.73V60.3102C42.8101 46.0102 54.8601 34.4102 69.7301 34.4102C84.6001 34.4102 96.6501 46.0102 96.6501 60.3102V67.0402" stroke="#8C7A60" stroke-miterlimit="10"/>
<path d="M96.6401 99.87C100.55 99.87 103.72 96.7001 103.72 92.79C103.72 88.8798 100.55 85.71 96.6401 85.71C92.7299 85.71 89.5601 88.8798 89.5601 92.79C89.5601 96.7001 92.7299 99.87 96.6401 99.87Z" fill="#FFE7BD"/>
<path d="M96.64 66.7305L110.35 79.3305L124.07 91.9205H96.64H69.21L82.92 79.3305L96.64 66.7305Z" fill="#7DD1AC"/>
<path d="M124.07 91.9199H69.21V93.6599H124.07V91.9199Z" fill="#60B28D"/>
<path d="M97.33 63.5H95.95C94.3318 63.5 93.02 64.8118 93.02 66.43V69.09C93.02 70.7082 94.3318 72.02 95.95 72.02H97.33C98.9482 72.02 100.26 70.7082 100.26 69.09V66.43C100.26 64.8118 98.9482 63.5 97.33 63.5Z" fill="#60B28D"/>
</g>
<path d="M340 259.73H10C9.72 259.73 9.5 259.51 9.5 259.23C9.5 258.95 9.72 258.73 10 258.73H340C340.28 258.73 340.5 258.95 340.5 259.23C340.5 259.51 340.28 259.73 340 259.73Z" fill="#3D322A" fill-opacity="0.7"/>
<g opacity="0.7">
<path d="M243.14 101.16H236.96V258.73H243.14V101.16Z" fill="#B29E84"/>
<path d="M324.52 101.16H318.34V258.73H324.52V101.16Z" fill="#B29E84"/>
<path d="M323.35 179.52V174.74H237.17V179.52H323.35Z" fill="#B29E84"/>
<path d="M323.14 247.24V242.46H236.96V247.24H323.14Z" fill="#B29E84"/>
<path d="M323.36 111.8V107.02H237.18V111.8H323.36Z" fill="#B29E84"/>
<path d="M317.85 196.17H310.46V241.96H317.85V196.17Z" fill="#FFDCA9"/>
<path d="M317.34 196.67V241.46H310.95V196.67H317.34ZM318.34 195.67H309.95V242.46H318.34V195.67Z" fill="#FFCE88"/>
<path d="M301.07 191.88H296.44V241.96H301.07V191.88Z" fill="#FFC697"/>
<path d="M300.57 192.38V241.46H296.94V192.38H300.57ZM301.57 191.38H295.94V242.46H301.57V191.38Z" fill="#F9A769"/>
<path d="M295.44 191.88H290.81V241.96H295.44V191.88Z" fill="#FFC697"/>
<path d="M294.94 192.38V241.46H291.31V192.38H294.94ZM295.94 191.38H290.31V242.46H295.94V191.38Z" fill="#F9A769"/>
<path d="M281.43 191.88H276.8V241.96H281.43V191.88Z" fill="#FFDCA9"/>
<path d="M280.93 192.38V241.46H277.3V192.38H280.93ZM281.93 191.38H276.3V242.46H281.93V191.38Z" fill="#FFCE88"/>
<path d="M309.46 200.11H302.07V241.96H309.46V200.11Z" fill="#83CCA9"/>
<path d="M308.96 200.61V241.46H302.57V200.61H308.96ZM309.96 199.61H301.57V242.46H309.96V199.61Z" fill="#63AD8A"/>
<path d="M275.8 200.11H268.41V241.96H275.8V200.11Z" fill="#FFDCA9"/>
<path d="M275.3 200.61V241.46H268.91V200.61H275.3ZM276.3 199.61H267.91V242.46H276.3V199.61Z" fill="#FFCE88"/>
<path d="M289.82 200.11H282.43V241.96H289.82V200.11Z" fill="#83CCA9"/>
<path d="M289.31 200.61V241.46H282.92V200.61H289.31ZM290.31 199.61H281.92V242.46H290.31V199.61Z" fill="#63AD8A"/>
<path d="M318.39 168.34H273.69V174.5H318.39V168.34Z" fill="#FFDCA9"/>
<path d="M317.9 168.84V174H274.2V168.84H317.9ZM318.9 167.84H273.2V175H318.9V167.84Z" fill="#FFCE88"/>
<path d="M310.74 157.28H273.69V161.08H310.74V157.28Z" fill="#FFC697"/>
<path d="M310.24 157.78V160.59H274.19V157.78H310.24ZM311.24 156.78H273.19V161.59H311.24V156.78Z" fill="#F9A769"/>
<path d="M270.68 128.3H266.05V174.24H270.68V128.3Z" fill="#FFC697"/>
<path d="M270.18 128.8V173.74H266.55V128.8H270.18ZM271.18 127.8H265.55V174.74H271.18V127.8Z" fill="#F9A769"/>
<path d="M256.66 124.16H252.03V174.24H256.66V124.16Z" fill="#FFDCA9"/>
<path d="M256.16 124.66V173.74H252.53V124.66H256.16ZM257.16 123.66H251.53V174.74H257.16V123.66Z" fill="#FFCE88"/>
<path d="M316.05 162.08H277.72V167.33H316.05V162.08Z" fill="#83CCA9"/>
<path d="M315.55 162.58V166.83H278.22V162.58H315.55ZM316.55 161.58H277.22V167.83H316.55V161.58Z" fill="#63AD8A"/>
<path d="M251.04 132.4H243.65V174.25H251.04V132.4Z" fill="#FFDCA9"/>
<path d="M250.53 132.9V173.75H244.14V132.9H250.53ZM251.53 131.9H243.14V174.75H251.53V131.9Z" fill="#FFCE88"/>
<path d="M265.05 124.16H257.66V174.24H265.05V124.16Z" fill="#83CCA9"/>
<path d="M264.55 124.66V173.74H258.16V124.66H264.55ZM265.55 123.66H257.16V174.74H265.55V123.66Z" fill="#63AD8A"/>
<path d="M305.96 94.4388L306.22 83.9588C306.22 83.9588 303.58 76.2488 298.77 78.7488C293.96 81.2488 300.35 94.4388 300.35 94.4388" fill="#B3DC97"/>
<path d="M306.23 83.9482C306.23 83.9482 309.2 79.1382 312.95 82.6982C316.7 86.2582 309.98 94.4382 309.98 94.4382H305.23L306.22 83.9582L306.23 83.9482Z" fill="#B3DC97"/>
<path d="M309.99 94.6885H306C306 94.6885 305.98 94.6885 305.97 94.6885H300.37C300.27 94.6885 300.19 94.6385 300.14 94.5485C299.87 93.9985 293.7 81.1085 298.67 78.5285C299.83 77.9185 300.98 77.8385 302.07 78.2785C304.41 79.2185 305.83 82.2685 306.3 83.4285C306.82 82.7385 308.04 81.3885 309.69 81.1785C310.86 81.0185 312.02 81.4785 313.13 82.5285C317.01 86.2085 310.47 94.2685 310.18 94.6085C310.13 94.6685 310.06 94.6985 309.99 94.6985V94.6885ZM300.52 94.1885H305.93C305.93 94.1885 305.95 94.1885 305.96 94.1885H309.86C310.57 93.2885 316.11 86.0485 312.77 82.8885C311.78 81.9485 310.76 81.5285 309.74 81.6685C307.79 81.9185 306.45 84.0685 306.43 84.0885C306.38 84.1685 306.29 84.2185 306.19 84.2085C306.09 84.1985 306.01 84.1285 305.98 84.0385C305.97 83.9985 304.5 79.7885 301.86 78.7385C300.91 78.3585 299.91 78.4385 298.88 78.9685C294.59 81.1985 299.84 92.7685 300.5 94.1885H300.52Z" fill="#97BC7A"/>
<path d="M309.88 106.808H299.74C299.19 106.808 298.74 106.358 298.74 105.808L297.74 95.4385C297.74 94.8885 298.19 94.4385 298.74 94.4385H310.88C311.43 94.4385 311.88 94.8885 311.88 95.4385L310.88 105.808C310.88 106.358 310.43 106.808 309.88 106.808Z" fill="white"/>
<path d="M309.88 107.058H299.74C299.05 107.058 298.49 106.498 298.49 105.808L297.49 95.4585C297.49 94.7485 298.05 94.1885 298.74 94.1885H310.88C311.57 94.1885 312.13 94.7485 312.13 95.4385L311.13 105.838C311.13 106.508 310.57 107.068 309.88 107.068V107.058ZM298.74 94.6885C298.33 94.6885 297.99 95.0285 297.99 95.4385L298.99 105.788C298.99 106.228 299.33 106.558 299.74 106.558H309.88C310.29 106.558 310.63 106.218 310.63 105.808L311.63 95.4085C311.63 95.0185 311.29 94.6785 310.88 94.6785H298.74V94.6885Z" fill="#BCBBBB"/>
</g>
<path d="M83.1101 206.449H249.89C252.83 206.449 255.22 206.449 255.22 211.779V232.209C255.22 237.539 252.83 237.539 249.89 237.539H83.1101V206.449Z" fill="#A7D1BA"/>
<path d="M251.77 237.859H82.79V206.119H251.77C253.85 206.119 255.55 207.809 255.55 209.899V234.089C255.55 236.169 253.86 237.869 251.77 237.869V237.859ZM83.43 237.209H251.77C253.49 237.209 254.9 235.809 254.9 234.079V209.889C254.9 208.169 253.5 206.759 251.77 206.759H83.44V237.199L83.43 237.209Z" fill="#60A582"/>
<path d="M170.84 210.869H82.29V233.079H170.84V210.869Z" fill="#FFFEF8"/>
<path d="M170.47 206.419H80.8901V210.859H170.83V233.069H80.8901V237.509H170.47C173.74 237.509 176.39 234.859 176.39 231.589V212.329C176.39 209.059 173.74 206.409 170.47 206.409V206.419Z" fill="#99E0BE"/>
<path d="M170.47 237.84H80.5701V232.75H170.51V211.19H80.5701V206.1H170.47C173.91 206.1 176.71 208.9 176.71 212.34V231.6C176.71 235.04 173.91 237.84 170.47 237.84ZM81.2201 237.19H170.47C173.55 237.19 176.06 234.68 176.06 231.6V212.34C176.06 209.26 173.55 206.75 170.47 206.75H81.2201V210.54H171.16V233.4H81.2201V237.19Z" fill="#60A582"/>
<path d="M102.88 238.1H270.77V262.53H102.88C99.9403 262.53 96.8503 262.01 97.5503 257.2V243.43C97.5503 240.49 97.8703 238.1 102.88 238.1Z" fill="#F9D395"/>
<path d="M271.1 262.85H101C98.9202 262.85 97.2202 261.16 97.2202 259.07V241.55C97.2202 239.47 98.9102 237.77 101 237.77H271.09V262.85H271.1ZM101.01 238.42C99.2902 238.42 97.8802 239.82 97.8802 241.55V259.07C97.8802 260.79 99.2802 262.2 101.01 262.2H270.46V238.42H101H101.01Z" fill="#F7C75C"/>
<path d="M179.72 259.039H273.53V241.589H179.72V259.039Z" fill="#FFFEF8"/>
<path d="M180.5 262.53H276.33V259.04H180.11V241.59H276.33V238.1H180.5C177 238.1 174.17 240.18 174.17 242.75V257.88C174.17 260.45 177 262.53 180.5 262.53Z" fill="#F9E2AF"/>
<path d="M276.65 262.849H180.5C176.83 262.849 173.85 260.619 173.85 257.879V242.749C173.85 240.009 176.83 237.779 180.5 237.779H276.65V241.919H180.43V258.719H276.65V262.859V262.849ZM180.5 238.419C177.19 238.419 174.49 240.359 174.49 242.749V257.879C174.49 260.259 177.18 262.199 180.5 262.199H276V259.359H179.78V241.259H276V238.419H180.5Z" fill="#F7C75C"/>
<path d="M266.55 287.61H98.6602V263.18H266.55C271.55 263.18 271.88 265.57 271.88 268.51V282.28C271.88 287.28 269.49 287.61 266.55 287.61Z" fill="#A7D1BA"/>
<path d="M268.43 287.93H98.3401V262.85H268.43C270.51 262.85 272.21 264.54 272.21 266.63V284.15C272.21 286.23 270.52 287.93 268.43 287.93ZM98.9801 287.28H268.43C270.15 287.28 271.56 285.88 271.56 284.15V266.63C271.56 264.9 270.16 263.5 268.43 263.5H98.9801V287.28Z" fill="#6B9980"/>
<path d="M186.91 266.67H96.4399V284.12H186.91V266.67Z" fill="#FFFEF8"/>
<path d="M186.85 263.18H93.1101V266.67H187.24V284.12H93.1101V287.61H186.85C190.27 287.61 193.04 285.53 193.04 282.96V267.83C193.04 265.26 190.27 263.18 186.85 263.18Z" fill="#99E0BE"/>
<path d="M186.85 287.93H92.78V283.79H186.91V266.99H92.78V262.85H186.85C190.44 262.85 193.37 265.08 193.37 267.82V282.95C193.37 285.69 190.45 287.92 186.85 287.92V287.93ZM93.43 287.28H186.85C190.09 287.28 192.72 285.34 192.72 282.96V267.83C192.72 265.44 190.09 263.5 186.85 263.5H93.43V266.34H187.56V284.44H93.43V287.28Z" fill="#6B9980"/>
<path d="M186.91 281.729H96.4399V282.379H186.91V281.729Z" fill="#FFEFD9"/>
<path d="M186.91 275.069H96.4399V275.719H186.91V275.069Z" fill="#FFEFD9"/>
<path d="M186.91 268.409H96.4399V269.059H186.91V268.409Z" fill="#FFEFD9"/>
<path d="M273.53 256.649H180.43V257.299H273.53V256.649Z" fill="#FFEFD9"/>
<path d="M273.53 249.989H180.43V250.639H273.53V249.989Z" fill="#FFEFD9"/>
<path d="M273.53 243.329H180.43V243.979H273.53V243.329Z" fill="#FFEFD9"/>
<path d="M170.5 228.159H82.29V228.809H170.5V228.159Z" fill="#FFEFD9"/>
<path d="M170.5 221.489H82.29V222.139H170.5V221.489Z" fill="#FFEFD9"/>
<path d="M170.5 214.829H82.29V215.479H170.5V214.829Z" fill="#FFEFD9"/>
<path d="M144.34 215.149H150.82V225.269L147.58 228.039L144.34 225.269V215.149Z" fill="#60B28D"/>
<path d="M152.92 215.48H144.67C144.49 215.48 144.35 215.34 144.35 215.16C144.35 214.98 144.49 214.84 144.67 214.84H152.92C153.1 214.84 153.24 214.98 153.24 215.16C153.24 215.34 153.1 215.48 152.92 215.48Z" fill="#60A582"/>
<path d="M104.38 157.709C104.38 157.709 102.75 133.559 111.5 130.949C120.54 128.239 129.38 143.559 129.38 143.559C129.38 143.559 141.18 141.689 151.65 144.819C151.65 144.819 163.49 129.829 171.4 132.139C179.31 134.449 177.16 158.779 177.16 158.779C177.16 158.779 204.05 209.909 147.85 213.839C147.03 213.899 146.21 213.949 145.39 214.029C137.13 214.819 76.6602 218.629 104.38 157.699V157.709Z" fill="white"/>
<path d="M146.539 155.999C147.625 156.073 148.721 150.721 149 144.061C149 143.974 149 143.888 149 143.802C147.5 143.5 146.35 143.51 145.064 143.312C145.054 143.584 145.074 143.53 145.064 143.802C144.785 150.462 145.443 155.913 146.519 155.987L146.539 155.999Z" fill="#D4A980"/>
<path d="M174.06 133.73C174.06 133.73 200.23 125.54 218.1 132.32C218.1 132.32 241.58 137.19 254.29 166.93C254.29 166.93 266.89 193.81 249.35 215.13C249.35 215.13 244.05 225.26 223.02 227.9C223.02 227.9 195.91 233.71 190.04 215.01C190.04 215.01 161.46 234.94 155.14 226.09C155.14 226.09 150.92 227.67 150.22 224.76C150.22 224.76 149.49 222.28 150.16 221.38C150.16 221.38 147.84 214.07 161.18 209.03C161.18 209.03 176.18 204.06 178.63 201.08C178.63 201.08 188.91 189.96 179.65 164.5L177.17 158.81L177.09 144.43L175.88 137.15L174.05 133.72L174.06 133.73Z" fill="white"/>
<path d="M237.83 203.47C237.83 203.47 252.87 199.11 258.75 184.89L258.17 194.73C258.17 194.73 257.26 213.03 239.79 223.35C239.79 223.35 215.08 232.97 200.23 226.13C200.23 226.13 187.77 222.21 190.07 208.4C190.07 208.4 192.72 203.32 197.99 203.36C197.99 203.36 206.31 201.89 222.65 207.45C222.65 207.45 233.01 209.35 237.83 203.47Z" fill="#FFEED4"/>
<path d="M254.51 166.71C249.89 155.91 243.86 148.4 238.04 143.2C233.86 141.11 229.79 140.61 226.28 142.09C216.03 146.41 214.48 165.94 222.81 185.71C229.52 201.63 240.59 212.85 250 214.36C266.89 193.13 254.51 166.7 254.51 166.7V166.71Z" fill="#FFEED4"/>
<path d="M129.37 143.3C129.37 143.3 120.53 127.98 111.49 130.69C102.74 133.31 104.37 157.45 104.37 157.45C101.04 164.77 98.9902 171.15 97.9602 176.73C106.34 182.27 118.3 180.23 128.69 174.42C141.76 167.11 146.6 154.98 141.96 143.01C134.5 142.33 129.36 143.3 129.36 143.3H129.37Z" fill="#FFEED4"/>
<path d="M202.15 202.669C201.98 202.669 201.83 202.539 201.82 202.369C201.82 202.239 200.97 189.189 208.77 182.699C213.38 178.869 220.03 178.049 228.53 180.279C228.7 180.329 228.81 180.499 228.76 180.669C228.71 180.839 228.54 180.949 228.36 180.899C220.08 178.729 213.62 179.499 209.18 183.189C201.63 189.459 202.45 202.189 202.46 202.309C202.47 202.489 202.34 202.639 202.16 202.659H202.15V202.669Z" fill="#786659"/>
<path d="M97.0302 189.589C97.0302 189.589 95.3202 206.249 96.4402 212.839C96.4402 212.839 97.9702 228.109 111.57 224.979C111.57 224.979 117.71 227.429 117.47 220.789C117.47 220.789 120.3 214.629 114.79 210.779C111.86 208.729 112.83 209.569 111.29 208.469C111.29 208.469 100.14 204.459 97.0402 189.579L97.0302 189.589Z" fill="white"/>
<path d="M108.56 225.769C105.41 225.879 102.78 224.959 100.74 222.999C91.79 214.439 96.72 189.339 96.93 188.269C96.97 188.099 97.14 187.979 97.31 188.019C97.49 188.059 97.6 188.229 97.56 188.399C97.51 188.659 92.49 214.219 101.18 222.529C103.81 225.039 107.48 225.739 112.1 224.589C112.27 224.549 112.45 224.649 112.49 224.829C112.53 224.999 112.43 225.179 112.25 225.219C110.94 225.539 109.71 225.729 108.54 225.769H108.56Z" fill="#786659"/>
<path d="M114.1 225.69C110.79 225.81 109.27 221.7 109.2 221.52C109.14 221.35 109.23 221.17 109.39 221.11C109.56 221.05 109.74 221.14 109.8 221.3C109.81 221.34 111.35 225.44 114.43 225.01C115.43 224.87 116.16 224.26 116.86 222.99C117.02 222.71 117.37 221.65 116.95 220.53C116.52 219.4 115.42 218.52 113.69 217.92C113.52 217.86 113.43 217.68 113.49 217.51C113.55 217.34 113.73 217.25 113.9 217.31C115.82 217.97 117.05 218.98 117.55 220.3C118.05 221.6 117.68 222.83 117.42 223.3C116.61 224.75 115.72 225.47 114.51 225.64C114.36 225.66 114.22 225.67 114.08 225.68L114.1 225.69Z" fill="#786659"/>
<path d="M117.31 220.779C117.24 220.779 117.16 220.759 117.1 220.709C116.96 220.599 116.93 220.399 117.04 220.259C120.31 216.039 114.68 210.869 114.62 210.819C114.49 210.699 114.48 210.499 114.6 210.359C114.72 210.229 114.92 210.219 115.06 210.339C115.12 210.399 121.18 215.969 117.55 220.659C117.49 220.739 117.4 220.779 117.31 220.789V220.779Z" fill="#786659"/>
<path d="M135.74 179.589C138.87 176.299 144.88 174.669 148.52 178.009C144.14 176.419 139.9 177.869 135.74 179.589Z" fill="#786659"/>
<path d="M131.73 183.43C131.77 184.61 130.45 186.32 128.71 186.37C126.97 186.42 125.46 184.8 125.43 183.62C125.4 182.44 126.77 181.44 128.51 181.39C130.25 181.34 131.69 182.25 131.73 183.43Z" fill="#786659"/>
<path d="M128.44 189.749C128.44 189.749 128.41 189.749 128.39 189.749C128.16 189.749 127.98 189.549 127.99 189.319L128.14 184.959C128.14 184.729 128.34 184.539 128.57 184.559C128.8 184.559 128.98 184.759 128.97 184.989L128.82 189.349C128.82 189.559 128.65 189.729 128.44 189.749Z" fill="#786659"/>
<path d="M106.94 198.419C110.961 198.419 114.22 195.16 114.22 191.139C114.22 187.119 110.961 183.859 106.94 183.859C102.92 183.859 99.6602 187.119 99.6602 191.139C99.6602 195.16 102.92 198.419 106.94 198.419Z" fill="#FFD3C0"/>
<path d="M163.06 201.749C167.859 201.749 171.75 197.858 171.75 193.059C171.75 188.26 167.859 184.369 163.06 184.369C158.261 184.369 154.37 188.26 154.37 193.059C154.37 197.858 158.261 201.749 163.06 201.749Z" fill="#FFD3C0"/>
<path d="M120.02 178.58C116.03 176.51 111.92 174.7 107.42 175.91C111.33 172.9 117.19 175.04 120.02 178.58Z" fill="#786659"/>
<path d="M106.69 190.609C98.1101 185.559 88.1901 182.389 78.1901 182.509C76.9201 182.449 75.1701 182.659 73.9001 182.729C85.2701 180.719 97.3001 184.069 106.7 190.609H106.69Z" fill="#786659"/>
<path d="M104.62 191.84C94.9101 189.35 84.1901 189.85 75.1601 194.37L73.3501 195.29C82.4001 189.21 94.4201 188.29 104.62 191.84Z" fill="#786659"/>
<path d="M104.85 195.26C96.9402 195.97 89.1402 198.3 82.4302 202.6C88.6702 197.58 96.8802 195.12 104.85 195.26Z" fill="#786659"/>
<path d="M163.79 190.69C174.87 187.79 187.31 188.8 197.29 194.61C196.1 194.1 194.55 193.31 193.34 192.93C183.99 189.37 173.59 188.92 163.79 190.7V190.69Z" fill="#786659"/>
<path d="M166.33 192.83C177.12 192.43 188.34 196.83 195.21 205.3L193.75 203.89C186.44 196.91 176.34 193.29 166.32 192.83H166.33Z" fill="#786659"/>
<path d="M162.94 195.05C170.6 197.25 177.73 202.01 182.22 208.64C177.06 202.56 170.29 198.05 162.94 195.05Z" fill="#786659"/>
<path d="M111.83 190.849C111.35 190.869 110.87 190.859 110.38 190.829C102.06 190.339 95.69 183.179 96.17 174.859C96.41 170.829 98.2 167.129 101.21 164.449C104.23 161.769 108.11 160.419 112.14 160.649C120.46 161.139 126.83 168.299 126.35 176.619C126.11 180.649 124.32 184.349 121.31 187.029C118.66 189.389 115.34 190.719 111.83 190.839V190.849ZM110.72 161.569C107.43 161.689 104.31 162.929 101.82 165.149C98.99 167.669 97.31 171.139 97.09 174.919C96.63 182.729 102.62 189.449 110.43 189.909C114.22 190.129 117.86 188.859 120.69 186.349C123.52 183.829 125.2 180.359 125.42 176.579C125.88 168.769 119.89 162.049 112.08 161.589C111.62 161.559 111.17 161.559 110.72 161.569Z" fill="#786659"/>
<path d="M147.33 192.919C146.86 192.939 146.38 192.929 145.9 192.899C137.58 192.409 131.21 185.249 131.69 176.929C131.93 172.899 133.72 169.2 136.73 166.52C139.75 163.84 143.63 162.48 147.66 162.72C155.98 163.21 162.35 170.37 161.87 178.69C161.41 186.53 155.03 192.639 147.33 192.919ZM146.24 163.64C142.95 163.76 139.83 165 137.34 167.22C134.51 169.74 132.83 173.21 132.61 176.99C132.15 184.8 138.14 191.519 145.95 191.979C153.76 192.439 160.48 186.45 160.94 178.64C161.4 170.83 155.41 164.109 147.6 163.649C147.14 163.619 146.69 163.62 146.24 163.63V163.64Z" fill="#786659"/>
<path d="M132.17 177.419C132.06 177.419 131.96 177.389 131.87 177.319C128.76 174.869 126.29 176.859 126.19 176.949C125.99 177.109 125.7 177.089 125.54 176.889C125.38 176.689 125.4 176.399 125.6 176.239C125.63 176.209 128.73 173.659 132.45 176.599C132.65 176.759 132.69 177.049 132.53 177.249C132.44 177.359 132.31 177.419 132.18 177.429L132.17 177.419Z" fill="#786659"/>
<path d="M159.1 145.479C160.59 141.499 165.32 138.779 169.46 140.129C165.3 140.269 161.8 142.329 159.1 145.479Z" fill="#786659"/>
<path d="M111.74 138.319C115.33 137.229 119.65 139.169 120.91 142.769C121.1 143.259 121.2 143.779 121.3 144.289C121 143.859 120.78 143.399 120.49 142.989C118.58 139.959 115.29 138.589 111.74 138.319Z" fill="#786659"/>
<path d="M131.064 143.305C131.064 143.305 131.064 143.364 131.064 143.399C130.785 149.739 131.443 154.929 132.519 154.999C133.595 155.07 134.701 149.974 134.98 143.634C134.98 143.423 135 143.211 135 143C133.426 143.07 132.081 143.188 131.064 143.305Z" fill="#D4A980"/>
<path d="M138.123 143.012C138.103 143.406 138.084 143.801 138.064 144.195C137.786 150.647 138.441 155.928 139.511 155.999C140.582 156.071 141.683 150.886 141.96 144.434C141.98 144.016 141.99 143.597 142 143.191C140.642 143.072 139.343 143.012 138.113 143L138.123 143.012Z" fill="#D4A980"/>
<path d="M141.06 214.63C131.33 214.98 110.72 214.06 101.49 201.1C94.5301 191.34 95.3901 176.71 104.06 157.64C103.95 155.83 102.69 133.24 111.42 130.63C120.15 128.01 128.46 141.35 129.56 143.2C131.22 142.97 141.96 141.64 151.55 144.44C152.96 142.69 163.85 129.59 171.51 131.82C179.41 134.13 177.67 156.8 177.51 158.7C178.31 160.27 189.31 182.56 180.51 198.37C175.32 207.69 164.34 213 147.89 214.15C147.04 214.21 146.24 214.27 145.44 214.34C144.54 214.43 143.03 214.55 141.08 214.62L141.06 214.63ZM113.42 130.95C112.81 130.97 112.21 131.07 111.6 131.25C103.2 133.76 104.69 157.44 104.71 157.68C104.71 157.73 104.71 157.79 104.68 157.84C96.0901 176.73 95.1901 191.16 102.02 200.73C112.9 215.98 140.04 214.22 145.36 213.71C146.17 213.63 146.97 213.58 147.77 213.52C164.04 212.38 174.84 207.18 179.92 198.07C188.84 182.07 176.99 159.16 176.87 158.93C176.84 158.87 176.83 158.81 176.83 158.75C176.85 158.51 178.87 134.67 171.31 132.45C163.7 130.23 152.02 144.87 151.91 145.02C151.83 145.12 151.69 145.17 151.56 145.13C141.29 142.05 129.55 143.86 129.43 143.87C129.3 143.89 129.17 143.83 129.1 143.71C129.02 143.57 121.46 130.66 113.41 130.95H113.42Z" fill="#786659"/>
<path d="M161.11 228.719C159.76 228.769 158.66 228.639 157.77 228.399C155.35 227.769 154.64 226.419 154.61 226.359C154.53 226.199 154.59 226.009 154.75 225.919C154.91 225.839 155.1 225.899 155.18 226.059C155.18 226.069 155.82 227.229 157.99 227.779C161.47 228.659 170.24 228.179 189.86 215.049C190.01 214.949 190.21 214.989 190.31 215.139C190.41 215.289 190.37 215.489 190.22 215.589C175.2 225.639 166.32 228.519 161.11 228.709V228.719Z" fill="#786659"/>
<path d="M171.284 217.242C181.34 213.004 188.431 207.048 187.12 203.938C185.81 200.829 176.595 201.743 166.538 205.981C156.482 210.219 149.391 216.175 150.702 219.285C152.012 222.394 161.227 221.48 171.284 217.242Z" fill="white"/>
<path d="M150.13 221.44C149.97 221.44 149.82 221.33 149.8 221.16C148.5 212.27 162.08 208.15 166.54 206.79C172.93 204.85 176.97 202.22 177.01 202.2C177.16 202.1 177.36 202.14 177.46 202.29C177.56 202.44 177.52 202.64 177.37 202.74C177.33 202.77 173.22 205.44 166.74 207.41C154.96 210.99 149.63 215.46 150.45 221.07C150.48 221.25 150.35 221.41 150.18 221.44C150.17 221.44 150.16 221.44 150.14 221.44H150.13Z" fill="#786659"/>
<path d="M153.2 227.129C152.88 227.139 152.58 227.109 152.3 227.039C150.61 226.659 149.38 225.109 149.3 223.279C149.25 222.239 149.58 221.389 150.25 220.739C151.95 219.119 155.3 219.419 155.44 219.429C155.62 219.449 155.75 219.609 155.73 219.779C155.71 219.959 155.55 220.089 155.38 220.069C155.35 220.069 152.18 219.789 150.69 221.199C150.15 221.719 149.9 222.379 149.94 223.239C150.01 224.779 151.03 226.079 152.44 226.399C154.26 226.809 155.84 225.529 157.15 222.609C157.22 222.449 157.41 222.379 157.58 222.449C157.74 222.519 157.82 222.709 157.74 222.879C156.28 226.159 154.59 227.079 153.21 227.129H153.2Z" fill="#786659"/>
<path d="M198.82 203.26C198.59 204.23 198.39 205.27 198.23 206.37C197.49 211.59 198 215.98 199.36 216.18C200.73 216.37 202.44 212.3 203.18 207.08C203.37 205.74 203.48 204.45 203.51 203.28C201.25 203.13 199.69 203.2 198.81 203.28L198.82 203.26Z" fill="#D4A980"/>
<path d="M209.23 203.959C209.1 204.609 208.98 205.289 208.88 205.989C208.14 211.209 208.65 215.599 210.01 215.799C211.38 215.989 213.09 211.919 213.83 206.699C213.91 206.099 213.98 205.519 214.03 204.949C212.29 204.529 210.68 204.209 209.22 203.959H209.23Z" fill="#D4A980"/>
<path d="M219.53 215.449C220.79 215.629 222.34 212.169 223.16 207.519C222.84 207.479 222.65 207.439 222.65 207.439C221.14 206.929 219.71 206.479 218.34 206.079C217.69 211.109 218.2 215.259 219.53 215.449Z" fill="#D4A980"/>
<path d="M215.14 229.149C209.32 229.359 203.43 228.659 198.67 226.149C194.18 223.789 191.12 220.029 189.58 214.989C188.96 212.959 188.95 210.909 189.55 209.069C190.69 205.549 193.25 203.149 201.99 202.839C202.18 202.819 207.3 202.419 222.46 206.979C224.62 207.629 226.77 207.869 228.84 207.689C231.87 207.429 235.87 206.439 237.69 203.249C237.78 203.089 237.98 203.039 238.13 203.129C238.29 203.219 238.34 203.419 238.25 203.569C236.29 207.009 232.08 208.059 228.89 208.329C226.73 208.519 224.51 208.269 222.27 207.599C207.29 203.089 202.08 203.479 202.03 203.489C193.65 203.789 191.23 206.019 190.17 209.279C189.61 210.999 189.62 212.909 190.2 214.809C191.69 219.679 194.64 223.299 198.97 225.579C210.47 231.639 228.81 226.909 236.16 224.599C237.95 224.039 241.33 222.589 242.91 221.249C249.63 215.589 269.98 194.319 249.71 158.309C237.11 135.919 217.15 130.479 202.62 129.859C186.84 129.189 173.87 133.879 173.74 133.919C173.57 133.979 173.39 133.899 173.32 133.729C173.26 133.559 173.34 133.379 173.51 133.309C173.64 133.259 186.71 128.529 202.62 129.209C217.32 129.839 237.52 135.339 250.27 157.989C258.98 173.469 261.33 187.939 257.26 200.979C253.93 211.629 247.1 218.559 243.32 221.739C241.65 223.139 238.24 224.609 236.34 225.209C231.93 226.599 223.61 228.839 215.13 229.139L215.14 229.149Z" fill="#786659"/>
<path d="M167.83 124.18C167.83 124.18 163.71 119.41 159.9 122.03C158.46 123.02 157.65 124.77 157.75 126.52C157.91 129.34 159.88 133.4 170.24 132.41" fill="#FAEF95"/>
<path d="M167.24 132.8C163.73 132.8 161.14 132.09 159.49 130.68C158.28 129.65 157.6 128.21 157.5 126.53C157.39 124.66 158.26 122.85 159.75 121.82C163.7 119.11 167.97 123.96 168.01 124.01L167.63 124.34C167.63 124.34 163.61 119.77 160.03 122.23C158.68 123.16 157.9 124.8 157.99 126.5C158.08 128.06 158.69 129.34 159.81 130.3C161.79 132 165.29 132.63 170.21 132.15L170.26 132.65C169.19 132.75 168.18 132.8 167.24 132.8Z" fill="#786659"/>
<path d="M170.24 132.4C170.24 132.4 167.22 127.84 168.05 123.17C168.8 118.96 173.03 116.17 177.25 116.91C180.08 117.41 182.53 119.78 180.72 127.37C180.72 127.37 185.44 129.68 183.43 133.26C182.66 134.64 181.2 135.5 179.63 135.72C177.36 136.05 173.66 135.85 170.24 132.38V132.4Z" fill="#FAEF95"/>
<path d="M178.05 136.1C175.72 136.1 172.81 135.36 170.07 132.57L170.04 132.53C169.91 132.34 166.98 127.84 167.81 123.12C168.18 121.03 169.39 119.2 171.21 117.97C173.02 116.75 175.18 116.29 177.29 116.66C178.75 116.92 179.86 117.61 180.59 118.72C181.76 120.51 181.9 123.38 181.01 127.24C181.6 127.57 183.47 128.71 184.02 130.5C184.32 131.45 184.19 132.42 183.65 133.39C182.88 134.76 181.39 135.73 179.67 135.98C179.17 136.05 178.63 136.1 178.05 136.1ZM170.44 132.24C173.71 135.55 177.22 135.83 179.6 135.49C181.17 135.26 182.53 134.39 183.22 133.15C183.69 132.31 183.8 131.47 183.55 130.65C182.97 128.77 180.64 127.61 180.61 127.6L180.43 127.51L180.48 127.32C181.39 123.5 181.29 120.7 180.17 119C179.52 118.01 178.53 117.4 177.2 117.16C175.21 116.8 173.18 117.24 171.49 118.39C169.78 119.54 168.65 121.26 168.3 123.22C167.53 127.58 170.23 131.92 170.44 132.25V132.24Z" fill="#786659"/>
<path d="M168.46 128.43C168.46 128.43 165.07 128.93 163.84 125.81L168.46 128.43Z" fill="#FAEF95"/>
<path d="M167.97 128.71C166.92 128.71 164.6 128.41 163.61 125.91C163.56 125.78 163.62 125.64 163.75 125.59C163.88 125.54 164.02 125.6 164.07 125.73C165.21 128.62 168.29 128.21 168.42 128.19C168.55 128.16 168.68 128.26 168.7 128.4C168.72 128.54 168.63 128.66 168.49 128.68C168.49 128.68 168.28 128.71 167.96 128.71H167.97Z" fill="#786659"/>
</g>
<defs>
<clipPath id="clip0_1985_2498">
<rect width="350" height="350" fill="white"/>
</clipPath>
</defs>
</svg>
