<svg width="350" height="350" viewBox="0 0 350 350" fill="none" xmlns="http://www.w3.org/2000/svg">
<g clip-path="url(#clip0_1933_486)">
<path d="M349.531 0H0V350H349.531V0Z" fill="#FFFEF8"/>
<g opacity="0.7">
<g opacity="0.5">
<path d="M287.234 173.68C287.234 173.68 263.037 104.21 284.877 100.6C297.77 98.4699 307.407 122.27 287.234 173.68Z" fill="#50BEAB"/>
</g>
<g opacity="0.6">
<path d="M285.686 181.67C285.686 181.67 312.94 125.16 328.279 136.17C337.337 142.67 328.808 162.85 285.686 181.67Z" fill="#60B28D"/>
</g>
<g opacity="0.5">
<path d="M282.79 196.95C282.79 196.95 326.471 153.38 337.137 168.61C343.429 177.6 328.948 193.55 282.79 196.95Z" fill="#50BEAB"/>
</g>
<g opacity="0.6">
<path d="M276.369 218.62C276.369 218.62 323.176 221.6 321.648 207.54C320.749 199.24 304.471 197.39 276.369 218.62Z" fill="#60B28D"/>
</g>
<g opacity="0.6">
<path d="M267.581 242.87C267.581 242.87 314.388 245.85 312.86 231.79C311.961 223.49 295.683 221.64 267.581 242.87Z" fill="#60B28D"/>
</g>
<path d="M286.615 181.47C286.495 181.47 286.375 181.419 286.295 181.309C286.166 181.129 286.196 180.88 286.375 180.75C286.585 180.59 307.227 164.82 314.587 149.83C314.687 149.63 314.927 149.549 315.127 149.649C315.326 149.749 315.406 149.99 315.306 150.19C307.856 165.35 287.064 181.229 286.855 181.389C286.785 181.439 286.695 181.47 286.615 181.47Z" fill="#8C7A60"/>
<path d="M282.79 197.35C282.62 197.35 282.471 197.24 282.411 197.08C282.341 196.87 282.451 196.64 282.66 196.57C282.82 196.52 298.928 191.08 313.818 180.79C313.998 180.67 314.248 180.71 314.378 180.89C314.508 181.07 314.458 181.32 314.278 181.45C299.298 191.81 283.08 197.27 282.92 197.33C282.88 197.34 282.84 197.35 282.79 197.35Z" fill="#8C7A60"/>
<path d="M276.708 218.929C276.569 218.929 276.429 218.849 276.359 218.719C276.259 218.519 276.329 218.279 276.529 218.179C276.648 218.119 288.113 212.089 300.427 210.879C300.666 210.869 300.846 211.019 300.866 211.239C300.886 211.459 300.726 211.659 300.506 211.679C288.363 212.869 277.018 218.829 276.908 218.889C276.848 218.919 276.788 218.939 276.718 218.939L276.708 218.929Z" fill="#8C7A60"/>
<path d="M267.581 243.27C267.421 243.27 267.281 243.18 267.211 243.02C267.131 242.82 267.221 242.58 267.421 242.5C267.581 242.43 283.479 235.8 292.527 234.05C292.747 234.01 292.957 234.15 292.997 234.37C293.036 234.59 292.897 234.8 292.677 234.84C283.709 236.58 267.88 243.18 267.72 243.24C267.671 243.26 267.621 243.27 267.571 243.27H267.581Z" fill="#8C7A60"/>
<g opacity="0.6">
<path d="M284.098 190.17C284.098 190.17 256.865 137.49 242.654 148.3C234.265 154.68 242.854 173.52 284.098 190.17Z" fill="#60B28D"/>
</g>
<g opacity="0.6">
<path d="M280.513 206.02C280.513 206.02 244.901 160.86 233.356 173.77C226.546 181.39 238.17 197.76 280.513 206.02Z" fill="#60B28D"/>
</g>
<g opacity="0.5">
<path d="M274.601 225.63C274.601 225.63 242.864 187.31 233.147 198.72C227.414 205.45 237.81 219.37 274.601 225.63Z" fill="#50BEAB"/>
</g>
<g opacity="0.6">
<path d="M265.873 247.54C265.873 247.54 219.086 230.65 226.506 217.62C230.89 209.93 247.488 215 265.873 247.54Z" fill="#60B28D"/>
</g>
<path d="M284.058 190.35C283.979 190.35 283.909 190.33 283.839 190.28C283.629 190.14 263.037 176.45 255.067 162.61C254.957 162.42 255.027 162.17 255.217 162.06C255.407 161.95 255.657 162.01 255.766 162.21C263.636 175.89 284.078 189.48 284.278 189.61C284.458 189.73 284.518 189.98 284.388 190.16C284.308 190.28 284.188 190.34 284.058 190.34V190.35Z" fill="#8C7A60"/>
<path d="M280.513 206.42C280.453 206.42 280.393 206.41 280.343 206.38C280.203 206.31 265.793 199.45 253.07 188.21C252.9 188.06 252.89 187.81 253.03 187.65C253.18 187.48 253.429 187.47 253.589 187.61C266.222 198.78 280.533 205.59 280.673 205.66C280.873 205.75 280.962 205.99 280.863 206.19C280.793 206.33 280.653 206.42 280.503 206.42H280.513Z" fill="#8C7A60"/>
<path d="M274.282 225.83C274.282 225.83 274.192 225.83 274.152 225.81C274.022 225.77 261.039 221.29 251.163 212.66C250.993 212.51 250.983 212.26 251.123 212.1C251.273 211.93 251.522 211.92 251.682 212.06C261.439 220.58 274.272 225.01 274.401 225.05C274.611 225.12 274.721 225.35 274.651 225.56C274.591 225.73 274.441 225.83 274.272 225.83H274.282Z" fill="#8C7A60"/>
<path d="M264.894 247.14C264.784 247.14 264.684 247.1 264.605 247.02C264.475 246.89 251.862 233.78 243.872 228.29C243.693 228.17 243.643 227.92 243.773 227.73C243.892 227.55 244.152 227.5 244.332 227.63C252.401 233.16 265.064 246.33 265.194 246.46C265.344 246.62 265.344 246.87 265.184 247.03C265.104 247.11 265.004 247.14 264.904 247.14H264.894Z" fill="#8C7A60"/>
<path d="M252.311 274.25C252.241 274.25 252.181 274.23 252.121 274.2C251.931 274.09 251.862 273.85 251.961 273.66C278.915 224.48 286.555 184.67 288.223 159.93C290.03 133.13 285.407 117.76 285.357 117.61C285.287 117.4 285.407 117.17 285.616 117.11C285.826 117.04 286.046 117.16 286.116 117.37C286.165 117.52 290.829 133 289.022 159.93C287.354 184.76 279.694 224.71 252.651 274.04C252.581 274.17 252.441 274.25 252.301 274.25H252.311Z" fill="#8C7A60"/>
</g>
<g opacity="0.7">
<g opacity="0.5">
<path d="M77.1763 159.65C77.1763 159.65 -1.66779 118.36 14.6403 97.06C24.2674 84.49 52.4695 97.52 77.1763 159.65Z" fill="#50BEAB"/>
</g>
<g opacity="0.6">
<path d="M82.4192 167.98C82.4192 167.98 59.7397 95.4502 82.3992 92.4602C95.7813 90.6902 104.939 115.58 82.4192 167.98Z" fill="#60B28D"/>
</g>
<g opacity="0.5">
<path d="M92.5059 183.89C92.5059 183.89 95.0524 109.17 117.063 113.78C130.055 116.5 130.465 142.6 92.5059 183.89Z" fill="#50BEAB"/>
</g>
<g opacity="0.6">
<path d="M104.759 208.35C104.759 208.35 148.57 172.16 135.588 161.01C127.918 154.43 112.02 166.29 104.759 208.35Z" fill="#60B28D"/>
</g>
<g opacity="0.6">
<path d="M117.063 237.06C117.063 237.06 160.874 200.87 147.891 189.72C140.222 183.14 124.323 195 117.063 237.06Z" fill="#60B28D"/>
</g>
<path d="M82.7189 167.09C82.7189 167.09 82.6889 167.09 82.6789 167.09C82.4592 167.05 82.3194 166.85 82.3494 166.63C82.3993 166.32 87.5924 135.25 81.6903 115.88C81.6304 115.67 81.7402 115.44 81.9599 115.38C82.1696 115.32 82.3993 115.43 82.4592 115.65C88.4212 135.2 83.1983 166.45 83.1383 166.77C83.1084 166.97 82.9186 167.11 82.7189 167.1V167.09Z" fill="#8C7A60"/>
<path d="M92.4858 184.29C92.4259 184.29 92.376 184.27 92.3161 184.24C92.1263 184.13 92.0464 183.89 92.1563 183.7C92.2561 183.52 101.993 165.34 106.637 143.9C106.687 143.68 106.896 143.55 107.116 143.59C107.336 143.64 107.466 143.85 107.426 144.07C102.762 165.63 92.9652 183.9 92.8653 184.09C92.7854 184.23 92.6356 184.31 92.4858 184.3V184.29Z" fill="#8C7A60"/>
<path d="M104.969 208.39C104.969 208.39 104.899 208.39 104.859 208.37C104.649 208.3 104.539 208.07 104.609 207.86C104.659 207.71 109.802 192.89 119.659 181.62C119.809 181.45 120.059 181.44 120.218 181.58C120.388 181.72 120.398 181.98 120.258 182.14C110.501 193.29 105.408 207.97 105.358 208.11C105.298 208.28 105.129 208.39 104.959 208.38L104.969 208.39Z" fill="#8C7A60"/>
<path d="M117.043 237.46C117.043 237.46 116.953 237.45 116.903 237.43C116.703 237.34 116.613 237.1 116.703 236.9C116.793 236.71 125.342 217.67 131.883 208.62C132.013 208.44 132.262 208.4 132.442 208.53C132.622 208.66 132.662 208.91 132.532 209.09C126.041 218.07 117.522 237.04 117.432 237.23C117.362 237.39 117.203 237.48 117.043 237.47V237.46Z" fill="#8C7A60"/>
<g opacity="0.6">
<path d="M88.0517 176.81C88.0517 176.81 20.4125 152.87 16.8074 174.21C14.6802 186.8 37.8491 196.33 88.0517 176.81Z" fill="#60B28D"/>
</g>
<g opacity="0.6">
<path d="M97.9883 193.78C97.9883 193.78 29.1707 183.43 29.6601 204.41C29.9497 216.79 53.7577 221.6 97.9883 193.78Z" fill="#60B28D"/>
</g>
<g opacity="0.5">
<path d="M108.994 216.01C108.994 216.01 49.2639 208.48 50.1127 226.62C50.6121 237.33 71.3143 240.99 108.994 216.01Z" fill="#50BEAB"/>
</g>
<g opacity="0.6">
<path d="M119.41 242.6C119.41 242.6 64.104 266.49 59.8796 248.82C57.383 238.39 76.2477 229.1 119.41 242.6Z" fill="#60B28D"/>
</g>
<path d="M55.0359 178.94C49.6332 178.62 44.2904 177.88 39.6366 176.47C39.4269 176.41 39.3071 176.18 39.367 175.97C39.4269 175.76 39.6566 175.64 39.8663 175.7C58.1518 181.26 87.4724 176.31 87.762 176.26C87.9817 176.23 88.1914 176.37 88.2214 176.59C88.2613 176.81 88.1115 177.01 87.8918 177.05C87.6721 177.09 71.0944 179.89 55.026 178.94H55.0359Z" fill="#8C7A60"/>
<path d="M58.9808 200.73C58.7811 200.72 58.6113 200.55 58.6013 200.34C58.6013 200.12 58.7711 199.94 58.9908 199.93C79.4134 199.32 97.6888 193.46 97.8686 193.4C98.0783 193.33 98.298 193.45 98.3679 193.66C98.4378 193.87 98.318 194.1 98.1083 194.16C97.9285 194.22 79.5332 200.11 59.0108 200.72C59.0008 200.72 58.9908 200.72 58.9708 200.72L58.9808 200.73Z" fill="#8C7A60"/>
<path d="M77.526 223.92C77.3262 223.91 77.1565 223.74 77.1465 223.54C77.1465 223.32 77.3063 223.13 77.526 223.13C93.2049 222.56 108.225 215.82 108.375 215.75C108.574 215.66 108.814 215.75 108.904 215.95C108.994 216.15 108.904 216.39 108.704 216.48C108.554 216.55 93.3947 223.35 77.5559 223.93C77.546 223.93 77.526 223.93 77.516 223.93L77.526 223.92Z" fill="#8C7A60"/>
<path d="M83.9573 243.77C83.7775 243.76 83.6178 243.62 83.5878 243.43C83.5578 243.21 83.7076 243.01 83.9174 242.97C95.6017 241.17 117.682 242.29 117.902 242.3C118.121 242.31 118.291 242.5 118.281 242.72C118.271 242.94 118.081 243.11 117.862 243.1C117.642 243.09 95.6416 241.97 84.0372 243.76C84.0072 243.76 83.9773 243.76 83.9573 243.76V243.77Z" fill="#8C7A60"/>
<path d="M129.186 277.49C129.017 277.49 128.867 277.36 128.827 277.19C111.94 211.37 85.7448 169.85 66.7503 146.61C46.168 121.43 29.3605 111.69 29.1908 111.59C29.001 111.48 28.9311 111.24 29.041 111.04C29.1508 110.85 29.3905 110.78 29.5902 110.89C29.76 110.99 46.6673 120.78 67.3395 146.06C86.4039 169.37 112.679 211 129.606 276.99C129.656 277.2 129.536 277.42 129.316 277.48C129.276 277.49 129.236 277.49 129.196 277.49H129.186Z" fill="#8C7A60"/>
</g>
<path d="M350 259.73H0V350H350V259.73Z" fill="#FFFEF8"/>
<path d="M339.544 259.73H9.98663C9.70701 259.73 9.4873 259.51 9.4873 259.23C9.4873 258.95 9.70701 258.73 9.98663 258.73H339.544C339.824 258.73 340.043 258.95 340.043 259.23C340.043 259.51 339.824 259.73 339.544 259.73Z" fill="#3D322A"/>
<path d="M127.868 22.5703H83.9373V66.0903H127.868V22.5703Z" fill="#FFF6EB"/>
<path d="M287.43 34.3863L237.854 25.4004L227.412 83.1618L276.989 92.1477L287.43 34.3863Z" fill="#FFF6EB"/>
<path d="M91.5195 19.0713L79.897 27.3115L82.1187 30.4537L93.7413 22.2134L91.5195 19.0713Z" fill="#FFEABB"/>
<path d="M130.26 56.8926L118.637 65.1328L120.859 68.2749L132.482 60.0347L130.26 56.8926Z" fill="#FFEABB"/>
<path d="M274.317 28.8446L252.098 24.8174L251.017 30.8002L273.235 34.8273L274.317 28.8446Z" fill="#FFEABB"/>
<path d="M112.149 30.7002H88.8007C88.6609 30.7002 88.551 30.5902 88.551 30.4502C88.551 30.3102 88.6609 30.2002 88.8007 30.2002H112.149C112.289 30.2002 112.399 30.3102 112.399 30.4502C112.399 30.5902 112.289 30.7002 112.149 30.7002Z" fill="#FFEABB"/>
<path d="M98.1581 33.29H88.8007C88.6609 33.29 88.551 33.18 88.551 33.04C88.551 32.9 88.6609 32.79 88.8007 32.79H98.1581C98.2979 32.79 98.4078 32.9 98.4078 33.04C98.4078 33.18 98.2979 33.29 98.1581 33.29Z" fill="#FFEABB"/>
<path d="M117.063 35.8896H88.8007C88.6609 35.8896 88.551 35.7796 88.551 35.6396C88.551 35.4996 88.6609 35.3896 88.8007 35.3896H117.063C117.203 35.3896 117.312 35.4996 117.312 35.6396C117.312 35.7796 117.203 35.8896 117.063 35.8896Z" fill="#FFEABB"/>
<path d="M103.161 38.4902H88.8007C88.6609 38.4902 88.551 38.3802 88.551 38.2402C88.551 38.1002 88.6609 37.9902 88.8007 37.9902H103.161C103.301 37.9902 103.411 38.1002 103.411 38.2402C103.411 38.3802 103.301 38.4902 103.161 38.4902Z" fill="#FFEABB"/>
<path d="M62.4776 46.6391L28.4043 54.0283L35.7033 87.7759L69.7766 80.3867L62.4776 46.6391Z" fill="#FFF6EB"/>
<path d="M33.7021 50.0371L26.0676 58.3857L28.3214 60.4523L35.9559 52.1036L33.7021 50.0371Z" fill="#FFEABB"/>
<path d="M70.0957 72.8613L62.4612 81.21L64.7149 83.2765L72.3495 74.9278L70.0957 72.8613Z" fill="#FFEABB"/>
<path d="M33.495 59.5696C33.3751 59.5696 33.2753 59.4896 33.2553 59.3696C33.2253 59.2396 33.3152 59.0996 33.445 59.0696L51.5507 55.1396C51.6806 55.1096 51.8204 55.1996 51.8503 55.3296C51.8803 55.4596 51.7904 55.5996 51.6606 55.6296L33.5549 59.5596C33.5549 59.5596 33.5149 59.5596 33.505 59.5596L33.495 59.5696Z" fill="#FFEABB"/>
<path d="M33.9344 61.5904C33.8246 61.5904 33.7147 61.5104 33.6947 61.3904C33.6648 61.2604 33.7547 61.1204 33.8845 61.0904L41.1447 59.5204C41.2746 59.4904 41.4144 59.5804 41.4443 59.7104C41.4743 59.8404 41.3844 59.9804 41.2546 60.0104L33.9943 61.5804C33.9943 61.5804 33.9544 61.5804 33.9444 61.5804L33.9344 61.5904Z" fill="#FFEABB"/>
<path d="M34.3639 63.5995C34.254 63.5995 34.1442 63.5195 34.1242 63.3995C34.0942 63.2695 34.1841 63.1295 34.3139 63.0995L56.2345 58.3495C56.3743 58.3195 56.5041 58.4095 56.5341 58.5395C56.5641 58.6695 56.4742 58.8095 56.3444 58.8395L34.4238 63.5895C34.4238 63.5895 34.3838 63.5895 34.3739 63.5895L34.3639 63.5995Z" fill="#FFEABB"/>
<path d="M34.8033 65.6201C34.6835 65.6201 34.5836 65.5401 34.5636 65.4201C34.5337 65.2901 34.6236 65.1501 34.7534 65.1201L45.8884 62.7001C46.0183 62.6701 46.1581 62.7601 46.188 62.8901C46.218 63.0201 46.1281 63.1601 45.9983 63.1901L34.8632 65.6101C34.8632 65.6101 34.8233 65.6101 34.8133 65.6101L34.8033 65.6201Z" fill="#FFEABB"/>
<path d="M267.081 41.1701C267.081 41.1701 267.051 41.1701 267.041 41.1701L242.125 36.6501C241.985 36.6301 241.895 36.5001 241.925 36.3601C241.945 36.2201 242.075 36.1301 242.215 36.1601L267.131 40.6801C267.271 40.7001 267.361 40.8301 267.331 40.9701C267.311 41.0901 267.201 41.1801 267.081 41.1801V41.1701Z" fill="#FFEABB"/>
<path d="M251.642 41.2296C251.642 41.2296 251.612 41.2296 251.602 41.2296L241.616 39.4196C241.476 39.3996 241.386 39.2696 241.416 39.1296C241.436 38.9896 241.566 38.8996 241.706 38.9296L251.692 40.7396C251.832 40.7596 251.922 40.8896 251.892 41.0296C251.872 41.1496 251.762 41.2396 251.642 41.2396V41.2296Z" fill="#FFEABB"/>
<path d="M271.316 47.6601C271.316 47.6601 271.286 47.6601 271.276 47.6601L241.116 42.2001C240.977 42.1801 240.887 42.0501 240.917 41.9101C240.937 41.7701 241.066 41.6901 241.206 41.7101L271.366 47.1701C271.506 47.1901 271.595 47.3201 271.565 47.4601C271.546 47.5801 271.436 47.6701 271.316 47.6701V47.6601Z" fill="#FFEABB"/>
<path d="M270.317 53.1296C270.317 53.1296 270.287 53.1296 270.277 53.1296L240.118 47.6696C239.978 47.6496 239.888 47.5196 239.918 47.3796C239.938 47.2396 240.068 47.1496 240.207 47.1796L270.367 52.6396C270.507 52.6596 270.597 52.7896 270.567 52.9296C270.547 53.0496 270.437 53.1396 270.317 53.1396V53.1296Z" fill="#FFEABB"/>
<path d="M269.698 55.8603C269.698 55.8603 269.668 55.8603 269.658 55.8603L239.498 50.4003C239.359 50.3803 239.269 50.2503 239.299 50.1103C239.319 49.9703 239.439 49.8903 239.588 49.9103L269.748 55.3703C269.888 55.3903 269.978 55.5203 269.948 55.6603C269.928 55.7803 269.818 55.8703 269.698 55.8703V55.8603Z" fill="#FFEABB"/>
<path d="M255.986 47.7504C255.986 47.7504 255.956 47.7504 255.946 47.7504L240.617 44.9704C240.477 44.9504 240.387 44.8204 240.417 44.6804C240.437 44.5404 240.557 44.4504 240.707 44.4804L256.036 47.2604C256.176 47.2804 256.266 47.4104 256.236 47.5504C256.216 47.6704 256.106 47.7604 255.986 47.7604V47.7504Z" fill="#FFEABB"/>
<path d="M115.757 135.29C120.558 133.559 125.861 136.059 127.589 140.868L134.47 160.016L117.067 166.286L110.186 147.138C108.458 142.33 110.955 137.02 115.757 135.29Z" fill="#FFDF90"/>
<path d="M116.773 166.911L109.723 147.291C107.905 142.231 110.542 136.621 115.595 134.801C118.051 133.921 120.688 134.041 123.045 135.151C125.402 136.261 127.189 138.221 128.068 140.681L135.119 160.291L116.773 166.901V166.911ZM118.9 135.221C117.902 135.221 116.903 135.391 115.934 135.741C111.39 137.381 109.034 142.411 110.661 146.951L117.372 165.621L133.84 159.691L127.129 141.021C126.34 138.821 124.732 137.061 122.625 136.061C121.437 135.501 120.179 135.221 118.9 135.221Z" fill="#786659"/>
<path d="M133.214 158.25L116.901 164.128C115.147 164.76 114.236 166.696 114.867 168.453L115.574 170.419C116.205 172.176 118.139 173.087 119.893 172.455L136.206 166.578C137.96 165.946 138.87 164.009 138.239 162.253L137.532 160.286C136.901 158.53 134.968 157.618 133.214 158.25Z" fill="#786659"/>
<path d="M118.76 173.14C118.201 173.14 117.632 173.02 117.113 172.77C116.174 172.33 115.465 171.55 115.115 170.57L114.406 168.61C113.687 166.6 114.726 164.37 116.743 163.64L133.051 157.76C135.068 157.04 137.286 158.08 138.015 160.1L138.724 162.06C139.443 164.07 138.394 166.3 136.387 167.03L120.079 172.91C119.649 173.06 119.21 173.14 118.76 173.14ZM134.359 158.53C134.04 158.53 133.71 158.58 133.391 158.7L117.083 164.58C115.585 165.12 114.816 166.77 115.345 168.27L116.054 170.23C116.314 170.95 116.843 171.53 117.532 171.86C118.231 172.19 119.01 172.23 119.729 171.96L136.037 166.08C137.535 165.54 138.304 163.89 137.775 162.39L137.066 160.43C136.646 159.26 135.538 158.52 134.349 158.52L134.359 158.53Z" fill="#786659"/>
<path d="M138.484 229.65L136.397 238.77L135.827 245.6L136.337 255.53L139.542 266.79L144.855 275.02L140.192 274.09L135.688 275.61L133.551 279.25V283.37L155.301 283.51H165.418L162.202 278.92L157.518 271.48L150.827 262.84L147.751 255.22L140.571 235.27L138.484 229.65Z" fill="white"/>
<path d="M133.201 280.701C133.151 280.701 133.091 280.701 133.041 280.671C132.782 280.581 132.642 280.291 132.732 280.031C132.752 279.981 134.529 275.071 139.732 275.831C140.002 275.871 140.192 276.121 140.152 276.401C140.112 276.671 139.862 276.851 139.582 276.821C135.178 276.161 133.73 280.191 133.67 280.361C133.6 280.571 133.401 280.691 133.201 280.691V280.701Z" fill="#786659"/>
<path d="M206.153 175.331L210.288 179.831L211.885 182.441L215.321 189.601L218.457 198.811L220.334 208.201L222.112 209.081L227.195 213.271L232.648 220.221L235.014 225.831L237.661 236.001L238.3 247.331V248.931H239.708L248.776 240.931C248.776 240.931 254.868 231.551 255.197 231.361C255.527 231.171 258.882 218.801 258.882 218.801L263.087 212.691L265.683 211.241L270.177 211.471L272.933 214.501C273.603 215.471 273.952 216.631 273.952 217.811L273.443 222.391L270.237 235.411L266.163 243.451L259.961 251.621L248.237 262.781L234.615 272.931L216.19 281.781L211.366 282.811L175.514 283.561L174.576 283.391L175.345 279.041L177.222 276.151L174.016 274.311L172.199 272.611L171.12 270.521L170.571 269.331L170.052 255.671L167.605 249.331L152.695 207.841L146.703 190.241L138.534 168.101L143.078 171.731L144.076 171.601L181.097 181.211L185.721 182.311L197.974 180.941L206.143 175.401L206.153 175.331Z" fill="white"/>
<path d="M177.841 275.88H177.821C171.61 275.61 169.922 270.04 169.902 269.99C169.822 269.73 169.972 269.45 170.241 269.37C170.511 269.29 170.781 269.44 170.861 269.71C170.92 269.91 172.388 274.65 177.861 274.88C178.141 274.89 178.35 275.13 178.34 275.4C178.331 275.67 178.111 275.88 177.841 275.88Z" fill="#786659"/>
<path d="M174.955 280.621C174.955 280.621 174.865 280.621 174.815 280.601C174.555 280.521 174.396 280.251 174.476 279.981C174.505 279.881 175.224 277.501 177.521 276.341C179.139 275.511 181.117 275.511 183.384 276.321C183.643 276.411 183.783 276.701 183.683 276.961C183.583 277.221 183.304 277.351 183.044 277.261C181.057 276.551 179.349 276.531 177.991 277.221C176.083 278.191 175.454 280.241 175.444 280.261C175.384 280.481 175.185 280.621 174.965 280.621H174.955Z" fill="#786659"/>
<path d="M232.667 220.22L227.215 213.27L222.132 209.08L220.354 208.2L218.476 198.81L215.341 189.6L211.905 182.44L210.307 179.83L206.173 175.33L199.063 180.15C196.995 186.68 198.653 197.69 203.936 208.84C211.276 224.34 222.841 234.24 229.771 230.96C232.098 229.86 233.606 227.4 234.295 224.04L232.677 220.22H232.667Z" fill="#FFEED4"/>
<path d="M248.876 240.781C248.826 240.861 248.796 240.911 248.796 240.911L239.728 248.911H238.32V247.311L237.681 235.981L235.034 225.811L232.667 220.201L231.858 219.171C222.701 220.831 213.763 233.991 210.847 251.141C208.739 263.521 210.287 274.971 214.352 282.121L216.219 281.721L234.645 272.871L246.858 263.771C247.408 261.761 247.867 259.671 248.236 257.511C249.245 251.601 249.415 245.891 248.876 240.771V240.781Z" fill="#FFEED4"/>
<path d="M270.187 211.441L265.693 211.211L263.096 212.661L258.892 218.771C258.892 218.771 255.537 231.131 255.207 231.331C254.878 231.521 248.786 240.901 248.786 240.901L239.718 248.901H238.31V247.301L237.77 237.771C233.636 250.671 235.044 262.521 242.025 267.361L248.256 262.721L259.981 251.561L266.182 243.391L270.257 235.351L273.463 222.331L273.972 217.751C273.972 216.571 273.612 215.421 272.953 214.441L270.197 211.411L270.187 211.441Z" fill="#FFEED4"/>
<path d="M150.827 262.841L147.761 255.221L140.571 235.271L138.494 229.641L136.407 238.761L135.837 245.591L136.347 255.521L139.552 266.781L144.236 274.031C146.863 276.631 149.479 277.841 151.666 277.131C154.003 276.371 155.461 273.561 156 269.491L150.837 262.831L150.827 262.841Z" fill="#FFEED4"/>
<path d="M165.997 284.31H133.321C133.071 284.31 132.852 284.12 132.822 283.87C132.362 279.86 133.151 276.99 135.198 275.35C137.695 273.33 141.38 273.7 143.447 274.14C129.316 256.47 137.905 228.92 137.995 228.64C138.074 228.38 138.354 228.24 138.624 228.32C138.883 228.4 139.033 228.69 138.943 228.95C138.853 229.23 130.035 257.53 145.215 274.7C145.365 274.87 145.385 275.12 145.255 275.31C145.135 275.5 144.895 275.58 144.676 275.51C144.616 275.49 138.953 273.6 135.818 276.14C134.14 277.5 133.451 279.91 133.77 283.32H165.997C166.277 283.32 166.496 283.54 166.496 283.82C166.496 284.1 166.277 284.32 165.997 284.32V284.31Z" fill="#786659"/>
<path d="M150.478 262.17L169.352 288.48C169.922 289.28 171.18 288.84 171.14 287.86L169.762 255.22L150.478 262.17Z" fill="#FFEDC0"/>
<path d="M170.131 289.4C169.672 289.4 169.233 289.18 168.943 288.78L150.068 262.47C149.978 262.34 149.948 262.18 149.998 262.03C150.048 261.88 150.158 261.76 150.308 261.71L169.592 254.76C169.742 254.71 169.912 254.73 170.042 254.82C170.171 254.91 170.251 255.06 170.261 255.21L171.639 287.85C171.669 288.52 171.28 289.1 170.641 289.32C170.471 289.38 170.301 289.41 170.141 289.41L170.131 289.4ZM151.267 262.42L169.752 288.19C169.952 288.46 170.221 288.39 170.311 288.37C170.391 288.34 170.651 288.23 170.641 287.89L169.293 255.93L151.267 262.42Z" fill="#786659"/>
<path d="M162.971 280.371L169.352 289.271C169.922 290.071 171.18 289.631 171.14 288.651L170.681 277.341L162.971 280.361V280.371Z" fill="#786659"/>
<path d="M137.685 166.033L118.402 172.98L150.456 262.182L169.738 255.234L137.685 166.033Z" fill="#7DD1AC"/>
<path d="M150.478 262.671C150.268 262.671 150.078 262.541 150.008 262.341L117.951 173.141C117.911 173.021 117.911 172.881 117.971 172.761C118.031 172.641 118.131 172.551 118.251 172.501L137.535 165.551C137.795 165.461 138.084 165.591 138.174 165.851L170.231 255.051C170.271 255.171 170.271 255.311 170.211 255.431C170.151 255.551 170.051 255.641 169.932 255.691L150.648 262.641C150.588 262.661 150.538 262.671 150.478 262.671ZM119.06 173.271L150.787 261.531L169.133 254.921L137.405 166.661L119.06 173.271Z" fill="#786659"/>
<path d="M155.481 207.231C161.774 207.231 166.876 203.515 166.876 198.931C166.876 194.347 161.774 190.631 155.481 190.631C149.188 190.631 144.086 194.347 144.086 198.931C144.086 203.515 149.188 207.231 155.481 207.231Z" fill="white"/>
<path d="M144.775 197.641C144.546 197.641 144.336 197.481 144.286 197.241C144.246 197.061 143.457 192.741 150.418 190.811C157.039 188.981 174.066 191.831 174.785 191.951C175.055 192.001 175.245 192.251 175.195 192.531C175.145 192.801 174.895 192.991 174.615 192.941C174.446 192.911 157.089 190.011 150.678 191.781C144.656 193.451 145.235 196.901 145.255 197.051C145.305 197.321 145.125 197.581 144.855 197.631C144.825 197.631 144.795 197.631 144.755 197.631L144.775 197.641Z" fill="#786659"/>
<path d="M170.591 214.98C170.531 214.98 170.461 214.97 170.401 214.94L147.362 205.53C147.192 205.45 143.797 203.82 144.386 201.3C144.845 199.29 146.553 198.84 147.412 198.86C147.692 198.87 147.901 199.1 147.891 199.38C147.881 199.66 147.632 199.83 147.372 199.86C147.212 199.84 145.744 199.86 145.365 201.53C144.965 203.27 147.741 204.6 147.771 204.62L170.791 214.02C171.05 214.12 171.17 214.42 171.06 214.67C170.98 214.86 170.791 214.98 170.601 214.98H170.591Z" fill="#786659"/>
<path d="M145.075 201.291C144.965 201.291 144.845 201.251 144.756 201.171C144.696 201.121 143.367 199.981 143.577 198.441C143.727 197.261 144.716 196.231 146.503 195.381C146.753 195.261 147.052 195.371 147.172 195.621C147.292 195.871 147.182 196.171 146.933 196.291C145.495 196.971 144.676 197.761 144.566 198.571C144.436 199.571 145.395 200.411 145.405 200.421C145.614 200.601 145.634 200.911 145.465 201.121C145.365 201.241 145.225 201.301 145.085 201.301L145.075 201.291Z" fill="#786659"/>
<path d="M123.214 187.4L119.889 193.49L118.451 198.71L118.421 204.36L121.577 210.33L128.298 214.84L131.393 215.75L135.059 215.78L139.572 214.1L141.18 210.74L143.078 209.15L143.367 204.82L141.979 202.41L138.254 199.62L131.793 199.48L127.828 199.89L123.214 187.4Z" fill="white"/>
<path d="M140.841 210.83C139.573 210.83 138.414 210.28 138.344 210.24C138.095 210.12 137.995 209.82 138.115 209.57C138.234 209.32 138.534 209.22 138.784 209.34C138.804 209.34 140.751 210.28 142.009 209.55C142.688 209.15 143.068 208.3 143.138 207.02C143.208 205.83 142.928 204.99 142.319 204.52C141.27 203.71 139.353 204.08 138.704 204.29C138.444 204.37 138.164 204.23 138.075 203.97C137.985 203.71 138.134 203.43 138.394 203.34C138.514 203.3 141.25 202.43 142.928 203.72C143.817 204.41 144.226 205.53 144.136 207.07C144.047 208.71 143.497 209.83 142.519 210.41C141.989 210.72 141.41 210.83 140.851 210.83H140.841Z" fill="#786659"/>
<path d="M133.351 216.41C131.503 216.41 129.596 215.98 127.728 215.15C122.446 212.78 119.19 209.35 118.041 204.96C115.745 196.17 122.625 186.74 122.925 186.35C123.085 186.13 123.404 186.08 123.624 186.25C123.844 186.41 123.894 186.73 123.724 186.95C123.654 187.04 116.833 196.4 119.01 204.72C120.079 208.81 123.155 212.01 128.138 214.25C130.435 215.28 132.792 215.64 134.979 215.3C137.595 214.89 140.591 214 140.531 210.75C140.531 210.47 140.741 210.25 141.021 210.24C141.29 210.23 141.52 210.45 141.53 210.73C141.61 215.26 136.906 216.01 135.138 216.29C134.549 216.38 133.96 216.43 133.351 216.43V216.41Z" fill="#786659"/>
<path d="M142.529 204.34C142.299 204.34 142.089 204.18 142.039 203.94C141.799 202.79 141.19 201.91 140.172 201.25C136.327 198.75 128.318 200.46 128.238 200.48C127.968 200.53 127.698 200.37 127.638 200.1C127.579 199.83 127.748 199.56 128.018 199.51C128.368 199.43 136.517 197.69 140.711 200.42C141.949 201.23 142.728 202.35 143.018 203.75C143.078 204.02 142.898 204.29 142.628 204.34C142.598 204.34 142.558 204.35 142.529 204.35V204.34Z" fill="#786659"/>
<path d="M183.633 182.261C214.352 187.921 217.198 146.521 217.198 146.521C225.527 143.001 228.423 136.281 229.422 132.401C229.901 130.541 229.202 128.531 227.564 127.521C221.063 123.531 209.928 124.301 209.928 124.301C194.748 104.701 162.751 106.161 162.751 106.161C152.975 97.6508 145.125 99.8608 145.125 99.8608C136.636 102.171 137.955 122.761 137.955 122.761C137.955 122.761 115.794 153.321 143.867 171.561" fill="white"/>
<path d="M162.891 106.4C153.114 97.89 145.265 100.1 145.265 100.1C136.776 102.41 138.094 123 138.094 123C138.094 123 133.59 129.23 131.214 137.73C132.202 139.23 133.371 140.62 134.749 141.85C145.275 151.31 163.131 148.59 174.635 135.76C181.886 127.68 183.324 121.72 185.191 109.03C174.106 106.26 162.891 106.39 162.891 106.39V106.4Z" fill="#FFEED4"/>
<path d="M212.914 132.331C216.22 129.501 221.493 129.941 224.848 132.471C220.953 131.311 216.799 130.851 212.914 132.331Z" fill="#786659"/>
<path d="M176.593 149.161C179.739 147.281 184.772 147.311 186.879 150.701C183.823 148.511 180.198 148.721 176.593 149.161Z" fill="#786659"/>
<path d="M171.08 155.32C170.74 156.69 168.683 158.24 166.666 157.74C164.649 157.24 163.43 154.89 163.76 153.52C164.089 152.15 166.007 151.44 168.024 151.94C170.041 152.44 171.41 153.95 171.07 155.32H171.08Z" fill="#786659"/>
<path d="M165.677 160.841C165.677 160.841 165.578 160.841 165.528 160.821C165.268 160.741 165.118 160.461 165.198 160.191L166.766 155.211C166.846 154.951 167.125 154.801 167.395 154.881C167.655 154.961 167.805 155.241 167.725 155.511L166.157 160.491C166.087 160.701 165.897 160.841 165.677 160.841Z" fill="#786659"/>
<path d="M140.411 155.03C144.283 155.03 147.422 151.887 147.422 148.01C147.422 144.133 144.283 140.99 140.411 140.99C136.539 140.99 133.401 144.133 133.401 148.01C133.401 151.887 136.539 155.03 140.411 155.03Z" fill="#FFD3C0"/>
<path d="M193.001 172.91C196.873 172.91 200.011 169.767 200.011 165.89C200.011 162.013 196.873 158.87 193.001 158.87C189.129 158.87 185.99 162.013 185.99 165.89C185.99 169.767 189.129 172.91 193.001 172.91Z" fill="#FFD3C0"/>
<path d="M162.841 144.55C160.185 142.07 157.378 139.77 153.624 139.73C157.319 138.23 161.403 141.17 162.841 144.55Z" fill="#786659"/>
<path d="M138.554 145.941C132.672 140.461 125.391 136.241 117.482 134.591C116.493 134.321 115.075 134.181 114.057 134.011C123.374 134.401 132.272 139.131 138.544 145.941H138.554Z" fill="#786659"/>
<path d="M137.765 149.38C131.453 148.22 124.892 148.34 118.74 150.23C124.682 147.67 131.603 147.54 137.765 149.38Z" fill="#786659"/>
<path d="M156.16 154.511C155.052 154.511 153.933 154.361 152.825 154.051C146.353 152.221 142.568 145.451 144.396 138.971C146.223 132.491 152.974 128.701 159.456 130.531C162.591 131.421 165.198 133.471 166.786 136.321C168.374 139.171 168.763 142.471 167.884 145.611C166.996 148.751 164.948 151.361 162.102 152.951C160.255 153.991 158.217 154.511 156.16 154.511ZM156.15 130.811C151.147 130.811 146.543 134.121 145.125 139.171C143.407 145.261 146.962 151.611 153.034 153.321C155.98 154.151 159.066 153.791 161.743 152.291C164.409 150.791 166.336 148.351 167.175 145.401C168.004 142.451 167.645 139.361 166.147 136.681C164.649 134.011 162.212 132.081 159.266 131.241C158.227 130.951 157.189 130.811 156.16 130.811H156.15Z" fill="#786659"/>
<path d="M183.803 162.32C182.694 162.32 181.576 162.17 180.467 161.86C177.332 160.97 174.725 158.92 173.137 156.07C171.549 153.22 171.16 149.92 172.039 146.78C173.866 140.3 180.617 136.51 187.099 138.34C190.234 139.23 192.841 141.28 194.429 144.13C196.017 146.98 196.406 150.28 195.527 153.42C194.638 156.56 192.591 159.17 189.745 160.76C187.897 161.8 185.86 162.32 183.803 162.32ZM183.793 138.63C178.79 138.63 174.186 141.94 172.768 146.99C171.939 149.94 172.298 153.03 173.796 155.71C175.294 158.38 177.731 160.31 180.677 161.14C183.623 161.97 186.709 161.61 189.385 160.11C192.052 158.61 193.979 156.17 194.818 153.22C195.647 150.27 195.288 147.18 193.79 144.5C192.292 141.83 189.855 139.9 186.909 139.07C185.87 138.78 184.832 138.64 183.803 138.64L183.793 138.63Z" fill="#786659"/>
<path d="M172.398 147.261C172.288 147.261 172.179 147.211 172.109 147.121C170.071 144.631 167.715 145.821 167.695 145.841C167.515 145.941 167.285 145.861 167.185 145.681C167.085 145.501 167.155 145.271 167.345 145.171C167.375 145.151 170.261 143.681 172.688 146.641C172.818 146.801 172.798 147.041 172.638 147.171C172.568 147.231 172.488 147.251 172.398 147.251V147.261Z" fill="#786659"/>
<path d="M137.266 147.24C130.255 143.19 121.806 141.26 113.797 142.82L112.189 143.14C120.548 140.37 130.095 142.26 137.256 147.23L137.266 147.24Z" fill="#786659"/>
<path d="M194.079 164.2C203.327 164.34 212.784 167.83 219.286 174.51C218.467 173.86 217.438 172.9 216.579 172.34C210.078 167.54 202.089 164.93 194.079 164.19V164.2Z" fill="#786659"/>
<path d="M195.717 167.351C204.196 169.381 211.965 175.241 215.481 183.321L214.652 181.911C210.477 174.891 203.407 169.881 195.717 167.351Z" fill="#786659"/>
<path d="M192.481 167.41C197.964 170.78 202.478 176.04 204.535 182.17C201.839 176.32 197.555 171.34 192.481 167.41Z" fill="#786659"/>
<path d="M145.385 103.33C150.608 103.55 156.779 107.2 156.829 113C155.321 107.71 150.238 105.02 145.385 103.33Z" fill="#786659"/>
<path d="M175.714 107.011C175.694 107.071 175.664 107.131 175.644 107.201C173.167 113.791 172.219 119.531 173.527 120.021C174.825 120.511 177.891 115.561 180.358 108.971C180.497 108.611 180.617 108.261 180.747 107.901C178.999 107.531 177.312 107.241 175.724 107.011H175.714Z" fill="#D4A980"/>
<path d="M189.735 110.44C188.137 109.87 186.549 109.37 184.981 108.94C184.782 109.45 184.572 109.96 184.372 110.49C181.896 117.08 180.947 122.82 182.255 123.31C183.553 123.8 186.619 118.85 189.086 112.26C189.316 111.65 189.525 111.04 189.735 110.45V110.44Z" fill="#D4A980"/>
<path d="M193.12 111.78C192.891 112.34 192.661 112.92 192.441 113.51C189.965 120.1 189.016 125.84 190.324 126.33C191.622 126.82 194.688 121.87 197.155 115.28C197.315 114.84 197.475 114.41 197.624 113.98C196.146 113.16 194.638 112.43 193.12 111.78Z" fill="#D4A980"/>
<path d="M189.156 183.5C187.348 183.5 185.461 183.32 183.514 182.96C183.244 182.91 183.064 182.65 183.114 182.38C183.164 182.11 183.424 181.93 183.693 181.98C191.153 183.36 197.565 182 202.768 177.96C215.041 168.42 216.659 146.91 216.669 146.69C216.679 146.5 216.799 146.34 216.969 146.26C225.158 142.8 227.964 136.14 228.903 132.48C229.342 130.79 228.663 129.01 227.275 128.15C220.983 124.29 210.038 124.99 209.928 125C209.768 125.01 209.599 124.94 209.499 124.81C194.659 105.64 163.051 106.85 162.731 106.86C162.602 106.88 162.482 106.82 162.382 106.74C152.955 98.5305 145.295 100.53 145.225 100.55C137.226 102.73 138.404 122.74 138.414 122.94C138.414 123.06 138.384 123.17 138.324 123.27C138.214 123.41 127.848 137.94 130.575 152.63C131.963 160.13 136.517 166.43 144.096 171.36C144.326 171.51 144.396 171.82 144.246 172.05C144.096 172.28 143.787 172.35 143.557 172.2C135.738 167.11 131.034 160.59 129.596 152.81C126.95 138.51 136.317 124.43 137.415 122.84C137.296 120.67 136.517 101.9 144.965 99.6005C145.295 99.5105 153.104 97.4405 162.901 105.87C165.648 105.79 195.547 105.44 210.138 124C211.915 123.91 221.722 123.58 227.804 127.31C229.572 128.39 230.421 130.63 229.881 132.74C228.903 136.54 226.006 143.42 217.648 147.08C217.398 149.79 215.191 169.59 203.387 178.76C199.322 181.92 194.549 183.51 189.166 183.51L189.156 183.5Z" fill="#786659"/>
<path d="M261.179 215.45L258.892 218.78C258.892 218.78 258.892 218.79 258.882 218.82C262.797 219.89 265.683 220.14 265.993 219.3C266.282 218.53 264.325 217.04 261.179 215.45Z" fill="#D4A980"/>
<path d="M257.055 225.4C260.949 226.46 263.826 226.71 264.135 225.87C264.455 225.01 261.978 223.25 258.163 221.45C257.844 222.61 257.454 224.01 257.065 225.39L257.055 225.4Z" fill="#D4A980"/>
<path d="M261.319 231.89C261.609 231.11 259.571 229.57 256.326 227.95C255.776 229.83 255.317 231.27 255.207 231.34C255.177 231.36 255.087 231.47 254.978 231.61C258.493 232.5 261.029 232.67 261.319 231.89Z" fill="#D4A980"/>
<path d="M174.705 284.31C174.456 284.31 174.246 284.13 174.206 283.88C174.176 283.66 173.517 278.52 176.563 275.75C178.4 274.08 181.157 273.66 184.752 274.51C185.021 274.57 185.191 274.84 185.121 275.11C185.061 275.38 184.782 275.54 184.522 275.48C181.266 274.71 178.82 275.05 177.232 276.48C175.055 278.46 175.075 282.04 175.155 283.29L211.775 282.25C212.375 282.23 212.944 282.15 213.483 282.01C231.749 277.14 248.127 263.15 258.642 252.27C265.943 244.72 270.766 235.48 272.584 225.54C273.632 219.82 273.892 212.75 269.148 211.62C263.486 210.28 260.25 216.43 258.832 220.23C258.303 221.64 257.973 223.09 257.724 224.33C256.296 231.3 252.031 241.25 239.828 249.08C239.418 249.34 238.889 249.36 238.47 249.12C238.04 248.88 237.781 248.41 237.79 247.92C238.689 216.3 220.634 208.55 220.454 208.48C220.294 208.42 220.184 208.28 220.154 208.11C215.241 183.19 206.233 175.62 206.143 175.55C205.933 175.38 205.893 175.06 206.073 174.85C206.243 174.64 206.562 174.6 206.772 174.78C207.152 175.09 216.1 182.6 221.083 207.67C223.33 208.75 239.648 217.66 238.789 247.95C238.789 248.14 238.909 248.22 238.959 248.25C239.009 248.28 239.139 248.33 239.288 248.24C248.846 242.1 254.718 233.99 256.745 224.13C257.005 222.85 257.344 221.35 257.903 219.88C259.441 215.78 262.997 209.13 269.388 210.65C273.802 211.7 275.21 216.77 273.572 225.72C271.715 235.85 266.802 245.27 259.362 252.96C248.756 263.93 232.228 278.04 213.743 282.97C213.134 283.13 212.474 283.23 211.805 283.25L174.715 284.31H174.705Z" fill="#786659"/>
<path d="M170.152 289.59C175.924 288.85 178.53 295.32 181.426 299.05C184.043 302.42 187.548 305.11 191.533 306.65C195.827 308.31 200.281 308.23 204.715 307.22C209.479 306.12 214.133 304.13 219.066 303.91C223.999 303.69 227.714 305.72 231.519 308.33C234.915 310.65 238.29 313.3 242.355 314.33C246.419 315.36 250.404 314.56 253.749 312.42C257.095 310.28 260.031 306.43 259.891 302.25C259.821 300.09 258.842 298.11 257.005 296.93C255.497 295.97 253.47 295.64 251.852 296.55C249.066 298.12 249.156 303 252.371 303.98C253.14 304.21 253.47 303.01 252.701 302.77C251.183 302.31 250.813 300.46 251.293 299.1C251.922 297.28 253.949 296.91 255.587 297.59C260.271 299.53 258.733 305.58 256.186 308.64C253.639 311.7 250.024 313.38 246.219 313.51C242.415 313.64 238.909 311.83 235.763 309.75C232.618 307.67 229.831 305.41 226.446 303.97C222.861 302.45 219.066 302.41 215.281 303.14C211.107 303.95 207.132 305.53 202.948 306.32C198.763 307.11 194.509 306.76 190.594 304.91C186.23 302.85 183.064 299.49 180.458 295.5C178.131 291.93 174.955 287.73 170.142 288.35C169.353 288.45 169.343 289.7 170.142 289.6L170.152 289.59Z" fill="#786659"/>
</g>
<defs>
<clipPath id="clip0_1933_486">
<rect width="350" height="350" fill="white"/>
</clipPath>
</defs>
</svg>
