<svg width="32" height="32" viewBox="0 0 32 32" fill="none" xmlns="http://www.w3.org/2000/svg">
<g clip-path="url(#clip0_1789_185)">
<path d="M16 27C22.0751 27 27 22.0751 27 16C27 9.92487 22.0751 5 16 5C9.92487 5 5 9.92487 5 16C5 22.0751 9.92487 27 16 27Z" fill="white"/>
<path d="M16 25.8996C21.4676 25.8996 25.9 21.4672 25.9 15.9996C25.9 10.532 21.4676 6.09961 16 6.09961C10.5324 6.09961 6.09998 10.532 6.09998 15.9996C6.09998 21.4672 10.5324 25.8996 16 25.8996Z" fill="#60B28D"/>
<path d="M14.5001 20.2503C14.2401 20.2503 13.9901 20.1503 13.7901 19.9603L10.2901 16.4603C9.90006 16.0703 9.90006 15.4403 10.2901 15.0503C10.6801 14.6603 11.3101 14.6603 11.7001 15.0503L14.4901 17.8403L20.2801 12.0503C20.6701 11.6603 21.3001 11.6603 21.6901 12.0503C22.0801 12.4403 22.0801 13.0703 21.6901 13.4603L15.1901 19.9603C14.9901 20.1603 14.7401 20.2503 14.4801 20.2503H14.5001Z" fill="white"/>
</g>
<defs>
<clipPath id="clip0_1789_185">
<rect width="32" height="32" fill="white"/>
</clipPath>
</defs>
</svg>
