<svg width="32" height="32" viewBox="0 0 32 32" fill="none" xmlns="http://www.w3.org/2000/svg">
<g clip-path="url(#clip0_1525_4450)">
<path d="M16 7C20.96 7 25 11.04 25 16C25 20.96 20.96 25 16 25C11.04 25 7 20.96 7 16C7 11.04 11.04 7 16 7ZM16 5C9.92 5 5 9.92 5 16C5 22.08 9.92 27 16 27C22.08 27 27 22.08 27 16C27 9.92 22.08 5 16 5Z" fill="#707070"/>
<path d="M16 11C15.31 11 14.75 11.56 14.75 12.25C14.75 12.94 15.31 13.5 16 13.5C16.69 13.5 17.25 12.94 17.25 12.25C17.25 11.56 16.69 11 16 11Z" fill="#707070"/>
<path d="M16 21.75C15.45 21.75 15 21.3 15 20.75V15.75C15 15.2 15.45 14.75 16 14.75C16.55 14.75 17 15.2 17 15.75V20.75C17 21.3 16.55 21.75 16 21.75Z" fill="#707070"/>
</g>
<defs>
<clipPath id="clip0_1525_4450">
<rect width="32" height="32" fill="white"/>
</clipPath>
</defs>
</svg>
