<svg width="160" height="160" viewBox="0 0 160 160" fill="none" xmlns="http://www.w3.org/2000/svg">
<g clip-path="url(#clip0_1717_1611)">
<path d="M78.62 7.46016L33.97 44.1702C33.49 44.5702 33.21 45.1502 33.21 45.7602V100.93C33.21 102.08 34.16 103.01 35.34 103.01H124.64C125.81 103.01 126.77 102.08 126.77 100.93V45.7602C126.77 45.1502 126.49 44.5602 126.01 44.1702L81.36 7.46016C80.57 6.81016 79.41 6.81016 78.62 7.46016Z" fill="#60B28D"/>
<path d="M92.9099 96.7705H63.1399V100.931H92.9099V96.7705Z" fill="white"/>
<path d="M92.9099 84.291H63.1399V88.451H92.9099V84.291Z" fill="white"/>
<path d="M97.1599 90.5303H67.3899V94.6903H97.1599V90.5303Z" fill="white"/>
<path d="M97.1599 78.0605H67.3899V82.2206H97.1599V78.0605Z" fill="white"/>
<path d="M84.5499 39.6L80.8399 35.37V7.15004C80.2999 6.92004 79.6799 6.92004 79.1399 7.15004V35.37L75.4299 39.6L71.6099 43.95C71.3099 44.29 71.5799 44.79 72.0599 44.79H77.8699C77.8699 45.94 78.8199 46.87 79.9999 46.87C81.1799 46.87 82.1299 45.94 82.1299 44.79H87.9398C88.4198 44.79 88.6799 44.29 88.3899 43.95L84.5699 39.6H84.5499Z" fill="white"/>
<path d="M16.25 124.471C16.42 124.421 16.6 124.401 16.78 124.431L17.69 124.511C18.93 124.641 20.03 124.711 21.01 124.711C23.04 124.711 25.62 124.571 28.75 124.281L29.74 124.201L30.73 124.041C31.26 123.911 31.73 123.841 32.15 123.841C32.39 123.841 32.58 123.911 32.74 124.041C32.9 124.171 32.98 124.361 32.98 124.591C32.98 125.011 32.78 125.301 32.39 125.461C32 125.621 31.52 125.711 30.97 125.741C25.97 126.111 22.2 126.291 19.67 126.291C18.85 126.291 18.04 126.191 17.22 125.991C16.4 125.791 16 125.401 16 124.821C16 124.641 16.09 124.521 16.26 124.461L16.25 124.471ZM17.63 127.431C17.75 127.331 17.91 127.271 18.12 127.271C19.3 127.271 20.1 127.801 20.51 128.871C20.92 129.941 21.12 131.301 21.12 132.961L21.08 135.451C21.08 136.611 21.05 138.371 21 140.741C24 140.291 27.9 139.421 32.69 138.131C32.9 138.081 33.32 137.921 33.95 137.661C34.03 137.631 34.3 137.531 34.76 137.341C35.22 137.161 35.57 137.061 35.81 137.061C35.89 137.061 35.98 137.091 36.09 137.141C36.19 137.191 36.25 137.261 36.25 137.341C36.25 137.791 35.91 138.241 35.24 138.681C34.57 139.131 33.94 139.431 33.36 139.591C26.62 141.381 22.47 142.281 20.92 142.281C20.39 142.281 19.93 142.181 19.54 141.981C19.15 141.781 18.95 141.451 18.95 140.971C18.95 140.341 18.96 139.791 18.99 139.311C19.02 138.831 19.04 138.431 19.07 138.081C19.15 137.131 19.19 136.181 19.19 135.241C19.19 133.241 19.14 131.741 19.03 130.741C18.95 130.111 18.82 129.651 18.64 129.381C18.46 129.101 18.22 128.851 17.93 128.611C17.77 128.481 17.65 128.371 17.57 128.271C17.49 128.171 17.45 128.041 17.45 127.851C17.45 127.661 17.51 127.521 17.63 127.421V127.431ZM38.35 150.161C38.24 149.301 38.19 148.511 38.19 147.771C38.19 146.221 38.24 143.891 38.35 140.781C38.45 137.671 38.51 135.331 38.51 133.751V129.211C38.51 126.101 38.44 123.441 38.31 121.231C38.28 120.651 38.13 120.221 37.84 119.931C37.55 119.641 37.14 119.361 36.62 119.101C36.57 119.071 36.45 119.011 36.26 118.901C36.08 118.801 35.94 118.681 35.84 118.561C35.75 118.441 35.7 118.321 35.7 118.191C35.7 117.981 35.79 117.821 35.96 117.721C36.13 117.621 36.32 117.561 36.53 117.561C37.61 117.561 38.54 117.971 39.31 118.791C40.08 119.611 40.48 120.551 40.48 121.631V132.931H41.31C41.78 132.931 42.47 132.851 43.36 132.691C44.25 132.531 44.91 132.451 45.33 132.451C45.72 132.451 46.06 132.551 46.34 132.751C46.62 132.951 46.75 133.241 46.75 133.641C46.75 134.221 45.1 134.511 41.81 134.511L40.47 134.471V137.991C40.47 142.071 40.38 145.401 40.19 147.981C40.14 148.511 40 149.221 39.77 150.111C39.55 151.001 39.29 151.451 39 151.451C38.66 151.451 38.43 151.021 38.33 150.171L38.35 150.161Z" fill="#60B28D"/>
<path d="M52.6699 137.71C52.1299 137.53 51.8599 137.29 51.8599 137C51.8599 136.39 51.8899 135.51 51.9399 134.35L51.9799 131.74C51.9799 130.95 51.9699 130.36 51.9399 129.96C51.5199 129.91 51.0399 129.74 50.4999 129.47C49.9599 129.19 49.6899 128.88 49.6899 128.54C49.6899 128.36 49.7799 128.24 49.9699 128.18C50.1499 128.13 50.3399 128.11 50.5199 128.14C52.4199 128.32 53.9999 128.42 55.2599 128.42C56.3399 128.42 57.5199 128.38 58.8199 128.3C60.1199 128.22 60.9499 128.17 61.3499 128.14L62.4599 128.06C62.5099 127.38 62.5499 126.78 62.5599 126.28C62.5699 125.78 62.5799 125.36 62.5799 125.02C62.5799 123.99 62.5899 123.23 62.6199 122.73L53.4899 123.24C52.7999 123.27 52.0099 123.17 51.1199 122.94C50.2299 122.71 49.7799 122.33 49.7799 121.77C49.7799 121.51 49.9899 121.38 50.4099 121.38C50.8299 121.38 51.2799 121.42 51.7499 121.5C51.9099 121.53 52.0899 121.55 52.2999 121.58C52.5099 121.61 52.7599 121.62 53.0499 121.62H54.3099C57.7899 121.62 60.4099 121.48 62.1699 121.19C62.3499 121.16 62.6199 121.1 62.9799 121.01C63.3399 120.92 63.6199 120.87 63.8299 120.87C64.1199 120.87 64.3399 120.99 64.4799 121.25C64.6199 121.5 64.6999 121.77 64.6999 122.06C64.6999 123.38 64.6199 125.25 64.4599 127.67C64.6999 127.67 64.8999 127.74 65.0699 127.89C65.2399 128.04 65.3299 128.23 65.3299 128.46C65.3299 128.88 65.1399 129.16 64.7599 129.31C64.3799 129.45 63.8999 129.54 63.3199 129.57C59.4999 129.86 56.3699 130.01 53.9199 130.01C53.9499 130.56 53.9599 131.38 53.9599 132.46C53.9599 133.33 53.9299 134.63 53.8799 136.37C55.4099 136.24 56.9699 136 58.5799 135.64C60.1899 135.28 62.1199 134.79 64.3899 134.16L65.8899 133.77C66.0999 133.72 66.4999 133.56 67.0799 133.3C68.0799 132.88 68.7299 132.67 69.0199 132.67C69.1199 132.67 69.2199 132.7 69.3199 132.75C69.4099 132.8 69.4599 132.88 69.4599 132.99C69.4599 133.44 69.1199 133.89 68.4299 134.35C67.7399 134.81 67.1299 135.11 66.5699 135.24L65.4999 135.52C59.2299 137.18 55.3999 138.01 54.0099 138.01C53.6699 138.01 53.2299 137.92 52.6899 137.73L52.6699 137.71ZM56.8599 141.25C56.9799 141.19 57.0999 141.15 57.2399 141.15C57.6899 141.15 58.1499 141.19 58.6199 141.27C58.7499 141.3 58.9299 141.32 59.1499 141.35C59.3699 141.38 59.6399 141.39 59.9599 141.39C61.0699 141.39 61.9299 141.4 62.5699 141.43L65.6899 141.47C67.8799 141.47 69.6099 141.35 70.8999 141.11C71.0799 141.08 71.3799 141.02 71.7899 140.91C72.1999 140.81 72.4499 140.75 72.5599 140.75C72.8799 140.75 73.1099 140.88 73.2499 141.14C73.3899 141.4 73.4699 141.69 73.4699 142.01C73.4699 144.8 73.3999 147.34 73.2499 149.61C73.0999 151.89 72.7199 153.03 72.0799 153.03C71.5299 153.03 71.2499 152.11 71.2499 150.26C71.2499 147.71 71.2899 145.16 71.3699 142.64L60.3899 143C59.6799 143.03 58.8799 142.93 57.9999 142.7C57.1199 142.48 56.6799 142.09 56.6799 141.53C56.6799 141.4 56.7399 141.3 56.8599 141.23V141.25ZM69.0899 117.73C69.2699 117.63 69.4799 117.57 69.7199 117.57C70.4299 117.57 71.0799 117.77 71.6799 118.16C72.2799 118.55 72.7399 119.07 73.0799 119.7C73.4199 120.33 73.5899 120.99 73.5899 121.68V129.66H74.1399C74.5899 129.66 75.2599 129.58 76.1599 129.42C76.9499 129.26 77.5499 129.18 77.9799 129.18C78.4299 129.18 78.8199 129.26 79.1399 129.42C79.4699 129.58 79.6299 129.85 79.6299 130.25C79.6299 130.7 79.1099 130.97 78.0699 131.08C77.0299 131.19 75.8899 131.24 74.6499 131.24L73.5799 131.2C73.5799 131.36 73.5499 132.76 73.4999 135.41C73.4499 138.06 73.0299 139.38 72.2399 139.38C71.8999 139.38 71.6699 138.95 71.5699 138.1C71.4599 137.24 71.4099 136.45 71.4099 135.71C71.4099 134.66 71.4399 133.05 71.4899 130.89C71.5399 128.73 71.5699 127.12 71.5699 126.07C71.5699 124.31 71.5199 122.7 71.4099 121.25C71.3799 120.67 71.2299 120.24 70.9399 119.95C70.6499 119.66 70.2399 119.38 69.7199 119.12C69.6699 119.09 69.5499 119.03 69.3599 118.92C69.1799 118.82 69.0399 118.7 68.9399 118.58C68.8499 118.46 68.7999 118.34 68.7999 118.21C68.7999 118 68.8899 117.84 69.0799 117.74L69.0899 117.73Z" fill="#60B28D"/>
<path d="M83.26 137.351C85.71 135.611 87.68 133.891 89.18 132.201C90.68 130.501 92 128.401 93.13 125.901L87.88 126.411C87.51 126.441 87.03 126.411 86.44 126.331C85.85 126.251 85.32 126.101 84.86 125.881C84.4 125.661 84.17 125.351 84.17 124.951C84.17 124.771 84.26 124.651 84.45 124.591C84.63 124.541 84.82 124.521 85 124.551L85.91 124.631C86.8 124.741 87.48 124.791 87.92 124.791C88.66 124.791 89.79 124.661 91.32 124.401C91.53 124.371 91.98 124.311 92.66 124.201C93.34 124.101 93.98 124.041 94.56 124.041C94.82 124.041 95.05 124.151 95.23 124.381C95.41 124.601 95.51 124.851 95.51 125.111C95.51 125.661 95.1 126.701 94.29 128.211C93.47 129.721 92.79 130.861 92.24 131.631C92.95 132.601 93.68 133.411 94.43 134.061C95.18 134.711 96.12 135.331 97.26 135.941C97.52 136.101 97.73 136.241 97.87 136.361C98.01 136.481 98.09 136.631 98.09 136.811C98.09 137.021 97.95 137.181 97.67 137.281C97.39 137.391 97.14 137.441 96.9 137.441C96.03 137.441 95.01 136.961 93.84 136.001C92.67 135.041 91.73 134.071 91.01 133.101C90.56 133.601 89.81 134.301 88.74 135.211C87.67 136.121 86.61 136.921 85.54 137.601C84.47 138.291 83.66 138.631 83.11 138.631C83.03 138.631 82.95 138.601 82.85 138.531C82.76 138.471 82.71 138.391 82.71 138.311C82.71 137.921 82.89 137.601 83.26 137.361V137.351ZM85.87 120.151C85.95 120.031 86.07 119.971 86.23 119.971L87.02 120.211C88.63 120.821 89.88 121.121 90.77 121.121C91.01 121.121 91.21 121.111 91.38 121.081C91.55 121.051 91.7 121.031 91.83 121.001C92.15 120.921 92.46 120.881 92.78 120.881C93.02 120.881 93.22 120.941 93.39 121.061C93.56 121.181 93.65 121.341 93.65 121.551C93.65 122.051 93.31 122.351 92.64 122.441C91.97 122.531 91.08 122.581 89.97 122.581C88.94 122.581 87.98 122.451 87.09 122.191C86.19 121.931 85.75 121.391 85.75 120.571C85.75 120.411 85.79 120.271 85.87 120.151ZM92.39 140.831C92.81 140.831 93.23 140.871 93.65 140.951C93.81 140.981 94.01 141.001 94.24 141.031C94.48 141.061 94.74 141.071 95.03 141.071C96.16 141.071 97.03 141.081 97.64 141.111L100.52 141.151C102.73 141.151 104.55 141.031 105.97 140.791C106.15 140.761 106.42 140.711 106.78 140.611C107.14 140.521 107.42 140.471 107.63 140.471C107.95 140.471 108.18 140.601 108.32 140.851C108.47 141.101 108.54 141.381 108.54 141.701V143.201C108.54 149.761 108.07 153.041 107.12 153.041C106.59 153.041 106.33 152.121 106.33 150.271C106.33 147.581 106.37 144.941 106.45 142.331L95.47 142.691C94.73 142.721 93.93 142.621 93.06 142.391C92.19 142.171 91.76 141.781 91.76 141.231C91.76 140.971 91.97 140.831 92.39 140.831ZM106.73 138.181C106.62 137.311 106.57 136.521 106.57 135.811V134.191L106.69 130.951V129.331C105.4 129.511 103.77 129.631 101.79 129.691V130.911C101.79 132.991 101.7 134.871 101.53 136.561C101.36 138.251 101.01 139.091 100.48 139.091C100.14 139.091 99.91 138.671 99.81 137.831C99.7 136.991 99.65 136.201 99.65 135.461L99.69 131.941C99.72 131.151 99.73 129.981 99.73 128.421C99.73 126.051 99.65 124.091 99.49 122.531C99.44 121.951 99.27 121.511 98.98 121.211C98.69 120.911 98.28 120.611 97.75 120.321C97.43 120.141 97.21 119.991 97.08 119.891C96.95 119.791 96.88 119.641 96.88 119.461C96.88 119.281 96.97 119.131 97.14 119.031C97.31 118.931 97.5 118.871 97.71 118.871C98.79 118.871 99.72 119.281 100.5 120.101C101.28 120.921 101.67 121.851 101.67 122.901V124.201L101.75 126.771V128.071C102.88 128.041 104.53 127.931 106.69 127.711C106.69 124.811 106.64 122.651 106.53 121.231C106.48 120.651 106.3 120.201 106 119.891C105.7 119.571 105.29 119.301 104.8 119.061C104.48 118.901 104.25 118.761 104.11 118.641C103.96 118.521 103.89 118.371 103.89 118.191C103.89 117.981 103.99 117.821 104.19 117.721C104.39 117.621 104.59 117.561 104.8 117.561C105.51 117.561 106.16 117.761 106.76 118.151C107.36 118.541 107.83 119.061 108.18 119.691C108.54 120.321 108.71 120.971 108.71 121.631L108.75 127.361L108.79 130.051C108.79 131.841 108.72 133.831 108.59 136.021C108.54 136.551 108.4 137.261 108.18 138.151C107.96 139.051 107.69 139.491 107.37 139.491C107.05 139.491 106.84 139.061 106.74 138.191L106.73 138.181Z" fill="#60B28D"/>
<path d="M117.31 122.02C118.2 122.02 118.88 122.33 119.32 122.95C119.77 123.57 120.06 124.25 120.19 124.98C120.32 125.71 120.41 126.65 120.47 127.78C122.97 127.78 125.97 127.69 129.48 127.5C129.48 125.81 129.44 124.55 129.36 123.71C129.31 123.1 129.19 122.66 129 122.37C128.82 122.08 128.57 121.84 128.27 121.64C127.97 121.44 127.82 121.24 127.82 121.03C127.82 120.56 128.06 120.32 128.53 120.32C129.79 120.32 130.6 120.85 130.96 121.9C131.32 122.95 131.49 124.27 131.49 125.85V127.23C131.49 132.89 130.96 135.72 129.91 135.72C129.7 135.72 129.53 135.64 129.42 135.48C129.3 135.32 129.22 135.14 129.16 134.93C128.11 135.22 127.03 135.4 125.94 135.48C124.85 135.56 123.47 135.6 121.81 135.6C120.73 135.6 119.98 135.51 119.56 135.32C119.22 135.19 118.97 134.52 118.83 133.33C118.68 132.13 118.57 130.52 118.49 128.49C118.44 126.86 118.37 125.86 118.29 125.49C118.18 124.94 117.89 124.33 117.4 123.67C116.91 123.01 116.66 122.67 116.63 122.64C116.63 122.22 116.85 122.01 117.3 122.01L117.31 122.02ZM120.51 130.2L120.47 131.46C120.47 133.2 120.93 134.07 121.85 134.07C123.64 134.07 126.09 133.87 129.2 133.48L129.28 132.02C129.33 131.34 129.38 130.36 129.44 129.1C125.49 129.21 122.53 129.3 120.55 129.38C120.55 129.72 120.54 130 120.51 130.21V130.2ZM126.49 141.93C127.5 140.96 129.01 140.17 131.01 139.56C131.19 139.51 131.51 139.34 131.96 139.05C132.41 138.76 132.66 138.62 132.71 138.62C132.84 138.62 132.99 138.67 133.14 138.78L133.5 139.65C134.68 139.65 135.72 139.99 136.6 140.66C137.48 141.33 138.16 142.19 138.63 143.25C139.1 144.3 139.34 145.4 139.34 146.53C139.34 148.45 138.65 149.94 137.29 150.99C135.92 152.04 134.24 152.57 132.23 152.57C130.07 152.57 128.32 152.04 126.98 150.99C125.64 149.94 124.97 148.36 124.97 146.25C124.97 144.35 125.48 142.92 126.49 141.94V141.93ZM128.42 149.71C129.41 150.47 130.65 150.86 132.15 150.86C133.65 150.86 134.87 150.5 135.88 149.79C136.89 149.08 137.4 148.01 137.4 146.59C137.4 145.46 137.29 144.6 137.08 144.02C136.87 143.44 136.59 143.02 136.25 142.76C135.91 142.5 135.38 142.22 134.67 141.93C133.85 141.61 133.18 141.29 132.66 140.94C131.18 141.36 130.1 141.72 129.4 142.03C128.7 142.33 128.12 142.82 127.64 143.49C127.17 144.16 126.93 145.12 126.93 146.35C126.93 147.83 127.42 148.94 128.41 149.71H128.42ZM142.5 128.42C143.29 128.26 143.89 128.18 144.32 128.18C144.77 128.18 145.16 128.26 145.48 128.42C145.81 128.58 145.97 128.85 145.97 129.25C145.97 129.7 145.45 129.97 144.41 130.08C143.37 130.19 142.23 130.24 140.99 130.24L139.92 130.2C139.92 132.02 139.84 133.92 139.68 135.91C139.52 137.9 139.15 138.89 138.57 138.89C138.23 138.89 138 138.46 137.9 137.61C137.79 136.75 137.74 135.96 137.74 135.22C137.74 134.17 137.77 132.61 137.82 130.56C137.87 128.51 137.9 126.95 137.9 125.9C137.9 124.16 137.85 122.61 137.74 121.24C137.71 120.66 137.56 120.23 137.27 119.94C136.98 119.65 136.57 119.37 136.05 119.11C136 119.08 135.88 119.02 135.69 118.91C135.51 118.81 135.37 118.69 135.27 118.57C135.18 118.45 135.13 118.33 135.13 118.2C135.13 117.99 135.22 117.83 135.41 117.73C135.59 117.63 135.8 117.57 136.04 117.57C136.75 117.57 137.4 117.77 138 118.16C138.6 118.55 139.06 119.07 139.4 119.7C139.74 120.33 139.91 120.99 139.91 121.68V128.67H140.46C140.91 128.67 141.58 128.59 142.48 128.43L142.5 128.42Z" fill="#60B28D"/>
</g>
<defs>
<clipPath id="clip0_1717_1611">
<rect width="160" height="160" fill="white"/>
</clipPath>
</defs>
</svg>
