<svg width="390" height="245" viewBox="0 0 390 245" fill="none" xmlns="http://www.w3.org/2000/svg">
<g clip-path="url(#clip0_1628_1621)">
<path d="M390 0H0V245H390V0Z" fill="#FFF9EA"/>
<path d="M296.16 40.0996C327.59 40.0996 353.1 65.6196 353.1 97.0396V215.26C353.1 224.79 345.36 232.53 335.83 232.53H256.49C246.96 232.53 239.22 224.79 239.22 215.26V97.0396C239.22 65.6096 264.74 40.0996 296.16 40.0996Z" stroke="#FFD283" stroke-miterlimit="10"/>
<path d="M299.99 40.0996C331.42 40.0996 356.93 65.6196 356.93 97.0396V215.26C356.93 224.79 349.19 232.53 339.66 232.53H260.32C250.79 232.53 243.05 224.79 243.05 215.26V97.0396C243.05 65.6096 268.57 40.0996 299.99 40.0996Z" fill="#FFFEFB"/>
<path d="M280.51 161.91C290.711 161.91 298.98 153.64 298.98 143.44C298.98 133.239 290.711 124.97 280.51 124.97C270.309 124.97 262.04 133.239 262.04 143.44C262.04 153.64 270.309 161.91 280.51 161.91Z" fill="#FF8F71"/>
<path d="M251.04 215.26V97.0398C251.04 67.0398 272.62 42.4698 299.99 40.2698C298.67 40.1598 297.34 40.0898 295.99 40.0898C266.75 40.0898 243.04 65.5798 243.04 97.0298V215.25C243.04 224.79 250.23 232.52 259.1 232.52H267.09C258.22 232.52 251.03 224.79 251.03 215.25L251.04 215.26Z" fill="#FFD283"/>
<path d="M390 217.14H0V245H390V217.14Z" fill="#FFD283"/>
<path opacity="0.5" d="M112.91 57.8301H82.43H51.96L0 193.24V245H82.43H184.73L112.91 57.8301Z" fill="white"/>
<path d="M356.94 147.76H251.04V217.13H356.94V147.76Z" fill="#CBD9E6"/>
<path d="M262.47 147.76L298.47 147.78C298.47 147.78 298.54 148.46 299.74 151.08C299.74 151.08 302.41 156.56 296.09 156.97C289.77 157.38 292.04 160.87 292.04 160.87C292.04 160.87 294.22 165.68 284.51 166.15C284.51 166.15 276.56 166.85 276.89 162.28C276.89 162.28 277.42 157.18 272.11 158.38C272.11 158.38 265.59 159.57 263.97 155.8C263.6 154.93 263.69 153.95 264.05 153.08C264.37 152.29 264.51 151.16 263.04 150.75C263.04 150.75 260.53 149.84 262.47 147.76Z" fill="#FFF7E6"/>
<path d="M207 194.17C207 194.17 209.63 166.54 218.87 170.64C227.02 174.26 207 194.17 207 194.17Z" fill="#87C6A8"/>
<path d="M206.87 161.56C206.87 161.56 205.76 138.79 198.03 141.8C191.21 144.46 206.87 161.56 206.87 161.56Z" fill="#87C6A8"/>
<path d="M206.47 204.119V161.389C206.47 161.389 209.52 149.089 218.81 151.999C219.5 152.219 220.16 152.559 220.68 153.069C221.36 153.749 221.95 154.859 221.26 156.429C220.32 158.579 216.72 157.929 214.98 157.479C213.24 157.029 211.35 157.159 209.77 158.039C208.65 158.659 207.48 159.689 206.48 161.399" fill="#87C6A8"/>
<path d="M206.67 193.549C206.67 193.549 204.16 168.819 196.11 173.379C186.5 178.819 206.67 193.549 206.67 193.549Z" fill="#87C6A8"/>
<path d="M221.26 156.42C221.95 154.85 221.35 153.74 220.68 153.06C220.17 152.55 219.51 152.21 218.81 151.99C214.1 150.52 210.99 152.96 209.07 155.72C209.09 155.72 211.57 155.51 214.69 157.41C214.78 157.43 214.88 157.45 214.97 157.47C216.71 157.92 220.31 158.57 221.25 156.42H221.26Z" fill="#BBEFD5"/>
<path d="M206.67 160.46V206.13" stroke="#87C6A8" stroke-miterlimit="10" stroke-linecap="round"/>
<path d="M219.06 212.39L213.75 201.68H199.61L194.3 212.39C194.3 212.39 190.79 218.82 197.71 219.69H203.81C203.91 220.07 204.24 220.35 204.65 220.35H208.93C209.34 220.35 209.67 220.07 209.77 219.69H215.66C222.58 218.82 219.07 212.39 219.07 212.39H219.06Z" fill="#87C6A8"/>
<path d="M82.43 62.5098C85.9536 62.5098 88.81 60.607 88.81 58.2598C88.81 55.9126 85.9536 54.0098 82.43 54.0098C78.9065 54.0098 76.05 55.9126 76.05 58.2598C76.05 60.607 78.9065 62.5098 82.43 62.5098Z" fill="#FEFFD0"/>
<path d="M82.4299 38.81V0" stroke="#EFB860" stroke-width="3" stroke-miterlimit="10"/>
<path d="M114.8 57.8305H50.0699C48.8899 57.8305 47.9299 56.8704 47.9299 55.6904V53.1505C47.9299 52.2805 48.4499 51.5004 49.2599 51.1704L81.6499 38.4905C82.1499 38.2905 82.7099 38.2805 83.2099 38.4705L115.55 51.1904C116.38 51.5004 116.93 52.3004 116.93 53.1904V55.6904C116.93 56.8704 115.97 57.8305 114.79 57.8305H114.8Z" fill="#FFD283"/>
<path d="M47.9299 53.1597V55.6997C47.9299 56.8797 48.8899 57.8397 50.0699 57.8397H114.8C115.98 57.8397 116.94 56.8797 116.94 55.6997V53.1997C116.94 53.0197 116.9 52.8497 116.86 52.6797H47.9999C47.9599 52.8397 47.9299 52.9897 47.9299 53.1597Z" fill="#EFB860"/>
</g>
<defs>
<clipPath id="clip0_1628_1621">
<rect width="390" height="245" fill="white"/>
</clipPath>
</defs>
</svg>
