<svg width="48" height="48" viewBox="0 0 48 48" fill="none" xmlns="http://www.w3.org/2000/svg">
<path opacity="0.6" d="M33 21H32V26C32 27.1 31.1 28 30 28H20V30.97C20 32.08 20.9 32.98 22 32.98H28.72L32.18 35.88C32.51 36.15 33 35.92 33 35.49V32.98C34.1 32.98 35 32.08 35 30.97V23.01C35 21.9 34.1 21 33 21Z" fill="#707070"/>
<path d="M29 13.0002H15C13.9 13.0002 13 13.9002 13 15.0002V25.0002C13 26.1002 13.9 27.0002 15 27.0002V29.7902C15 30.2402 15.54 30.4602 15.85 30.1402L19 26.9902H29C30.1 26.9902 31 26.0902 31 24.9902V14.9902C31 13.8902 30.1 12.9902 29 12.9902V13.0002ZM17.5 21.6502C16.67 21.6502 16 20.9802 16 20.1502C16 19.3202 16.67 18.6502 17.5 18.6502C18.33 18.6502 19 19.3202 19 20.1502C19 20.9802 18.33 21.6502 17.5 21.6502ZM22 21.6502C21.17 21.6502 20.5 20.9802 20.5 20.1502C20.5 19.3202 21.17 18.6502 22 18.6502C22.83 18.6502 23.5 19.3202 23.5 20.1502C23.5 20.9802 22.83 21.6502 22 21.6502ZM26.5 21.6502C25.67 21.6502 25 20.9802 25 20.1502C25 19.3202 25.67 18.6502 26.5 18.6502C27.33 18.6502 28 19.3202 28 20.1502C28 20.9802 27.33 21.6502 26.5 21.6502Z" fill="#707070"/>
</svg>
