<svg width="48" height="48" viewBox="0 0 48 48" fill="none" xmlns="http://www.w3.org/2000/svg">
<g clip-path="url(#clip0_1462_2483)">
<path d="M35 19.7197C34.84 19.7197 34.67 19.6797 34.52 19.5997L24.48 14.1197C24.18 13.9597 23.82 13.9597 23.52 14.1197L13.48 19.5997C12.99 19.8697 12.39 19.6897 12.12 19.1997C11.85 18.7097 12.03 18.1097 12.52 17.8397L22.56 12.3597C23.46 11.8697 24.53 11.8697 25.43 12.3597L35.47 17.8397C35.96 18.0997 36.13 18.7097 35.87 19.1997C35.69 19.5297 35.35 19.7197 34.99 19.7197H35Z" fill="#60B28D"/>
<path d="M21 34C20.45 34 20 33.55 20 33V28C20 27.45 20.45 27 21 27C21.55 27 22 27.45 22 28V33C22 33.55 21.55 34 21 34Z" fill="#60B28D"/>
<path d="M30.75 35H17.25C15.46 35 14 33.65 14 32V18C14 17.45 14.45 17 15 17C15.55 17 16 17.45 16 18V32C16 32.55 16.56 33 17.25 33H30.75C31.43 33 32 32.54 32 32V18C32 17.45 32.45 17 33 17C33.55 17 34 17.45 34 18V32C34 33.65 32.54 35 30.75 35Z" fill="#60B28D"/>
<path d="M32 29H16C15.45 29 15 28.55 15 28C15 27.45 15.45 27 16 27H32C32.55 27 33 27.45 33 28C33 28.55 32.55 29 32 29Z" fill="#60B28D"/>
<path d="M27 28C26.45 28 26 27.55 26 27V15C26 14.45 26.45 14 27 14C27.55 14 28 14.45 28 15V27C28 27.55 27.55 28 27 28Z" fill="#60B28D"/>
<g opacity="0.5">
<path d="M20 28H16V34H20V28Z" fill="#60B28D"/>
</g>
<g opacity="0.5">
<path d="M32 16H28V28H32V16Z" fill="#60B28D"/>
</g>
</g>
<defs>
<clipPath id="clip0_1462_2483">
<rect width="48" height="48" fill="white"/>
</clipPath>
</defs>
</svg>
