<svg width="48" height="48" viewBox="0 0 48 48" fill="none" xmlns="http://www.w3.org/2000/svg">
<path d="M22 26.9998C21.74 26.9998 21.48 26.8998 21.29 26.7098C21.06 26.4798 20.96 26.1698 21.01 25.8498L21.47 22.8298C21.5 22.6198 21.6 22.4298 21.75 22.2798L30.79 13.2398C31.18 12.8498 31.81 12.8498 32.2 13.2398L34.75 15.7898C35.14 16.1798 35.14 16.8098 34.75 17.1998L25.71 26.2398C25.56 26.3898 25.37 26.4898 25.15 26.5198L22.13 26.9798C22.08 26.9798 22.03 26.9898 21.98 26.9898L22 26.9998ZM23.4 23.4598L23.19 24.8098L24.54 24.5998L32.64 16.4998L31.5 15.3598L23.4 23.4598Z" fill="#707070"/>
<path d="M27 35H17.12C15.4 35 14 33.65 14 32V16C14 14.35 15.4 13 17.12 13H26C26.55 13 27 13.45 27 14C27 14.55 26.55 15 26 15H17.12C16.5 15 16 15.45 16 16V32C16 32.55 16.5 33 17.12 33H26.59L32 27.59V23C32 22.45 32.45 22 33 22C33.55 22 34 22.45 34 23V28C34 28.27 33.89 28.52 33.71 28.71L27.71 34.71C27.52 34.9 27.27 35 27 35Z" fill="#707070"/>
<path d="M27 35C26.45 35 26 34.55 26 34V28C26 27.45 26.45 27 27 27H33C33.55 27 34 27.45 34 28C34 28.55 33.55 29 33 29H28V34C28 34.55 27.55 35 27 35Z" fill="#707070"/>
</svg>
