<svg width="48" height="48" viewBox="0 0 48 48" fill="none" xmlns="http://www.w3.org/2000/svg">
<path d="M28.73 33.9102C25.85 33.9102 23.5 31.5602 23.5 28.6802C23.5 25.8002 25.85 23.4502 28.73 23.4502C31.61 23.4502 33.96 25.8002 33.96 28.6802C33.96 31.5602 31.61 33.9102 28.73 33.9102ZM28.73 25.5502C27 25.5502 25.59 26.9602 25.59 28.6902C25.59 30.4202 27 31.8302 28.73 31.8302C30.46 31.8302 31.87 30.4202 31.87 28.6902C31.87 26.9602 30.46 25.5502 28.73 25.5502Z" fill="#60B28D"/>
<path d="M35 36.0002C34.73 36.0002 34.47 35.9002 34.26 35.6902L31.12 32.5502C30.71 32.1402 30.71 31.4802 31.12 31.0702C31.53 30.6602 32.19 30.6602 32.6 31.0702L35.74 34.2102C36.15 34.6202 36.15 35.2802 35.74 35.6902C35.54 35.8902 35.27 36.0002 35 36.0002Z" fill="#60B28D"/>
<path d="M21.41 33.9102H15.14C13.41 33.9102 12 32.5002 12 30.7702V16.1302C12 14.4002 13.41 12.9902 15.14 12.9902H27.69C29.42 12.9902 30.83 14.4002 30.83 16.1302V21.3602C30.83 21.9402 30.36 22.4102 29.78 22.4102C29.2 22.4102 28.73 21.9402 28.73 21.3602V16.1302C28.73 15.5502 28.26 15.0802 27.68 15.0802H15.13C14.55 15.0802 14.08 15.5502 14.08 16.1302V30.7702C14.08 31.3502 14.55 31.8202 15.13 31.8202H21.4C21.98 31.8202 22.45 32.2902 22.45 32.8702C22.45 33.4502 21.98 33.9202 21.4 33.9202L21.41 33.9102Z" fill="#60B28D"/>
<path d="M13.05 31.8199C12.47 31.8199 12 31.3499 12 30.7699C12 29.0399 13.41 27.6299 15.14 27.6299H21.41C21.99 27.6299 22.46 28.0999 22.46 28.6799C22.46 29.2599 21.99 29.7299 21.41 29.7299H15.14C14.56 29.7299 14.09 30.1999 14.09 30.7799C14.09 31.3599 13.62 31.8299 13.04 31.8299L13.05 31.8199Z" fill="#60B28D"/>
<path d="M17.2301 28.6803C16.6501 28.6803 16.1801 28.2103 16.1801 27.6303V15.0803C16.1801 14.5003 16.6501 14.0303 17.2301 14.0303C17.8101 14.0303 18.2801 14.5003 18.2801 15.0803V27.6303C18.2801 28.2103 17.8101 28.6803 17.2301 28.6803Z" fill="#60B28D"/>
</svg>
