<svg width="392" height="844" viewBox="0 0 392 844" fill="none" xmlns="http://www.w3.org/2000/svg">
<rect width="392" height="844" fill="#FFFEF8"/>
<g clip-path="url(#clip0_1873_1822)">
<path d="M303.023 209.978L334.127 220.354C334.913 220.617 335.339 221.468 335.076 222.255L328.801 241.066C328.538 241.853 327.687 242.278 326.9 242.016L295.424 231.515C294.637 231.253 294.211 230.401 294.474 229.614L300.625 211.176C300.957 210.183 302.03 209.646 303.023 209.978Z" fill="#FCC971" fill-opacity="0.25"/>
<path d="M304.479 209.359L297.768 229.474C297.668 229.775 297.884 230.087 298.2 230.098C300.03 230.153 305.56 230.694 311.812 234.854L318.845 213.772C318.845 213.772 313.38 209.411 304.953 209.032C304.741 209.022 304.546 209.157 304.479 209.359Z" fill="white"/>
<path d="M318.845 213.773L311.813 234.85C311.813 234.85 318.104 234.52 325.553 239.269C325.812 239.435 326.162 239.317 326.259 239.024L332.988 218.856C333.054 218.658 332.985 218.445 332.82 218.325C331.591 217.44 326.36 214.011 318.843 213.777L318.845 213.773Z" fill="white"/>
<path d="M319.07 213.847L318.621 213.697L311.589 234.774L312.039 234.924L319.07 213.847Z" fill="#FCC971" fill-opacity="0.25"/>
</g>
<g clip-path="url(#clip1_1873_1822)">
<path d="M285.926 84.1941L324.432 61.9629C325.406 61.4006 326.652 61.7346 327.215 62.7087L340.66 85.9967C341.222 86.9708 340.888 88.2175 339.914 88.7798L300.947 111.278C299.973 111.84 298.726 111.506 298.164 110.532L284.985 87.7059C284.275 86.4758 284.696 84.9043 285.926 84.1941Z" fill="#60B28D" fill-opacity="0.25"/>
<path d="M286.608 82.1604L300.985 107.063C301.2 107.435 301.711 107.497 302.006 107.186C303.709 105.379 309.232 100.253 319.076 97.6494L304.008 71.5505C304.008 71.5505 294.666 73.1737 286.702 81.3859C286.501 81.5908 286.463 81.9099 286.608 82.1604Z" fill="white"/>
<path d="M304.007 71.5504L319.072 97.6437C319.072 97.6437 324.396 90.9635 335.915 87.6749C336.317 87.5615 336.511 87.1006 336.302 86.7389L321.886 61.7699C321.745 61.525 321.467 61.4034 321.197 61.4628C319.194 61.9142 311.009 64.1389 304.011 71.556L304.007 71.5504Z" fill="white"/>
<path d="M304.286 71.3896L303.729 71.7109L318.794 97.8043L319.351 97.4829L304.286 71.3896Z" fill="#60B28D" fill-opacity="0.25"/>
</g>
<g clip-path="url(#clip2_1873_1822)">
<path d="M270.41 665.458L321.024 674.769C322.305 675.004 323.153 676.235 322.917 677.515L317.286 708.127C317.05 709.407 315.82 710.255 314.54 710.019L263.318 700.597C262.038 700.361 261.19 699.131 261.425 697.851L266.945 667.846C267.242 666.23 268.793 665.161 270.41 665.458Z" fill="#60B28D" fill-opacity="0.25"/>
<path d="M272.536 664.178L266.515 696.912C266.425 697.402 266.828 697.839 267.322 697.786C270.179 697.472 278.892 697.101 289.521 702.195L295.831 667.889C295.831 667.889 286.382 662.308 273.201 663.567C272.87 663.597 272.597 663.849 272.536 664.178Z" fill="white"/>
<path d="M295.831 667.888L289.522 702.187C289.522 702.187 299.226 700.296 311.845 706.044C312.284 706.246 312.801 705.985 312.889 705.51L318.926 672.688C318.985 672.367 318.832 672.051 318.549 671.901C316.445 670.795 307.563 666.612 295.83 667.895L295.831 667.888Z" fill="white"/>
<path d="M296.197 667.956L295.466 667.821L289.156 702.12L289.888 702.255L296.197 667.956Z" fill="#60B28D" fill-opacity="0.25"/>
</g>
<g clip-path="url(#clip3_1873_1822)">
<path d="M64.2017 242.767L115.572 226.665C116.872 226.258 118.257 226.982 118.664 228.281L128.403 259.35C128.81 260.65 128.086 262.035 126.787 262.442L74.7996 278.737C73.5001 279.144 72.1151 278.421 71.7078 277.121L62.1625 246.668C61.6481 245.027 62.5606 243.282 64.2017 242.767Z" fill="#FCC971" fill-opacity="0.25"/>
<path d="M65.5439 240.545L75.9574 273.767C76.1133 274.265 76.7003 274.472 77.1313 274.182C79.6204 272.497 87.5005 267.898 99.8202 267.421L88.9063 232.602C88.9063 232.602 77.4393 232.054 65.8602 239.655C65.5688 239.844 65.4391 240.211 65.5439 240.545Z" fill="white"/>
<path d="M88.9059 232.601L99.8175 267.412C99.8175 267.412 107.872 260.924 122.352 260.08C122.857 260.052 123.208 259.559 123.057 259.076L112.615 225.764C112.513 225.438 112.216 225.221 111.882 225.22C109.396 225.224 99.1362 225.692 88.9083 232.608L88.9059 232.601Z" fill="white"/>
<path d="M89.2775 232.485L88.5349 232.718L99.4465 267.529L100.189 267.296L89.2775 232.485Z" fill="#FCC971" fill-opacity="0.25"/>
</g>
<g clip-path="url(#clip4_1873_1822)">
<path d="M213.489 219.913C211.699 219.696 210.517 217.306 210.849 214.576C211.181 211.845 212.901 209.808 214.69 210.026C216.48 210.244 217.662 212.633 217.33 215.364C216.998 218.094 215.278 220.131 213.489 219.913Z" fill="#FCC971" fill-opacity="0.25"/>
<path d="M207.433 215.172C205.65 215.438 203.875 213.448 203.469 210.728C203.063 208.008 204.179 205.587 205.963 205.321C207.746 205.055 209.521 207.044 209.927 209.764C210.333 212.485 209.216 214.905 207.433 215.172Z" fill="#FCC971" fill-opacity="0.25"/>
<path d="M191.782 222.211C190.129 220.012 189.958 217.352 191.399 216.268C192.841 215.185 195.349 216.089 197.001 218.288C198.654 220.486 198.825 223.147 197.384 224.23C195.943 225.313 193.435 224.409 191.782 222.211Z" fill="#FCC971" fill-opacity="0.25"/>
<path d="M195.407 213.656C194.399 211.098 194.941 208.487 196.618 207.826C198.296 207.165 200.473 208.704 201.482 211.262C202.49 213.821 201.948 216.431 200.27 217.093C198.593 217.754 196.416 216.215 195.407 213.656Z" fill="#FCC971" fill-opacity="0.25"/>
<path d="M198.528 226.168C198.528 226.168 199.966 223.827 200.045 221.756C200.045 221.756 200.075 217.696 203.988 216.647C207.9 215.599 209.957 219.1 209.957 219.1C211.061 220.854 213.477 222.163 213.477 222.163C213.477 222.163 217.042 224.079 216.337 227.084C215.661 229.964 211.905 229.523 211.905 229.523C209.665 229.162 207.532 229.874 207.532 229.874C207.532 229.874 205.329 230.323 203.569 231.757C203.569 231.757 200.537 234.017 198.512 231.86C196.397 229.603 198.528 226.168 198.528 226.168Z" fill="#FCC971" fill-opacity="0.25"/>
</g>
<g clip-path="url(#clip5_1873_1822)">
<path d="M105.259 91.4223C102.88 91.2372 101.181 88.1456 101.463 84.517C101.745 80.8884 103.902 78.0969 106.281 78.282C108.66 78.4671 110.359 81.5587 110.077 85.1873C109.794 88.8159 107.637 91.6074 105.259 91.4223Z" fill="#60B28D" fill-opacity="0.25"/>
<path d="M96.981 85.5005C94.6387 85.9545 92.1784 83.4261 91.4858 79.853C90.7932 76.28 92.1305 73.0154 94.4728 72.5614C96.8151 72.1073 99.2753 74.6358 99.9679 78.2088C100.661 81.7819 99.3232 85.0465 96.981 85.5005Z" fill="#60B28D" fill-opacity="0.25"/>
<path d="M76.6925 95.7033C74.3819 92.8913 74.0031 89.3838 75.8465 87.8691C77.6898 86.3544 81.0573 87.406 83.368 90.218C85.6786 93.03 86.0574 96.5375 84.214 98.0522C82.3707 99.5669 79.0032 98.5153 76.6925 95.7033Z" fill="#60B28D" fill-opacity="0.25"/>
<path d="M80.9954 84.1865C79.5156 80.8613 80.083 77.3794 82.2628 76.4093C84.4426 75.4393 87.4092 77.3485 88.889 80.6736C90.3688 83.9988 89.8013 87.4807 87.6215 88.4508C85.4418 89.4208 82.4751 87.5116 80.9954 84.1865Z" fill="#60B28D" fill-opacity="0.25"/>
<path d="M85.8378 100.549C85.8378 100.549 87.605 97.3717 87.5906 94.6294C87.5906 94.6294 87.3986 89.259 92.511 87.649C97.6235 86.039 100.543 90.5502 100.543 90.5502C102.103 92.8059 105.372 94.3975 105.372 94.3975C105.372 94.3975 110.194 96.7265 109.435 100.74C108.707 104.586 103.716 104.219 103.716 104.219C100.733 103.868 97.9539 104.932 97.9539 104.932C97.9539 104.932 95.067 105.653 92.823 107.649C92.823 107.649 88.9434 110.81 86.1425 108.075C83.2173 105.212 85.8378 100.549 85.8378 100.549Z" fill="#60B28D" fill-opacity="0.25"/>
</g>
<g clip-path="url(#clip6_1873_1822)">
<path d="M354.431 447.015C352.959 445.137 354.09 441.795 356.955 439.551C359.82 437.306 363.335 437.01 364.807 438.888C366.278 440.766 365.148 444.108 362.282 446.353C359.417 448.597 355.902 448.894 354.431 447.015Z" fill="#60B28D" fill-opacity="0.25"/>
<path d="M353.201 436.912C351.283 435.492 351.484 431.97 353.65 429.045C355.815 426.12 359.125 424.899 361.043 426.318C362.96 427.738 362.759 431.26 360.594 434.185C358.429 437.111 355.119 438.331 353.201 436.912Z" fill="#60B28D" fill-opacity="0.25"/>
<path d="M331.97 428.854C332.48 425.251 334.81 422.601 337.172 422.936C339.534 423.271 341.035 426.464 340.524 430.067C340.013 433.671 337.684 436.32 335.322 435.985C332.959 435.65 331.459 432.458 331.97 428.854Z" fill="#60B28D" fill-opacity="0.25"/>
<path d="M343.366 424.242C344.816 420.904 347.766 418.969 349.954 419.92C352.143 420.871 352.74 424.348 351.29 427.686C349.839 431.024 346.889 432.959 344.701 432.008C342.513 431.057 341.915 427.58 343.366 424.242Z" fill="#60B28D" fill-opacity="0.25"/>
<path d="M334.579 438.868C334.579 438.868 338.115 438.023 340.126 436.159C340.126 436.159 343.955 432.388 348.597 435.068C353.239 437.748 351.887 442.949 351.887 442.949C351.278 445.623 352.315 449.108 352.315 449.108C352.315 449.108 353.857 454.237 350.386 456.389C347.059 458.452 343.957 454.525 343.957 454.525C342.199 452.09 339.537 450.761 339.537 450.761C339.537 450.761 337.055 449.12 334.067 448.815C334.067 448.815 329.115 448.092 329.237 444.179C329.371 440.088 334.579 438.868 334.579 438.868Z" fill="#60B28D" fill-opacity="0.25"/>
</g>
<g clip-path="url(#clip7_1873_1822)">
<path d="M196.228 630.925C197.795 629.212 196.947 625.888 194.335 623.498C191.723 621.109 188.336 620.561 186.77 622.273C185.203 623.985 186.051 627.31 188.663 629.699C191.275 632.088 194.662 632.637 196.228 630.925Z" fill="#FCC971" fill-opacity="0.25"/>
<path d="M198.171 621.218C200.136 619.984 200.203 616.554 198.32 613.556C196.438 610.558 193.318 609.129 191.353 610.363C189.388 611.597 189.321 615.028 191.204 618.025C193.087 621.023 196.206 622.453 198.171 621.218Z" fill="#FCC971" fill-opacity="0.25"/>
<path d="M219.359 614.981C219.131 611.448 217.069 608.706 214.754 608.855C212.438 609.005 210.745 611.989 210.973 615.522C211.201 619.054 213.263 621.797 215.579 621.648C217.894 621.498 219.587 618.513 219.359 614.981Z" fill="#FCC971" fill-opacity="0.25"/>
<path d="M208.65 609.662C207.491 606.318 204.774 604.222 202.581 604.982C200.389 605.741 199.551 609.069 200.71 612.414C201.869 615.758 204.586 617.854 206.778 617.094C208.971 616.334 209.809 613.007 208.65 609.662Z" fill="#FCC971" fill-opacity="0.25"/>
<path d="M216.085 624.5C216.085 624.5 212.718 623.418 210.906 621.461C210.906 621.461 207.474 617.52 202.773 619.774C198.073 622.028 198.997 627.172 198.997 627.172C199.388 629.811 198.125 633.114 198.125 633.114C198.125 633.114 196.248 637.972 199.455 640.318C202.528 642.565 205.828 638.987 205.828 638.987C207.713 636.756 210.394 635.665 210.394 635.665C210.394 635.665 212.923 634.258 215.843 634.184C215.843 634.184 220.699 633.851 220.87 630.047C221.045 626.07 216.085 624.5 216.085 624.5Z" fill="#FCC971" fill-opacity="0.25"/>
</g>
<g clip-path="url(#clip8_1873_1822)">
<path d="M82.4981 682.933C84.3172 683.191 86.1108 681.15 86.5042 678.375C86.8977 675.601 85.742 673.142 83.9229 672.884C82.1038 672.626 80.3102 674.667 79.9167 677.441C79.5233 680.216 80.679 682.675 82.4981 682.933Z" fill="#FCC971" fill-opacity="0.25"/>
<path d="M89.7094 679.863C91.3944 680.595 93.666 679.105 94.7831 676.535C95.9002 673.964 95.4399 671.287 93.7549 670.554C92.0698 669.822 89.7982 671.312 88.6811 673.883C87.564 676.453 88.0244 679.131 89.7094 679.863Z" fill="#FCC971" fill-opacity="0.25"/>
<path d="M103.258 690.919C105.465 689.191 106.335 686.618 105.202 685.171C104.069 683.725 101.362 683.953 99.1555 685.681C96.9491 687.41 96.0788 689.983 97.2117 691.43C98.3446 692.876 101.052 692.647 103.258 690.919Z" fill="#FCC971" fill-opacity="0.25"/>
<path d="M101.946 681.544C103.614 679.291 103.768 676.579 102.291 675.486C100.815 674.393 98.2659 675.333 96.5984 677.585C94.9309 679.838 94.7762 682.55 96.2529 683.643C97.7296 684.736 100.279 683.796 101.946 681.544Z" fill="#FCC971" fill-opacity="0.25"/>
<path d="M95.5743 693.036C95.5743 693.036 94.7763 690.352 95.2449 688.293C95.2449 688.293 96.2857 684.288 92.7111 682.224C89.1366 680.16 86.1884 683.064 86.1884 683.064C84.6395 684.5 81.9163 685.15 81.9163 685.15C81.9163 685.15 77.9023 686.096 77.8033 689.24C77.7087 692.253 81.5221 692.81 81.5221 692.81C83.823 693.045 85.7343 694.308 85.7343 694.308C85.7343 694.308 87.7843 695.332 89.138 697.207C89.138 697.207 91.5268 700.231 94.0889 698.643C96.766 696.978 95.5743 693.036 95.5743 693.036Z" fill="#FCC971" fill-opacity="0.25"/>
</g>
<g clip-path="url(#clip9_1873_1822)">
<path d="M32.9664 497.424C34.0993 495.977 33.229 493.404 31.0225 491.675C28.8161 489.947 26.109 489.719 24.9761 491.165C23.8432 492.612 24.7135 495.185 26.9199 496.913C29.1264 498.642 31.8334 498.87 32.9664 497.424Z" fill="#FCC971" fill-opacity="0.25"/>
<path d="M33.9131 489.643C35.3898 488.55 35.2351 485.838 33.5676 483.585C31.9001 481.332 29.3512 480.392 27.8745 481.486C26.3978 482.579 26.5525 485.291 28.22 487.544C29.8875 489.796 32.4363 490.736 33.9131 489.643Z" fill="#FCC971" fill-opacity="0.25"/>
<path d="M50.2628 483.438C49.8693 480.663 48.0757 478.623 46.2566 478.881C44.4375 479.138 43.2818 481.597 43.6753 484.372C44.0687 487.147 45.8624 489.187 47.6814 488.929C49.5005 488.672 50.6562 486.213 50.2628 483.438Z" fill="#FCC971" fill-opacity="0.25"/>
<path d="M41.4867 479.886C40.3696 477.316 38.098 475.826 36.413 476.558C34.728 477.29 34.2676 479.968 35.3847 482.538C36.5019 485.109 38.7734 486.599 40.4585 485.866C42.1435 485.134 42.6039 482.457 41.4867 479.886Z" fill="#FCC971" fill-opacity="0.25"/>
<path d="M48.2535 491.15C48.2535 491.15 45.5304 490.5 43.9814 489.064C43.9814 489.064 41.0332 486.16 37.4587 488.224C33.8841 490.288 34.9249 494.293 34.9249 494.293C35.3935 496.352 34.5955 499.036 34.5955 499.036C34.5955 499.036 33.4077 502.985 36.0809 504.643C38.643 506.231 41.0318 503.207 41.0318 503.207C42.3855 501.332 44.4355 500.308 44.4355 500.308C44.4355 500.308 46.3469 499.045 48.6477 498.81C48.6477 498.81 52.4611 498.253 52.3665 495.24C52.2636 492.09 48.2535 491.15 48.2535 491.15Z" fill="#FCC971" fill-opacity="0.25"/>
</g>
<g clip-path="url(#clip10_1873_1822)">
<path d="M302.319 567.125C304.879 566.926 306.707 563.6 306.403 559.695C306.1 555.791 303.779 552.788 301.219 552.987C298.66 553.186 296.831 556.513 297.135 560.417C297.439 564.321 299.76 567.324 302.319 567.125Z" fill="#60B28D" fill-opacity="0.25"/>
<path d="M311.226 560.753C313.746 561.242 316.393 558.522 317.138 554.677C317.883 550.833 316.444 547.32 313.924 546.832C311.404 546.343 308.757 549.064 308.012 552.908C307.267 556.752 308.705 560.265 311.226 560.753Z" fill="#60B28D" fill-opacity="0.25"/>
<path d="M333.054 571.731C335.541 568.706 335.948 564.932 333.965 563.302C331.981 561.672 328.358 562.804 325.872 565.829C323.386 568.855 322.978 572.629 324.962 574.259C326.945 575.888 330.568 574.757 333.054 571.731Z" fill="#60B28D" fill-opacity="0.25"/>
<path d="M328.425 559.34C330.017 555.762 329.407 552.016 327.061 550.972C324.716 549.928 321.524 551.983 319.932 555.56C318.34 559.138 318.95 562.884 321.296 563.928C323.641 564.972 326.833 562.917 328.425 559.34Z" fill="#60B28D" fill-opacity="0.25"/>
<path d="M323.215 576.945C323.215 576.945 321.313 573.526 321.329 570.575C321.329 570.575 321.535 564.797 316.035 563.065C310.534 561.332 307.392 566.186 307.392 566.186C305.714 568.613 302.197 570.326 302.197 570.326C302.197 570.326 297.009 572.832 297.826 577.15C298.609 581.288 303.979 580.893 303.979 580.893C307.189 580.516 310.179 581.66 310.179 581.66C310.179 581.66 313.285 582.435 315.699 584.583C315.699 584.583 319.873 587.985 322.887 585.042C326.034 581.961 323.215 576.945 323.215 576.945Z" fill="#60B28D" fill-opacity="0.25"/>
</g>
<defs>
<clipPath id="clip0_1873_1822">
<rect width="36.1866" height="25.3377" fill="white" transform="translate(302.019 207) rotate(18.4494)"/>
</clipPath>
<clipPath id="clip1_1873_1822">
<rect width="49.0705" height="34.359" fill="white" transform="translate(282 82.5352) rotate(-30)"/>
</clipPath>
<clipPath id="clip2_1873_1822">
<rect width="56.7978" height="39.7696" fill="white" transform="translate(268.195 661.05) rotate(10.4232)"/>
</clipPath>
<clipPath id="clip3_1873_1822">
<rect width="59.4147" height="41.602" fill="white" transform="translate(60 239.771) rotate(-17.4036)"/>
</clipPath>
<clipPath id="clip4_1873_1822">
<rect width="27.5071" height="25.308" fill="white" transform="matrix(-0.965926 0.258819 0.258819 0.965926 214.57 203)"/>
</clipPath>
<clipPath id="clip5_1873_1822">
<rect width="36.4" height="33.49" fill="white" transform="matrix(-0.95382 0.300378 0.300378 0.95382 105.719 69)"/>
</clipPath>
<clipPath id="clip6_1873_1822">
<rect width="36.4" height="33.49" fill="white" transform="matrix(-0.866025 -0.5 -0.5 0.866025 371.268 432.2)"/>
</clipPath>
<clipPath id="clip7_1873_1822">
<rect width="35.4026" height="32.5724" fill="white" transform="translate(181 615.309) rotate(-25.6207)"/>
</clipPath>
<clipPath id="clip8_1873_1822">
<rect width="28.0304" height="25.7895" fill="white" transform="translate(85.8948 666) rotate(30)"/>
</clipPath>
<clipPath id="clip9_1873_1822">
<rect width="28.0304" height="25.7895" fill="white" transform="translate(20 486.016) rotate(-30)"/>
</clipPath>
<clipPath id="clip10_1873_1822">
<rect width="39.164" height="36.033" fill="white" transform="translate(301.823 543) rotate(17.4803)"/>
</clipPath>
</defs>
</svg>
