<svg width="390" height="865" viewBox="0 0 390 865" fill="none" xmlns="http://www.w3.org/2000/svg">
<rect width="390" height="844" fill="#FFFEF8"/>
<g clip-path="url(#clip0_2382_464)">
<path d="M273.523 71.1941L311.832 48.9629C312.801 48.4006 314.042 48.7346 314.601 49.7087L327.978 72.9967C328.537 73.9708 328.205 75.2175 327.236 75.7798L288.467 98.2777C287.498 98.8401 286.258 98.506 285.698 97.532L272.587 74.7059C271.88 73.4758 272.299 71.9043 273.523 71.1941Z" fill="#60B28D" fill-opacity="0.25"/>
<path d="M274.201 69.1604L288.505 94.0626C288.72 94.4355 289.227 94.497 289.521 94.1856C291.215 92.3787 296.71 87.253 306.504 84.6494L291.513 58.5505C291.513 58.5505 282.219 60.1737 274.296 68.3859C274.096 68.5908 274.058 68.9099 274.201 69.1604Z" fill="white"/>
<path d="M291.512 58.5504L306.5 84.6437C306.5 84.6437 311.796 77.9635 323.257 74.6749C323.657 74.5615 323.85 74.1006 323.642 73.7389L309.3 48.7699C309.159 48.525 308.882 48.4034 308.614 48.4628C306.621 48.9142 298.478 51.1389 291.515 58.556L291.512 58.5504Z" fill="white"/>
<path d="M291.79 58.3896L291.236 58.7109L306.224 84.8043L306.778 84.4829L291.79 58.3896Z" fill="#60B28D" fill-opacity="0.25"/>
</g>
<g clip-path="url(#clip1_2382_464)">
<path d="M238.095 278.819L272.802 269.519C273.68 269.284 274.581 269.808 274.813 270.689L280.358 291.759C280.59 292.64 280.066 293.546 279.188 293.781L244.065 303.192C243.187 303.428 242.286 302.903 242.054 302.022L236.619 281.371C236.326 280.258 236.986 279.116 238.095 278.819Z" fill="#60B28D" fill-opacity="0.25"/>
<path d="M239.057 277.37L244.987 299.9C245.076 300.237 245.46 300.393 245.756 300.211C247.465 299.155 252.854 296.304 261.075 296.338L254.86 272.726C254.86 272.726 247.238 272.03 239.295 276.783C239.095 276.902 238.997 277.143 239.057 277.37Z" fill="white"/>
<path d="M254.859 272.726L261.073 296.333C261.073 296.333 266.635 292.223 276.306 292.073C276.643 292.069 276.892 291.749 276.806 291.422L270.86 268.832C270.802 268.61 270.611 268.457 270.388 268.446C268.732 268.378 261.883 268.396 254.861 272.731L254.859 272.726Z" fill="white"/>
<path d="M255.111 272.659L254.609 272.793L260.823 296.4L261.324 296.266L255.111 272.659Z" fill="#60B28D" fill-opacity="0.25"/>
</g>
<g clip-path="url(#clip2_2382_464)">
<path d="M297.361 698.408L347.718 707.719C348.992 707.955 349.835 709.185 349.601 710.465L343.998 741.077C343.764 742.357 342.54 743.205 341.266 742.969L290.306 733.547C289.032 733.312 288.189 732.081 288.423 730.801L293.914 700.797C294.21 699.18 295.753 698.111 297.361 698.408Z" fill="#60B28D" fill-opacity="0.25"/>
<path d="M299.477 697.128L293.486 729.862C293.397 730.352 293.798 730.789 294.29 730.737C297.131 730.422 305.801 730.051 316.375 735.145L322.653 700.839C322.653 700.839 313.252 695.258 300.138 696.517C299.809 696.547 299.537 696.799 299.477 697.128Z" fill="white"/>
<path d="M322.654 700.838L316.376 735.137C316.376 735.137 326.031 733.246 338.585 738.994C339.022 739.196 339.537 738.935 339.624 738.46L345.63 705.639C345.689 705.317 345.536 705.001 345.255 704.851C343.162 703.745 334.326 699.562 322.652 700.845L322.654 700.838Z" fill="white"/>
<path d="M323.017 700.906L322.29 700.771L316.012 735.071L316.74 735.205L323.017 700.906Z" fill="#60B28D" fill-opacity="0.25"/>
</g>
<g clip-path="url(#clip3_2382_464)">
<path d="M47.29 787.107L88.3742 775.279C89.4135 774.98 90.5023 775.584 90.8049 776.627L98.0383 801.581C98.3408 802.625 97.743 803.715 96.7037 804.014L55.1266 815.984C54.0873 816.283 52.9985 815.679 52.696 814.635L45.6061 790.177C45.224 788.859 45.9776 787.485 47.29 787.107Z" fill="#60B28D" fill-opacity="0.25"/>
<path d="M48.3931 785.362L56.1278 812.045C56.2437 812.445 56.7067 812.622 57.054 812.399C59.0594 811.104 65.3961 807.594 75.1939 807.454L67.0875 779.489C67.0875 779.489 57.9841 778.827 48.6589 784.659C48.4243 784.804 48.3153 785.094 48.3931 785.362Z" fill="white"/>
<path d="M67.087 779.488L75.1917 807.448C75.1917 807.448 81.6977 802.434 93.2181 802.045C93.6199 802.032 93.9069 801.646 93.7945 801.258L86.039 774.504C85.9629 774.241 85.7309 774.062 85.465 774.055C83.4894 774.01 75.329 774.182 67.0887 779.494L67.087 779.488Z" fill="white"/>
<path d="M67.3844 779.403L66.7905 779.574L74.8953 807.534L75.4891 807.363L67.3844 779.403Z" fill="#60B28D" fill-opacity="0.25"/>
</g>
<g clip-path="url(#clip4_2382_464)">
<path d="M44.608 572.349L78.9631 561.357C79.8322 561.079 80.7618 561.562 81.0384 562.436L87.6522 583.32C87.9288 584.194 87.4481 585.128 86.579 585.406L51.8118 596.53C50.9427 596.808 50.0131 596.325 49.7364 595.451L43.2539 574.981C42.9045 573.878 43.5105 572.7 44.608 572.349Z" fill="#FCC971" fill-opacity="0.25"/>
<path d="M45.5003 570.848L52.5724 593.18C52.6783 593.514 53.072 593.652 53.3598 593.455C55.0218 592.314 60.2854 589.195 68.5345 588.837L61.1225 565.432C61.1225 565.432 53.4415 565.097 45.7094 570.247C45.5149 570.376 45.4291 570.623 45.5003 570.848Z" fill="white"/>
<path d="M61.1221 565.432L68.5325 588.832C68.5325 588.832 73.9073 584.441 83.6019 583.83C83.9401 583.809 84.1737 583.476 84.0709 583.152L76.9798 560.76C76.9103 560.54 76.7111 560.395 76.487 560.395C74.8222 560.406 67.9528 560.751 61.1236 565.437L61.1221 565.432Z" fill="white"/>
<path d="M61.3706 565.353L60.874 565.512L68.2845 588.912L68.7811 588.753L61.3706 565.353Z" fill="#FCC971" fill-opacity="0.25"/>
</g>
<g clip-path="url(#clip5_2382_464)">
<path d="M214.2 140.423C212.868 138.96 213.589 136.119 215.809 134.078C218.03 132.037 220.909 131.568 222.24 133.031C223.572 134.494 222.851 137.335 220.631 139.376C218.41 141.417 215.531 141.886 214.2 140.423Z" fill="#FCC971" fill-opacity="0.25"/>
<path d="M212.548 132.13C210.878 131.075 210.821 128.144 212.421 125.583C214.022 123.021 216.673 121.8 218.344 122.854C220.014 123.909 220.071 126.84 218.47 129.401C216.87 131.963 214.218 133.184 212.548 132.13Z" fill="#FCC971" fill-opacity="0.25"/>
<path d="M194.537 126.8C194.731 123.782 196.484 121.439 198.452 121.566C200.421 121.694 201.859 124.244 201.666 127.263C201.472 130.281 199.719 132.624 197.751 132.496C195.782 132.369 194.343 129.819 194.537 126.8Z" fill="#FCC971" fill-opacity="0.25"/>
<path d="M203.641 122.256C204.626 119.398 206.935 117.608 208.799 118.257C210.663 118.906 211.375 121.749 210.39 124.607C209.405 127.465 207.095 129.255 205.232 128.606C203.368 127.957 202.655 125.114 203.641 122.256Z" fill="#FCC971" fill-opacity="0.25"/>
<path d="M197.32 134.934C197.32 134.934 200.182 134.009 201.722 132.337C201.722 132.337 204.64 128.969 208.636 130.895C212.632 132.821 211.846 137.217 211.846 137.217C211.513 139.471 212.587 142.293 212.587 142.293C212.587 142.293 214.183 146.444 211.457 148.448C208.844 150.369 206.039 147.311 206.039 147.311C204.436 145.405 202.158 144.473 202.158 144.473C202.158 144.473 200.008 143.271 197.526 143.208C197.526 143.208 193.398 142.923 193.252 139.673C193.104 136.275 197.32 134.934 197.32 134.934Z" fill="#FCC971" fill-opacity="0.25"/>
</g>
<g clip-path="url(#clip6_2382_464)">
<path d="M370.164 417.423C368.832 415.96 369.553 413.119 371.773 411.078C373.993 409.037 376.873 408.568 378.204 410.031C379.535 411.494 378.815 414.335 376.594 416.376C374.374 418.417 371.495 418.886 370.164 417.423Z" fill="#FCC971" fill-opacity="0.25"/>
<path d="M368.512 409.13C366.841 408.075 366.785 405.144 368.385 402.583C369.985 400.021 372.637 398.8 374.307 399.854C375.978 400.909 376.035 403.84 374.434 406.401C372.834 408.963 370.182 410.184 368.512 409.13Z" fill="#FCC971" fill-opacity="0.25"/>
<path d="M350.501 403.8C350.695 400.782 352.447 398.439 354.416 398.566C356.384 398.694 357.823 401.244 357.63 404.263C357.436 407.281 355.683 409.624 353.715 409.496C351.746 409.369 350.307 406.819 350.501 403.8Z" fill="#FCC971" fill-opacity="0.25"/>
<path d="M359.604 399.256C360.59 396.398 362.899 394.608 364.763 395.257C366.627 395.906 367.339 398.749 366.354 401.607C365.369 404.465 363.059 406.255 361.195 405.606C359.332 404.957 358.619 402.114 359.604 399.256Z" fill="#FCC971" fill-opacity="0.25"/>
<path d="M353.284 411.934C353.284 411.934 356.146 411.009 357.686 409.337C357.686 409.337 360.604 405.969 364.6 407.895C368.596 409.821 367.81 414.217 367.81 414.217C367.477 416.471 368.551 419.293 368.551 419.293C368.551 419.293 370.147 423.444 367.421 425.448C364.808 427.369 362.003 424.311 362.003 424.311C360.4 422.405 358.122 421.473 358.122 421.473C358.122 421.473 355.972 420.271 353.49 420.208C353.49 420.208 349.362 419.923 349.216 416.673C349.068 413.275 353.284 411.934 353.284 411.934Z" fill="#FCC971" fill-opacity="0.25"/>
</g>
<g clip-path="url(#clip7_2382_464)">
<path d="M70.8944 68.4223C68.5279 68.2372 66.8372 65.1456 67.1181 61.517C67.399 57.8884 69.5452 55.0969 71.9118 55.282C74.2783 55.4671 75.969 58.5587 75.6881 62.1873C75.4072 65.8159 73.261 68.6074 70.8944 68.4223Z" fill="#60B28D" fill-opacity="0.25"/>
<path d="M62.6592 62.5005C60.3289 62.9545 57.8812 60.4261 57.1921 56.853C56.5031 53.28 57.8336 50.0154 60.1639 49.5614C62.4942 49.1073 64.9419 51.6358 65.631 55.2088C66.3201 58.7819 64.9896 62.0465 62.6592 62.5005Z" fill="#60B28D" fill-opacity="0.25"/>
<path d="M42.474 72.7033C40.1752 69.8913 39.7983 66.3838 41.6323 64.8691C43.4662 63.3544 46.8165 64.406 49.1154 67.218C51.4142 70.03 51.7911 73.5375 49.9571 75.0522C48.1232 76.5669 44.7729 75.5153 42.474 72.7033Z" fill="#60B28D" fill-opacity="0.25"/>
<path d="M46.7549 61.1865C45.2826 57.8613 45.8472 54.3794 48.0158 53.4093C50.1845 52.4393 53.136 54.3485 54.6082 57.6736C56.0804 60.9988 55.5159 64.4807 53.3472 65.4508C51.1786 66.4208 48.2271 64.5116 46.7549 61.1865Z" fill="#60B28D" fill-opacity="0.25"/>
<path d="M51.5728 77.5492C51.5728 77.5492 53.3309 74.3717 53.3166 71.6294C53.3166 71.6294 53.1256 66.259 58.212 64.649C63.2984 63.039 66.2034 67.5502 66.2034 67.5502C67.755 69.8059 71.0074 71.3975 71.0074 71.3975C71.0074 71.3975 75.8051 73.7265 75.0494 77.74C74.3249 81.5864 69.3594 81.2186 69.3594 81.2186C66.3917 80.8684 63.6271 81.9322 63.6271 81.9322C63.6271 81.9322 60.7549 82.6527 58.5223 84.6489C58.5223 84.6489 54.6626 87.8102 51.876 85.0753C48.9657 82.2117 51.5728 77.5492 51.5728 77.5492Z" fill="#60B28D" fill-opacity="0.25"/>
</g>
<g clip-path="url(#clip8_2382_464)">
<path d="M191.151 645.925C192.709 644.212 191.866 640.888 189.267 638.498C186.668 636.109 183.299 635.561 181.74 637.273C180.182 638.985 181.026 642.31 183.624 644.699C186.223 647.088 189.593 647.637 191.151 645.925Z" fill="#FCC971" fill-opacity="0.25"/>
<path d="M193.083 636.218C195.038 634.984 195.105 631.554 193.232 628.556C191.359 625.558 188.255 624.129 186.3 625.363C184.345 626.597 184.279 630.028 186.152 633.025C188.025 636.023 191.128 637.453 193.083 636.218Z" fill="#FCC971" fill-opacity="0.25"/>
<path d="M214.163 629.981C213.936 626.448 211.885 623.706 209.581 623.855C207.277 624.005 205.593 626.989 205.82 630.522C206.047 634.054 208.098 636.797 210.402 636.648C212.706 636.498 214.39 633.513 214.163 629.981Z" fill="#FCC971" fill-opacity="0.25"/>
<path d="M203.509 624.662C202.356 621.318 199.653 619.222 197.471 619.982C195.29 620.741 194.456 624.069 195.609 627.414C196.762 630.758 199.465 632.854 201.647 632.094C203.828 631.334 204.662 628.007 203.509 624.662Z" fill="#FCC971" fill-opacity="0.25"/>
<path d="M210.906 639.5C210.906 639.5 207.557 638.418 205.754 636.461C205.754 636.461 202.339 632.52 197.662 634.774C192.986 637.028 193.905 642.172 193.905 642.172C194.295 644.811 193.037 648.114 193.037 648.114C193.037 648.114 191.17 652.972 194.361 655.318C197.418 657.565 200.701 653.987 200.701 653.987C202.577 651.756 205.244 650.665 205.244 650.665C205.244 650.665 207.76 649.258 210.665 649.184C210.665 649.184 215.496 648.851 215.667 645.047C215.84 641.07 210.906 639.5 210.906 639.5Z" fill="#FCC971" fill-opacity="0.25"/>
</g>
<g clip-path="url(#clip9_2382_464)">
<path d="M81.0825 690.933C82.8923 691.191 84.6768 689.15 85.0682 686.375C85.4597 683.601 84.3099 681.142 82.5001 680.884C80.6903 680.626 78.9058 682.667 78.5144 685.441C78.1229 688.216 79.2727 690.675 81.0825 690.933Z" fill="#60B28D" fill-opacity="0.25"/>
<path d="M88.2572 687.863C89.9336 688.595 92.1936 687.105 93.305 684.535C94.4165 681.964 93.9584 679.287 92.282 678.554C90.6056 677.822 88.3456 679.312 87.2342 681.883C86.1227 684.453 86.5808 687.131 88.2572 687.863Z" fill="#60B28D" fill-opacity="0.25"/>
<path d="M101.737 698.919C103.932 697.191 104.798 694.618 103.67 693.171C102.543 691.725 99.8501 691.953 97.6549 693.681C95.4597 695.41 94.5939 697.983 95.721 699.43C96.8481 700.876 99.5414 700.647 101.737 698.919Z" fill="#60B28D" fill-opacity="0.25"/>
<path d="M100.431 689.544C102.09 687.291 102.244 684.579 100.775 683.486C99.3057 682.393 96.7698 683.333 95.1108 685.585C93.4518 687.838 93.2979 690.55 94.7671 691.643C96.2363 692.736 98.7722 691.796 100.431 689.544Z" fill="#60B28D" fill-opacity="0.25"/>
<path d="M94.0923 701.036C94.0923 701.036 93.2983 698.352 93.7645 696.293C93.7645 696.293 94.8 692.288 91.2437 690.224C87.6874 688.16 84.7543 691.064 84.7543 691.064C83.2132 692.5 80.5039 693.15 80.5039 693.15C80.5039 693.15 76.5104 694.096 76.4119 697.24C76.3178 700.253 80.1117 700.81 80.1117 700.81C82.4009 701.045 84.3025 702.308 84.3025 702.308C84.3025 702.308 86.342 703.332 87.6888 705.207C87.6888 705.207 90.0654 708.231 92.6144 706.643C95.2779 704.978 94.0923 701.036 94.0923 701.036Z" fill="#60B28D" fill-opacity="0.25"/>
</g>
<g clip-path="url(#clip10_2382_464)">
<path d="M43.9999 343.327C45.125 341.886 44.2445 339.322 42.0332 337.6C39.8219 335.879 37.1173 335.651 35.9922 337.092C34.8671 338.533 35.7477 341.097 37.9589 342.818C40.1702 344.54 42.8749 344.767 43.9999 343.327Z" fill="#60B28D" fill-opacity="0.25"/>
<path d="M44.9112 335.576C46.3812 334.487 46.2148 331.785 44.5394 329.541C42.8641 327.297 40.3143 326.36 38.8443 327.449C37.3743 328.538 37.5407 331.24 39.2161 333.484C40.8914 335.728 43.4412 336.664 44.9112 335.576Z" fill="#60B28D" fill-opacity="0.25"/>
<path d="M61.2128 329.394C60.8076 326.63 59.0073 324.597 57.1917 324.854C55.376 325.111 54.2327 327.561 54.6379 330.325C55.0431 333.089 56.8434 335.122 58.6591 334.865C60.4747 334.608 61.6181 332.159 61.2128 329.394Z" fill="#60B28D" fill-opacity="0.25"/>
<path d="M52.4324 325.857C51.3054 323.296 49.0301 321.812 47.3504 322.541C45.6708 323.271 45.2228 325.938 46.3499 328.498C47.477 331.059 49.7522 332.543 51.4319 331.814C53.1115 331.084 53.5595 328.417 52.4324 325.857Z" fill="#60B28D" fill-opacity="0.25"/>
<path d="M59.24 337.077C59.24 337.077 56.5174 336.429 54.9641 334.999C54.9641 334.999 52.0068 332.106 48.446 334.162C44.8851 336.218 45.9422 340.207 45.9422 340.207C46.4193 342.259 45.6342 344.932 45.6342 344.932C45.6342 344.932 44.4653 348.866 47.1425 350.517C49.7084 352.1 52.0807 349.087 52.0807 349.087C53.4244 347.219 55.4673 346.2 55.4673 346.2C55.4673 346.2 57.3706 344.941 59.6675 344.707C59.6675 344.707 63.4736 344.152 63.3658 341.151C63.2491 338.012 59.24 337.077 59.24 337.077Z" fill="#60B28D" fill-opacity="0.25"/>
</g>
<g clip-path="url(#clip11_2382_464)">
<path d="M316.262 574.125C318.808 573.926 320.627 570.6 320.325 566.695C320.023 562.791 317.714 559.788 315.168 559.987C312.621 560.186 310.802 563.513 311.104 567.417C311.407 571.321 313.716 574.324 316.262 574.125Z" fill="#60B28D" fill-opacity="0.25"/>
<path d="M325.123 567.753C327.63 568.242 330.263 565.522 331.005 561.677C331.746 557.833 330.315 554.32 327.807 553.832C325.3 553.343 322.667 556.064 321.925 559.908C321.184 563.752 322.615 567.265 325.123 567.753Z" fill="#60B28D" fill-opacity="0.25"/>
<path d="M346.84 578.731C349.313 575.706 349.719 571.932 347.746 570.302C345.772 568.672 342.168 569.804 339.694 572.829C337.221 575.855 336.815 579.629 338.789 581.259C340.762 582.888 344.367 581.757 346.84 578.731Z" fill="#60B28D" fill-opacity="0.25"/>
<path d="M342.234 566.34C343.818 562.762 343.211 559.016 340.878 557.972C338.544 556.928 335.369 558.983 333.785 562.56C332.201 566.138 332.808 569.884 335.141 570.928C337.475 571.972 340.65 569.917 342.234 566.34Z" fill="#60B28D" fill-opacity="0.25"/>
<path d="M337.05 583.945C337.05 583.945 335.159 580.526 335.174 577.575C335.174 577.575 335.38 571.797 329.907 570.065C324.435 568.332 321.309 573.186 321.309 573.186C319.639 575.613 316.14 577.326 316.14 577.326C316.14 577.326 310.978 579.832 311.791 584.15C312.571 588.288 317.913 587.893 317.913 587.893C321.106 587.516 324.081 588.66 324.081 588.66C324.081 588.66 327.171 589.435 329.573 591.583C329.573 591.583 333.726 594.985 336.724 592.042C339.856 588.961 337.05 583.945 337.05 583.945Z" fill="#60B28D" fill-opacity="0.25"/>
</g>
<g clip-path="url(#clip12_2382_464)">
<path d="M310.432 165.978L341.376 176.354C342.159 176.617 342.582 177.468 342.321 178.255L336.078 197.066C335.816 197.853 334.969 198.278 334.187 198.016L302.871 187.515C302.088 187.253 301.665 186.401 301.926 185.614L308.046 167.176C308.375 166.183 309.443 165.646 310.432 165.978Z" fill="#FCC971" fill-opacity="0.25"/>
<path d="M311.88 165.359L305.204 185.474C305.104 185.775 305.318 186.087 305.633 186.098C307.454 186.153 312.956 186.694 319.176 190.854L326.173 169.772C326.173 169.772 320.736 165.411 312.351 165.032C312.141 165.022 311.947 165.157 311.88 165.359Z" fill="white"/>
<path d="M326.172 169.773L319.177 190.85C319.177 190.85 325.435 190.52 332.846 195.269C333.104 195.435 333.452 195.317 333.549 195.024L340.243 174.856C340.309 174.658 340.24 174.445 340.076 174.325C338.854 173.44 333.649 170.011 326.171 169.777L326.172 169.773Z" fill="white"/>
<path d="M326.397 169.847L325.949 169.697L318.953 190.774L319.401 190.924L326.397 169.847Z" fill="#FCC971" fill-opacity="0.25"/>
</g>
<g clip-path="url(#clip13_2382_464)">
<path d="M259.718 811.494L300.469 835.022C301.5 835.617 301.854 836.941 301.259 837.978L287.048 862.769C286.453 863.806 285.135 864.164 284.104 863.569L242.864 839.759C241.833 839.164 241.479 837.84 242.073 836.803L256.003 812.504C256.754 811.194 258.416 810.743 259.718 811.494Z" fill="#FCC971" fill-opacity="0.25"/>
<path d="M261.942 811.036L246.745 837.545C246.517 837.942 246.731 838.444 247.173 838.549C249.729 839.15 257.349 841.49 264.946 849.149L280.873 821.366C280.873 821.366 274.44 813.646 262.701 810.709C262.407 810.634 262.095 810.769 261.942 811.036Z" fill="white"/>
<path d="M280.872 821.366L264.949 849.143C264.949 849.143 273.886 850.47 282.998 859.303C283.314 859.612 283.839 859.545 284.06 859.16L299.297 832.579C299.447 832.319 299.411 831.998 299.214 831.782C297.74 830.182 291.368 823.845 280.869 821.372L280.872 821.366Z" fill="white"/>
<path d="M281.167 821.536L280.578 821.196L264.655 848.973L265.244 849.314L281.167 821.536Z" fill="#FCC971" fill-opacity="0.25"/>
</g>
<path d="M80.9339 174.93L121.245 189.297C122.265 189.661 122.799 190.787 122.438 191.812L113.793 216.318C113.431 217.343 112.311 217.879 111.291 217.516L70.4955 202.977C69.4758 202.613 68.9418 201.487 69.3033 200.462L77.7766 176.442C78.2332 175.148 79.6461 174.471 80.9339 174.93Z" fill="#FCC971" fill-opacity="0.25"/>
<path d="M82.8472 174.154L73.6033 200.358C73.4649 200.751 73.7387 201.165 74.1509 201.186C76.5362 201.305 83.7358 202.15 91.7879 207.756L101.476 180.292C101.476 180.292 94.4552 174.441 83.473 173.738C83.1977 173.719 82.9402 173.891 82.8472 174.154Z" fill="white"/>
<path d="M101.476 180.293L91.79 207.75C91.79 207.75 100.002 207.472 109.602 213.88C109.936 214.105 110.394 213.958 110.528 213.578L119.797 187.303C119.888 187.046 119.803 186.765 119.591 186.604C118.01 185.414 111.271 180.79 101.474 180.298L101.476 180.293Z" fill="white"/>
<path d="M101.767 180.397L101.185 180.189L91.4985 207.647L92.0812 207.854L101.767 180.397Z" fill="#FCC971" fill-opacity="0.25"/>
<defs>
<clipPath id="clip0_2382_464">
<rect width="48.8828" height="34.3152" fill="white" transform="matrix(0.864914 -0.501919 0.498083 0.867129 269.617 69.5352)"/>
</clipPath>
<clipPath id="clip1_2382_464">
<rect width="39.6556" height="27.8378" fill="white" transform="matrix(0.965926 -0.258819 0.254538 0.967063 235.387 276.693)"/>
</clipPath>
<clipPath id="clip2_2382_464">
<rect width="56.5175" height="39.763" fill="white" transform="matrix(0.983333 0.181814 -0.180024 0.983662 295.158 694)"/>
</clipPath>
<clipPath id="clip3_2382_464">
<rect width="47.184" height="33.1964" fill="white" transform="matrix(0.960967 -0.276664 0.278413 0.960461 44 784.637)"/>
</clipPath>
<clipPath id="clip4_2382_464">
<rect width="66.7599" height="46.9405" fill="white" transform="matrix(0.952441 -0.304723 0.301906 0.953338 41.7856 570.344)"/>
</clipPath>
<clipPath id="clip5_2382_464">
<rect width="30.1236" height="27.8042" fill="white" transform="matrix(-0.900811 -0.434212 -0.430616 0.902535 227.145 127.08)"/>
</clipPath>
<clipPath id="clip6_2382_464">
<rect width="30.1236" height="27.8042" fill="white" transform="matrix(-0.900811 -0.434212 -0.430616 0.902535 383.108 404.08)"/>
</clipPath>
<clipPath id="clip7_2382_464">
<rect width="36.2311" height="33.4746" fill="white" transform="matrix(-0.953378 0.301779 0.298983 0.954259 71.353 46)"/>
</clipPath>
<clipPath id="clip8_2382_464">
<rect width="35.2559" height="32.5414" fill="white" transform="matrix(0.900811 -0.434212 0.430616 0.902535 176 630.309)"/>
</clipPath>
<clipPath id="clip9_2382_464">
<rect width="27.9232" height="25.7566" fill="white" transform="matrix(0.864914 0.501919 -0.498083 0.867129 84.4619 674)"/>
</clipPath>
<clipPath id="clip10_2382_464">
<rect width="27.9232" height="25.7566" fill="white" transform="matrix(0.866025 -0.5 0.503831 0.863802 31 331.962)"/>
</clipPath>
<clipPath id="clip11_2382_464">
<rect width="38.9823" height="36.0165" fill="white" transform="matrix(0.953378 0.301779 -0.298983 0.954259 315.769 550)"/>
</clipPath>
<clipPath id="clip12_2382_464">
<rect width="36.0205" height="25.3248" fill="white" transform="matrix(0.948116 0.317926 -0.315012 0.949088 309.432 163)"/>
</clipPath>
<clipPath id="clip13_2382_464">
<rect width="51.9319" height="36.5116" fill="white" transform="matrix(0.866025 0.5 -0.497338 0.867557 259.159 807)"/>
</clipPath>
</defs>
</svg>
