<svg width="392" height="844" viewBox="0 0 392 844" fill="none" xmlns="http://www.w3.org/2000/svg">
<rect width="392" height="844" fill="#FFFEF8"/>
<g clip-path="url(#clip0_1873_2161)">
<path d="M303.024 209.978L334.127 220.354C334.914 220.617 335.339 221.468 335.077 222.255L328.801 241.066C328.539 241.853 327.687 242.278 326.901 242.016L295.424 231.515C294.637 231.253 294.212 230.401 294.474 229.614L300.626 211.176C300.957 210.183 302.03 209.646 303.024 209.978Z" fill="#FCC971" fill-opacity="0.25"/>
<path d="M304.479 209.359L297.769 229.474C297.668 229.775 297.884 230.087 298.2 230.098C300.03 230.153 305.56 230.694 311.812 234.854L318.845 213.772C318.845 213.772 313.38 209.411 304.953 209.032C304.742 209.022 304.547 209.157 304.479 209.359Z" fill="white"/>
<path d="M318.845 213.773L311.814 234.85C311.814 234.85 318.104 234.52 325.554 239.269C325.813 239.435 326.162 239.317 326.259 239.024L332.988 218.856C333.054 218.658 332.985 218.445 332.82 218.325C331.592 217.44 326.36 214.011 318.844 213.777L318.845 213.773Z" fill="white"/>
<path d="M319.07 213.847L318.621 213.697L311.589 234.774L312.039 234.924L319.07 213.847Z" fill="#FCC971" fill-opacity="0.25"/>
</g>
<g clip-path="url(#clip1_1873_2161)">
<path d="M270.41 665.458L321.025 674.769C322.305 675.004 323.153 676.235 322.917 677.515L317.286 708.127C317.051 709.407 315.821 710.255 314.54 710.019L263.318 700.597C262.038 700.361 261.19 699.131 261.426 697.851L266.945 667.846C267.242 666.23 268.793 665.161 270.41 665.458Z" fill="#60B28D" fill-opacity="0.25"/>
<path d="M272.536 664.178L266.515 696.912C266.425 697.402 266.829 697.839 267.322 697.786C270.179 697.472 278.893 697.101 289.521 702.195L295.832 667.889C295.832 667.889 286.382 662.308 273.201 663.567C272.87 663.597 272.597 663.849 272.536 664.178Z" fill="white"/>
<path d="M295.832 667.888L289.522 702.187C289.522 702.187 299.227 700.296 311.845 706.044C312.284 706.246 312.801 705.985 312.889 705.51L318.926 672.688C318.986 672.367 318.832 672.051 318.549 671.901C316.446 670.795 307.564 666.612 295.83 667.895L295.832 667.888Z" fill="white"/>
<path d="M296.197 667.956L295.466 667.821L289.156 702.12L289.888 702.255L296.197 667.956Z" fill="#60B28D" fill-opacity="0.25"/>
</g>
<g clip-path="url(#clip2_1873_2161)">
<path d="M44.8367 571.348L79.3643 560.358C80.2377 560.08 81.172 560.563 81.4501 561.436L88.097 582.318C88.375 583.192 87.8919 584.126 87.0185 584.404L52.0766 595.526C51.2032 595.804 50.2689 595.321 49.9909 594.448L43.4758 573.98C43.1247 572.877 43.7337 571.699 44.8367 571.348Z" fill="#FCC971" fill-opacity="0.25"/>
<path d="M45.7332 569.848L52.8408 592.178C52.9473 592.512 53.343 592.65 53.6322 592.454C55.3025 591.312 60.5926 588.194 68.8831 587.836L61.4338 564.433C61.4338 564.433 53.7143 564.098 45.9434 569.248C45.7479 569.377 45.6617 569.624 45.7332 569.848Z" fill="white"/>
<path d="M61.4335 564.433L68.8811 587.831C68.8811 587.831 74.2829 583.44 84.0262 582.829C84.3661 582.808 84.6008 582.475 84.4976 582.151L77.3708 559.761C77.3009 559.542 77.1008 559.397 76.8755 559.397C75.2024 559.407 68.2985 559.752 61.4351 564.438L61.4335 564.433Z" fill="white"/>
<path d="M61.6837 564.353L61.1846 564.512L68.6322 587.909L69.1313 587.751L61.6837 564.353Z" fill="#FCC971" fill-opacity="0.25"/>
</g>
<g clip-path="url(#clip3_1873_2161)">
<path d="M64.7088 214.782L116.71 228.716C118.025 229.068 118.806 230.422 118.454 231.737L110.027 263.187C109.674 264.502 108.321 265.284 107.006 264.931L54.381 250.831C53.0656 250.478 52.2842 249.125 52.6367 247.809L60.8965 216.983C61.3416 215.322 63.0476 214.337 64.7088 214.782Z" fill="#FCC971" fill-opacity="0.25"/>
<path d="M67.0332 213.625L58.0221 247.255C57.8872 247.758 58.2716 248.248 58.7909 248.234C61.7957 248.145 70.913 248.485 81.5702 254.684L91.0143 219.438C91.0143 219.438 81.6268 212.83 67.7773 213.043C67.4299 213.046 67.1238 213.286 67.0332 213.625Z" fill="white"/>
<path d="M91.0145 219.437L81.5724 254.676C81.5724 254.676 91.8494 253.514 104.527 260.561C104.969 260.808 105.529 260.579 105.66 260.091L114.695 226.371C114.784 226.04 114.65 225.698 114.368 225.518C112.267 224.189 103.354 219.086 91.0125 219.445L91.0145 219.437Z" fill="white"/>
<path d="M91.3903 219.538L90.6387 219.337L81.1966 254.575L81.9482 254.777L91.3903 219.538Z" fill="#FCC971" fill-opacity="0.25"/>
</g>
<g clip-path="url(#clip4_1873_2161)">
<path d="M201.778 178.925C200.212 177.212 201.059 173.888 203.671 171.498C206.283 169.109 209.67 168.561 211.236 170.273C212.803 171.985 211.955 175.31 209.343 177.699C206.731 180.088 203.344 180.637 201.778 178.925Z" fill="#FCC971" fill-opacity="0.25"/>
<path d="M199.835 169.218C197.87 167.984 197.803 164.554 199.686 161.556C201.569 158.558 204.688 157.129 206.653 158.363C208.618 159.597 208.685 163.028 206.802 166.025C204.919 169.023 201.8 170.453 199.835 169.218Z" fill="#FCC971" fill-opacity="0.25"/>
<path d="M178.647 162.981C178.875 159.448 180.937 156.706 183.253 156.855C185.569 157.005 187.261 159.989 187.033 163.522C186.805 167.054 184.743 169.797 182.428 169.648C180.112 169.498 178.419 166.513 178.647 162.981Z" fill="#FCC971" fill-opacity="0.25"/>
<path d="M189.357 157.662C190.515 154.318 193.232 152.222 195.425 152.982C197.618 153.741 198.456 157.069 197.297 160.414C196.138 163.758 193.421 165.854 191.228 165.094C189.036 164.334 188.198 161.007 189.357 157.662Z" fill="#FCC971" fill-opacity="0.25"/>
<path d="M181.922 172.5C181.922 172.5 185.288 171.418 187.1 169.461C187.1 169.461 190.533 165.52 195.234 167.774C199.934 170.028 199.01 175.172 199.01 175.172C198.618 177.811 199.882 181.114 199.882 181.114C199.882 181.114 201.759 185.972 198.552 188.318C195.479 190.565 192.179 186.987 192.179 186.987C190.293 184.756 187.613 183.665 187.613 183.665C187.613 183.665 185.084 182.258 182.164 182.184C182.164 182.184 177.308 181.851 177.136 178.047C176.962 174.07 181.922 172.5 181.922 172.5Z" fill="#FCC971" fill-opacity="0.25"/>
</g>
<g clip-path="url(#clip5_1873_2161)">
<path d="M256.258 270.422C253.879 270.237 252.18 267.146 252.462 263.517C252.745 259.888 254.902 257.097 257.28 257.282C259.659 257.467 261.358 260.559 261.076 264.187C260.794 267.816 258.637 270.607 256.258 270.422Z" fill="#60B28D" fill-opacity="0.25"/>
<path d="M247.98 264.501C245.638 264.955 243.177 262.426 242.485 258.853C241.792 255.28 243.13 252.015 245.472 251.561C247.814 251.107 250.274 253.636 250.967 257.209C251.66 260.782 250.322 264.046 247.98 264.501Z" fill="#60B28D" fill-opacity="0.25"/>
<path d="M227.692 274.703C225.381 271.891 225.003 268.384 226.846 266.869C228.689 265.354 232.057 266.406 234.367 269.218C236.678 272.03 237.057 275.537 235.214 277.052C233.37 278.567 230.003 277.515 227.692 274.703Z" fill="#60B28D" fill-opacity="0.25"/>
<path d="M231.995 263.186C230.515 259.861 231.083 256.379 233.262 255.409C235.442 254.439 238.409 256.348 239.888 259.674C241.368 262.999 240.801 266.481 238.621 267.451C236.441 268.421 233.475 266.512 231.995 263.186Z" fill="#60B28D" fill-opacity="0.25"/>
<path d="M236.837 279.549C236.837 279.549 238.604 276.372 238.59 273.629C238.59 273.629 238.398 268.259 243.51 266.649C248.623 265.039 251.543 269.55 251.543 269.55C253.102 271.806 256.371 273.397 256.371 273.397C256.371 273.397 261.194 275.727 260.434 279.74C259.706 283.586 254.715 283.219 254.715 283.219C251.732 282.868 248.953 283.932 248.953 283.932C248.953 283.932 246.066 284.653 243.822 286.649C243.822 286.649 239.943 289.81 237.142 287.075C234.217 284.212 236.837 279.549 236.837 279.549Z" fill="#60B28D" fill-opacity="0.25"/>
</g>
<g clip-path="url(#clip6_1873_2161)">
<path d="M196.229 630.925C197.795 629.212 196.947 625.888 194.335 623.498C191.723 621.109 188.336 620.561 186.77 622.273C185.204 623.985 186.051 627.31 188.663 629.699C191.275 632.088 194.662 632.637 196.229 630.925Z" fill="#FCC971" fill-opacity="0.25"/>
<path d="M198.171 621.218C200.136 619.984 200.203 616.554 198.32 613.556C196.438 610.558 193.319 609.129 191.354 610.363C189.388 611.597 189.322 615.028 191.204 618.025C193.087 621.023 196.206 622.453 198.171 621.218Z" fill="#FCC971" fill-opacity="0.25"/>
<path d="M219.359 614.981C219.131 611.448 217.069 608.706 214.754 608.855C212.438 609.005 210.745 611.989 210.973 615.522C211.201 619.054 213.263 621.797 215.579 621.648C217.894 621.498 219.587 618.513 219.359 614.981Z" fill="#FCC971" fill-opacity="0.25"/>
<path d="M208.65 609.662C207.491 606.318 204.774 604.222 202.581 604.982C200.389 605.741 199.551 609.069 200.71 612.414C201.869 615.758 204.586 617.854 206.778 617.094C208.971 616.334 209.809 613.007 208.65 609.662Z" fill="#FCC971" fill-opacity="0.25"/>
<path d="M216.085 624.5C216.085 624.5 212.718 623.418 210.906 621.461C210.906 621.461 207.473 617.52 202.773 619.774C198.072 622.028 198.997 627.172 198.997 627.172C199.388 629.811 198.124 633.114 198.124 633.114C198.124 633.114 196.248 637.972 199.454 640.318C202.528 642.565 205.828 638.987 205.828 638.987C207.713 636.756 210.393 635.665 210.393 635.665C210.393 635.665 212.922 634.258 215.843 634.184C215.843 634.184 220.698 633.851 220.87 630.047C221.044 626.07 216.085 624.5 216.085 624.5Z" fill="#FCC971" fill-opacity="0.25"/>
</g>
<g clip-path="url(#clip7_1873_2161)">
<path d="M82.4983 682.933C84.3174 683.191 86.111 681.15 86.5045 678.375C86.8979 675.601 85.7422 673.142 83.9231 672.884C82.1041 672.626 80.3104 674.667 79.917 677.441C79.5235 680.216 80.6792 682.675 82.4983 682.933Z" fill="#60B28D" fill-opacity="0.25"/>
<path d="M89.7096 679.863C91.3947 680.595 93.6662 679.105 94.7834 676.535C95.9005 673.964 95.4401 671.287 93.7551 670.554C92.0701 669.822 89.7985 671.312 88.6814 673.883C87.5642 676.453 88.0246 679.131 89.7096 679.863Z" fill="#60B28D" fill-opacity="0.25"/>
<path d="M103.258 690.919C105.464 689.191 106.335 686.618 105.202 685.171C104.069 683.725 101.362 683.953 99.1553 685.681C96.9488 687.41 96.0786 689.983 97.2115 691.43C98.3444 692.876 101.051 692.647 103.258 690.919Z" fill="#60B28D" fill-opacity="0.25"/>
<path d="M101.946 681.544C103.614 679.291 103.768 676.579 102.291 675.486C100.815 674.393 98.2659 675.333 96.5984 677.585C94.9309 679.838 94.7762 682.55 96.2529 683.643C97.7296 684.736 100.279 683.796 101.946 681.544Z" fill="#60B28D" fill-opacity="0.25"/>
<path d="M95.5741 693.036C95.5741 693.036 94.776 690.352 95.2446 688.293C95.2446 688.293 96.2854 684.288 92.7109 682.224C89.1363 680.16 86.1882 683.064 86.1882 683.064C84.6392 684.5 81.916 685.15 81.916 685.15C81.916 685.15 77.9021 686.096 77.8031 689.24C77.7085 692.253 81.5218 692.81 81.5218 692.81C83.8227 693.045 85.7341 694.308 85.7341 694.308C85.7341 694.308 87.7841 695.332 89.1378 697.207C89.1378 697.207 91.5265 700.231 94.0887 698.643C96.7657 696.978 95.5741 693.036 95.5741 693.036Z" fill="#60B28D" fill-opacity="0.25"/>
</g>
<g clip-path="url(#clip8_1873_2161)">
<path d="M302.319 567.125C304.878 566.926 306.706 563.6 306.403 559.695C306.099 555.791 303.778 552.788 301.218 552.987C298.659 553.186 296.831 556.513 297.135 560.417C297.438 564.321 299.759 567.324 302.319 567.125Z" fill="#60B28D" fill-opacity="0.25"/>
<path d="M311.225 560.753C313.745 561.242 316.392 558.522 317.137 554.677C317.882 550.833 316.444 547.32 313.923 546.832C311.403 546.343 308.756 549.064 308.011 552.908C307.266 556.752 308.705 560.265 311.225 560.753Z" fill="#60B28D" fill-opacity="0.25"/>
<path d="M333.054 571.731C335.54 568.706 335.948 564.932 333.964 563.302C331.981 561.672 328.358 562.804 325.872 565.829C323.385 568.855 322.978 572.629 324.961 574.259C326.945 575.888 330.568 574.757 333.054 571.731Z" fill="#60B28D" fill-opacity="0.25"/>
<path d="M328.424 559.34C330.016 555.762 329.406 552.016 327.061 550.972C324.715 549.928 321.523 551.983 319.931 555.56C318.339 559.138 318.95 562.884 321.295 563.928C323.64 564.972 326.832 562.917 328.424 559.34Z" fill="#60B28D" fill-opacity="0.25"/>
<path d="M323.214 576.945C323.214 576.945 321.313 573.526 321.329 570.575C321.329 570.575 321.535 564.797 316.034 563.065C310.534 561.332 307.392 566.186 307.392 566.186C305.714 568.613 302.197 570.326 302.197 570.326C302.197 570.326 297.008 572.832 297.826 577.15C298.609 581.288 303.979 580.893 303.979 580.893C307.189 580.516 310.178 581.66 310.178 581.66C310.178 581.66 313.284 582.435 315.699 584.583C315.699 584.583 319.873 587.985 322.887 585.042C326.034 581.961 323.214 576.945 323.214 576.945Z" fill="#60B28D" fill-opacity="0.25"/>
</g>
<defs>
<clipPath id="clip0_1873_2161">
<rect width="36.1866" height="25.3377" fill="white" transform="translate(302.019 207) rotate(18.4494)"/>
</clipPath>
<clipPath id="clip1_1873_2161">
<rect width="56.7978" height="39.7696" fill="white" transform="translate(268.195 661.05) rotate(10.4232)"/>
</clipPath>
<clipPath id="clip2_1873_2161">
<rect width="39.99" height="28.0009" fill="white" transform="translate(42 569.344) rotate(-17.6566)"/>
</clipPath>
<clipPath id="clip3_1873_2161">
<rect width="59.4147" height="41.602" fill="white" transform="translate(62.7676 210) rotate(15)"/>
</clipPath>
<clipPath id="clip4_1873_2161">
<rect width="35.4026" height="32.5724" fill="white" transform="matrix(-0.901676 -0.432412 -0.432412 0.901676 217.006 163.309)"/>
</clipPath>
<clipPath id="clip5_1873_2161">
<rect width="36.4" height="33.49" fill="white" transform="matrix(-0.95382 0.300378 0.300378 0.95382 256.719 248)"/>
</clipPath>
<clipPath id="clip6_1873_2161">
<rect width="35.4026" height="32.5724" fill="white" transform="translate(181 615.309) rotate(-25.6207)"/>
</clipPath>
<clipPath id="clip7_1873_2161">
<rect width="28.0304" height="25.7895" fill="white" transform="translate(85.8945 666) rotate(30)"/>
</clipPath>
<clipPath id="clip8_1873_2161">
<rect width="39.164" height="36.033" fill="white" transform="translate(301.823 543) rotate(17.4803)"/>
</clipPath>
</defs>
</svg>
