<svg width="392" height="844" viewBox="0 0 392 844" fill="none" xmlns="http://www.w3.org/2000/svg">
<rect width="392" height="844" fill="#FFFEF8"/>
<g clip-path="url(#clip0_1873_2770)">
<path d="M274.926 71.1941L313.432 48.9629C314.406 48.4006 315.652 48.7346 316.215 49.7087L329.66 72.9967C330.222 73.9708 329.888 75.2175 328.914 75.7798L289.947 98.2777C288.973 98.8401 287.726 98.506 287.164 97.532L273.985 74.7059C273.275 73.4758 273.696 71.9043 274.926 71.1941Z" fill="#60B28D" fill-opacity="0.25"/>
<path d="M275.608 69.1604L289.985 94.0626C290.2 94.4355 290.711 94.497 291.006 94.1856C292.709 92.3787 298.232 87.253 308.076 84.6494L293.008 58.5505C293.008 58.5505 283.666 60.1737 275.702 68.3859C275.501 68.5908 275.463 68.9099 275.608 69.1604Z" fill="white"/>
<path d="M293.007 58.5504L308.072 84.6437C308.072 84.6437 313.396 77.9635 324.915 74.6749C325.317 74.5615 325.511 74.1006 325.302 73.7389L310.886 48.7699C310.745 48.525 310.467 48.4034 310.197 48.4628C308.194 48.9142 300.009 51.1389 293.011 58.556L293.007 58.5504Z" fill="white"/>
<path d="M293.286 58.3896L292.729 58.7109L307.794 84.8043L308.351 84.4829L293.286 58.3896Z" fill="#60B28D" fill-opacity="0.25"/>
</g>
<g clip-path="url(#clip1_1873_2770)">
<path d="M274.409 674.408L325.024 683.719C326.305 683.955 327.152 685.185 326.917 686.465L321.286 717.077C321.05 718.357 319.82 719.205 318.54 718.969L267.318 709.547C266.037 709.312 265.19 708.081 265.425 706.801L270.945 676.797C271.242 675.18 272.793 674.111 274.409 674.408Z" fill="#60B28D" fill-opacity="0.25"/>
<path d="M276.536 673.128L270.515 705.862C270.424 706.352 270.828 706.789 271.322 706.737C274.178 706.422 282.892 706.051 293.52 711.145L299.831 676.839C299.831 676.839 290.382 671.258 277.201 672.517C276.87 672.547 276.597 672.799 276.536 673.128Z" fill="white"/>
<path d="M299.831 676.838L293.522 711.137C293.522 711.137 303.226 709.246 315.845 714.994C316.284 715.196 316.801 714.935 316.888 714.46L322.926 681.639C322.985 681.317 322.831 681.001 322.549 680.851C320.445 679.745 311.563 675.562 299.83 676.845L299.831 676.838Z" fill="white"/>
<path d="M300.197 676.906L299.465 676.771L293.156 711.071L293.888 711.205L300.197 676.906Z" fill="#60B28D" fill-opacity="0.25"/>
</g>
<g clip-path="url(#clip2_1873_2770)">
<path d="M44.8367 572.349L79.368 561.357C80.2415 561.079 81.1759 561.562 81.4539 562.436L88.1016 583.32C88.3797 584.194 87.8965 585.128 87.023 585.406L52.0774 596.53C51.2039 596.808 50.2695 596.325 49.9914 595.451L43.4756 574.981C43.1245 573.878 43.7336 572.7 44.8367 572.349Z" fill="#FCC971" fill-opacity="0.25"/>
<path d="M45.7337 570.848L52.8421 593.18C52.9486 593.514 53.3443 593.652 53.6336 593.455C55.3041 592.314 60.5947 589.195 68.8861 588.837L61.4361 565.432C61.4361 565.432 53.7157 565.097 45.944 570.247C45.7484 570.376 45.6622 570.623 45.7337 570.848Z" fill="white"/>
<path d="M61.4357 565.432L68.8841 588.832C68.8841 588.832 74.2865 584.441 84.0309 583.83C84.3708 583.809 84.6055 583.476 84.5023 583.152L77.3748 560.76C77.3049 560.54 77.1047 560.395 76.8794 560.395C75.2061 560.406 68.3015 560.751 61.4373 565.437L61.4357 565.432Z" fill="white"/>
<path d="M61.6854 565.353L61.1863 565.512L68.6347 588.912L69.1339 588.753L61.6854 565.353Z" fill="#FCC971" fill-opacity="0.25"/>
</g>
<g clip-path="url(#clip3_1873_2770)">
<path d="M215.297 140.423C213.959 138.96 214.684 136.119 216.915 134.078C219.147 132.037 222.041 131.568 223.379 133.031C224.717 134.494 223.993 137.335 221.761 139.376C219.53 141.417 216.636 141.886 215.297 140.423Z" fill="#FCC971" fill-opacity="0.25"/>
<path d="M213.638 132.13C211.959 131.075 211.902 128.144 213.51 125.583C215.119 123.021 217.784 121.8 219.463 122.854C221.142 123.909 221.199 126.84 219.591 129.401C217.982 131.963 215.317 133.184 213.638 132.13Z" fill="#FCC971" fill-opacity="0.25"/>
<path d="M195.534 126.8C195.729 123.782 197.491 121.439 199.469 121.566C201.448 121.694 202.894 124.244 202.699 127.263C202.505 130.281 200.743 132.624 198.764 132.496C196.786 132.369 195.339 129.819 195.534 126.8Z" fill="#FCC971" fill-opacity="0.25"/>
<path d="M204.684 122.256C205.674 119.398 207.996 117.608 209.869 118.257C211.743 118.906 212.459 121.749 211.468 124.607C210.478 127.465 208.157 129.255 206.283 128.606C204.41 127.957 203.694 125.114 204.684 122.256Z" fill="#FCC971" fill-opacity="0.25"/>
<path d="M198.331 134.934C198.331 134.934 201.208 134.009 202.756 132.337C202.756 132.337 205.689 128.969 209.705 130.895C213.722 132.821 212.932 137.217 212.932 137.217C212.597 139.471 213.677 142.293 213.677 142.293C213.677 142.293 215.281 146.444 212.541 148.448C209.915 150.369 207.095 147.311 207.095 147.311C205.484 145.405 203.194 144.473 203.194 144.473C203.194 144.473 201.033 143.271 198.538 143.208C198.538 143.208 194.389 142.923 194.243 139.673C194.094 136.275 198.331 134.934 198.331 134.934Z" fill="#FCC971" fill-opacity="0.25"/>
</g>
<g clip-path="url(#clip4_1873_2770)">
<path d="M71.2584 68.4223C68.8797 68.2372 67.1803 65.1456 67.4627 61.517C67.745 57.8884 69.9022 55.0969 72.2809 55.282C74.6596 55.4671 76.359 58.5587 76.0766 62.1873C75.7942 65.8159 73.637 68.6074 71.2584 68.4223Z" fill="#60B28D" fill-opacity="0.25"/>
<path d="M62.9807 62.5005C60.6385 62.9545 58.1782 60.4261 57.4856 56.853C56.793 53.28 58.1303 50.0154 60.4726 49.5614C62.8148 49.1073 65.2751 51.6358 65.9677 55.2088C66.6603 58.7819 65.323 62.0465 62.9807 62.5005Z" fill="#60B28D" fill-opacity="0.25"/>
<path d="M42.6923 72.7033C40.3816 69.8913 40.0028 66.3838 41.8462 64.8691C43.6896 63.3544 47.0571 64.406 49.3677 67.218C51.6784 70.03 52.0572 73.5375 50.2138 75.0522C48.3704 76.5669 45.0029 75.5153 42.6923 72.7033Z" fill="#60B28D" fill-opacity="0.25"/>
<path d="M46.9951 61.1865C45.5153 57.8613 46.0828 54.3794 48.2625 53.4093C50.4423 52.4393 53.409 54.3485 54.8887 57.6736C56.3685 60.9988 55.8011 64.4807 53.6213 65.4508C51.4415 66.4208 48.4749 64.5116 46.9951 61.1865Z" fill="#60B28D" fill-opacity="0.25"/>
<path d="M51.8376 77.5492C51.8376 77.5492 53.6047 74.3717 53.5903 71.6294C53.5903 71.6294 53.3983 66.259 58.5108 64.649C63.6233 63.039 66.5432 67.5502 66.5432 67.5502C68.1028 69.8059 71.3718 71.3975 71.3718 71.3975C71.3718 71.3975 76.1941 73.7265 75.4346 77.74C74.7063 81.5864 69.7154 81.2186 69.7154 81.2186C66.7324 80.8684 63.9537 81.9322 63.9537 81.9322C63.9537 81.9322 61.0667 82.6527 58.8227 84.6489C58.8227 84.6489 54.9432 87.8102 52.1423 85.0753C49.2171 82.2117 51.8376 77.5492 51.8376 77.5492Z" fill="#60B28D" fill-opacity="0.25"/>
</g>
<g clip-path="url(#clip5_1873_2770)">
<path d="M187.228 644.925C188.795 643.212 187.947 639.888 185.335 637.498C182.723 635.109 179.336 634.561 177.77 636.273C176.203 637.985 177.051 641.31 179.663 643.699C182.275 646.088 185.662 646.637 187.228 644.925Z" fill="#FCC971" fill-opacity="0.25"/>
<path d="M189.171 635.218C191.136 633.984 191.203 630.554 189.32 627.556C187.438 624.558 184.318 623.129 182.353 624.363C180.388 625.597 180.321 629.028 182.204 632.025C184.087 635.023 187.206 636.453 189.171 635.218Z" fill="#FCC971" fill-opacity="0.25"/>
<path d="M210.359 628.981C210.131 625.448 208.069 622.706 205.754 622.855C203.438 623.005 201.745 625.989 201.973 629.522C202.201 633.054 204.263 635.797 206.579 635.648C208.894 635.498 210.587 632.513 210.359 628.981Z" fill="#FCC971" fill-opacity="0.25"/>
<path d="M199.65 623.662C198.491 620.318 195.774 618.222 193.581 618.982C191.389 619.741 190.551 623.069 191.71 626.414C192.869 629.758 195.586 631.854 197.778 631.094C199.971 630.334 200.809 627.007 199.65 623.662Z" fill="#FCC971" fill-opacity="0.25"/>
<path d="M207.085 638.5C207.085 638.5 203.718 637.418 201.906 635.461C201.906 635.461 198.474 631.52 193.773 633.774C189.073 636.028 189.997 641.172 189.997 641.172C190.388 643.811 189.125 647.114 189.125 647.114C189.125 647.114 187.248 651.972 190.455 654.318C193.528 656.565 196.828 652.987 196.828 652.987C198.713 650.756 201.394 649.665 201.394 649.665C201.394 649.665 203.923 648.258 206.843 648.184C206.843 648.184 211.699 647.851 211.87 644.047C212.045 640.07 207.085 638.5 207.085 638.5Z" fill="#FCC971" fill-opacity="0.25"/>
</g>
<g clip-path="url(#clip6_1873_2770)">
<path d="M81.4981 690.933C83.3172 691.191 85.1108 689.15 85.5042 686.375C85.8977 683.601 84.742 681.142 82.9229 680.884C81.1038 680.626 79.3102 682.667 78.9167 685.441C78.5233 688.216 79.679 690.675 81.4981 690.933Z" fill="#60B28D" fill-opacity="0.25"/>
<path d="M88.7094 687.863C90.3944 688.595 92.666 687.105 93.7831 684.535C94.9002 681.964 94.4399 679.287 92.7549 678.554C91.0698 677.822 88.7982 679.312 87.6811 681.883C86.564 684.453 87.0244 687.131 88.7094 687.863Z" fill="#60B28D" fill-opacity="0.25"/>
<path d="M102.258 698.919C104.465 697.191 105.335 694.618 104.202 693.171C103.069 691.725 100.362 691.953 98.1555 693.681C95.9491 695.41 95.0788 697.983 96.2117 699.43C97.3446 700.876 100.052 700.647 102.258 698.919Z" fill="#60B28D" fill-opacity="0.25"/>
<path d="M100.946 689.544C102.614 687.291 102.768 684.579 101.291 683.486C99.8148 682.393 97.2659 683.333 95.5984 685.585C93.9309 687.838 93.7762 690.55 95.2529 691.643C96.7296 692.736 99.2785 691.796 100.946 689.544Z" fill="#60B28D" fill-opacity="0.25"/>
<path d="M94.5743 701.036C94.5743 701.036 93.7763 698.352 94.2449 696.293C94.2449 696.293 95.2857 692.288 91.7111 690.224C88.1366 688.16 85.1884 691.064 85.1884 691.064C83.6395 692.5 80.9163 693.15 80.9163 693.15C80.9163 693.15 76.9023 694.096 76.8033 697.24C76.7087 700.253 80.5221 700.81 80.5221 700.81C82.823 701.045 84.7343 702.308 84.7343 702.308C84.7343 702.308 86.7843 703.332 88.138 705.207C88.138 705.207 90.5268 708.231 93.0889 706.643C95.766 704.978 94.5743 701.036 94.5743 701.036Z" fill="#60B28D" fill-opacity="0.25"/>
</g>
<g clip-path="url(#clip7_1873_2770)">
<path d="M302.319 567.125C304.879 566.926 306.707 563.6 306.403 559.695C306.1 555.791 303.779 552.788 301.219 552.987C298.66 553.186 296.831 556.513 297.135 560.417C297.439 564.321 299.76 567.324 302.319 567.125Z" fill="#60B28D" fill-opacity="0.25"/>
<path d="M311.226 560.753C313.746 561.242 316.393 558.522 317.138 554.677C317.883 550.833 316.444 547.32 313.924 546.832C311.404 546.343 308.757 549.064 308.012 552.908C307.267 556.752 308.705 560.265 311.226 560.753Z" fill="#60B28D" fill-opacity="0.25"/>
<path d="M333.054 571.731C335.541 568.706 335.948 564.932 333.965 563.302C331.981 561.672 328.358 562.804 325.872 565.829C323.386 568.855 322.978 572.629 324.962 574.259C326.945 575.888 330.568 574.757 333.054 571.731Z" fill="#60B28D" fill-opacity="0.25"/>
<path d="M328.425 559.34C330.017 555.762 329.407 552.016 327.061 550.972C324.716 549.928 321.524 551.983 319.932 555.56C318.34 559.138 318.95 562.884 321.296 563.928C323.641 564.972 326.833 562.917 328.425 559.34Z" fill="#60B28D" fill-opacity="0.25"/>
<path d="M323.215 576.945C323.215 576.945 321.313 573.526 321.329 570.575C321.329 570.575 321.535 564.797 316.035 563.065C310.534 561.332 307.392 566.186 307.392 566.186C305.714 568.613 302.197 570.326 302.197 570.326C302.197 570.326 297.009 572.832 297.826 577.15C298.609 581.288 303.979 580.893 303.979 580.893C307.189 580.516 310.179 581.66 310.179 581.66C310.179 581.66 313.285 582.435 315.699 584.583C315.699 584.583 319.873 587.985 322.887 585.042C326.034 581.961 323.215 576.945 323.215 576.945Z" fill="#60B28D" fill-opacity="0.25"/>
</g>
<g clip-path="url(#clip8_1873_2770)">
<path d="M312.023 165.978L343.127 176.354C343.913 176.617 344.339 177.468 344.076 178.255L337.801 197.066C337.538 197.853 336.687 198.278 335.9 198.016L304.424 187.515C303.637 187.253 303.211 186.401 303.474 185.614L309.625 167.176C309.957 166.183 311.03 165.646 312.023 165.978Z" fill="#FCC971" fill-opacity="0.25"/>
<path d="M313.479 165.359L306.768 185.474C306.668 185.775 306.884 186.087 307.2 186.098C309.03 186.153 314.56 186.694 320.812 190.854L327.845 169.772C327.845 169.772 322.38 165.411 313.953 165.032C313.741 165.022 313.546 165.157 313.479 165.359Z" fill="white"/>
<path d="M327.845 169.773L320.813 190.85C320.813 190.85 327.104 190.52 334.553 195.269C334.812 195.435 335.162 195.317 335.259 195.024L341.988 174.856C342.054 174.658 341.985 174.445 341.82 174.325C340.591 173.44 335.36 170.011 327.843 169.777L327.845 169.773Z" fill="white"/>
<path d="M328.07 169.847L327.621 169.697L320.589 190.774L321.039 190.924L328.07 169.847Z" fill="#FCC971" fill-opacity="0.25"/>
</g>
<path d="M81.3486 159.934L121.867 174.301C122.892 174.664 123.429 175.791 123.065 176.816L114.376 201.322C114.013 202.346 112.886 202.883 111.861 202.52L70.8568 187.981C69.8318 187.617 69.295 186.491 69.6585 185.466L78.1752 161.446C78.6341 160.152 80.0543 159.475 81.3486 159.934Z" fill="#FCC971" fill-opacity="0.25"/>
<path d="M83.2717 159.158L73.9804 185.362C73.8413 185.755 74.1164 186.169 74.5307 186.19C76.9283 186.309 84.1648 187.154 92.2583 192.76L101.996 165.296C101.996 165.296 94.9392 159.445 83.9007 158.742C83.6239 158.723 83.3652 158.895 83.2717 159.158Z" fill="white"/>
<path d="M101.996 165.296L92.2604 192.754C92.2604 192.754 100.515 192.476 110.163 198.884C110.499 199.109 110.96 198.962 111.095 198.582L120.411 172.307C120.502 172.05 120.417 171.769 120.204 171.608C118.615 170.418 111.842 165.794 101.994 165.302L101.996 165.296Z" fill="white"/>
<path d="M102.289 165.401L101.703 165.193L91.9674 192.651L92.5531 192.858L102.289 165.401Z" fill="#FCC971" fill-opacity="0.25"/>
<defs>
<clipPath id="clip0_1873_2770">
<rect width="49.0705" height="34.359" fill="white" transform="translate(271 69.5352) rotate(-30)"/>
</clipPath>
<clipPath id="clip1_1873_2770">
<rect width="56.7978" height="39.7696" fill="white" transform="translate(272.195 670) rotate(10.4232)"/>
</clipPath>
<clipPath id="clip2_1873_2770">
<rect width="67.0705" height="46.9625" fill="white" transform="translate(42 570.344) rotate(-17.6566)"/>
</clipPath>
<clipPath id="clip3_1873_2770">
<rect width="30.249" height="27.8307" fill="white" transform="matrix(-0.901676 -0.432412 -0.432412 0.901676 228.309 127.08)"/>
</clipPath>
<clipPath id="clip4_1873_2770">
<rect width="36.4" height="33.49" fill="white" transform="matrix(-0.95382 0.300378 0.300378 0.95382 71.719 46)"/>
</clipPath>
<clipPath id="clip5_1873_2770">
<rect width="35.4026" height="32.5724" fill="white" transform="translate(172 629.309) rotate(-25.6207)"/>
</clipPath>
<clipPath id="clip6_1873_2770">
<rect width="28.0304" height="25.7895" fill="white" transform="translate(84.8948 674) rotate(30)"/>
</clipPath>
<clipPath id="clip7_1873_2770">
<rect width="39.164" height="36.033" fill="white" transform="translate(301.823 543) rotate(17.4803)"/>
</clipPath>
<clipPath id="clip8_1873_2770">
<rect width="36.1866" height="25.3377" fill="white" transform="translate(311.019 163) rotate(18.4494)"/>
</clipPath>
</defs>
</svg>
