<svg width="73" height="91" viewBox="0 0 73 91" fill="none" xmlns="http://www.w3.org/2000/svg">
<g id="Layer_1" clip-path="url(#clip0_1864_5053)">
<path id="Vector" d="M51.2519 72.7207C51.2519 72.7207 63.467 70.2229 63.2379 58.2928C63.1876 55.6889 62.4891 53.1296 61.3101 50.8051C59.6561 47.5473 57.013 40.7357 62.3047 38.2212C62.3047 38.2212 69.9657 35.1087 72.3573 48.2738C74.7489 61.4388 65.054 70.5359 65.054 70.5359C65.054 70.5359 58.5106 77.638 47.9551 78.4539" fill="#FFEED4"/>
<path id="Vector_2" d="M62.6904 53.2304C62.9586 53.1578 63.2324 53.074 63.5062 52.9846C66.4231 52.0514 68.6527 50.7326 68.4795 50.0398C68.3062 49.3469 65.8029 49.5368 62.8804 50.47C62.4278 50.6153 61.9975 50.7662 61.5896 50.9282C61.9472 51.7552 62.3216 52.5264 62.6904 53.236V53.2304Z" fill="#D4A980"/>
<path id="Vector_3" d="M60.5391 49.6263C61.014 49.509 61.5058 49.3693 62.0143 49.2072C64.9311 48.274 67.1607 46.9553 66.9875 46.2624C66.8142 45.5695 64.3109 45.7595 61.3884 46.6927C60.824 46.8715 60.2932 47.0671 59.7903 47.2682C60.0138 48.0841 60.2653 48.8719 60.5391 49.6263Z" fill="#D4A980"/>
<path id="Vector_4" d="M66.0823 42.1218C65.9091 41.4289 63.4057 41.6189 60.4833 42.5521C60.1592 42.6526 59.8574 42.7644 59.5557 42.8761C59.4551 43.4964 59.4495 44.1446 59.5054 44.7984C59.5445 45.0275 59.578 45.2566 59.6227 45.4857C60.0977 45.3683 60.595 45.2286 61.1035 45.0666C64.0204 44.1334 66.25 42.8147 66.0767 42.1218H66.0823Z" fill="#D4A980"/>
<path id="Vector_5" d="M47.955 78.7274C47.8153 78.7274 47.698 78.6212 47.6868 78.476C47.6756 78.3251 47.7874 78.1966 47.9383 78.1854C58.2535 77.3863 64.7913 70.4182 64.8528 70.3512C64.9645 70.245 74.4248 61.1871 72.0835 48.3238C71.195 43.4288 69.4851 40.2493 67.0153 38.8859C64.6628 37.5895 62.422 38.4612 62.3997 38.4724C61.0809 39.0982 60.1869 40.0649 59.751 41.3445C58.7173 44.3676 60.4327 48.4914 61.5447 50.6819C62.7741 53.107 63.4558 55.7333 63.5061 58.287C63.7408 70.3009 51.4307 72.9607 51.3022 72.9831C51.1569 73.011 51.0116 72.916 50.9837 72.7707C50.9557 72.6255 51.0507 72.4802 51.196 72.4522C51.3189 72.4299 63.1876 69.8539 62.9641 58.2981C62.9138 55.8283 62.26 53.2802 61.0642 50.9277C59.9131 48.6646 58.1417 44.3787 59.2369 41.1657C59.7231 39.7464 60.7121 38.6735 62.1818 37.975C62.2935 37.9303 64.6851 36.986 67.2667 38.4053C69.8986 39.8526 71.6979 43.155 72.6199 48.2288C75.0115 61.3882 65.3333 70.6473 65.2383 70.7367C65.188 70.7926 58.5105 77.9172 47.9774 78.733C47.9718 78.733 47.9606 78.733 47.955 78.733V78.7274Z" fill="#786659"/>
<path id="Vector_6" d="M22.6478 86.8248C-12.8185 82.0192 17.7193 38.5176 17.7193 38.5176L48.1508 40.2219C48.1508 40.2219 72.7375 84.9696 37.2545 87.7188" fill="white"/>
<path id="Vector_7" d="M16.2721 68.1258C16.9028 61.0868 15.0917 55.1725 12.2269 54.9158C9.36213 54.6591 6.52851 60.1573 5.89782 67.1962C5.26713 74.2352 7.07821 80.1495 9.94298 80.4062C12.8077 80.6629 15.6414 75.1647 16.2721 68.1258Z" fill="#FFEED4"/>
<path id="Vector_8" d="M53.325 67.1434C54.4482 66.864 55.1522 65.3441 55.4149 63.0922C54.437 54.7328 51.0954 46.5409 49.3073 42.6182C48.5138 41.903 47.7371 41.5733 47.0386 41.7465C44.6526 42.3389 44.1218 48.5023 45.8596 55.5151C47.5974 62.5278 50.939 67.7357 53.3306 67.1434H53.325Z" fill="#FFEED4"/>
<path id="Vector_9" d="M37.2489 87.9871C37.1036 87.9871 36.9862 87.8754 36.9751 87.7301C36.9695 87.5792 37.0812 87.4507 37.2321 87.4451C45.2898 87.0484 50.8386 84.2768 53.7108 79.2142C61.0141 66.3509 49.0114 42.5018 47.972 40.4846L17.8478 38.7971C16.5514 40.7249 1.14003 64.099 7.18052 77.4484C9.4939 82.5613 14.7074 85.6235 22.6701 86.551C22.821 86.5678 22.9272 86.7019 22.9104 86.8528C22.8936 87.0037 22.7595 87.1098 22.6086 87.0931C14.4392 86.1375 9.08599 82.9692 6.68879 77.6719C0.29067 63.529 16.7861 39.3782 17.4901 38.3612L17.5796 38.2383L48.3185 39.9593L48.3911 40.0935C48.5252 40.3505 61.9305 65.848 54.1913 79.4768C51.2186 84.7182 45.5245 87.5792 37.2656 87.9871H37.2545H37.2489Z" fill="#786659"/>
<path id="Vector_10" d="M22.7985 86.2207C22.7258 86.2486 22.5303 87.9194 22.5303 87.9194L23.0499 89.1376L24.0837 89.7187L24.7319 89.8249L25.6818 90.3557L27.0956 90.0484L28.5093 89.8863L29.4089 89.1376L29.6939 87.5059V86.8689L22.7985 86.2263V86.2207Z" fill="white"/>
<path id="Vector_11" d="M36.7348 86.2207C36.8074 86.2486 37.003 87.9194 37.003 87.9194L36.4833 89.1376L35.4496 89.7187L34.8014 89.8249L33.8514 90.3557L32.4377 90.0484L31.024 89.8863L30.1243 89.1376L29.8394 87.5059V86.8689L36.7348 86.2263V86.2207Z" fill="white"/>
<path id="Vector_12" d="M24.6202 90.0992C24.6202 90.0992 24.5979 90.0992 24.5867 90.0992C23.6535 89.9762 22.983 89.6074 22.603 88.9984C22.1113 88.2161 22.2565 87.2773 22.346 86.9029C17.9259 82.3488 14.5229 67.7756 14.3776 67.1554C14.3441 67.0101 14.4335 66.8648 14.5788 66.8313C14.7241 66.7977 14.8694 66.8871 14.9029 67.0324C14.9364 67.1833 18.4736 82.3208 22.8377 86.6291C22.9103 86.7017 22.9383 86.8079 22.9047 86.9085C22.9047 86.9197 22.5806 87.9478 23.0612 88.7134C23.3518 89.1716 23.8882 89.4566 24.6537 89.5627C24.8046 89.5851 24.9052 89.7192 24.8884 89.8701C24.8717 90.0098 24.7543 90.1048 24.6202 90.1048V90.0992Z" fill="#786659"/>
<path id="Vector_13" d="M25.9278 90.6244C25.3858 90.6244 24.9611 90.4567 24.6705 90.127C23.9832 89.3503 24.3408 87.9757 24.3576 87.9198C24.3967 87.7745 24.5476 87.6907 24.6873 87.7243C24.8326 87.7634 24.9164 87.9142 24.8828 88.0539C24.799 88.3724 24.6705 89.3 25.0784 89.7638C25.3131 90.032 25.721 90.127 26.291 90.0488C26.3133 90.0488 26.6207 90.0041 26.833 89.6912C27.0789 89.3336 27.1068 88.7412 26.9168 87.9757C26.8777 87.8304 26.9671 87.6851 27.1124 87.646C27.2577 87.6125 27.403 87.6963 27.4421 87.8416C27.6768 88.7804 27.6209 89.5124 27.2689 90.0097C26.9112 90.5238 26.3748 90.5797 26.3525 90.5852C26.2016 90.6076 26.0619 90.6188 25.9278 90.6188V90.6244Z" fill="#786659"/>
<path id="Vector_14" d="M27.5259 90.3448C27.3191 90.3448 27.1012 90.3281 26.8665 90.289C26.7156 90.2666 26.615 90.1269 26.6374 89.9816C26.6597 89.8308 26.7994 89.7302 26.9503 89.7525C27.7605 89.881 28.3864 89.7525 28.8055 89.3726C29.4704 88.7747 29.4257 87.7074 29.4257 87.6962V67.4066C29.4257 67.2557 29.5487 67.1328 29.6995 67.1328C29.8504 67.1328 29.9733 67.2557 29.9733 67.4066V87.6794C29.9733 87.7185 30.0348 88.9926 29.1799 89.7693C28.7608 90.1493 28.2132 90.3393 27.5314 90.3393L27.5259 90.3448Z" fill="#786659"/>
<path id="Vector_15" d="M34.8012 90.0991C34.6671 90.0991 34.5498 89.9985 34.533 89.8644C34.5107 89.7136 34.6168 89.5794 34.7677 89.5571C35.5332 89.4565 36.0697 89.1715 36.3602 88.7077C36.8464 87.9366 36.5167 86.9196 36.5167 86.9084C36.4832 86.8079 36.5167 86.6961 36.5893 86.6235C43.0433 80.65 45.2729 67.5017 45.2952 67.3676C45.3176 67.2224 45.4573 67.1162 45.6082 67.1441C45.7535 67.1665 45.854 67.3062 45.8317 67.457C45.8093 67.5912 43.5742 80.7618 37.0755 86.9084C37.1649 87.2884 37.3046 88.216 36.8184 88.9927C36.4385 89.5962 35.7679 89.9706 34.8347 90.0935C34.8236 90.0935 34.8124 90.0935 34.8012 90.0935V90.0991Z" fill="#786659"/>
<path id="Vector_16" d="M33.4881 90.6245C33.354 90.6245 33.2088 90.6134 33.0579 90.591C33.0467 90.591 32.5103 90.5295 32.1471 90.0154C31.795 89.5181 31.7391 88.7861 31.9738 87.8474C32.0074 87.7021 32.1582 87.6127 32.3035 87.6518C32.4488 87.6909 32.5382 87.8362 32.4991 87.9815C32.3091 88.7526 32.337 89.3449 32.5885 89.7025C32.8064 90.0099 33.1138 90.049 33.1193 90.049C33.6949 90.1272 34.1028 90.0322 34.3375 89.764C34.7454 89.3002 34.6169 88.3726 34.5331 88.0541C34.494 87.9088 34.5834 87.758 34.7287 87.7244C34.8739 87.6853 35.0248 87.7747 35.0583 87.92C35.0751 87.9759 35.4271 89.3505 34.7454 90.1272C34.4548 90.4569 34.0302 90.6245 33.4881 90.6245Z" fill="#786659"/>
<path id="Vector_17" d="M31.89 90.3444C31.2138 90.3444 30.6606 90.1544 30.2415 89.7744C29.381 88.9977 29.4425 87.7237 29.4481 87.6734V67.4174C29.4481 67.2665 29.571 67.1436 29.7219 67.1436C29.8727 67.1436 29.9957 67.2665 29.9957 67.4174V87.6902C29.9957 87.6902 29.951 88.7798 30.6159 89.3777C31.035 89.7521 31.6609 89.8806 32.4711 89.7577C32.622 89.7353 32.7561 89.8359 32.784 89.9868C32.8064 90.1321 32.7058 90.2718 32.5549 90.2941C32.3258 90.3276 32.1023 90.35 31.8955 90.35L31.89 90.3444Z" fill="#786659"/>
<path id="Vector_18" d="M41.7359 41.3615C59.3712 41.3727 56.5326 19.1553 56.5326 19.1553C60.6843 16.5179 61.6343 12.6455 61.8243 10.4774C61.9137 9.43801 61.3605 8.42102 60.3882 8.02987C56.5381 6.47644 50.6262 7.89576 50.6262 7.89576C40.7021 -1.24042 23.6479 2.43641 23.6479 2.43641C17.6298 -1.24042 13.6177 0.653873 13.6177 0.653873C9.27031 2.65992 11.8351 13.5842 11.8351 13.5842C11.8351 13.5842 2.69338 31.9739 19.4123 39.2214" fill="white"/>
<path id="Vector_19" d="M23.7485 2.55359C17.7303 -1.12323 13.7182 0.77106 13.7182 0.77106C9.37086 2.77711 11.9357 13.7014 11.9357 13.7014C11.9357 13.7014 10.0805 17.4509 9.57202 22.2229C10.237 22.9382 10.9913 23.5752 11.8407 24.1116C18.345 28.2355 27.6879 25.1565 32.7114 17.2385C35.8742 12.2486 36.5615 6.52657 35.008 1.94451C28.8055 1.46396 23.7485 2.548 23.7485 2.548V2.55359Z" fill="#FFEED4"/>
<path id="Vector_20" d="M29.8058 1.86599C29.7499 2.17333 29.6996 2.48625 29.6549 2.81034C29.1744 6.20777 29.4091 9.08553 30.1802 9.2364C30.9513 9.38727 31.9683 6.75538 32.4489 3.35795C32.5215 2.83269 32.5774 2.3242 32.6221 1.83246C31.633 1.81011 30.6887 1.82129 29.8114 1.86599H29.8058Z" fill="#D4A980"/>
<path id="Vector_21" d="M34.779 1.95578C34.6672 2.49222 34.5666 3.05659 34.4828 3.64332C34.0022 7.04075 34.2369 9.91851 35.0081 10.0694C35.7792 10.2203 36.7962 7.58836 37.2767 4.19093C37.3717 3.53715 37.4332 2.90013 37.4779 2.30223C36.5615 2.14577 35.6618 2.02843 34.7845 1.9502L34.779 1.95578Z" fill="#D4A980"/>
<path id="Vector_22" d="M42.1158 3.52633C41.2329 3.20224 40.3444 2.93961 39.456 2.72168C39.3442 3.25812 39.2436 3.82808 39.1598 4.42039C38.6792 7.81782 38.9139 10.6956 39.6851 10.8464C40.4562 10.9973 41.4732 8.36543 41.9537 4.96801C42.0264 4.47068 42.0767 3.99013 42.1158 3.52633Z" fill="#D4A980"/>
<path id="Vector_23" d="M41.7359 41.7469C41.5906 41.7469 41.4733 41.6351 41.4621 41.4898C41.4565 41.3389 41.5683 41.2104 41.7191 41.2048C46.4241 40.9701 50.0786 39.2938 52.5764 36.2372C57.7954 29.8447 56.2755 19.4177 56.2588 19.3171L56.2308 19.1439L56.3817 19.0489C60.4665 16.4561 61.3717 12.6284 61.5449 10.5777C61.6287 9.63334 61.1035 8.73928 60.2765 8.40401C56.5494 6.90087 50.738 8.2699 50.6821 8.28107L50.5424 8.3146L50.4362 8.21402C40.7413 -0.720995 23.877 2.7826 23.7038 2.81613L23.5977 2.83848L23.5027 2.7826C17.7024 -0.765698 13.7742 0.994483 13.7351 1.01683C9.63356 2.91112 12.0755 13.5337 12.1034 13.6398L12.1257 13.7348L12.081 13.8242C12.0363 13.9136 7.77838 22.6419 10.5723 30.2694C11.9972 34.1641 15.0091 37.1313 19.5297 39.0926C19.6694 39.1541 19.7308 39.3105 19.6694 39.4502C19.6079 39.5899 19.4515 39.6514 19.3118 39.5899C14.6515 37.5671 11.539 34.4938 10.0582 30.4538C7.34253 23.0219 11.1032 14.6289 11.5502 13.6734C11.2876 12.5223 9.17535 2.52556 13.506 0.530689C13.6736 0.452459 17.6801 -1.3636 23.7038 2.27411C25.1734 1.98354 41.1939 -0.905395 50.7044 7.72787C51.6544 7.51553 56.8902 6.45384 60.4888 7.90668C61.5337 8.33136 62.1931 9.44894 62.0925 10.628C61.9081 12.7514 60.9805 16.702 56.8232 19.4177C57.002 20.837 57.991 30.4705 53.001 36.5892C50.4027 39.7743 46.6141 41.5178 41.7471 41.758H41.7359V41.7469Z" fill="#786659"/>
<path id="Vector_24" d="M35.9412 23.3736C37.4387 22.0605 40.1377 21.5855 41.5961 23.1892C39.7465 22.3231 37.8299 22.7869 35.9412 23.3736Z" fill="#786659"/>
<path id="Vector_25" d="M52.9507 11.9298C54.4762 10.1138 57.3428 9.87347 59.3712 10.924C57.1751 10.6558 54.9009 10.7843 52.9507 11.9298Z" fill="#786659"/>
<path id="Vector_26" d="M20.5747 6.22519C18.9821 4.6103 16.8252 3.90064 14.6348 3.58771C16.8699 3.09598 19.5744 4.07386 20.5747 6.22519Z" fill="#786659"/>
<path id="Vector_27" d="M33.5944 27.2073C33.5497 27.9729 32.5997 29.0011 31.4654 28.934C30.3366 28.8669 29.4537 27.727 29.4985 26.9615C29.5432 26.1959 30.4987 25.626 31.6274 25.6986C32.7562 25.7713 33.6391 26.4418 33.5888 27.2073H33.5944Z" fill="#786659"/>
<path id="Vector_28" d="M31.1972 30.6887C31.1972 30.6887 31.1749 30.6887 31.1637 30.6887C31.0128 30.6719 30.9066 30.5322 30.929 30.387L31.281 27.5707C31.2978 27.4198 31.4319 27.3136 31.5828 27.336C31.7337 27.3527 31.8398 27.4924 31.8175 27.6377L31.4654 30.454C31.4487 30.5937 31.3313 30.6943 31.1972 30.6943V30.6887Z" fill="#786659"/>
<path id="Vector_29" d="M16.7579 30.1184C18.8657 30.1184 20.5744 28.4097 20.5744 26.3019C20.5744 24.1941 18.8657 22.4854 16.7579 22.4854C14.6501 22.4854 12.9414 24.1941 12.9414 26.3019C12.9414 28.4097 14.6501 30.1184 16.7579 30.1184Z" fill="#FFD3C0"/>
<path id="Vector_30" d="M46.3627 34.5276C48.4705 34.5276 50.1792 32.8189 50.1792 30.711C50.1792 28.6032 48.4705 26.8945 46.3627 26.8945C44.2549 26.8945 42.5461 28.6032 42.5461 30.711C42.5461 32.8189 44.2549 34.5276 46.3627 34.5276Z" fill="#FFD3C0"/>
<path id="Vector_31" d="M28.1293 22.2565C26.4641 21.1892 24.7375 20.2392 22.7258 20.5857C24.5587 19.4234 27.0341 20.5913 28.1293 22.2565Z" fill="#786659"/>
<path id="Vector_32" d="M15.5678 25.3747C11.8798 23.0222 7.57713 21.4743 3.17947 21.3682C2.62627 21.3235 1.84956 21.3849 1.29077 21.3961C6.31427 20.692 11.5445 22.3516 15.5622 25.3747H15.5678Z" fill="#786659"/>
<path id="Vector_33" d="M13.8188 26.185C9.67261 24.7098 4.96203 24.4975 0.827006 26.1235L0 26.4532C4.20208 24.1566 9.4938 24.2293 13.8188 26.185Z" fill="#786659"/>
<path id="Vector_34" d="M15.1879 27.2909C11.701 27.2909 8.19743 27.995 5.09058 29.6099C8.01862 27.6597 11.7122 26.9109 15.1879 27.2909Z" fill="#786659"/>
<path id="Vector_35" d="M46.7761 29.6998C51.7381 28.8672 57.1416 29.8059 61.2766 32.7452C60.7737 32.477 60.1311 32.069 59.6114 31.8511C55.6608 29.9233 51.1291 29.3086 46.7705 29.6998H46.7761Z" fill="#786659"/>
<path id="Vector_36" d="M47.9551 31.2246C52.688 31.4761 57.4265 33.8509 60.0975 37.8295L59.5164 37.1533C56.5939 33.8118 52.3192 31.8225 47.9607 31.2246H47.9551Z" fill="#786659"/>
<path id="Vector_37" d="M46.2341 31.5713C49.4975 32.8397 52.4255 35.2034 54.1298 38.2823C52.1182 35.4157 49.3354 33.175 46.2341 31.5713Z" fill="#786659"/>
<g id="Group">
<path id="Vector_38" d="M24.3353 28.3416C24.123 28.3416 23.9106 28.3304 23.6983 28.3137C20.055 27.9672 17.3672 24.7263 17.7137 21.0774C17.8813 19.3116 18.7251 17.7191 20.0885 16.5847C21.4575 15.456 23.1786 14.9251 24.9444 15.0872C28.5877 15.4336 31.2754 18.6746 30.929 22.3235C30.7613 24.0892 29.9176 25.6818 28.5541 26.8161C27.3527 27.8108 25.872 28.3416 24.3353 28.3416ZM24.3129 15.4671C22.8657 15.4671 21.4799 15.9645 20.3511 16.8976C19.0659 17.9593 18.278 19.4569 18.1216 21.1109C17.7975 24.5307 20.3176 27.5761 23.7374 27.9002C25.397 28.0566 27.0119 27.5593 28.2971 26.4976C29.5823 25.4359 30.3702 23.9384 30.5267 22.2844C30.8508 18.8646 28.3306 15.8192 24.9108 15.4951C24.7097 15.4783 24.5141 15.4671 24.3129 15.4671Z" fill="#786659"/>
<path id="Vector_39" d="M39.892 29.8109C39.6852 29.8109 39.4729 29.7998 39.2661 29.783C35.6228 29.4365 32.9351 26.1956 33.2815 22.5467C33.4492 20.7809 34.2929 19.1884 35.662 18.054C37.031 16.9253 38.7521 16.3889 40.5178 16.5565C44.1611 16.9029 46.8489 20.1439 46.5024 23.7928C46.1783 27.2293 43.2782 29.8109 39.8976 29.8109H39.892ZM39.8752 16.9365C38.428 16.9365 37.0422 17.4338 35.9134 18.367C34.6282 19.4287 33.8403 20.9262 33.6839 22.5802C33.3598 26 35.8799 29.0454 39.3053 29.3695C42.725 29.6936 45.7704 27.1735 46.0945 23.7481C46.4186 20.3283 43.8985 17.2829 40.4731 16.9588C40.272 16.9421 40.0764 16.9309 39.8752 16.9309V16.9365Z" fill="#786659"/>
<path id="Vector_40" d="M33.4771 22.7702C33.4324 22.7702 33.3821 22.7534 33.343 22.7199C32.0187 21.5911 30.9011 22.4293 30.8564 22.4684C30.767 22.5355 30.6385 22.5187 30.5714 22.4349C30.5044 22.3455 30.5155 22.217 30.605 22.1499C30.6161 22.1387 32.0187 21.0659 33.6112 22.4125C33.6951 22.4852 33.7062 22.6137 33.6336 22.6975C33.5945 22.7478 33.533 22.7702 33.4771 22.7702Z" fill="#786659"/>
</g>
</g>
<defs>
<clipPath id="clip0_1864_5053">
<rect width="73" height="90.6242" fill="white"/>
</clipPath>
</defs>
</svg>
