<svg width="192" height="120" viewBox="0 0 192 120" fill="none" xmlns="http://www.w3.org/2000/svg">
<g clip-path="url(#clip0_1888_350)">
<path d="M139.279 42.4846C153.19 53.6326 155.94 73.1758 155.94 73.1758C167.551 77.0418 168.09 95.0989 168.043 99.628C168.043 100.048 168.523 100.279 168.861 100.025C176.856 93.7964 179.322 86.9525 180.075 83.0865C180.347 81.6715 180.253 80.2328 180.247 78.7942C180.241 75.3663 180.193 70.1623 184.372 69.517C187.252 69.0729 188.746 69.6176 189.878 70.8076C191.188 72.1871 191.804 74.0993 191.686 75.9939C189.677 109.669 164.368 114.245 164.368 114.245C139.143 123.813 108.642 117.957 108.642 117.957C96.1303 118.153 100.587 110.143 100.587 110.143C102.117 103.109 100.036 83.7791 100.036 83.7791C95.1465 56.8296 102.775 40.2289 102.775 40.2289C102.775 40.2289 82.0714 14.641 111.825 9.73898C111.825 9.73898 112.821 2.86543 119.987 1.09524C120.348 1.00644 120.722 1.0834 121.036 1.27877C122.209 2.03066 125.007 4.39881 126.548 10.4672" fill="white"/>
<path d="M189.884 70.8019C188.758 69.6119 187.258 69.0672 184.378 69.5112C180.199 70.1565 180.241 75.3605 180.253 78.7884C180.253 80.2271 180.353 81.6717 180.081 83.0807C179.328 86.9467 176.862 93.7966 168.867 100.019C168.535 100.279 168.049 100.048 168.049 99.6222C168.096 95.0931 167.551 77.036 155.946 73.17C155.946 73.17 153.196 53.6269 139.285 42.4788C145.384 37.1327 144.293 29.5783 143.867 27.5535C143.796 27.2161 143.89 26.8668 144.11 26.6004C147.867 21.947 148.359 17.0922 148.401 15.2214C148.413 14.7419 148.122 14.3038 147.678 14.138C140.785 11.5271 135.587 13.6229 133.654 14.659C133.174 14.9135 132.588 14.807 132.238 14.3926C130.507 12.3263 128.462 11.1245 126.56 10.4259C125.019 4.37529 122.227 2.01898 121.054 1.26709C120.745 1.0658 120.366 0.994755 120.005 1.08356C112.845 2.85375 111.843 9.7273 111.843 9.7273C82.0834 14.6294 102.792 40.2172 102.792 40.2172C102.792 40.2172 95.1644 56.8179 100.054 83.7675C100.054 83.7675 102.135 103.103 100.605 110.131C100.605 110.131 96.1423 118.141 108.66 117.946C108.66 117.946 139.161 123.807 164.386 114.234C164.386 114.234 189.694 109.657 191.704 75.9822C191.816 74.0817 191.2 72.1754 189.896 70.7959L189.884 70.8019Z" fill="white"/>
<path d="M170.076 98.5746C169.489 99.1726 168.873 99.7705 168.197 100.357C167.907 100.611 167.486 100.386 167.492 99.9718C167.533 95.5552 167.065 77.9599 156.989 74.1886C156.989 74.1886 156.959 73.9814 156.906 73.6084C153.379 71.8323 149.592 71.5067 146.131 73.0341C137.987 76.6219 134.709 89.0487 138.817 100.789C142.497 111.321 150.866 117.715 158.429 116.336C159.449 116.022 160.468 115.684 161.482 115.317C166.822 112.671 169.94 106.129 170.076 98.5687V98.5746Z" fill="#CECECE"/>
<path d="M155.946 73.1756C155.946 73.1756 153.196 53.6324 139.285 42.4844L139.172 42.2002C131.04 46.2734 127.87 57.753 132.125 68.5873C136.582 79.9248 141.727 90.4039 156.473 82.737C158.82 81.5174 160.996 80.1675 162.602 78.1132C160.936 75.8989 158.773 74.1169 155.952 73.1756H155.946Z" fill="#CECECE"/>
<path d="M184.378 69.5112C180.199 70.1566 180.241 75.3606 180.253 78.7885C180.253 80.2271 180.353 81.6717 180.081 83.0807C179.328 86.9467 176.862 93.7966 168.867 100.019C168.535 100.279 168.049 100.049 168.049 99.6222C168.096 95.1997 167.575 77.9063 156.764 73.4779C152.81 78.6108 150.428 85.2357 150.428 92.4704C150.428 101.813 154.399 110.137 160.593 115.536C161.867 115.134 163.129 114.701 164.38 114.228C164.38 114.228 189.688 109.651 191.698 75.9763C191.81 74.0758 191.194 72.1695 189.89 70.79C188.764 69.6 187.264 69.0554 184.384 69.4994L184.378 69.5112Z" fill="#CECECE"/>
<path d="M36.3742 94.152C36.3742 94.152 15.8549 89.9604 16.2461 69.9495C16.329 65.5803 17.5026 61.2821 19.4881 57.3865C22.2679 51.922 26.7073 40.4898 17.8167 36.2744C17.8167 36.2744 4.94916 31.0527 0.930636 53.1416C-3.08789 75.2305 13.1936 90.4873 13.1936 90.4873C13.1936 90.4873 24.1883 102.405 41.9101 103.779" fill="#FFEED4"/>
<path d="M17.1527 62.2054C16.7023 62.081 16.2459 61.9449 15.7777 61.7968C10.876 60.2339 7.13605 58.0196 7.42648 56.8533C7.7169 55.687 11.9251 56.0067 16.8267 57.5697C17.5854 57.8124 18.3085 58.067 18.996 58.3334C18.3915 59.7188 17.7691 61.0154 17.1468 62.1994L17.1527 62.2054Z" fill="#D4A980"/>
<path d="M20.7742 55.3968C19.98 55.2014 19.1502 54.9705 18.2967 54.6982C13.395 53.1352 9.6551 50.921 9.94552 49.7547C10.2359 48.5884 14.4441 48.9081 19.3458 50.4711C20.2882 50.773 21.1891 51.0986 22.0248 51.4361C21.6514 52.8096 21.2306 54.1299 20.7683 55.3968H20.7742Z" fill="#D4A980"/>
<path d="M11.8186 42.3836C12.109 41.2173 16.3172 41.537 21.2188 43.1C21.7582 43.2717 22.2679 43.4611 22.7717 43.6446C22.9377 44.6866 22.9554 45.776 22.8547 46.8713C22.7895 47.2561 22.7302 47.6409 22.6532 48.0257C21.8589 47.8304 21.0232 47.5995 20.1697 47.3212C15.2681 45.7582 11.5281 43.544 11.8186 42.3777V42.3836Z" fill="#D4A980"/>
<path d="M41.9041 104.068C41.9041 104.068 41.8864 104.068 41.8804 104.068C24.2475 102.706 13.081 90.8062 12.9684 90.6878C12.8202 90.5517 -3.37239 75.0758 0.634277 53.0876C2.1753 44.6274 5.16845 39.1214 9.54259 36.7237C13.81 34.3792 17.7574 35.9363 17.9234 36.0014C20.3653 37.1618 22.0071 38.932 22.8073 41.2705C24.6269 46.6048 21.6752 53.7388 19.7489 57.5219C17.7337 61.4886 16.6195 65.7868 16.5424 69.9547C16.1572 89.486 36.232 93.8197 36.4335 93.8612C36.5935 93.8967 36.6943 94.0506 36.6647 94.2105C36.635 94.3703 36.475 94.471 36.315 94.4414C36.1075 94.3999 15.5585 89.9715 15.9497 69.9429C16.0327 65.6861 17.1647 61.2932 19.2214 57.2496C21.1003 53.5553 23.9986 46.587 22.2442 41.46C21.4974 39.2753 19.9623 37.6236 17.6863 36.5401C17.6626 36.5342 13.8397 35.0364 9.82116 37.2447C5.6189 39.5595 2.72652 44.9234 1.22105 53.1941C-2.72042 74.8627 13.2351 90.1195 13.3952 90.2734C13.5196 90.4096 24.538 102.138 41.9278 103.482C42.0938 103.494 42.2123 103.636 42.2005 103.801C42.1886 103.955 42.0582 104.074 41.9041 104.074V104.068Z" fill="#786659"/>
<path d="M41.2698 46.4983C41.2698 46.4983 34.59 54.2007 31.099 69.2207C31.099 69.2207 4.16659 118.674 61.9966 117.679C61.9966 117.679 91.1931 116.122 89.006 88.6158C86.8189 61.1098 82.3025 45.2491 82.3025 45.2491C82.3025 45.2491 82.8123 41.91 81.7217 39.9326" fill="white"/>
<path d="M89.024 88.6163C88.9825 87.9828 88.941 87.3671 88.8995 86.7514C86.9496 86.1298 81.8819 90.9134 81.1944 98.4619C80.3469 107.775 76.3817 110.528 77.4841 112.665C84.3357 108.485 89.8597 101.742 89.024 88.6163Z" fill="#FFEED4"/>
<path d="M42.7221 48.2032C41.8389 47.8716 40.8254 48.0137 39.7467 48.5466C37.5655 51.7436 33.547 58.6763 31.0932 69.2264C31.0932 69.2264 29.404 72.3287 27.78 76.9703C28.1357 79.1904 28.9951 80.7415 30.3583 81.2507C33.9323 82.5828 39.5985 76.2717 43.0125 67.1484C46.4264 58.0251 46.2961 49.5471 42.7221 48.2091V48.2032Z" fill="#FFEED4"/>
<path d="M74.1293 45.9715C98.9576 33.4203 80.1156 14.2916 80.1156 14.2916C82.0893 3.56979 78.3849 1.07731 78.3849 1.07731C73.5722 -1.2494 67.5207 6.50037 67.5207 6.50037C50.6227 6.22803 44.6423 14.1495 44.6423 14.1495C36.9491 12.3675 33.2388 14.1495 33.2388 14.1495C30.0797 18.9509 36.5342 28.6958 36.5342 28.6958C36.5342 28.6958 30.4412 49.3875 54.825 50.9683" fill="white"/>
<path d="M58.0612 7.32324C48.6551 9.43681 44.0023 13.9185 44.0023 13.9185C34.7977 12.3496 32.6995 14.481 32.6995 14.481C29.5404 19.2824 35.8468 29.0273 35.8468 29.0273C35.8468 29.0273 35.2659 33.0473 36.2261 37.9079C44.0379 40.7201 53.2663 35.3207 57.2848 24.8357C59.5726 18.8739 59.8808 12.0536 58.0612 7.32324Z" fill="#FFEED4"/>
<path d="M61.3033 117.982C44.0438 117.982 32.6935 113.583 27.5429 104.898C19.2451 90.9018 30.1745 70.3107 30.8087 69.1326C32.2371 58.0793 41.1632 46.1438 41.2522 46.0254C41.3529 45.8951 41.5367 45.8714 41.667 45.9662C41.7974 46.0668 41.8211 46.2504 41.7263 46.3806C41.6374 46.499 32.7824 58.3457 31.3896 69.2628C31.3896 69.2984 31.3718 69.3339 31.354 69.3694C31.2355 69.5825 19.7252 90.5525 28.0527 104.596C33.1558 113.204 44.5772 117.526 61.9908 117.384C62.1093 117.378 75.4155 116.561 83.1918 107.686C87.4652 102.808 89.3203 96.4018 88.7039 88.6402C86.5465 61.4835 82.0597 45.4866 82.0123 45.3268C82.0004 45.2853 82.0004 45.238 82.0064 45.1906C82.0064 45.161 82.4924 42.4613 81.7693 40.7977C81.7041 40.6497 81.7693 40.4721 81.9234 40.4069C82.0716 40.3418 82.2494 40.4069 82.3146 40.5609C83.0495 42.26 82.682 44.7703 82.605 45.2261C82.9251 46.3747 87.2044 62.2531 89.2966 88.5869C89.9249 96.5143 88.0223 103.068 83.6363 108.077C75.6882 117.141 62.1449 117.97 62.0086 117.976C61.7715 117.976 61.5344 117.976 61.3033 117.976V117.982Z" fill="#786659"/>
<path d="M73.3861 118.09C76.2418 117.767 78.3736 115.89 78.1475 113.898C77.9214 111.907 75.423 110.555 72.5673 110.878C69.7115 111.202 67.5798 113.078 67.8059 115.07C68.032 117.062 70.5303 118.414 73.3861 118.09Z" fill="#FEFEFE"/>
<path d="M75.0836 118.028C74.7635 118.028 74.4612 117.945 74.1886 117.785C73.2877 117.259 73.0032 116.063 72.9913 116.009C72.9558 115.849 73.0506 115.69 73.2106 115.654C73.3707 115.619 73.5307 115.713 73.5663 115.873C73.5663 115.885 73.8093 116.88 74.4909 117.27C74.7991 117.448 75.1428 117.478 75.5518 117.359C76.0438 117.211 76.352 116.974 76.4646 116.655C76.6661 116.069 76.2275 115.257 76.0438 114.997C75.9489 114.867 75.9786 114.677 76.1149 114.582C76.2512 114.488 76.4349 114.517 76.5298 114.654C76.5653 114.701 77.3714 115.855 77.0276 116.85C76.8498 117.365 76.4112 117.732 75.7237 117.933C75.5044 117.999 75.291 118.028 75.0895 118.028H75.0836Z" fill="#786659"/>
<path d="M71.9659 118.721C71.6281 118.721 71.2665 118.68 70.8931 118.579C69.5299 118.206 68.4038 117.123 67.5384 115.364C66.9932 114.257 66.6849 113.085 66.6138 111.877L64.9661 83.8916C64.9543 83.7258 65.0787 83.5896 65.2447 83.5778C65.4106 83.56 65.547 83.6903 65.5588 83.8561L67.2065 111.842C67.2717 112.972 67.5621 114.068 68.0719 115.104C68.8602 116.702 69.8618 117.685 71.0472 118.011C72.6416 118.455 74.0641 117.549 74.076 117.543C74.2123 117.454 74.396 117.496 74.4849 117.632C74.5738 117.768 74.5383 117.951 74.396 118.04C74.3427 118.076 73.3232 118.727 71.9659 118.727V118.721Z" fill="#786659"/>
<path d="M81.5603 49.1722C82.582 47.8164 81.8329 45.5313 79.8871 44.0683C77.9414 42.6053 75.5357 42.5184 74.514 43.8742C73.4923 45.23 74.2414 47.5151 76.1872 48.9781C78.133 50.4411 80.5386 50.528 81.5603 49.1722Z" fill="#FEFEFE"/>
<path d="M53.4677 60.2578C53.4143 60.2578 53.361 60.246 53.3136 60.2164C53.1713 60.1335 53.1298 59.95 53.2128 59.8079C53.2839 59.6954 60.2067 48.5355 74.1945 44.7879C74.2715 44.4209 74.5086 43.6571 75.1843 43.1421C75.7651 42.698 76.5179 42.5382 77.4247 42.6803C77.5847 42.7039 77.6974 42.8579 77.6737 43.0177C77.6499 43.1776 77.4958 43.2901 77.3358 43.2664C76.5949 43.1539 75.9963 43.2664 75.5518 43.6098C74.8642 44.1367 74.7516 45.0543 74.7516 45.0603C74.7398 45.1846 74.6509 45.2852 74.5323 45.3148C60.6453 48.9559 53.7877 60.0092 53.7225 60.1158C53.6692 60.2046 53.5684 60.2578 53.4677 60.2578Z" fill="#786659"/>
<path d="M78.8827 45.9892C78.8056 45.9892 78.7226 45.9596 78.6634 45.8945C78.5508 45.7761 78.5626 45.5866 78.6812 45.4741C78.8886 45.2847 79.4161 44.6749 79.3865 44.1361C79.3746 43.8875 79.2501 43.6743 79.0012 43.4849C78.6337 43.2007 78.2722 43.1001 77.9403 43.177C77.2468 43.3369 76.8082 44.1894 76.8023 44.2013C76.7312 44.3493 76.5534 44.4025 76.4052 44.3315C76.257 44.2605 76.1977 44.0828 76.2748 43.9348C76.2985 43.8875 76.8379 42.8218 77.804 42.6028C78.3196 42.4843 78.8412 42.6205 79.3628 43.0172C79.7539 43.3132 79.9614 43.6803 79.9851 44.1125C80.0266 45.036 79.1257 45.8767 79.0901 45.9122C79.0309 45.9655 78.9597 45.9892 78.8886 45.9892H78.8827Z" fill="#786659"/>
<path d="M63.2235 71.5709C63.1583 71.5709 63.0872 71.5472 63.0338 71.4999C62.9094 71.3933 62.8916 71.2098 62.9983 71.0795L79.4043 51.3943C80.0503 50.6306 80.2933 50.3405 80.809 49.4998C81.5617 48.2683 81.7869 47.1849 81.4669 46.285C81.0224 45.0181 79.6295 44.5148 79.6177 44.5089C79.4635 44.4556 79.3806 44.2839 79.4398 44.13C79.4932 43.9761 79.6651 43.8991 79.8192 43.9524C79.8844 43.9761 81.4847 44.5563 82.0299 46.0837C82.4152 47.1612 82.1722 48.4163 81.3187 49.8076C80.7793 50.6838 80.5304 50.9799 79.8666 51.7732L79.8073 51.8442L63.4606 71.4584C63.4013 71.5295 63.3183 71.565 63.2354 71.565L63.2235 71.5709Z" fill="#786659"/>
<path d="M65.6772 23.2615C66.6848 20.9466 69.518 18.9396 72.0666 19.9875C69.4705 19.9934 67.5265 21.5682 65.6772 23.2615Z" fill="#786659"/>
<path d="M65.5943 26.991C65.8729 27.6956 65.458 29.0099 64.4208 29.4184C63.3835 29.8269 62.1211 29.1875 61.8425 28.483C61.5639 27.7785 62.1744 26.8786 63.2117 26.4641C64.2489 26.0497 65.3157 26.2865 65.5943 26.9851V26.991Z" fill="#786659"/>
<path d="M65.0135 31.1592C64.889 31.1592 64.7764 31.0822 64.7349 30.9638L63.7925 28.3352C63.7391 28.1813 63.8162 28.0096 63.9703 27.9563C64.1244 27.903 64.2963 27.98 64.3496 28.1339L65.292 30.7625C65.3454 30.9165 65.2683 31.0882 65.1142 31.1414C65.0787 31.1533 65.049 31.1592 65.0135 31.1592Z" fill="#786659"/>
<path d="M85.7639 13.7762C85.6632 13.7762 85.5624 13.7229 85.5091 13.6341C85.4261 13.492 85.4735 13.3144 85.6098 13.2256L88.0103 11.7988C88.1525 11.7159 88.3303 11.7633 88.4192 11.8995C88.5081 12.0356 88.4548 12.2192 88.3185 12.308L85.918 13.7348C85.8706 13.7644 85.8173 13.7762 85.7699 13.7762H85.7639Z" fill="#786659"/>
<path d="M58.7012 25.8303C56.2119 25.5106 53.7166 25.3507 51.5947 26.8427C53.0646 24.5159 56.5379 24.5159 58.7012 25.8303Z" fill="#786659"/>
<path d="M78.2012 32.5085C80.473 32.5085 82.3146 30.6689 82.3146 28.3998C82.3146 26.1306 80.473 24.291 78.2012 24.291C75.9295 24.291 74.0879 26.1306 74.0879 28.3998C74.0879 30.6689 75.9295 32.5085 78.2012 32.5085Z" fill="#FFD3C0"/>
<path d="M49.8463 40.3415C52.118 40.3415 53.9596 38.502 53.9596 36.2328C53.9596 33.9636 52.118 32.124 49.8463 32.124C47.5745 32.124 45.7329 33.9636 45.7329 36.2328C45.7329 38.502 47.5745 40.3415 49.8463 40.3415Z" fill="#FFD3C0"/>
<path d="M78.1477 27.5122C82.0773 23.3738 87.6132 20.5261 93.3683 20.3604C92.7341 20.461 91.8628 20.532 91.2524 20.686C86.3507 21.6392 81.8284 24.179 78.1477 27.5122Z" fill="#786659"/>
<path d="M80.2578 28.0866C84.7209 25.079 90.636 23.9956 95.7748 25.7658L94.7849 25.5526C89.8537 24.5225 84.6201 25.6474 80.2578 28.0866Z" fill="#786659"/>
<path d="M80.1155 29.9155C83.9384 28.8321 88.2118 28.9742 91.8628 30.5964C88.0814 29.3827 84.0214 29.2525 80.1155 29.9155Z" fill="#786659"/>
<path d="M49.6328 35.8659C43.7769 34.3384 37.1979 34.8831 31.9229 37.9558C32.5511 37.6894 33.369 37.269 34.0092 37.0618C38.9523 35.1732 44.4467 34.9305 49.6269 35.8659H49.6328Z" fill="#786659"/>
<path d="M48.0504 37.5648C42.3486 37.3635 36.4157 39.6961 32.7883 44.166L33.5588 43.42C37.4173 39.7316 42.7576 37.8134 48.0504 37.5588V37.5648Z" fill="#786659"/>
<path d="M49.2122 39.1338C45.164 40.3001 41.4004 42.8163 39.0295 46.3211C41.75 43.1064 45.33 40.7204 49.2122 39.1338Z" fill="#786659"/>
<path d="M53.3966 35.3272C52.1756 35.3272 50.9606 35.0371 49.8404 34.4628C47.9852 33.5097 46.6101 31.8993 45.97 29.9101C44.6483 25.8132 46.9065 21.4143 51.008 20.0941C55.1095 18.7739 59.5133 21.0295 60.835 25.1264C61.4751 27.1097 61.3032 29.2233 60.349 31.0764C59.3947 32.9295 57.7826 34.303 55.797 34.9424C55.0087 35.197 54.1967 35.3213 53.3906 35.3213L53.3966 35.3272ZM53.3966 20.1651C52.6498 20.1651 51.8911 20.2776 51.1443 20.5204C47.2799 21.7636 45.1462 25.9197 46.3908 29.7798C46.9954 31.6507 48.2934 33.1722 50.0419 34.0721C51.7903 34.9661 53.7878 35.1318 55.6607 34.528C57.5336 33.9241 59.0569 32.6275 59.9578 30.881C60.8528 29.1345 61.0187 27.1393 60.4142 25.2685C59.4125 22.1544 56.5083 20.1651 53.3966 20.1651Z" fill="#786659"/>
<path d="M70.9405 29.6787C69.7195 29.6787 68.5045 29.3886 67.3843 28.8143C65.5291 27.8612 64.1541 26.2508 63.514 24.2675C62.1922 20.1706 64.4504 15.7658 68.5519 14.4515C72.6534 13.1313 77.0631 15.3869 78.3789 19.4838C79.019 21.4672 78.8472 23.5807 77.8929 25.4338C76.9387 27.2869 75.3265 28.6604 73.335 29.2998C72.5467 29.5544 71.7347 29.6787 70.9287 29.6787H70.9405ZM70.9405 14.5166C70.1937 14.5166 69.435 14.6291 68.6882 14.8719C64.8238 16.1151 62.6901 20.2712 63.9348 24.1313C64.5393 26.0022 65.8373 27.5237 67.5858 28.4236C69.3343 29.3235 71.3317 29.4833 73.2046 28.8795C75.0776 28.2756 76.6008 26.979 77.5017 25.2325C78.3967 23.486 78.5627 21.4908 77.9581 19.62C76.9564 16.5059 74.0522 14.5166 70.9405 14.5166Z" fill="#786659"/>
<path d="M60.6275 25.4165C60.5919 25.4165 60.5564 25.4106 60.5208 25.3869C60.4141 25.3277 60.3726 25.1915 60.4319 25.0849C60.4438 25.0672 61.4573 23.2733 63.7866 23.9837C63.9052 24.0193 63.9704 24.1436 63.9348 24.262C63.8992 24.3804 63.7748 24.4455 63.6562 24.41C61.6825 23.8002 60.8527 25.2389 60.8231 25.2981C60.7816 25.3691 60.7046 25.4106 60.6275 25.4106V25.4165Z" fill="#786659"/>
<path d="M51.9147 10.4969C53.4735 14.434 55.3405 17.3942 56.0874 17.0981C56.8342 16.8021 56.1763 13.3683 54.6175 9.43127C54.4811 9.08789 54.3389 8.75043 54.2026 8.4248C53.2365 8.76227 52.3474 9.12341 51.5354 9.49047C51.6539 9.82201 51.7843 10.1595 51.9147 10.4969Z" fill="#D4A980"/>
<path d="M55.9984 8.88024C57.5573 12.8173 59.4243 15.7775 60.1711 15.4815C60.9179 15.1854 60.26 11.7516 58.7012 7.81457C58.6241 7.6192 58.5471 7.42383 58.4641 7.23438C57.4683 7.44751 56.5259 7.69024 55.6428 7.95074C55.7554 8.2586 55.874 8.56646 55.9984 8.88024Z" fill="#D4A980"/>
<path d="M60.5623 7.08111C62.1211 11.0182 63.9881 13.9783 64.7349 13.6823C65.4521 13.3981 64.8712 10.2367 63.4488 6.50684C62.4115 6.59564 61.4217 6.71997 60.4734 6.86798C60.503 6.93902 60.5267 7.01007 60.5564 7.08111H60.5623Z" fill="#D4A980"/>
<path d="M47.274 48.3217C47.274 48.3217 47.2562 48.3217 47.2503 48.3217C43.54 47.9961 40.6357 46.5456 38.6146 44.0176C34.4539 38.8076 35.337 30.5843 35.5563 28.9858C35.5741 28.8377 35.5444 28.7016 35.4674 28.5713C34.4716 26.9787 29.6233 18.8205 32.172 14.2796C32.3142 14.0309 32.5513 13.8355 32.8476 13.729C34.0686 13.3027 37.5478 12.4383 43.5459 13.7408C43.7652 13.7882 43.9904 13.729 44.1327 13.5809C45.9226 11.7989 52.8158 6.02064 66.9339 6.02064C67.0643 6.02064 67.2007 6.02064 67.3311 6.02064C67.5207 6.02064 67.6985 5.94367 67.8171 5.8075C69.2336 4.14388 74.1946 -1.13117 78.5094 0.804789C78.628 0.858073 78.7346 0.923197 78.8354 1.012C79.6118 1.67508 82.0301 4.55238 80.4416 13.6579C80.412 13.8414 80.4535 14.025 80.5602 14.1611C80.6609 14.2914 80.7913 14.4512 80.9454 14.6407C82.8065 16.9496 88.4668 23.989 87.2814 31.5197C86.5998 35.8415 83.7904 39.6483 78.9243 42.8335C78.788 42.9223 78.6043 42.8868 78.5154 42.7506C78.4264 42.6144 78.462 42.4309 78.5983 42.3421C83.3162 39.2458 86.0427 35.5751 86.6946 31.4309C87.8445 24.1547 82.3027 17.2753 80.4831 15.0137C80.329 14.8183 80.1986 14.6585 80.0919 14.5223C79.8845 14.2559 79.8015 13.9006 79.8608 13.5573C81.4315 4.53462 78.9658 1.90006 78.4561 1.46195C78.4027 1.41459 78.3435 1.37907 78.2723 1.34946C74.236 -0.468091 69.2336 5.06746 68.2735 6.19233C68.0423 6.46466 67.7045 6.61859 67.337 6.61859H67.3311C53.1714 6.48835 46.3198 12.2429 44.5535 14.0013C44.269 14.2855 43.8363 14.4098 43.4214 14.321C37.4055 13.0185 33.956 13.9717 33.0432 14.2914C32.8832 14.3447 32.7587 14.4453 32.6876 14.5697C30.3049 18.8146 34.9991 26.7123 35.9653 28.2516C36.1194 28.4944 36.1786 28.7726 36.1371 29.0627C35.9238 30.6139 35.0584 38.6182 39.071 43.6387C40.9854 46.0364 43.7534 47.4099 47.2977 47.7237C47.4577 47.7356 47.5822 47.8836 47.5644 48.0434C47.5526 48.1974 47.4222 48.3158 47.2681 48.3158L47.274 48.3217Z" fill="#786659"/>
<path d="M71.6697 7.32332C72.1616 5.06174 74.4909 3.35667 76.8025 3.481C74.6984 4.2092 72.9321 5.47616 71.6697 7.32332Z" fill="#786659"/>
<path d="M41.4063 17.4235C39.1481 16.2986 36.7358 16.0677 34.2998 16.5769C36.475 15.2211 39.6282 15.5527 41.4063 17.4235Z" fill="#786659"/>
<path d="M76.9862 116.555C76.8913 116.555 76.7965 116.507 76.7372 116.425C76.6483 116.288 76.6839 116.105 76.8202 116.016C77.4129 115.619 77.7567 115.134 77.8278 114.583C77.976 113.447 76.998 112.322 76.9862 112.31C76.9091 112.221 76.8913 112.097 76.9388 111.99C81.8523 101.422 83.2629 82.2107 83.2807 82.0153C83.2925 81.8496 83.4288 81.7312 83.5948 81.743C83.7608 81.7548 83.8793 81.8969 83.8675 82.0568C83.8556 82.2522 82.445 101.369 77.5492 112.073C77.8456 112.458 78.5568 113.518 78.4087 114.66C78.3138 115.394 77.8871 116.022 77.1403 116.513C77.0869 116.549 77.0336 116.561 76.9743 116.561L76.9862 116.555Z" fill="#786659"/>
<path d="M143.067 45.8236C141.905 44.5921 140.648 43.4081 139.279 42.3128L126.56 10.2895C125.019 4.21519 122.221 1.85296 121.048 1.10108C120.74 0.899784 120.36 0.82874 119.999 0.917545C112.839 2.68774 111.837 9.56129 111.837 9.56129C110.095 9.85139 108.53 10.2125 107.113 10.627C105.306 17.7018 106.639 26.1975 111.404 33.675C119.056 45.6756 132.807 50.7848 143.067 45.8236Z" fill="#CECECE"/>
<path d="M126.115 10.3848L128.954 11.5807L132.653 14.9257L135.705 13.7653L139.647 12.9424L143.067 12.9956L148.383 14.4225L147.779 19.3897L145.609 24.4634L143.742 27.2756L144.193 32.154L143.339 36.5528L140.856 40.8747L138.627 43.4264L126.115 10.3848Z" fill="#CECECE"/>
<path d="M139.279 42.7808C139.196 42.7808 139.113 42.7453 139.054 42.6801C138.947 42.5558 138.959 42.3723 139.083 42.2598C145.953 36.2328 143.481 27.2161 143.452 27.1273C143.422 27.0326 143.452 26.9319 143.511 26.855C148.069 21.5207 148.128 15.7069 148.093 14.6294C139.249 11.0061 133.056 15.3517 132.996 15.3991C132.866 15.4938 132.682 15.4642 132.581 15.3339C128.041 9.08795 120.502 9.81023 120.425 9.82207C120.271 9.83983 120.117 9.72143 120.099 9.56158C120.081 9.40173 120.2 9.25372 120.36 9.23596C120.437 9.23004 128.13 8.47815 132.89 14.7597C134.164 13.9723 140.257 10.6983 148.49 14.1558C148.59 14.1972 148.662 14.292 148.667 14.4044C148.667 14.4696 149.136 21.0826 144.05 27.1214C144.353 28.3765 146.113 36.8782 139.463 42.7097C139.403 42.7571 139.338 42.7808 139.267 42.7808H139.279Z" fill="#786659"/>
<path d="M112.643 16.4531C115.174 16.5005 118.108 18.3536 118.108 21.1006C117.112 18.7088 114.913 17.5129 112.643 16.4531Z" fill="#786659"/>
<path d="M102.123 15.9614C101.488 16.3699 100.113 16.216 99.5148 15.2746C98.9162 14.3333 99.3014 12.9775 99.9415 12.569C100.582 12.1605 101.583 12.5868 102.188 13.5281C102.792 14.4636 102.763 15.5588 102.129 15.9673L102.123 15.9614Z" fill="#786659"/>
<path d="M113.147 31.6208C115.419 31.6208 117.26 29.7813 117.26 27.5121C117.26 25.2429 115.419 23.4033 113.147 23.4033C110.875 23.4033 109.033 25.2429 109.033 27.5121C109.033 29.7813 110.875 31.6208 113.147 31.6208Z" fill="#FFD3C0"/>
<path d="M114.362 25.8125C118.505 29.7377 121.356 35.2673 121.522 41.016C121.421 40.3825 121.35 39.5122 121.196 38.9024C120.241 34.0063 117.699 29.4891 114.362 25.8125Z" fill="#786659"/>
<path d="M113.787 27.9268C116.798 32.3848 117.883 38.2933 116.111 43.4263L116.324 42.4376C117.355 37.5118 116.229 32.2842 113.787 27.9268Z" fill="#786659"/>
<path d="M111.95 27.7783C113.034 31.597 112.892 35.8655 111.268 39.5125C112.483 35.7353 112.614 31.6798 111.95 27.7783Z" fill="#786659"/>
<path d="M102.164 117.135C102.046 117.135 101.933 117.064 101.886 116.945C101.856 116.868 101.163 115.051 101.826 113.672C102.129 113.044 102.656 112.612 103.391 112.387C103.551 112.339 103.711 112.428 103.764 112.582C103.812 112.736 103.723 112.902 103.569 112.955C102.988 113.133 102.591 113.452 102.36 113.932C101.803 115.081 102.431 116.72 102.437 116.738C102.496 116.892 102.419 117.064 102.265 117.123C102.229 117.135 102.194 117.141 102.158 117.141L102.164 117.135Z" fill="#786659"/>
<path d="M150.487 56.7411C149.74 55.2669 148.899 53.775 147.95 52.2949C141.271 55.8649 136.778 59.1093 137.288 60.1749C137.803 61.2584 143.327 59.7605 150.487 56.7411Z" fill="#8F8F8F"/>
<path d="M142.373 66.7344C142.841 67.7172 147.417 66.5805 153.599 64.1117C153.101 62.6731 152.508 61.1279 151.803 59.5234C145.811 62.8211 141.899 65.7339 142.373 66.7344Z" fill="#8F8F8F"/>
<path d="M142.373 66.7344C142.841 67.7172 147.417 66.5805 153.599 64.1117C153.101 62.6731 152.508 61.1279 151.803 59.5234C145.811 62.8211 141.899 65.7339 142.373 66.7344Z" fill="#8F8F8F"/>
<path d="M148.525 72.88C148.881 73.6319 151.649 73.1405 155.691 71.7669C155.495 70.7842 155.169 69.3277 154.671 67.5635C150.588 70.0441 148.14 72.0807 148.519 72.8859L148.525 72.88Z" fill="#8F8F8F"/>
<path d="M130.418 120C117.995 120 108.761 118.277 108.595 118.241C103.498 117.999 100.41 116.809 99.4553 114.713C98.5011 112.617 100.036 110.403 100.327 110.012C101.802 103.056 99.7754 83.998 99.7576 83.8026C95.1701 58.5167 101.672 42.0877 102.448 40.2642C101.31 38.8196 92.9119 27.7012 96.2547 18.9272C98.1099 14.0606 103.266 10.8755 111.588 9.46644C111.843 8.235 113.461 2.10742 120.449 0.674688C120.508 0.662847 120.567 0.674688 120.621 0.692449C120.793 0.763494 124.853 2.51 126.85 10.3841C126.892 10.5439 126.797 10.7038 126.637 10.7452C126.477 10.7867 126.317 10.692 126.275 10.5321C124.509 3.55791 121.03 1.56274 120.473 1.27857C113.236 2.82378 112.145 9.70325 112.133 9.7743C112.115 9.89863 112.015 10.0052 111.89 10.023C103.675 11.3787 98.6018 14.4455 96.8119 19.1403C93.4275 28.0209 102.929 39.9149 103.023 40.0333C103.095 40.1221 103.112 40.2405 103.065 40.3412C102.988 40.5069 95.5376 57.1787 100.35 83.7197C100.439 84.5308 102.419 103.204 100.902 110.202C100.89 110.243 100.872 110.284 100.842 110.32C100.824 110.344 99.1234 112.534 100.007 114.464C100.854 116.317 103.847 117.418 108.678 117.649C109.022 117.715 139.433 123.386 164.285 113.955C164.398 113.931 170.68 112.741 177.123 107.49C183.068 102.647 190.37 93.2515 191.407 75.9996C191.52 74.1346 190.915 72.3408 189.754 71.0679C188.847 70.0792 187.507 69.1556 184.449 69.7891C180.656 70.5765 180.347 75.2773 180.501 78.0066C180.709 81.6713 180.134 85.0755 178.8 88.1423C176.815 92.6891 173.537 96.7623 169.056 100.249C168.813 100.439 168.487 100.468 168.215 100.332C167.936 100.196 167.764 99.9179 167.77 99.61C167.829 94.4178 167.136 77.1955 155.869 73.442C155.762 73.4064 155.685 73.3117 155.667 73.1992C155.638 73.0039 152.769 53.6383 139.113 42.6975C138.983 42.5968 138.965 42.4074 139.066 42.2831C139.166 42.1587 139.356 42.135 139.481 42.2357C152.609 52.7562 155.898 70.9258 156.224 72.9387C167.705 76.9291 168.416 94.3527 168.357 99.6159C168.357 99.7284 168.44 99.7817 168.47 99.7995C168.505 99.8172 168.594 99.8527 168.689 99.7817C173.093 96.3538 176.311 92.3576 178.255 87.9054C179.553 84.9275 180.11 81.6121 179.909 78.0421C179.743 75.1234 180.098 70.091 184.33 69.2089C186.956 68.6642 188.764 69.1142 190.192 70.6712C191.466 72.0566 192.124 74.0162 192 76.0351C190.945 93.5179 183.518 103.05 177.473 107.97C170.912 113.304 164.504 114.512 164.439 114.523C153.142 118.81 140.696 119.988 130.43 119.988L130.418 120Z" fill="#786659"/>
<path d="M94.3996 10.7874C94.3996 10.7874 90.6715 3.2389 96.9186 0.75826C98.2462 0.231347 99.728 0.112939 101.056 0.628012C102.502 1.19045 104.161 2.57581 104.997 5.8557C106.669 12.4096 100.291 13.339 100.291 13.339C100.291 13.339 93.4335 18.8154 90.144 14.5409C89.7706 14.0554 89.4327 12.7944 89.7469 11.8767C90.0906 10.8821 91.1931 9.97628 94.3996 10.7814V10.7874Z" fill="#FFEA92"/>
<path d="M93.5284 16.4705C93.3091 16.4705 93.0958 16.4587 92.8824 16.435C91.6673 16.287 90.6657 15.7127 89.907 14.7299C89.4981 14.1971 89.1009 12.8413 89.4625 11.7934C89.8063 10.787 90.8613 9.76274 93.89 10.3785C93.404 9.17662 92.4438 6.24604 93.4099 3.72988C93.9789 2.24979 95.1228 1.16636 96.8061 0.497356C98.3056 -0.0946807 99.8526 -0.142044 101.162 0.367108C102.549 0.905862 104.387 2.29123 105.282 5.79609C105.809 7.86822 105.614 9.62065 104.695 10.9942C103.344 13.0189 100.896 13.5459 100.416 13.6347C99.9059 14.0254 96.6164 16.4824 93.5284 16.4824V16.4705ZM92.2363 10.7751C91.2169 10.7751 90.3338 11.0711 90.0196 11.977C89.747 12.7762 90.0493 13.9425 90.3752 14.3629C91.0331 15.2154 91.8985 15.7186 92.9535 15.843C96.1482 16.2219 100.066 13.1373 100.107 13.1077C100.149 13.0781 100.196 13.0545 100.25 13.0485C100.273 13.0485 102.881 12.64 104.209 10.6508C105.027 9.41935 105.199 7.8327 104.713 5.92634C104.043 3.30361 102.781 1.61631 100.955 0.899942C99.7814 0.444073 98.3886 0.485516 97.0313 1.03019C95.5081 1.63407 94.4767 2.61093 93.967 3.92525C92.829 6.8736 94.6486 10.6153 94.6664 10.6508C94.7198 10.7514 94.702 10.8758 94.6309 10.9705C94.5597 11.0593 94.4412 11.0948 94.3286 11.0711C93.6588 10.9054 92.9179 10.7751 92.2423 10.7751H92.2363Z" fill="#786659"/>
<path d="M136.138 18.0746C137.874 15.5585 141.525 14.925 144.252 16.0854C144.637 16.263 145.016 16.4465 145.384 16.6537C144.969 16.5768 144.572 16.4465 144.169 16.3636C141.389 15.7124 138.36 16.1979 136.138 18.0746Z" fill="#786659"/>
</g>
<defs>
<clipPath id="clip0_1888_350">
<rect width="192" height="120" fill="white"/>
</clipPath>
</defs>
</svg>
