<svg width="290" height="180" viewBox="0 0 290 180" fill="none" xmlns="http://www.w3.org/2000/svg">
<g clip-path="url(#clip0_1873_2489)">
<path d="M12.3968 128.792H194.147V170.7H12.3968C9.50387 170.7 7.1499 168.331 7.1499 165.419V134.073C7.1499 131.161 9.50387 128.792 12.3968 128.792Z" fill="#7DD1AC"/>
<path d="M194.697 171.254H12.3968C9.19582 171.254 6.59985 168.641 6.59985 165.419V134.073C6.59985 130.851 9.19582 128.238 12.3968 128.238H194.697V171.254ZM12.3968 129.346C9.81181 129.346 7.69984 131.471 7.69984 134.073V165.419C7.69984 168.021 9.81181 170.147 12.3968 170.147H193.597V129.346H12.3968Z" fill="#60B28D"/>
<path d="M196.347 133.243H103.948V166.25H196.347V133.243Z" fill="#FFFEF8"/>
<path d="M103.949 166.249V133.243H200.747V128.792H102.596C99.7026 128.792 97.3486 131.161 97.3486 134.073V165.419C97.3486 168.331 99.7026 170.7 102.596 170.7H200.747V166.249H103.949Z" fill="#99E0BE"/>
<path d="M201.297 171.254H102.595C99.3945 171.254 96.7986 168.641 96.7986 165.419V134.073C96.7986 130.851 99.3945 128.238 102.595 128.238H201.297V133.797H104.498V165.696H201.297V171.254ZM102.595 129.346C100.011 129.346 97.8986 131.471 97.8986 134.073V165.419C97.8986 168.021 100.011 170.147 102.595 170.147H200.197V166.803H103.398V132.689H200.197V129.346H102.595Z" fill="#60A582"/>
<path d="M2.75 96.6055H167.385C170.619 96.6055 173.248 99.2517 173.248 102.507V121.706C173.248 124.961 170.619 127.608 167.385 127.608H2.75V96.6055Z" fill="#FEC28D"/>
<path d="M167.385 128.161H2.19995V96.0518H167.385C170.916 96.0518 173.798 98.9416 173.798 102.507V121.706C173.798 125.26 170.927 128.161 167.385 128.161ZM3.29994 127.054H167.385C170.311 127.054 172.698 124.651 172.698 121.706V102.507C172.698 99.5617 170.311 97.159 167.385 97.159H3.29994V127.054Z" fill="#F9A769"/>
<path d="M89.6488 101.034H1.93604V123.179H89.6488V101.034Z" fill="#FFFEF8"/>
<path d="M89.2858 96.6055H0.550049V101.034H89.6488V123.179H0.550049V127.608H89.2858C92.5198 127.608 95.1487 124.961 95.1487 121.706V102.507C95.1487 99.2517 92.5198 96.6055 89.2858 96.6055Z" fill="#F9CBA5"/>
<path d="M89.2858 128.161H0V122.625H89.0988V101.588H0V96.0518H89.2858C92.8167 96.0518 95.6987 98.9416 95.6987 102.507V121.706C95.6987 125.26 92.8277 128.161 89.2858 128.161ZM1.09998 127.054H89.2858C92.2117 127.054 94.5987 124.651 94.5987 121.706V102.507C94.5987 99.5617 92.2117 97.159 89.2858 97.159H1.09998V100.481H90.1988V123.732H1.09998V127.054Z" fill="#F9A769"/>
<path d="M18.6997 71.0508H184.434C187.668 71.0508 190.297 73.697 190.297 76.9523V89.5082C190.297 92.7634 187.668 95.4097 184.434 95.4097H18.6997V71.0508Z" fill="#7DD1AC"/>
<path d="M184.434 95.9632H18.1497V70.4971H184.434C187.965 70.4971 190.847 73.3869 190.847 76.9522V89.5081C190.847 93.0623 187.976 95.9632 184.434 95.9632ZM19.2496 94.856H184.434C187.36 94.856 189.747 92.4533 189.747 89.5081V76.9522C189.747 74.007 187.36 71.6043 184.434 71.6043H19.2496V94.856Z" fill="#60B28D"/>
<path d="M106.05 74.5273H16.4998V91.9218H106.05V74.5273Z" fill="#FFFEF8"/>
<path d="M106.061 71.0505H13.2V74.5271H106.446V91.9216H13.2V95.3983H106.061C109.449 95.3983 112.199 93.3278 112.199 90.759V75.6676C112.199 73.1099 109.449 71.0283 106.061 71.0283V71.0505Z" fill="#99E0BE"/>
<path d="M106.061 95.9629H12.6499V91.379H105.896V75.0917H12.6499V70.5078H106.061C109.746 70.5078 112.749 72.833 112.749 75.7007V90.7922C112.749 93.6488 109.746 95.985 106.061 95.985V95.9629ZM13.7499 94.8557H106.061C109.141 94.8557 111.649 93.0287 111.649 90.77V75.6785C111.649 73.4309 109.141 71.5929 106.061 71.5929H13.7499V73.9624H106.996V92.4641H13.7499V94.8335V94.8557Z" fill="#6B9980"/>
<path d="M189.198 69.9424L23.4628 69.9424C20.2289 69.9424 17.5999 67.2961 17.5999 64.0409V51.485C17.5999 48.2297 20.2289 45.5835 23.4628 45.5835L189.198 45.5835V69.9424Z" fill="#FFDF90"/>
<path d="M189.747 70.4964H23.4627C19.9318 70.4964 17.0498 67.5955 17.0498 64.0413V51.4854C17.0498 47.9312 19.9208 45.0303 23.4627 45.0303H189.747V70.4964ZM23.4627 46.1375C20.5368 46.1375 18.1498 48.5402 18.1498 51.4854V64.0413C18.1498 66.9865 20.5368 69.3892 23.4627 69.3892H188.647V46.1375H23.4627Z" fill="#F7C75C"/>
<path d="M98.9986 66.4668L191.925 66.4668V49.0723L98.9986 49.0723V66.4668Z" fill="#FFFEF8"/>
<path d="M99.7687 69.9435H194.697V66.4669H99.3837V49.0724H194.697V45.5957H99.7687C96.3037 45.5957 93.4988 47.6662 93.4988 50.235V65.3264C93.4988 67.8841 96.3037 69.9657 99.7687 69.9657V69.9435Z" fill="#F9E2AF"/>
<path d="M195.247 70.4967H99.7686C96.0067 70.4967 92.9487 68.1716 92.9487 65.3039V50.2124C92.9487 47.3558 96.0067 45.0195 99.7686 45.0195H195.247V49.6034H99.9336V65.8907H195.247V70.4746V70.4967ZM99.7686 46.1378C96.6117 46.1378 94.0487 47.9647 94.0487 50.2235V65.3149C94.0487 67.5626 96.6117 69.4006 99.7686 69.4006H194.147V67.0311H98.8336V48.5294H194.147V46.16H99.7686V46.1378Z" fill="#F7C75C"/>
<path d="M196.963 162.474H104.564V163.581H196.963V162.474Z" fill="#FFEFD9"/>
<path d="M196.963 155.83H104.564V156.937H196.963V155.83Z" fill="#FFEFD9"/>
<path d="M196.963 149.188H104.564V150.295H196.963V149.188Z" fill="#FFEFD9"/>
<path d="M196.963 142.544H104.564V143.651H196.963V142.544Z" fill="#FFEFD9"/>
<path d="M196.963 135.9H104.564V137.008H196.963V135.9Z" fill="#FFEFD9"/>
<path d="M89.0218 118.196H1.93604V119.304H89.0218V118.196Z" fill="#FFEFD9"/>
<path d="M89.0218 111.553H1.93604V112.66H89.0218V111.553Z" fill="#FFEFD9"/>
<path d="M89.0218 104.909H1.93604V106.016H89.0218V104.909Z" fill="#FFEFD9"/>
<path d="M105.808 89.3193H16.4998V90.4266H105.808V89.3193Z" fill="#FFEFD9"/>
<path d="M105.808 82.6758H16.4998V83.783H105.808V82.6758Z" fill="#FFEFD9"/>
<path d="M105.808 76.0332H16.4998V77.1404H105.808V76.0332Z" fill="#FFEFD9"/>
<path d="M191.925 63.8535H99.9666V64.9607H191.925V63.8535Z" fill="#FFEFD9"/>
<path d="M191.936 57.21H100.044V58.3172H191.936V57.21Z" fill="#FFEFD9"/>
<path d="M191.925 50.5664H99.9666V51.6736H191.925V50.5664Z" fill="#FFEFD9"/>
<path d="M21.9446 105.463V114.93L29.6555 111.852L36.4534 114.93V105.463H21.9446Z" fill="#FFB573"/>
<path d="M39.8303 106.016H22.4946C22.1866 106.016 21.9446 105.773 21.9446 105.463C21.9446 105.153 22.1866 104.909 22.4946 104.909H39.8303C40.1383 104.909 40.3803 105.153 40.3803 105.463C40.3803 105.773 40.1383 106.016 39.8303 106.016Z" fill="#F9A769"/>
<path d="M120.833 143.319H127.246V153.417L124.034 156.174L120.833 153.417V143.319Z" fill="#60B28D"/>
<path d="M129.556 143.873H121.383C121.075 143.873 120.833 143.629 120.833 143.319C120.833 143.009 121.075 142.766 121.383 142.766H129.556C129.864 142.766 130.106 143.009 130.106 143.319C130.106 143.629 129.864 143.873 129.556 143.873Z" fill="#60A582"/>
<path d="M247.188 144.094C247.188 144.094 271.234 139.145 270.783 115.506C270.684 110.346 269.309 105.275 266.988 100.669C263.732 94.2138 258.529 80.7168 268.946 75.7343C268.946 75.7343 284.027 69.567 288.735 95.6532C293.443 121.739 274.358 139.765 274.358 139.765C274.358 139.765 261.477 153.838 240.698 155.454" fill="#FFEED4"/>
<path d="M269.705 105.474C270.233 105.33 270.772 105.164 271.311 104.987C277.053 103.138 281.442 100.525 281.101 99.1519C280.76 97.7789 275.832 98.1554 270.079 100.004C269.188 100.292 268.341 100.591 267.538 100.912C268.242 102.551 268.979 104.079 269.705 105.485V105.474Z" fill="#D4A980"/>
<path d="M265.47 98.333C266.405 98.1005 267.373 97.8236 268.374 97.5026C274.116 95.6535 278.505 93.0404 278.164 91.6675C277.823 90.2945 272.895 90.671 267.142 92.52C266.031 92.8744 264.986 93.2619 263.996 93.6605C264.436 95.277 264.931 96.8382 265.47 98.333Z" fill="#D4A980"/>
<path d="M276.382 83.4624C276.041 82.0894 271.113 82.4659 265.36 84.315C264.722 84.5143 264.128 84.7357 263.534 84.9572C263.336 86.1862 263.325 87.4706 263.435 88.766C263.512 89.22 263.578 89.6739 263.666 90.1279C264.601 89.8954 265.58 89.6186 266.581 89.2975C272.323 87.4484 276.712 84.8354 276.371 83.4624H276.382Z" fill="#D4A980"/>
<path d="M240.698 155.997C240.423 155.997 240.192 155.787 240.17 155.499C240.148 155.2 240.368 154.945 240.665 154.923C260.971 153.34 273.841 139.533 273.962 139.4C274.182 139.189 292.805 121.241 288.196 95.7531C286.447 86.0538 283.081 79.7537 278.219 77.0521C273.588 74.4833 269.177 76.2106 269.133 76.2328C266.537 77.4728 264.777 79.3883 263.919 81.9239C261.884 87.914 265.261 96.0853 267.45 100.426C269.87 105.231 271.212 110.435 271.311 115.495C271.773 139.3 247.54 144.571 247.287 144.615C247.001 144.67 246.715 144.482 246.66 144.194C246.605 143.906 246.792 143.618 247.078 143.563C247.32 143.519 270.684 138.414 270.244 115.517C270.145 110.623 268.858 105.574 266.504 100.913C264.238 96.4285 260.751 87.9361 262.907 81.5696C263.864 78.7572 265.811 76.6314 268.704 75.2473C268.924 75.1587 273.632 73.2875 278.714 76.0999C283.895 78.9676 287.437 85.5113 289.252 95.5649C293.96 121.64 274.908 139.987 274.721 140.164C274.622 140.275 261.477 154.392 240.742 156.008C240.731 156.008 240.709 156.008 240.698 156.008V155.997Z" fill="#786659"/>
<path d="M190.88 172.041C121.064 162.519 181.178 76.3213 181.178 76.3213L241.083 79.6983C241.083 79.6983 289.483 168.365 219.634 173.812" fill="white"/>
<path d="M178.329 134.991C179.57 121.043 176.005 109.324 170.366 108.816C164.726 108.307 159.148 119.202 157.907 133.149C156.665 147.097 160.231 158.816 165.87 159.324C171.509 159.833 177.087 148.938 178.329 134.991Z" fill="#FFEED4"/>
<path d="M251.269 133.044C253.48 132.49 254.866 129.479 255.383 125.017C253.458 108.453 246.88 92.2207 243.36 84.448C241.798 83.0308 240.269 82.3775 238.894 82.7208C234.198 83.8944 233.153 96.1071 236.573 110.003C239.994 123.898 246.572 134.218 251.28 133.044H251.269Z" fill="#FFEED4"/>
<path d="M219.623 174.344C219.337 174.344 219.106 174.122 219.084 173.834C219.073 173.535 219.293 173.281 219.59 173.27C235.452 172.484 246.374 166.992 252.028 156.96C266.405 131.472 242.777 84.2157 240.731 80.2186L181.431 76.8748C178.879 80.6947 148.542 127.01 160.433 153.461C164.987 163.593 175.249 169.66 190.924 171.498C191.221 171.531 191.43 171.797 191.397 172.096C191.364 172.395 191.1 172.605 190.803 172.572C174.721 170.679 164.184 164.401 159.465 153.904C146.87 125.881 179.33 78.0374 180.716 76.0112L180.892 75.7676L241.402 79.1778L241.545 79.4436C241.809 79.9529 268.198 130.475 252.963 157.481C247.111 167.866 235.903 173.535 219.645 174.344H219.623Z" fill="#786659"/>
<path d="M191.177 170.845C191.034 170.9 190.649 174.211 190.649 174.211L191.672 176.624L193.707 177.776L194.983 177.986L196.853 179.038L199.636 178.429L202.419 178.108L204.19 176.624L204.751 173.391V172.129L191.177 170.856V170.845Z" fill="white"/>
<path d="M218.611 170.845C218.754 170.9 219.139 174.211 219.139 174.211L218.116 176.624L216.081 177.776L214.805 177.986L212.935 179.038L210.152 178.429L207.369 178.108L205.598 176.624L205.037 173.391V172.129L218.611 170.856V170.845Z" fill="white"/>
<path d="M194.763 178.529C194.763 178.529 194.719 178.529 194.697 178.529C192.86 178.285 191.54 177.555 190.792 176.348C189.824 174.798 190.11 172.937 190.286 172.196C181.585 163.172 174.887 134.295 174.601 133.066C174.535 132.778 174.711 132.491 174.997 132.424C175.283 132.358 175.569 132.535 175.635 132.823C175.701 133.122 182.663 163.116 191.254 171.653C191.397 171.797 191.452 172.007 191.386 172.207C191.386 172.229 190.748 174.266 191.694 175.783C192.266 176.691 193.322 177.256 194.829 177.466C195.126 177.51 195.324 177.776 195.291 178.075C195.258 178.352 195.027 178.54 194.763 178.54V178.529Z" fill="#786659"/>
<path d="M197.337 179.569C196.27 179.569 195.434 179.237 194.862 178.584C193.509 177.045 194.213 174.321 194.246 174.21C194.323 173.923 194.62 173.756 194.895 173.823C195.181 173.9 195.346 174.199 195.28 174.476C195.115 175.107 194.862 176.945 195.665 177.864C196.127 178.396 196.93 178.584 198.052 178.429C198.096 178.429 198.701 178.34 199.119 177.72C199.603 177.012 199.658 175.838 199.284 174.321C199.207 174.033 199.383 173.745 199.669 173.668C199.955 173.601 200.241 173.768 200.318 174.055C200.78 175.916 200.67 177.366 199.977 178.351C199.273 179.37 198.217 179.481 198.173 179.492C197.876 179.536 197.601 179.558 197.337 179.558V179.569Z" fill="#786659"/>
<path d="M200.483 179.017C200.076 179.017 199.647 178.983 199.185 178.906C198.888 178.862 198.69 178.585 198.734 178.297C198.778 177.998 199.053 177.799 199.35 177.843C200.945 178.098 202.177 177.843 203.002 177.09C204.311 175.905 204.223 173.79 204.223 173.768V133.565C204.223 133.266 204.465 133.022 204.762 133.022C205.059 133.022 205.301 133.266 205.301 133.565V173.735C205.301 173.813 205.422 176.337 203.739 177.876C202.914 178.629 201.836 179.005 200.494 179.005L200.483 179.017Z" fill="#786659"/>
<path d="M214.805 178.529C214.541 178.529 214.31 178.329 214.277 178.064C214.233 177.765 214.442 177.499 214.739 177.455C216.246 177.255 217.302 176.691 217.874 175.772C218.831 174.244 218.182 172.229 218.182 172.207C218.116 172.007 218.182 171.786 218.325 171.642C231.03 159.806 235.419 133.753 235.463 133.487C235.507 133.199 235.782 132.989 236.079 133.044C236.365 133.088 236.563 133.365 236.519 133.664C236.475 133.93 232.075 160.027 219.282 172.207C219.458 172.959 219.733 174.797 218.776 176.336C218.028 177.532 216.708 178.274 214.871 178.518C214.849 178.518 214.827 178.518 214.805 178.518V178.529Z" fill="#786659"/>
<path d="M212.22 179.57C211.956 179.57 211.67 179.548 211.373 179.503C211.351 179.503 210.295 179.382 209.58 178.363C208.887 177.377 208.777 175.927 209.239 174.067C209.305 173.779 209.602 173.602 209.888 173.679C210.174 173.757 210.35 174.045 210.273 174.333C209.899 175.861 209.954 177.034 210.449 177.743C210.878 178.352 211.483 178.429 211.494 178.429C212.627 178.584 213.43 178.396 213.892 177.865C214.695 176.946 214.442 175.108 214.277 174.477C214.2 174.189 214.376 173.89 214.662 173.823C214.948 173.746 215.245 173.923 215.311 174.211C215.344 174.322 216.037 177.045 214.695 178.584C214.123 179.238 213.287 179.57 212.22 179.57Z" fill="#786659"/>
<path d="M209.074 179.016C207.743 179.016 206.654 178.639 205.829 177.887C204.135 176.347 204.256 173.823 204.267 173.723V133.586C204.267 133.288 204.509 133.044 204.806 133.044C205.103 133.044 205.345 133.288 205.345 133.586V173.757C205.345 173.757 205.257 175.916 206.566 177.1C207.391 177.842 208.623 178.097 210.218 177.853C210.515 177.809 210.779 178.008 210.834 178.307C210.878 178.595 210.68 178.872 210.383 178.916C209.932 178.983 209.492 179.027 209.085 179.027L209.074 179.016Z" fill="#786659"/>
<path d="M228.456 81.957C263.171 81.9792 257.583 37.956 257.583 37.956C265.756 32.7299 267.626 25.0568 268 20.7608C268.176 18.7013 267.087 16.6862 265.173 15.9111C257.594 12.833 245.956 15.6454 245.956 15.6454C226.432 -2.46878 192.86 4.82782 192.86 4.82782C181.013 -2.45771 173.115 1.29578 173.115 1.29578C164.557 5.27071 169.606 26.9169 169.606 26.9169C169.606 26.9169 151.611 63.3557 184.522 77.7164" fill="white"/>
<path d="M193.047 5.06024C181.2 -2.22529 173.303 1.5282 173.303 1.5282C164.745 5.50313 169.794 27.1494 169.794 27.1494C169.794 27.1494 166.142 34.5788 165.141 44.0345C166.45 45.4518 167.935 46.714 169.607 47.7769C182.41 55.9482 200.802 49.8474 210.691 34.1581C216.917 24.2706 218.27 12.9326 215.212 3.85337C203.002 2.90116 193.047 5.04917 193.047 5.04917V5.06024Z" fill="#FFEED4"/>
<path d="M204.971 3.69795C204.861 4.30693 204.762 4.92697 204.674 5.56916C203.728 12.3011 204.19 18.0033 205.708 18.3022C207.226 18.6012 209.228 13.3862 210.174 6.65424C210.317 5.61345 210.427 4.60588 210.515 3.63152C208.568 3.58723 206.709 3.60937 204.982 3.69795H204.971Z" fill="#D4A980"/>
<path d="M214.761 3.87533C214.541 4.93826 214.343 6.05656 214.178 7.21915C213.232 13.9511 213.694 19.6533 215.212 19.9522C216.73 20.2512 218.732 15.0361 219.678 8.30423C219.865 7.00877 219.986 5.74654 220.074 4.56181C218.27 4.25179 216.499 4.01927 214.772 3.86426L214.761 3.87533Z" fill="#D4A980"/>
<path d="M229.204 6.98698C227.466 6.34479 225.717 5.8244 223.968 5.39258C223.748 6.45551 223.55 7.58488 223.385 8.75854C222.439 15.4905 222.901 21.1927 224.419 21.4916C225.937 21.7906 227.939 16.5755 228.885 9.84362C229.028 8.85819 229.127 7.90598 229.204 6.98698Z" fill="#D4A980"/>
<path d="M228.456 82.7209C228.17 82.7209 227.939 82.4994 227.917 82.2115C227.906 81.9126 228.126 81.6579 228.423 81.6469C237.685 81.1818 244.879 77.8601 249.796 71.8036C260.069 59.137 257.077 38.4762 257.044 38.2769L256.989 37.9337L257.286 37.7454C265.327 32.6079 267.109 25.0234 267.45 20.9599C267.615 19.0887 266.581 17.3172 264.953 16.6528C257.616 13.6744 246.177 16.3871 246.067 16.4092L245.792 16.4757L245.583 16.2764C226.487 -1.43921 193.289 5.51415 192.959 5.58059L192.75 5.62487L192.563 5.51415C181.134 -1.51672 173.402 1.97104 173.325 2.00425C165.251 5.75774 170.058 26.8061 170.113 27.0164L170.157 27.2047L170.069 27.3818C169.981 27.559 161.599 44.8538 167.099 59.9674C169.904 67.6848 175.833 73.5641 184.731 77.4505C185.006 77.5723 185.127 77.8823 185.006 78.1591C184.885 78.4359 184.577 78.5577 184.302 78.4359C175.129 74.4277 169.002 68.338 166.087 60.3328C160.741 45.6067 168.144 28.9762 169.024 27.0829C168.507 24.802 164.349 4.99376 172.874 1.04097C173.204 0.885957 181.09 -2.71252 192.948 4.49551C195.841 3.91975 227.378 -1.8046 246.1 15.302C247.97 14.8813 258.276 12.7775 265.36 15.6563C267.417 16.4978 268.715 18.7123 268.517 21.0485C268.154 25.2559 266.328 33.084 258.144 38.4651C258.496 41.2775 260.443 60.366 250.621 72.4901C245.506 78.8013 238.048 82.2558 228.467 82.7319H228.445L228.456 82.7209Z" fill="#786659"/>
<path d="M217.049 46.3158C219.997 43.7138 225.31 42.7727 228.181 45.9504C224.54 44.2342 220.767 45.1532 217.049 46.3158Z" fill="#786659"/>
<path d="M250.532 23.639C253.535 20.0405 259.178 19.5644 263.171 21.646C258.848 21.1145 254.371 21.3692 250.532 23.639Z" fill="#786659"/>
<path d="M186.799 12.3348C183.664 9.13488 179.418 7.72871 175.106 7.10866C179.506 6.13431 184.83 8.07195 186.799 12.3348Z" fill="#786659"/>
<path d="M212.429 53.911C212.341 55.4279 210.471 57.4652 208.238 57.3324C206.016 57.1995 204.278 54.9408 204.366 53.4239C204.454 51.907 206.335 50.7776 208.557 50.9215C210.779 51.0655 212.517 52.3942 212.418 53.911H212.429Z" fill="#786659"/>
<path d="M207.71 60.8094C207.71 60.8094 207.666 60.8094 207.644 60.8094C207.347 60.7762 207.138 60.4994 207.182 60.2115L207.875 54.6311C207.908 54.3321 208.172 54.1218 208.469 54.166C208.766 54.1993 208.975 54.4761 208.931 54.7639L208.238 60.3444C208.205 60.6212 207.974 60.8205 207.71 60.8205V60.8094Z" fill="#786659"/>
<path d="M179.286 59.6794C183.436 59.6794 186.799 56.2936 186.799 52.117C186.799 47.9405 183.436 44.5547 179.286 44.5547C175.137 44.5547 171.773 47.9405 171.773 52.117C171.773 56.2936 175.137 59.6794 179.286 59.6794Z" fill="#FFD3C0"/>
<path d="M237.564 68.4157C241.713 68.4157 245.077 65.0299 245.077 60.8534C245.077 56.6768 241.713 53.291 237.564 53.291C233.414 53.291 230.051 56.6768 230.051 60.8534C230.051 65.0299 233.414 68.4157 237.564 68.4157Z" fill="#FFD3C0"/>
<path d="M201.671 44.1012C198.393 41.9864 194.994 40.1041 191.034 40.7906C194.642 38.4876 199.515 40.8017 201.671 44.1012Z" fill="#786659"/>
<path d="M176.943 50.2791C169.684 45.6177 161.214 42.5507 152.557 42.3403C151.468 42.2518 149.939 42.3736 148.839 42.3957C158.728 41.0006 169.024 44.2891 176.932 50.2791H176.943Z" fill="#786659"/>
<path d="M173.5 51.8849C165.339 48.9619 156.066 48.5411 147.926 51.7631L146.298 52.4164C154.57 47.8657 164.987 48.0097 173.5 51.8849Z" fill="#786659"/>
<path d="M176.195 54.0771C169.331 54.0771 162.435 55.4722 156.319 58.6721C162.083 54.8079 169.353 53.3242 176.195 54.0771Z" fill="#786659"/>
<path d="M238.377 58.8493C248.145 57.1995 258.782 59.0596 266.922 64.8836C265.932 64.3522 264.667 63.5439 263.644 63.1121C255.867 59.2921 246.946 58.0742 238.366 58.8493H238.377Z" fill="#786659"/>
<path d="M240.698 61.8721C250.015 62.3703 259.343 67.076 264.601 74.9595L263.457 73.6197C257.704 66.9985 249.289 63.0568 240.709 61.8721H240.698Z" fill="#786659"/>
<path d="M237.311 62.5586C243.734 65.072 249.498 69.7556 252.853 75.8564C248.893 70.1763 243.415 65.7363 237.311 62.5586Z" fill="#786659"/>
<path d="M194.202 56.1588C193.784 56.1588 193.366 56.1367 192.948 56.1035C185.776 55.417 180.485 48.9951 181.167 41.7649C181.497 38.2661 183.158 35.1105 185.842 32.8629C188.537 30.6263 191.925 29.5744 195.401 29.8955C202.573 30.582 207.864 37.0039 207.182 44.234C206.852 47.7329 205.191 50.8885 202.507 53.1361C200.142 55.107 197.227 56.1588 194.202 56.1588ZM194.158 30.6484C191.309 30.6484 188.581 31.6338 186.359 33.4829C183.829 35.5866 182.278 38.554 181.97 41.8314C181.332 48.6076 186.293 54.6419 193.025 55.2841C196.292 55.5942 199.471 54.6087 202.001 52.505C204.531 50.4013 206.082 47.4339 206.39 44.1565C207.028 37.3803 202.067 31.346 195.335 30.7038C194.939 30.6705 194.554 30.6484 194.158 30.6484Z" fill="#786659"/>
<path d="M224.826 59.0711C224.419 59.0711 224.001 59.0489 223.594 59.0157C216.422 58.3292 211.131 51.9074 211.813 44.6772C212.143 41.1784 213.804 38.0228 216.499 35.7751C219.194 33.5385 222.582 32.4756 226.058 32.8077C233.23 33.4942 238.52 39.9161 237.838 47.1463C237.201 53.9557 231.492 59.0711 224.837 59.0711H224.826ZM224.793 33.5607C221.944 33.5607 219.216 34.5461 216.994 36.3951C214.464 38.4989 212.913 41.4662 212.605 44.7436C211.967 51.5198 216.928 57.5542 223.671 58.1964C230.403 58.8386 236.398 53.845 237.036 47.0577C237.673 40.2815 232.713 34.2471 225.97 33.6049C225.574 33.5717 225.189 33.5496 224.793 33.5496V33.5607Z" fill="#786659"/>
<path d="M212.198 45.1198C212.11 45.1198 212.011 45.0866 211.934 45.0201C209.327 42.7835 207.127 44.4444 207.039 44.5219C206.863 44.6547 206.61 44.6215 206.478 44.4554C206.346 44.2783 206.368 44.0236 206.544 43.8907C206.566 43.8686 209.327 41.7427 212.462 44.4111C212.627 44.5551 212.649 44.8097 212.506 44.9758C212.429 45.0755 212.308 45.1198 212.198 45.1198Z" fill="#786659"/>
</g>
<defs>
<clipPath id="clip0_1873_2489">
<rect width="290" height="179.57" fill="white"/>
</clipPath>
</defs>
</svg>
