<svg width="80" height="79" viewBox="0 0 80 79" fill="none" xmlns="http://www.w3.org/2000/svg">
<g clip-path="url(#clip0_2422_4416)">
<path d="M56.1805 59.4121C59.2297 59.4121 70.1388 58.4664 70.3913 44.8616C70.3913 44.7355 70.385 44.6031 70.3598 44.477C70.1388 43.172 69.0529 35.3546 75.1956 35.5627C81.8938 35.7833 79.2928 46.4314 79.2928 46.4314C79.2928 46.4314 76.0353 64.8338 56.01 63.3397C54.3244 63.2136 53.5858 61.1521 54.7916 59.9669C55.164 59.6075 55.6565 59.4058 56.1742 59.4058L56.1805 59.4121Z" fill="#FFEED4"/>
<path d="M73.9458 50.675C73.8574 51.1667 75.2021 51.8413 77.1339 52.333C77.5064 51.6206 77.822 50.9334 78.0872 50.2967C75.8271 49.9878 74.0468 50.1328 73.9458 50.675Z" fill="#D4A980"/>
<path d="M74.716 46.3813C74.615 46.9487 76.4142 47.7556 78.8258 48.2474C79.173 47.1378 79.2993 46.438 79.2993 46.438C79.2993 46.438 79.3309 46.3056 79.3751 46.0787C76.8687 45.6752 74.817 45.8013 74.716 46.3813Z" fill="#D4A980"/>
<path d="M75.4861 42.0882C75.3851 42.6618 77.2349 43.4814 79.697 43.9732C79.7664 43.2923 79.8106 42.5232 79.7917 41.7288C77.4558 41.3947 75.5871 41.5334 75.4861 42.0818L75.4861 42.0882Z" fill="#D4A980"/>
<path d="M58.2828 63.6358C56.2563 63.6358 54.1161 63.4214 51.8686 62.9927C51.7929 62.9801 51.7361 62.9234 51.7108 62.854C51.6919 62.7847 51.7108 62.7027 51.7613 62.6523L55.2462 59.2479C55.2904 59.2038 55.3472 59.1849 55.404 59.1912C55.4671 59.1912 61.6287 59.6829 65.9406 55.7805C68.6995 53.284 70.1262 49.5518 70.183 44.6849C70.101 44.2688 69.2045 39.4207 71.3636 36.8674C72.2537 35.8146 73.5416 35.304 75.1957 35.3607C76.6982 35.4111 77.8724 35.9785 78.6805 37.0377C81.0101 40.1016 79.5517 46.2231 79.4886 46.4816C79.476 46.5573 77.8914 55.0934 70.6755 60.0612C67.2222 62.4379 63.0745 63.6295 58.2828 63.6295L58.2828 63.6358ZM52.3295 62.6712C59.6149 63.9825 65.707 62.999 70.4482 59.7397C77.5252 54.8664 79.0846 46.4879 79.1035 46.406C79.1224 46.3303 80.5808 40.2025 78.3712 37.2898C77.6388 36.3316 76.5719 35.8146 75.1957 35.7705C73.6805 35.7201 72.4936 36.1803 71.6856 37.1322C69.6022 39.5909 70.5871 44.5777 70.5934 44.6281C70.5934 44.6407 70.5934 44.6596 70.5934 44.6723C70.5366 49.6653 69.0656 53.5047 66.2184 56.0831C62.0707 59.8342 56.2815 59.6451 55.4734 59.601L52.3295 62.6712Z" fill="#786659"/>
<path d="M41.7614 34.4911C58.7437 35.4745 53.2955 12.8419 53.2955 12.8419C55.8271 10.2382 56.4394 6.23491 56.4268 4.29947C56.4205 3.37273 55.4861 2.16229 54.5897 1.90381C51.0417 0.857287 44.3498 4.41295 44.3498 4.41295C35.0758 -1.89142 22.4243 1.56338 22.4243 1.56338C16.774 -1.18533 13.7879 1.12837 13.7879 1.12837C10.101 3.27186 13.567 12.6212 13.567 12.6212C13.567 12.6212 6.34474 29.6241 21.1743 34.5919" fill="white"/>
<path d="M23.1061 1.74678C17.4559 -1.00192 14.0594 1.01548 14.0594 1.01548C10.3726 3.15896 13.5733 12.6155 13.5733 12.6155C13.5733 12.6155 12.2476 16.0892 12.2034 20.3573C12.8536 20.931 13.5796 21.4353 14.3751 21.8388C20.4925 24.9405 28.5165 21.4227 32.2981 13.9899C34.6781 9.30572 34.9811 4.50179 33.2198 0.580475C27.6769 0.681345 23.1061 1.74678 23.1061 1.74678Z" fill="#FFEED4"/>
<path d="M28.5543 0.523331C28.4974 0.863767 28.4406 1.2042 28.3901 1.56355C27.8472 5.30834 27.9608 8.49205 28.6426 8.67488C29.3245 8.86401 30.3156 5.98291 30.8586 2.23812C30.9406 1.65812 31.0101 1.09703 31.0606 0.554853C30.1767 0.498113 29.3371 0.491809 28.5543 0.517027L28.5543 0.523331Z" fill="#D4A980"/>
<path d="M33.0428 0.794355C32.9229 1.38066 32.8471 1.5824 32.7524 2.23175C32.2095 5.97654 32.3231 9.16025 33.0049 9.34307C33.6868 9.5322 34.6779 6.65111 35.2209 2.90632C35.3219 2.18762 35.4039 1.48783 35.4608 0.825876C34.6527 0.624137 33.8257 0.901529 33.0428 0.78805L33.0428 0.794355Z" fill="#D4A980"/>
<path d="M39.7474 1.85369C38.9709 1.47542 38.1123 1.64564 37.3295 1.38086C37.2096 1.96717 37.1022 2.5976 37.0076 3.24695C36.4646 6.99175 36.5783 10.1755 37.2601 10.3583C37.9419 10.5474 38.9331 7.66631 39.476 3.92152C39.5517 3.37934 39.6969 2.35804 39.7474 1.84738L39.7474 1.85369Z" fill="#D4A980"/>
<path d="M49.7917 7.5846C50.9597 5.82569 53.5228 5.35286 55.3978 6.15351C53.4155 6.1346 51.4458 6.43721 49.7917 7.5846Z" fill="#786659"/>
<path d="M20.5998 5.2645C19.0279 3.99732 17.0834 3.55602 15.1074 3.43624C17.0392 2.77428 19.5582 3.42993 20.5998 5.2645Z" fill="#786659"/>
<path d="M29.9306 25.6396C29.8612 26.2322 29.0783 26.9951 28.1945 26.8942C27.3107 26.7933 26.673 25.8666 26.7425 25.274C26.8119 24.6814 27.5821 24.2779 28.4596 24.3787C29.3372 24.4796 29.9937 25.047 29.9243 25.6396L29.9306 25.6396Z" fill="#786659"/>
<path d="M27.8282 28.0794C27.8282 28.0794 27.8093 28.0794 27.7967 28.0794C27.6704 28.0605 27.582 27.9407 27.6009 27.8147L27.9608 25.627C27.9797 25.501 28.0997 25.4127 28.2259 25.4379C28.3522 25.4568 28.4406 25.5766 28.4217 25.7027L28.0618 27.8903C28.0429 28.0101 27.9419 28.092 27.8219 28.0857L27.8282 28.0794Z" fill="#786659"/>
<path d="M17.7842 28.6976C19.66 28.6976 21.1806 27.179 21.1806 25.3058C21.1806 23.4326 19.66 21.9141 17.7842 21.9141C15.9083 21.9141 14.3877 23.4326 14.3877 25.3058C14.3877 27.179 15.9083 28.6976 17.7842 28.6976Z" fill="#FFD3C0"/>
<path d="M44.7917 30.2229C46.6675 30.2229 48.1882 28.7044 48.1882 26.8312C48.1882 24.958 46.6675 23.4395 44.7917 23.4395C42.9159 23.4395 41.3953 24.958 41.3953 26.8312C41.3953 28.7044 42.9159 30.2229 44.7917 30.2229Z" fill="#FFD3C0"/>
<path d="M32.4116 22.6641C34.0972 22.1346 35.7639 21.6806 37.4432 22.3804C36.1301 20.9556 33.6995 21.4348 32.4116 22.6641Z" fill="#786659"/>
<path d="M24.2551 21.8511C22.6011 21.2269 20.966 20.6785 19.2488 21.2837C20.644 19.9345 23.043 20.5524 24.2551 21.8511Z" fill="#786659"/>
<path d="M16.3006 24.6251C12.7905 22.967 8.88264 21.9583 4.98743 22.1727C4.42556 22.1727 3.87632 22.2798 3.31445 22.3114C7.68945 21.1387 12.5506 22.179 16.3069 24.6251L16.3006 24.6251Z" fill="#786659"/>
<path d="M14.8169 25.4885C11.2563 24.7193 7.41792 24.8265 4.02777 26.2387C3.52904 26.4089 3.0808 26.6863 2.58838 26.8944C6.05429 24.3852 10.8523 23.9943 14.8169 25.4885Z" fill="#786659"/>
<path d="M16.1237 26.3522C13.447 26.7305 10.7955 27.4429 8.39647 28.7037C8.03662 28.8613 7.72097 29.0883 7.36743 29.2648C9.72223 27.1844 13.0051 26.1883 16.1237 26.3585L16.1237 26.3522Z" fill="#786659"/>
<path d="M45.0693 25.8979C49.3938 24.7253 54.2739 25.1036 58.1817 27.3668C57.6577 27.1525 57.1653 26.8877 56.6287 26.7238C52.9607 25.3557 48.8951 25.1981 45.0693 25.8979Z" fill="#786659"/>
<path d="M46.25 27.1528C50.4672 26.9573 54.88 28.6658 57.5694 31.9693C54.6149 28.9369 50.4482 27.3293 46.25 27.1528Z" fill="#786659"/>
<path d="M44.7476 27.6064C47.7526 28.4386 50.5556 30.2858 52.317 32.8832C50.2779 30.5254 47.6263 28.7854 44.7476 27.6064Z" fill="#786659"/>
<path d="M22.3296 27.3921C22.0455 27.4173 21.7614 27.4236 21.471 27.411C19.8864 27.3354 18.4281 26.6482 17.3611 25.4819C16.2942 24.3156 15.7513 22.7962 15.827 21.2138C15.9849 17.9545 18.769 15.4264 22.0329 15.5777C25.2967 15.7354 27.8283 18.5156 27.6768 21.7749C27.601 23.3573 26.9129 24.8136 25.745 25.8791C24.7854 26.7491 23.5985 27.2723 22.3296 27.3921ZM21.2248 15.9938C18.5291 16.2523 16.3574 18.4588 16.2248 21.2328C16.1553 22.708 16.6604 24.1202 17.6579 25.2108C18.6553 26.3015 20.0127 26.9445 21.4899 27.0139C22.9672 27.0832 24.3813 26.5789 25.4735 25.5828C26.5657 24.593 27.2096 23.2312 27.2791 21.756C27.4243 18.711 25.0632 16.1199 22.0139 15.9749C21.7488 15.9623 21.4836 15.9749 21.2185 15.9938L21.2248 15.9938Z" fill="#786659"/>
<path d="M36.2312 28.0538C35.9471 28.079 35.663 28.0853 35.3726 28.0727C32.1087 27.9151 29.5771 25.1349 29.7286 21.8755C29.8865 18.6161 32.6705 16.0818 35.9344 16.2394C39.1983 16.397 41.7299 19.1772 41.5784 22.4366C41.5026 24.019 40.8145 25.4753 39.6466 26.5407C38.687 27.4107 37.5001 27.934 36.2312 28.0538ZM35.1264 16.6555C32.4307 16.914 30.2589 19.1205 30.1264 21.8944C29.9812 24.9394 32.3423 27.5305 35.3915 27.6755C36.8688 27.7449 38.2829 27.2405 39.3751 26.2444C40.4673 25.2546 41.1112 23.8929 41.1807 22.4177C41.3259 19.3727 38.9647 16.7816 35.9155 16.6366C35.6503 16.624 35.3852 16.6366 35.12 16.6555L35.1264 16.6555Z" fill="#786659"/>
<path d="M29.9494 22.0842C29.8989 22.0842 29.8484 22.0779 29.8105 22.0464C28.5984 21.1133 27.6451 21.8888 27.6073 21.9266C27.5252 21.9959 27.3989 21.9896 27.3295 21.9014C27.26 21.8131 27.2663 21.6933 27.3484 21.624C27.361 21.6114 28.5732 20.5964 30.0568 21.7312C30.1451 21.8005 30.1578 21.9203 30.0946 22.0085C30.0568 22.0527 30.0062 22.0779 29.9557 22.0842L29.9494 22.0842Z" fill="#786659"/>
<path d="M42.5695 34.7876C42.4937 34.7876 42.4116 34.7876 42.3359 34.7876C42.2222 34.7876 42.1338 34.693 42.1338 34.5858C42.1338 34.4723 42.2159 34.3967 42.3359 34.3841C46.25 34.4534 49.2235 33.2115 51.1743 30.7465C55.9722 24.688 53.1187 13.0123 53.0871 12.8988C53.0745 12.8421 53.0871 12.779 53.1187 12.7286C54.8296 10.3708 56.7424 6.94118 56.1301 4.01596C55.8839 2.84965 54.9053 1.99856 53.75 1.93552C49.7601 1.73378 44.4823 4.57074 44.4255 4.59596C44.3561 4.63378 44.274 4.62748 44.2109 4.58335C35.524 -1.73363 23.1881 1.80943 23.0619 1.84725C23.0114 1.85986 22.9609 1.85986 22.9167 1.83464C17.4306 -0.832102 14.0972 1.07812 14.0657 1.09703C10.5619 3.13334 13.6364 12.3629 13.6679 12.4575C13.6869 12.5016 13.6806 12.5521 13.6679 12.6025C13.6364 12.6845 10.2778 20.8549 13.2828 27.4052C14.798 30.7023 17.6705 33.0539 21.8182 34.3967C21.9255 34.4282 21.9823 34.548 21.9508 34.6489C21.9192 34.756 21.7993 34.8128 21.6982 34.7813C17.4369 33.4006 14.4823 30.9734 12.9167 27.5691C9.98739 21.189 12.9356 13.3464 13.2639 12.5205C12.9482 11.5686 10.2083 2.88117 13.8636 0.756598C14.0025 0.674641 17.3927 -1.2671 23.0303 1.44377C24.0909 1.15377 35.8712 -1.89124 44.3624 4.18617C45.1768 3.75748 49.9684 1.3366 53.7879 1.53834C55.1263 1.60769 56.2626 2.59117 56.5404 3.9403C57.0518 6.3864 56.0354 9.40619 53.5164 12.8988C53.7816 14.0273 56.1995 25.0788 51.5088 31.0049C49.5139 33.5267 46.5088 34.8002 42.5821 34.8002L42.5695 34.7876Z" fill="#786659"/>
<path d="M39.0342 30.9609L18.7249 30.9609L18.7249 47.3145L39.0342 47.3145L39.0342 30.9609Z" fill="white"/>
<path d="M25.8901 38.2362C25.8901 38.2362 34.1288 27.8845 59.274 29.9712L62.7967 31.5788L27.1591 40.178L25.8965 38.2362L25.8901 38.2362Z" fill="white"/>
<path d="M27.0645 40.4111L25.644 38.2298L25.7324 38.1163C25.8145 38.0092 34.3246 27.7015 59.293 29.7757L59.3625 29.7946L63.4155 31.6418L27.0708 40.4111L27.0645 40.4111ZM26.1428 38.255L27.2476 39.9509L62.1781 31.522L59.2236 30.1728C35.9155 28.2437 27.1276 37.1581 26.1428 38.255Z" fill="#786659"/>
<path d="M26.0164 38.2364C26.0164 38.2364 23.3523 32.8588 9.14144 27.084L4.55811 27.084L21.9255 40.1782L25.5808 40.1782L26.0164 38.2364Z" fill="white"/>
<path d="M25.7449 40.3795L21.8623 40.3795L21.8055 40.3417L3.95825 26.8818L9.21709 26.8944C23.3332 32.6314 26.0858 37.9208 26.1994 38.1477L26.231 38.2108L25.7449 40.3795ZM21.9949 39.976L25.4229 39.976L25.808 38.2675C25.4608 37.6686 22.2285 32.6251 9.10977 27.2853L5.17037 27.2853L22.0012 39.976L21.9949 39.976Z" fill="#786659"/>
<path d="M29.2296 78.742C29.2296 78.742 25.164 79.0887 23.1879 77.9287C21.2119 76.7687 3.89502 65.1624 3.89502 65.1624L3.89502 27.084C13.6551 30.3118 23.3079 38.2364 23.3079 38.2364L28.8887 38.2364C43.4152 30.4631 63.9897 31.6231 63.9897 31.6231L63.9897 72.3115C63.9897 72.3115 44.1791 74.6 29.2359 78.7483L29.2296 78.742Z" fill="#9AD8BA"/>
<path d="M27.8219 79.0001C26.433 79.0001 24.3623 78.8614 23.0807 78.1112C21.1236 76.9638 3.95192 65.452 3.77515 65.3385C3.71833 65.3007 3.68677 65.2377 3.68677 65.1683L3.68677 27.0899C3.68677 27.0269 3.71833 26.9639 3.76884 26.926C3.81934 26.8882 3.88879 26.8756 3.95192 26.9008C13.2512 29.9773 22.5567 37.385 23.3711 38.0406L28.8257 38.0406C43.2385 30.3493 63.7815 31.4084 63.9898 31.4274C64.0971 31.4274 64.1792 31.5219 64.1792 31.6291L64.1792 72.3175C64.1792 72.4183 64.1034 72.5066 64.0024 72.5192C63.8067 72.5444 44.034 74.8581 29.2802 78.9497C29.2676 78.9497 29.2549 78.9497 29.2423 78.956C29.1792 78.956 28.611 79.0064 27.8156 79.0064L27.8219 79.0001ZM4.09081 65.0548C5.44182 65.9564 21.4077 76.6549 23.2827 77.7581C25.1135 78.8362 28.8951 78.5651 29.1855 78.5462C43.2196 74.6564 61.7486 72.3742 63.7688 72.1283L63.7688 31.8119C61.6539 31.7237 42.5378 31.15 28.9645 38.4126C28.933 38.4315 28.9014 38.4378 28.8698 38.4378L23.289 38.4378C23.2448 38.4378 23.1943 38.4189 23.1628 38.3937C23.0681 38.318 13.6047 30.6015 4.08449 27.3673L4.08449 65.0611L4.09081 65.0548Z" fill="#786659"/>
<path d="M23.3019 78.1368C23.1882 78.1368 23.0999 78.0485 23.0999 77.935L23.0999 38.2428C23.0999 38.1293 23.1882 38.041 23.3019 38.041C23.4155 38.041 23.5039 38.1293 23.5039 38.2428L23.5039 77.935C23.5039 78.0485 23.4155 78.1368 23.3019 78.1368Z" fill="#786659"/>
<path d="M28.8827 78.9432C28.769 78.9432 28.6807 78.8549 28.6807 78.7415L28.6807 38.2359C28.6807 38.1224 28.769 38.0342 28.8827 38.0342C28.9963 38.0342 29.0847 38.1224 29.0847 38.2359L29.0847 78.7415C29.0847 78.8549 28.9963 78.9432 28.8827 78.9432Z" fill="#786659"/>
<path d="M6.43289 43.3296C6.43289 43.3296 7.65132 44.5148 6.37607 45.7C5.87102 46.1728 5.13238 46.3178 4.44425 46.28C2.96698 46.2044 0.517484 45.4352 0.233393 42.2578C-0.0128191 39.5469 1.71698 38.3996 2.8344 37.9267C3.73718 37.5422 4.76622 37.5232 5.67531 37.8952C6.50865 38.2356 7.22834 39.3011 6.60334 40.4611" fill="white"/>
<path d="M4.64005 46.4945C4.57061 46.4945 4.49485 46.4945 4.42541 46.4945C3.47844 46.4441 0.359749 45.9902 0.0188402 42.2895C-0.239998 39.4651 1.61606 38.2358 2.7398 37.7567C3.6994 37.3469 4.79157 37.3343 5.73854 37.7251C6.28147 37.9458 6.72339 38.406 6.91909 38.9545C7.10849 39.4841 7.05798 40.0388 6.77389 40.5747C6.72338 40.6756 6.59712 40.7134 6.50243 40.6567C6.40142 40.6062 6.36985 40.4801 6.42035 40.3856C6.64763 39.9569 6.69182 39.5093 6.5403 39.0932C6.38248 38.6582 6.01631 38.2799 5.58702 38.0971C4.74106 37.7504 3.76253 37.763 2.90394 38.1286C1.65394 38.6645 0.208234 39.8119 0.429194 42.258C0.738537 45.6371 3.58576 46.0532 4.45066 46.0973C5.19561 46.1415 5.82692 45.9523 6.23727 45.5678C6.57818 45.2526 6.74864 44.9121 6.75495 44.5591C6.76126 43.9602 6.29409 43.4936 6.29409 43.4936C6.21202 43.418 6.21202 43.2856 6.29409 43.2099C6.36985 43.128 6.50243 43.128 6.57818 43.2099C6.60344 43.2352 7.17162 43.7962 7.1653 44.5654C7.1653 45.0382 6.94434 45.4732 6.52136 45.8704C6.07313 46.2865 5.41657 46.5134 4.65268 46.5134L4.64005 46.4945Z" fill="#786659"/>
<path d="M4.84215 40.8394C4.84215 40.8394 7.62624 40.0009 7.62624 41.7851C7.62624 44.5023 4.68433 43.0775 4.68433 43.0775" fill="white"/>
<path d="M6.21207 43.6578C5.42293 43.6578 4.6401 43.2858 4.59591 43.2606C4.4949 43.2102 4.4507 43.0904 4.50121 42.9895C4.55171 42.8886 4.67166 42.8508 4.77267 42.8949C4.7853 42.9013 6.15525 43.5506 6.90651 43.0778C7.24742 42.8634 7.42419 42.4284 7.42419 41.7854C7.42419 41.4639 7.32318 41.2306 7.11485 41.0793C6.55298 40.6632 5.32823 40.9028 4.89894 41.0352C4.79161 41.0667 4.67798 41.0036 4.64641 40.9028C4.61485 40.7956 4.67166 40.6821 4.77899 40.6506C4.84843 40.6317 6.5151 40.1399 7.35474 40.7578C7.6704 40.991 7.82823 41.3378 7.82823 41.7917C7.82823 42.586 7.58833 43.1345 7.12116 43.4245C6.84969 43.5947 6.52772 43.6578 6.20575 43.6578L6.21207 43.6578Z" fill="#786659"/>
<path d="M61.4645 47.3081C61.4645 47.3081 60.2461 48.4933 61.5213 49.6785C62.0264 50.1514 62.765 50.2964 63.4532 50.2585C64.9304 50.1829 67.3799 49.4137 67.664 46.2363C67.9102 43.5255 66.1804 42.3781 65.063 41.9052C64.1602 41.5207 63.1312 41.5018 62.2221 41.8737C61.3888 42.2142 60.6691 43.2796 61.2941 44.4396" fill="white"/>
<path d="M63.2575 50.4661C62.4937 50.4661 61.8371 50.2392 61.3889 49.8231C60.9659 49.4322 60.7449 48.9909 60.7449 48.5181C60.7386 47.7489 61.3068 47.1815 61.332 47.1626C61.4141 47.087 61.5404 47.087 61.6161 47.1626C61.6919 47.2446 61.6919 47.3707 61.6161 47.4463C61.6161 47.4463 61.1427 47.9191 61.1553 48.5118C61.1553 48.8648 61.332 49.2052 61.673 49.5205C62.0833 49.8987 62.7146 50.0878 63.4596 50.05C64.3245 50.0059 67.1717 49.5898 67.481 46.2107C67.702 43.7646 66.2563 42.6172 65.0063 42.0876C64.1477 41.722 63.1692 41.7093 62.3232 42.0561C61.8939 42.2326 61.5278 42.6172 61.3699 43.0522C61.2184 43.4683 61.2626 43.9159 61.4899 44.3446C61.5404 44.4454 61.5025 44.5652 61.4078 44.6157C61.3068 44.6724 61.1868 44.6346 61.1363 44.5337C60.8522 44.0041 60.8017 43.443 60.9911 42.9135C61.1868 42.365 61.6288 41.9048 62.1717 41.6841C63.1187 41.2933 64.2108 41.3059 65.1704 41.7156C66.2942 42.1948 68.1502 43.4241 67.8914 46.2485C67.5568 49.9492 64.4381 50.4031 63.4848 50.4535C63.4154 50.4535 63.3396 50.4535 63.2702 50.4535L63.2575 50.4661Z" fill="#786659"/>
<path d="M63.0492 44.817C63.0492 44.817 60.2651 43.9785 60.2651 45.7626C60.2651 48.4798 63.2071 47.055 63.2071 47.055" fill="white"/>
<path d="M61.6857 47.629C61.3637 47.629 61.0481 47.566 60.7703 47.3958C60.3031 47.0995 60.0632 46.551 60.0632 45.763C60.0632 45.309 60.2211 44.9623 60.5367 44.729C61.3764 44.1049 63.0367 44.5966 63.1125 44.6219C63.2198 44.6534 63.2829 44.7669 63.2451 44.874C63.2135 44.9812 63.0998 45.0443 62.9925 45.0064C62.5632 44.8803 61.3385 44.6345 60.7766 45.0506C60.5683 45.2019 60.4673 45.4351 60.4673 45.7567C60.4673 46.3997 60.644 46.8347 60.9849 47.049C61.7425 47.5219 63.1062 46.8725 63.1188 46.8662C63.2198 46.8221 63.3398 46.8599 63.3903 46.9608C63.4408 47.0617 63.3966 47.1814 63.2956 47.2319C63.2514 47.2571 62.4685 47.629 61.6794 47.629L61.6857 47.629Z" fill="#786659"/>
<path d="M43.8447 67.7278C43.6995 67.6017 43.5669 67.4567 43.4596 67.3054C43.4596 67.2991 43.447 67.2928 43.447 67.2865C43.1313 66.8389 42.8914 66.3408 42.7336 65.8175C42.2538 64.2162 40.6944 64.1784 40.6944 64.1784C40.6944 64.1784 39.154 63.9893 38.4407 65.5086C38.2071 66.0067 37.904 66.4669 37.5253 66.8578C37.5253 66.8641 37.5126 66.8704 37.5063 66.8767C37.3737 67.0154 37.2222 67.1352 37.0581 67.2423C36.7045 67.4756 36.2942 67.9421 36.351 69.0202C36.351 69.0202 36.3826 70.2432 38.0114 70.1676C38.3838 70.1486 38.7437 70.0604 39.0909 69.9154C39.3245 69.8208 40.0253 69.7452 40.2841 69.783C40.5492 69.783 41.2311 69.9595 41.4457 70.0856C41.7677 70.2747 42.1086 70.4197 42.4747 70.4891C44.072 70.8043 44.2803 69.6002 44.2803 69.6002C44.4949 68.5473 44.154 68.0241 43.8384 67.7404L43.8447 67.7278Z" fill="#FFFEF8"/>
<path d="M36.9813 66.1466C37.7254 65.8984 38.0402 64.8352 37.6845 63.7718C37.3289 62.7084 36.4373 62.0475 35.6932 62.2957C34.9491 62.5439 34.6343 63.6072 34.99 64.6706C35.3456 65.7339 36.2372 66.3948 36.9813 66.1466Z" fill="#FFFEF8"/>
<path d="M39.1503 63.8831C39.9332 63.8341 40.5109 62.8872 40.4406 61.7683C40.3703 60.6494 39.6787 59.782 38.8957 59.8311C38.1127 59.8802 37.535 60.827 37.6053 61.9459C37.6756 63.0649 38.3673 63.9322 39.1503 63.8831Z" fill="#FFFEF8"/>
<path d="M46.1717 65.4811C46.6783 64.4805 46.5214 63.3829 45.8213 63.0294C45.1212 62.676 44.143 63.2005 43.6364 64.2011C43.1299 65.2016 43.2868 66.2992 43.9869 66.6527C44.687 67.0062 45.6652 66.4816 46.1717 65.4811Z" fill="#FFFEF8"/>
<path d="M43.9825 62.4133C44.2148 61.3165 43.7808 60.2959 43.0133 60.1338C42.2458 59.9717 41.4353 60.7295 41.203 61.8264C40.9708 62.9233 41.4047 63.9439 42.1722 64.106C42.9397 64.268 43.7502 63.5102 43.9825 62.4133Z" fill="#FFFEF8"/>
<path d="M45.5619 45.1833C45.3851 45.1518 45.2147 45.1077 45.0505 45.0383C45.0442 45.0383 45.0379 45.032 45.0253 45.0257C44.5581 44.8303 44.1351 44.5529 43.7563 44.2187C42.601 43.1974 41.3636 43.9224 41.3636 43.9224C41.3636 43.9224 40.0631 44.5214 40.2462 46.0533C40.303 46.5514 40.2904 47.062 40.1894 47.5538C40.1894 47.5601 40.1894 47.5727 40.1894 47.579C40.1515 47.7492 40.0947 47.9194 40.0189 48.077C39.8611 48.4301 39.7601 48.9975 40.3283 49.8107C40.3283 49.8107 40.947 50.7501 42.1843 49.899C42.4684 49.7035 42.702 49.4577 42.904 49.1803C43.0366 48.9911 43.548 48.594 43.7753 48.4994C43.9773 48.367 44.6023 48.1779 44.8359 48.1716C45.1768 48.1653 45.5177 48.1085 45.8397 47.9888C47.2412 47.4592 46.8182 46.4127 46.8182 46.4127C46.471 45.4859 45.947 45.2401 45.5682 45.1707L45.5619 45.1833Z" fill="#FFFEF8"/>
<path d="M39.4295 47.2764C39.8902 46.7217 39.6198 45.7386 38.8254 45.0807C38.031 44.4228 37.0135 44.3392 36.5527 44.8939C36.092 45.4487 36.3625 46.4318 37.1569 47.0897C37.9513 47.7476 38.9688 47.8312 39.4295 47.2764Z" fill="#FFFEF8"/>
<path d="M40.0139 44.4514C40.6019 44.0334 40.5933 43.0139 39.9947 42.1743C39.3961 41.3348 38.4342 40.9931 37.8463 41.4111C37.2584 41.8291 37.267 42.8486 37.8656 43.6881C38.4641 44.5277 39.426 44.8694 40.0139 44.4514Z" fill="#FFFEF8"/>
<path d="M45.1484 44.275C45.8674 44.2117 46.3767 43.3281 46.286 42.3015C46.1953 41.2748 45.539 40.4939 44.8201 40.5572C44.1011 40.6205 43.5918 41.5041 43.6825 42.5308C43.7731 43.5574 44.4295 44.3383 45.1484 44.275Z" fill="#FFFEF8"/>
<path d="M42.4912 43.157C43.1698 42.9115 43.4348 41.9269 43.0832 40.958C42.7316 39.989 41.8964 39.4026 41.2179 39.6481C40.5393 39.8937 40.2743 40.8783 40.6259 41.8472C40.9776 42.8162 41.8127 43.4026 42.4912 43.157Z" fill="#FFFEF8"/>
<path d="M56.7047 57.2746C56.6415 57.1989 56.5784 57.117 56.5342 57.0287C56.5342 57.0287 56.5342 57.0224 56.5279 57.0161C56.3953 56.7639 56.3069 56.4865 56.2628 56.2028C56.1239 55.3328 55.3221 55.2067 55.3221 55.2067C55.3221 55.2067 54.533 54.9987 54.0595 55.7363C53.9016 55.9759 53.7123 56.1965 53.485 56.3731C53.485 56.3731 53.4787 56.3731 53.4723 56.3794C53.3903 56.4424 53.3082 56.4928 53.2135 56.537C53.0115 56.6315 52.7653 56.8459 52.7211 57.407C52.7211 57.407 52.6516 58.0437 53.5039 58.1194C53.6996 58.1383 53.8953 58.1194 54.0847 58.0626C54.211 58.0311 54.5835 58.0374 54.716 58.0815C54.8549 58.1004 55.1958 58.2391 55.2968 58.3211C55.4484 58.4409 55.6188 58.5418 55.8019 58.6048C56.61 58.8822 56.8057 58.2707 56.8057 58.2707C56.9888 57.7348 56.8499 57.4448 56.711 57.2746L56.7047 57.2746Z" fill="#FFFEF8"/>
<path d="M53.25 55.9772C53.6543 55.9009 53.8933 55.3704 53.7839 54.7922C53.6745 54.214 53.2581 53.8071 52.8538 53.8834C52.4496 53.9596 52.2105 54.4902 52.3199 55.0684C52.4293 55.6466 52.8457 56.0535 53.25 55.9772Z" fill="#FFFEF8"/>
<path d="M55.3633 53.9433C55.4062 53.3564 55.1084 52.8564 54.6981 52.8265C54.2877 52.7965 53.9203 53.248 53.8773 53.8349C53.8344 54.4217 54.1322 54.9217 54.5425 54.9517C54.9529 54.9816 55.3203 54.5302 55.3633 53.9433Z" fill="#FFFEF8"/>
<path d="M58.0771 56.28C58.4116 55.7956 58.4082 55.2138 58.0695 54.9806C57.7308 54.7474 57.1851 54.951 56.8506 55.4354C56.516 55.9198 56.5194 56.5016 56.8581 56.7348C57.1968 56.9681 57.7426 56.7644 58.0771 56.28Z" fill="#FFFEF8"/>
<path d="M57.1643 54.5271C57.363 53.9731 57.2101 53.4117 56.8228 53.2732C56.4355 53.1346 55.9604 53.4714 55.7617 54.0253C55.563 54.5793 55.7158 55.1406 56.1032 55.2792C56.4905 55.4178 56.9656 55.081 57.1643 54.5271Z" fill="#FFFEF8"/>
</g>
<defs>
<clipPath id="clip0_2422_4416">
<rect width="80" height="79" fill="white"/>
</clipPath>
</defs>
</svg>
