<svg width="32" height="32" viewBox="0 0 32 32" fill="none" xmlns="http://www.w3.org/2000/svg">
<path d="M14.5 23C9.81 23 6 19.19 6 14.5C6 9.81 9.81 6 14.5 6C19.19 6 23 9.81 23 14.5C23 19.19 19.19 23 14.5 23ZM14.5 8C10.92 8 8 10.92 8 14.5C8 18.08 10.92 21 14.5 21C18.08 21 21 18.08 21 14.5C21 10.92 18.08 8 14.5 8Z" fill="#707070"/>
<path d="M25.0001 26.0003C24.7401 26.0003 24.4901 25.9003 24.2901 25.7103L19.2901 20.7103C18.9001 20.3203 18.9001 19.6903 19.2901 19.3003C19.6801 18.9103 20.3101 18.9103 20.7001 19.3003L25.7001 24.3003C26.0901 24.6903 26.0901 25.3203 25.7001 25.7103C25.5001 25.9103 25.2501 26.0003 24.9901 26.0003H25.0001Z" fill="#707070"/>
</svg>
