<svg width="94" height="97" viewBox="0 0 94 97" fill="none" xmlns="http://www.w3.org/2000/svg">
<path d="M45.41 0.4875L0.759998 37.1975C0.279998 37.5975 0 38.1775 0 38.7875V93.9575C0 95.1075 0.949997 96.0375 2.13 96.0375H91.43C92.6 96.0375 93.56 95.1075 93.56 93.9575V38.7875C93.56 38.1775 93.28 37.5875 92.8 37.1975L48.15 0.4875C47.36 -0.1625 46.2 -0.1625 45.41 0.4875Z" fill="#60B28D"/>
<path d="M59.6999 89.7979H29.9299V93.9579H59.6999V89.7979Z" fill="white"/>
<path d="M59.6999 77.3184H29.9299V81.4784H59.6999V77.3184Z" fill="white"/>
<path d="M63.9499 83.5576H34.1799V87.7176H63.9499V83.5576Z" fill="white"/>
<path d="M63.9499 71.0879H34.1799V75.2479H63.9499V71.0879Z" fill="white"/>
<path d="M51.3399 32.6274L47.6299 28.3974V0.177383C47.0899 -0.0526172 46.4699 -0.0526172 45.9299 0.177383V28.3974L42.2199 32.6274L38.3999 36.9774C38.0999 37.3174 38.3699 37.8174 38.8499 37.8174H44.6599C44.6599 38.9674 45.6099 39.8974 46.7899 39.8974C47.9699 39.8974 48.9199 38.9674 48.9199 37.8174H54.7299C55.2099 37.8174 55.4699 37.3174 55.1799 36.9774L51.3599 32.6274H51.3399Z" fill="white"/>
</svg>
