<svg width="32" height="32" viewBox="0 0 32 32" fill="none" xmlns="http://www.w3.org/2000/svg">
<g clip-path="url(#clip0_1782_1617)">
<path d="M16 26C21.5228 26 26 21.5228 26 16C26 10.4772 21.5228 6 16 6C10.4772 6 6 10.4772 6 16C6 21.5228 10.4772 26 16 26Z" fill="#EBEAEA"/>
<path d="M19.75 20.3796C19.59 20.3796 19.43 20.3196 19.31 20.1996L11.81 12.6996C11.57 12.4596 11.57 12.0596 11.81 11.8196C12.05 11.5796 12.45 11.5796 12.69 11.8196L20.19 19.3196C20.43 19.5596 20.43 19.9597 20.19 20.1996C20.07 20.3196 19.91 20.3796 19.75 20.3796Z" fill="#707070"/>
<path d="M12.25 20.3796C12.09 20.3796 11.93 20.3196 11.81 20.1996C11.57 19.9597 11.57 19.5596 11.81 19.3196L19.31 11.8196C19.55 11.5796 19.95 11.5796 20.19 11.8196C20.43 12.0596 20.43 12.4596 20.19 12.6996L12.69 20.1996C12.57 20.3196 12.41 20.3796 12.25 20.3796Z" fill="#707070"/>
</g>
<defs>
<clipPath id="clip0_1782_1617">
<rect width="32" height="32" fill="white"/>
</clipPath>
</defs>
</svg>
