<svg width="180" height="237" viewBox="0 0 180 237" fill="none" xmlns="http://www.w3.org/2000/svg">
<g clip-path="url(#clip0_2374_1844)">
<path d="M12.2274 36.6465H8.70361V236.52H12.2274V36.6465Z" fill="#8DC9A6"/>
<path d="M171.296 36.6465H167.772V236.52H171.296V36.6465Z" fill="#8DC9A6"/>
<path d="M167.78 31.6084H12.2273V236.521H167.78V31.6084Z" fill="#FFF5E6"/>
<path d="M157.575 43.208H76.1763V227.105H157.575V43.208Z" fill="#8DC9A6"/>
<path d="M155.517 45.7666H78.2483V227.106H155.517V45.7666Z" fill="#BFE2CE"/>
<path d="M110.258 58.7061H91.4482V142.684H110.258V58.7061Z" fill="#799482"/>
<path d="M142.31 58.7061H123.5V142.684H142.31V58.7061Z" fill="#799482"/>
<path d="M109.201 156.546V209.191H92.5054V156.546H109.201ZM110.258 155.489H91.4482V210.248H110.258V155.489Z" fill="#799482"/>
<path d="M141.253 156.546V209.191H124.557V156.546H141.253ZM142.31 155.489H123.5V210.248H142.31V155.489Z" fill="#799482"/>
<path d="M94.8945 109.011L94.4153 108.497L116.474 88.2354L137.898 101.442L137.525 102.041L116.559 89.1163L94.8945 109.011Z" fill="#39443D"/>
<path d="M144.213 115.939C144.03 115.847 143.952 115.622 144.058 115.445C144.262 115.072 144.593 114.473 144.784 114.142L142.486 99.8915C142.451 99.6519 142.225 99.4898 141.986 99.5321L115.959 103.732L115.262 104.346C115.142 104.451 114.973 104.472 114.832 104.402L114.064 104.035L101.632 106.044L99.8348 107.355C99.8348 107.355 98.7988 106.946 97.9742 106.636L88.2487 108.208C88.0091 108.243 87.847 108.468 87.8893 108.708L88.8618 114.741C89.3481 115.121 90.4052 115.946 90.4052 115.946L89.2988 117.44L91.2932 129.794C91.3284 130.034 91.554 130.196 91.7936 130.153L101.519 128.582L101.843 128.251C102.111 127.976 102.513 127.891 102.872 128.025L103.514 128.265L129.561 124.057C129.998 123.649 130.477 123.198 130.731 122.965C130.837 122.866 130.999 122.838 131.133 122.887L132.761 123.536L145.517 121.478C145.756 121.443 145.918 121.217 145.876 120.978L145.136 116.397L144.206 115.946L144.213 115.939Z" fill="#FF7364"/>
<path d="M92.7732 124.241C94.7958 123.769 96.8396 123.437 98.9045 123.247C96.8819 123.719 94.8381 124.043 92.7732 124.241Z" fill="#F46458"/>
<path d="M90.5674 122.218C92.3645 121.788 94.1827 121.492 96.0292 121.337C94.2321 121.774 92.4138 122.063 90.5674 122.218Z" fill="#F46458"/>
<path d="M110.258 120.47C112.859 119.906 115.48 119.483 118.13 119.201C115.53 119.765 112.908 120.188 110.258 120.47Z" fill="#F46458"/>
<path d="M97.5093 112.838C102.168 111.95 107.312 111.118 112.013 110.498C107.355 111.386 102.21 112.218 97.5093 112.838Z" fill="#F46458"/>
<path d="M114.522 121.894C117.122 121.33 119.744 120.907 122.394 120.625C119.793 121.189 117.172 121.612 114.522 121.894Z" fill="#F46458"/>
<path d="M102.083 125.777C105.459 125.093 108.863 124.537 112.288 124.128C108.912 124.819 105.508 125.361 102.083 125.777Z" fill="#F46458"/>
<path d="M129.843 110.047C132.444 109.483 135.065 109.06 137.715 108.778C135.115 109.342 132.493 109.765 129.843 110.047Z" fill="#F46458"/>
<path d="M134.128 111.583C136.728 111.019 139.35 110.596 142 110.314C139.399 110.878 136.778 111.301 134.128 111.583Z" fill="#F46458"/>
<path d="M109.307 108.758C112.689 108.074 116.086 107.517 119.511 107.108C116.136 107.799 112.732 108.342 109.307 108.758Z" fill="#F46458"/>
<path d="M130.379 105.353C133.761 104.67 137.158 104.113 140.583 103.704C137.208 104.395 133.804 104.937 130.379 105.353Z" fill="#F46458"/>
<path d="M115.558 115.044C118.941 114.36 122.338 113.803 125.763 113.395C122.387 114.085 118.983 114.628 115.558 115.044Z" fill="#F46458"/>
<path d="M131.506 120.357C134.882 119.674 138.286 119.117 141.711 118.708C138.335 119.399 134.931 119.941 131.506 120.357Z" fill="#F46458"/>
<path d="M94.1968 118.454C93.7246 115.508 95.2257 113.451 97.5091 113.084C98.6367 112.901 99.6092 113.303 100.258 113.81L99.6304 114.846C99.0877 114.444 98.4675 114.205 97.7346 114.325C96.1771 114.578 95.3032 116.051 95.6485 118.172C95.9939 120.322 97.2131 121.471 98.8058 121.21C99.6374 121.076 100.208 120.604 100.652 119.927L101.554 120.702C100.962 121.654 100.117 122.267 98.9538 122.457C96.6845 122.824 94.6689 121.414 94.1897 118.454H94.1968Z" fill="white"/>
<path d="M101.878 112.549L103.302 112.316L104.571 120.16L108.397 119.54L108.595 120.745L103.344 121.591L101.885 112.549H101.878Z" fill="white"/>
<path d="M108.559 116.08C108.087 113.169 109.419 111.168 111.738 110.794C114.056 110.421 115.959 111.901 116.424 114.811C116.897 117.722 115.565 119.787 113.246 120.16C110.927 120.534 109.032 118.99 108.559 116.08ZM114.966 115.044C114.62 112.923 113.436 111.788 111.935 112.035C110.434 112.281 109.68 113.719 110.018 115.84C110.357 117.961 111.548 119.16 113.049 118.913C114.55 118.666 115.311 117.151 114.966 115.037V115.044Z" fill="white"/>
<path d="M118.207 117.996L118.884 116.883C119.638 117.426 120.59 117.7 121.463 117.56C122.556 117.383 123.084 116.77 122.965 116.009C122.831 115.185 122.175 115.029 121.28 114.797L119.941 114.459C119.011 114.233 117.933 113.698 117.721 112.387C117.489 110.963 118.574 109.695 120.287 109.42C121.344 109.251 122.408 109.532 123.204 110.117L122.605 111.146C121.957 110.738 121.287 110.526 120.484 110.66C119.561 110.808 119.032 111.344 119.152 112.055C119.279 112.838 120.047 113.021 120.836 113.197L122.161 113.521C123.303 113.803 124.184 114.339 124.395 115.664C124.628 117.109 123.613 118.483 121.64 118.8C120.399 118.997 119.166 118.694 118.207 117.996Z" fill="white"/>
<path d="M125.037 108.806L130.372 107.946L130.569 109.151L126.658 109.786L127.066 112.302L130.379 111.766L130.576 112.971L127.264 113.507L127.736 116.424L131.788 115.769L131.985 116.974L126.51 117.855L125.051 108.813L125.037 108.806Z" fill="white"/>
<path d="M132.401 107.616L134.748 107.235C137.518 106.784 139.357 108.081 139.829 111.019C140.301 113.951 138.983 115.826 136.284 116.263L133.867 116.65L132.408 107.609L132.401 107.616ZM135.918 115.128C137.856 114.818 138.716 113.507 138.356 111.259C137.99 109.004 136.778 108.102 134.84 108.412L134.015 108.546L135.1 115.255L135.925 115.121L135.918 115.128Z" fill="white"/>
<path d="M116.516 89.5459C117.1 89.5459 117.573 89.0726 117.573 88.4888C117.573 87.9049 117.1 87.4316 116.516 87.4316C115.932 87.4316 115.459 87.9049 115.459 88.4888C115.459 89.0726 115.932 89.5459 116.516 89.5459Z" fill="#39443D"/>
<path d="M149.365 141.013C151.283 141.013 152.839 139.458 152.839 137.539C152.839 135.62 151.283 134.064 149.365 134.064C147.446 134.064 145.89 135.62 145.89 137.539C145.89 139.458 147.446 141.013 149.365 141.013Z" fill="#39443D"/>
<path d="M0 9.07012L20.4095 0H157.948L180 9.07012" fill="#BFE2CE"/>
<path d="M0 9.18262H180V35.0258C180 36.9709 178.421 38.5495 176.476 38.5495H4.65839C2.08606 38.5495 0 36.4635 0 33.8911V9.18262Z" fill="#8DC9A6"/>
<path d="M167.78 227.105H66.2253V236.521H167.78V227.105Z" fill="#8DC9A6"/>
<path d="M68.854 176.85H45.9919V181.684H68.854V176.85Z" fill="#FFCD92"/>
<path d="M68.854 176.061H45.9919V176.85H68.854V176.061Z" fill="#F9BB78"/>
<path d="M67.5219 181.685H47.4507V236.69H67.5219V181.685Z" fill="#FFCD92"/>
<path d="M50.2769 181.685H48.8533V236.69H50.2769V181.685Z" fill="#F9BB78"/>
<path d="M54.2517 181.685H52.8281V236.69H54.2517V181.685Z" fill="#F9BB78"/>
<path d="M58.2334 181.685H56.8098V236.69H58.2334V181.685Z" fill="#F9BB78"/>
<path d="M62.2083 181.685H60.7847V236.69H62.2083V181.685Z" fill="#F9BB78"/>
<path d="M66.1831 181.685H64.7595V236.69H66.1831V181.685Z" fill="#F9BB78"/>
<path d="M54.4348 122.641C52.5532 126.383 52.1021 130.823 53.3284 134.819C53.7442 136.151 54.3291 137.328 54.9775 138.653C56.1967 141.26 57.134 144.023 57.5287 146.884C57.9586 149.724 57.9445 152.67 57.1693 155.419C57.3525 154.009 57.3807 152.592 57.275 151.19C57.0213 146.99 55.8302 142.888 54.019 139.104C51.1437 134.015 50.9604 127.482 54.4348 122.641Z" fill="#3B764F"/>
<path d="M60.6366 176.061H53.7019C52.7505 176.061 52.0034 175.243 52.081 174.292L53.8006 154.467C53.871 153.629 54.5758 152.98 55.4215 152.98H58.917C59.7627 152.98 60.4604 153.622 60.538 154.467L62.2575 174.292C62.3421 175.243 61.588 176.061 60.6366 176.061Z" fill="#8DC9A6"/>
<path d="M57.4792 149.788C54.8857 145.94 52.1302 142.085 48.1765 139.526C52.6446 141.211 55.7667 145.474 57.4792 149.788Z" fill="#3B764F"/>
<path d="M54.3926 138.328C54.3926 138.328 54.5406 134.438 59.0298 133.346C59.0298 133.346 58.7197 137.849 54.3926 138.328Z" fill="#3B764F"/>
<path d="M53.8569 123.677C53.8569 123.677 54.8788 120.562 58.7761 120.724C58.7761 120.724 57.4793 124.304 53.8569 123.677Z" fill="#3B764F"/>
<path d="M52.3346 142.402C52.3346 142.402 48.8743 140.619 45.717 144.002C45.717 144.002 49.7975 145.94 52.3346 142.402Z" fill="#3B764F"/>
<path d="M52.1372 131.161C52.1372 131.161 49.6988 128.483 45.9072 128.405C45.9072 128.405 48.4937 131.323 52.1372 131.161Z" fill="#3B764F"/>
<path d="M57.5427 150.295C57.5427 150.295 58.6562 147.772 62.8918 146.081C62.8918 146.081 63.0468 151.021 57.5427 150.295Z" fill="#3B764F"/>
<g opacity="0.8">
<path d="M56.1543 70.3828H42.4893V74.5267H56.1543V70.3828Z" fill="#FFC67B"/>
</g>
<g opacity="0.8">
<path d="M62.9834 66.2461H49.3184V70.39H62.9834V66.2461Z" fill="#FFDAA9"/>
</g>
<g opacity="0.8">
<path d="M25.3005 163.77H38.9656V159.626H25.3005V163.77Z" fill="#FFC67B"/>
</g>
<g opacity="0.8">
<path d="M18.4643 159.625H32.1294V155.481H18.4643V159.625Z" fill="#FFDAA9"/>
</g>
</g>
<defs>
<clipPath id="clip0_2374_1844">
<rect width="180" height="236.69" fill="white"/>
</clipPath>
</defs>
</svg>
