<svg width="32" height="32" viewBox="0 0 32 32" fill="none" xmlns="http://www.w3.org/2000/svg">
<g clip-path="url(#clip0_1525_4413)">
<path d="M24 26C23.45 26 23 25.55 23 25V8H9V25C9 25.55 8.55 26 8 26C7.45 26 7 25.55 7 25V7C7 6.45 7.45 6 8 6H24C24.55 6 25 6.45 25 7V25C25 25.55 24.55 26 24 26Z" fill="#60B28D"/>
<path d="M23 16H9C8.45 16 8 15.55 8 15C8 14.45 8.45 14 9 14H23C23.55 14 24 14.45 24 15C24 15.55 23.55 16 23 16Z" fill="#60B28D"/>
<path d="M23 24H9C8.45 24 8 23.55 8 23C8 22.45 8.45 22 9 22H23C23.55 22 24 22.45 24 23C24 23.55 23.55 24 23 24Z" fill="#60B28D"/>
<path d="M12.5 18H13.5C13.78 18 14 18.22 14 18.5V22H12V18.5C12 18.22 12.22 18 12.5 18Z" fill="#60B28D"/>
<path d="M15.5 17H16.5C16.78 17 17 17.22 17 17.5V22H15V17.5C15 17.22 15.22 17 15.5 17Z" fill="#60B28D"/>
<path d="M17.3343 18.1038L18.2818 17.784C18.5471 17.6945 18.8259 17.8325 18.9155 18.0978L20.3545 22.3615L18.4595 23.0011L17.0205 18.7374C16.9309 18.4721 17.069 18.1933 17.3343 18.1038Z" fill="#60B28D"/>
<path d="M15.5 10H16.5C16.78 10 17 10.22 17 10.5V14H15V10.5C15 10.22 15.22 10 15.5 10Z" fill="#60B28D"/>
<path d="M12.5 9H13.5C13.78 9 14 9.22 14 9.5V14H12V9.5C12 9.22 12.22 9 12.5 9Z" fill="#60B28D"/>
<path d="M18.5 9H19.5C19.78 9 20 9.22 20 9.5V14H18V9.5C18 9.22 18.22 9 18.5 9Z" fill="#60B28D"/>
</g>
<defs>
<clipPath id="clip0_1525_4413">
<rect width="32" height="32" fill="white"/>
</clipPath>
</defs>
</svg>
