<svg width="24" height="24" viewBox="0 0 24 24" fill="none" xmlns="http://www.w3.org/2000/svg">
<g clip-path="url(#clip0_1815_271)">
<path d="M17.4499 21.1C19.9628 21.1 21.9999 19.0629 21.9999 16.55C21.9999 14.0371 19.9628 12 17.4499 12C14.937 12 12.8999 14.0371 12.8999 16.55C12.8999 19.0629 14.937 21.1 17.4499 21.1Z" fill="#707070"/>
<path d="M12.05 20.1299H4.87C3.81 20.1299 2.96 19.2699 2.96 18.2199V9.60992C2.96 8.54992 3.82 7.69992 4.87 7.69992H17.31C18.37 7.69992 19.22 8.55992 19.22 9.60992V11.6999C19.55 11.7799 19.87 11.8799 20.18 12.0099V4.82992C20.18 3.76992 19.32 2.91992 18.27 2.91992H3.91C2.85 2.91992 2 3.77992 2 4.82992V19.1799C2 20.2399 2.86 21.0899 3.91 21.0899H12.55C12.36 20.7899 12.18 20.4699 12.04 20.1299H12.05Z" fill="#707070"/>
<path d="M11.9999 9.26953H10.1799V11.0895H11.9999V9.26953Z" fill="#707070"/>
<path d="M7.45989 12.9102H5.63989V14.7302H7.45989V12.9102Z" fill="#707070"/>
<path d="M11.9999 12.9102H10.1799V14.7302H11.9999V12.9102Z" fill="#707070"/>
<path d="M7.45989 16.5498H5.63989V18.3698H7.45989V16.5498Z" fill="#707070"/>
<path d="M11.9999 16.5498H10.1799V18.3698H11.9999V16.5498Z" fill="#707070"/>
<path d="M16.55 9.26953H14.73V11.0895H16.55V9.26953Z" fill="#707070"/>
<path d="M20.18 17.0001H17.45C17.2 17.0001 17 16.8001 17 16.5501V13.8201C17 13.5701 17.2 13.3701 17.45 13.3701C17.7 13.3701 17.9 13.5701 17.9 13.8201V16.0901H20.17C20.42 16.0901 20.62 16.2901 20.62 16.5401C20.62 16.7901 20.42 16.9901 20.17 16.9901L20.18 17.0001Z" fill="white"/>
</g>
<defs>
<clipPath id="clip0_1815_271">
<rect width="24" height="24" fill="white"/>
</clipPath>
</defs>
</svg>
