<svg width="32" height="32" viewBox="0 0 32 32" fill="none" xmlns="http://www.w3.org/2000/svg">
<g id="Layer_2" clip-path="url(#clip0_1932_190)">
<path id="Vector" d="M24.1 25.0002H7.9C7.4 25.0002 7 24.6002 7 24.1002C7 23.6002 7.4 23.2002 7.9 23.2002H24.1C24.6 23.2002 25 23.6002 25 24.1002C25 24.6002 24.6 25.0002 24.1 25.0002Z" fill="#000003"/>
<path id="Vector_2" d="M12.4 24.9996H7.9C7.4 24.9996 7 24.5996 7 24.0996V19.5996C7 19.3596 7.09 19.1296 7.26 18.9596L18.96 7.25957C19.31 6.90957 19.88 6.90957 20.23 7.25957L24.73 11.7596C25.08 12.1096 25.08 12.6796 24.73 13.0296L13.03 24.7296C12.86 24.8996 12.63 24.9896 12.39 24.9896L12.4 24.9996ZM8.8 23.1996H12.03L22.83 12.3996L19.6 9.16957L8.8 19.9696V23.1996Z" fill="#000003"/>
<path id="Vector_3" d="M22.0001 15.0003C21.7401 15.0003 21.4901 14.9003 21.2901 14.7103L17.2901 10.7103C16.9001 10.3203 16.9001 9.69031 17.2901 9.30031C17.6801 8.91031 18.3101 8.91031 18.7001 9.30031L22.7001 13.3003C23.0901 13.6903 23.0901 14.3203 22.7001 14.7103C22.5001 14.9103 22.2501 15.0003 21.9901 15.0003H22.0001Z" fill="#000003"/>
</g>
<defs>
<clipPath id="clip0_1932_190">
<rect width="32" height="32" fill="white"/>
</clipPath>
</defs>
</svg>
