<svg width="391" height="271" viewBox="0 0 391 271" fill="none" xmlns="http://www.w3.org/2000/svg">
<g clip-path="url(#clip0_2095_2625)">
<path d="M390 0H0V270H390V0Z" fill="#FFF9EA"/>
<path d="M390.08 159.97H0.0800781V270.43H390.08V159.97Z" fill="#FFF0C9"/>
<path d="M315.33 189.831C332.125 189.831 345.74 185.533 345.74 180.231C345.74 174.929 332.125 170.631 315.33 170.631C298.535 170.631 284.92 174.929 284.92 180.231C284.92 185.533 298.535 189.831 315.33 189.831Z" fill="#D2E4DA"/>
<path d="M315.33 190.221C298.05 190.221 284.52 185.831 284.52 180.231C284.52 174.631 298.05 170.241 315.33 170.241C332.61 170.241 346.14 174.631 346.14 180.231C346.14 185.831 332.61 190.221 315.33 190.221ZM315.33 171.031C299.06 171.031 285.31 175.241 285.31 180.231C285.31 185.221 299.06 189.431 315.33 189.431C331.6 189.431 345.35 185.221 345.35 180.231C345.35 175.241 331.6 171.031 315.33 171.031Z" fill="#8DB79E"/>
<path d="M315.33 184.931C304.69 184.931 296.36 182.611 296.36 179.641C296.36 176.671 304.69 174.351 315.33 174.351C325.97 174.351 334.3 176.671 334.3 179.641C334.3 182.611 325.97 184.931 315.33 184.931ZM315.33 174.881C304.3 174.881 296.89 177.341 296.89 179.641C296.89 181.941 304.3 184.401 315.33 184.401C326.36 184.401 333.77 181.941 333.77 179.641C333.77 177.341 326.36 174.881 315.33 174.881Z" fill="#8DB79E"/>
<path d="M345.48 150.171C343.19 148.981 340.85 149.201 339.58 149.471C338.54 145.601 334.16 137.791 315.91 137.021C290.58 135.951 290.51 151.611 290.51 151.611C290.51 151.611 286.26 183.461 314.91 183.461C324.82 183.461 330.86 179.651 334.53 174.661C347.83 170.991 349.72 162.251 349.69 157.461C349.67 154.451 348.15 151.551 345.48 150.171ZM343.74 162.041C342.3 165.951 336.65 166.901 336.65 166.901C338.38 159.971 338.92 155.781 338.92 155.781C342.75 155.351 343.79 157.861 343.99 159.601C344.08 160.421 344.02 161.261 343.74 162.041Z" fill="#FFFEFC"/>
<path d="M314.92 183.721C306.95 183.721 300.76 181.261 296.52 176.411C288.31 167.031 290.24 151.721 290.26 151.561C290.26 151.391 290.33 146.651 294.66 142.521C299.11 138.281 306.26 136.341 315.93 136.741C334.23 137.521 338.69 145.491 339.77 149.151C341.07 148.911 343.36 148.761 345.6 149.921C348.27 151.301 349.94 154.191 349.96 157.451C349.99 162.371 348.04 171.161 334.7 174.881C330.35 180.741 323.7 183.721 314.92 183.721ZM313.46 137.221C305.18 137.221 298.98 139.131 295.02 142.911C290.85 146.891 290.79 151.561 290.79 151.611C290.77 151.801 288.87 166.881 296.92 176.071C301.06 180.801 307.12 183.191 314.92 183.191C323.55 183.191 330.08 180.271 334.33 174.501L334.38 174.431L334.47 174.411C347.56 170.801 349.46 162.251 349.43 157.471C349.41 154.411 347.85 151.701 345.36 150.411C343.12 149.251 340.82 149.491 339.64 149.731L339.4 149.781L339.33 149.541C338.4 146.111 334.27 138.061 315.91 137.291C315.07 137.251 314.26 137.241 313.46 137.241V137.221ZM336.3 167.221L336.4 166.831C338.11 160.001 338.66 155.791 338.67 155.741L338.7 155.531L338.91 155.511C343.27 155.021 344.11 158.181 344.27 159.561C344.38 160.491 344.29 161.351 344 162.121C342.52 166.131 336.94 167.111 336.7 167.151L336.3 167.221ZM339.16 156.021C339.03 156.931 338.44 160.771 337.01 166.551C338.31 166.251 342.34 165.071 343.49 161.951C343.74 161.261 343.82 160.481 343.73 159.631C343.56 158.141 342.74 155.711 339.16 156.021Z" fill="#D4D0BF"/>
<path d="M332.384 147.106C332.467 144.849 324.892 142.738 315.465 142.393C306.039 142.047 298.33 143.597 298.247 145.854C298.164 148.111 305.739 150.222 315.165 150.567C324.592 150.913 332.301 149.363 332.384 147.106Z" fill="#9E8878"/>
<path d="M97.8003 151.36H70.8303L72.7603 205.96C72.7603 205.96 80.6803 209.96 97.8003 209.82C114.92 209.96 122.84 205.96 122.84 205.96L124.77 151.36H97.8003Z" fill="#FFFEFC"/>
<path d="M98.7102 210.19C98.4102 210.19 98.1002 210.19 97.8002 210.19C97.4902 210.19 97.1902 210.19 96.8902 210.19C80.5102 210.19 72.9202 206.45 72.6002 206.29C72.4802 206.23 72.4002 206.11 72.4002 205.97L70.4702 151.37C70.4702 151.27 70.5002 151.17 70.5702 151.1C70.6402 151.03 70.7402 150.99 70.8402 150.99H124.78C124.88 150.99 124.98 151.03 125.05 151.1C125.12 151.17 125.16 151.27 125.15 151.37L123.22 205.97C123.22 206.11 123.14 206.23 123.02 206.29C122.7 206.45 115.11 210.19 98.7202 210.19H98.7102ZM97.8002 209.44C113.15 209.58 121.16 206.31 122.48 205.71L124.39 151.73H71.2202L73.1302 205.71C74.4502 206.3 82.4202 209.56 97.8102 209.44H97.8002Z" fill="#D4D0BF"/>
<path d="M123.12 198.2C123.12 198.2 103.05 206.39 72.49 198.2L72.55 200.02C72.55 200.02 96.5 208.41 123.05 200.02L123.11 198.2H123.12Z" fill="#D4D0BF"/>
<path d="M97.8001 154.84C112.822 154.84 125 153.282 125 151.36C125 149.438 112.822 147.88 97.8001 147.88C82.778 147.88 70.6001 149.438 70.6001 151.36C70.6001 153.282 82.778 154.84 97.8001 154.84Z" fill="#D4D0BF"/>
<path d="M97.8002 154.15C109.724 154.15 119.39 152.901 119.39 151.36C119.39 149.819 109.724 148.57 97.8002 148.57C85.8764 148.57 76.2102 149.819 76.2102 151.36C76.2102 152.901 85.8764 154.15 97.8002 154.15Z" fill="#E7EBE0"/>
<path d="M97.8 154.14C108.304 154.14 116.82 153.549 116.82 152.82C116.82 152.091 108.304 151.5 97.8 151.5C87.2956 151.5 78.78 152.091 78.78 152.82C78.78 153.549 87.2956 154.14 97.8 154.14Z" fill="#9E8878"/>
<path d="M102.05 96.3604C102.05 96.3604 94.5601 83.3003 102.05 71.2003C102.05 71.2003 102.25 70.9604 102.59 70.5404C106.05 66.2204 108.6 61.2703 110.34 56.0103C111.82 51.5403 115.08 45.3004 122.01 43.8604C122.01 43.8604 125.3 78.7004 102.06 96.3704L102.05 96.3604Z" fill="#BFE2CE"/>
<path d="M102.05 96.3604C102.05 96.3604 94.5601 83.3003 102.05 71.2003C102.05 71.2003 102.25 70.9604 102.59 70.5404C106.05 66.2204 108.6 61.2703 110.34 56.0103C111.82 51.5403 115.08 45.3004 122.01 43.8604C122.01 43.8604 125.3 78.7004 102.06 96.3704L102.05 96.3604Z" fill="#BFE2CE"/>
<path d="M89.59 107.541C89.59 107.541 99.29 101.571 91.56 91.0708C90.66 89.8508 89.83 88.5808 89.15 87.2308C88.56 86.0708 87.99 84.8108 87.92 84.2608C87.2 78.4808 88.22 79.2408 85.59 74.0508C83.35 69.6408 68.17 58.7208 60.75 58.3408C60.75 58.3408 62.66 92.9408 89.59 107.541Z" fill="#BFE2CE"/>
<path d="M100.71 130.341C100.63 130.411 100.51 130.361 100.51 130.261C100.61 127.521 101.75 105.271 113.8 97.9107C113.8 97.9107 119.2 94.4307 124.54 93.7607C129.88 93.0907 135.45 87.4807 135.45 87.4807C135.45 87.4807 137.52 84.5607 144.85 86.4607C145.31 86.5807 145.55 87.0807 145.37 87.5207C143.97 91.0407 137.69 104.951 123.09 112.931C123.09 112.931 112.86 118.701 100.7 130.341H100.71Z" fill="#BFE2CE"/>
<path d="M97.5802 138C97.5802 138 97.5202 138 97.4902 137.99C97.3302 137.94 97.2502 137.77 97.3002 137.62C97.3402 137.5 101.32 125.05 107.18 118.02C107.23 117.97 111.74 112.52 113.04 109.89C114.33 107.3 118.64 102.7 125.24 100.66C138.68 96.5002 144.65 86.8702 144.71 86.7702C144.79 86.6302 144.98 86.5802 145.12 86.6702C145.26 86.7602 145.3 86.9402 145.22 87.0802C145.16 87.1802 139.09 96.9902 125.42 101.22C119 103.21 114.82 107.65 113.58 110.15C112.24 112.84 107.83 118.17 107.64 118.39C101.85 125.33 97.9002 137.66 97.8702 137.79C97.8302 137.92 97.7102 138 97.5902 138H97.5802Z" fill="#8DB79E"/>
<path d="M97.3401 133.761C97.2701 133.761 97.1901 133.731 97.1401 133.681C97.0401 133.591 87.5201 124.271 89.3001 107.511C89.3201 107.411 90.6701 99.2308 87.0101 95.8908C86.1101 95.0708 84.3601 93.1108 83.7901 92.0808C82.3901 89.5808 82.1001 86.2508 81.8701 83.5808C81.7601 82.2808 81.6601 81.1508 81.4501 80.4108C79.1901 72.3208 75.5401 68.5508 69.1601 64.0308C68.8801 63.8308 68.5301 63.5608 68.1101 63.2508C66.4801 62.0108 63.7601 59.9408 60.8201 58.6808C60.6701 58.6208 60.6001 58.4408 60.6601 58.2908C60.7201 58.1408 60.9001 58.0708 61.0501 58.1308C64.0601 59.4108 66.8201 61.5108 68.4701 62.7708C68.8801 63.0808 69.2201 63.3408 69.5001 63.5408C75.9901 68.1408 79.7001 71.9808 82.0101 80.2508C82.2301 81.0408 82.3301 82.1908 82.4501 83.5308C82.6801 86.1408 82.9601 89.4008 84.3001 91.7908C84.8401 92.7508 86.5501 94.6708 87.4101 95.4508C91.3101 99.0108 89.9501 107.241 89.8901 107.591C88.1401 124.021 97.4601 133.151 97.5501 133.241C97.6701 133.351 97.6701 133.541 97.5601 133.661C97.5001 133.721 97.4201 133.751 97.3501 133.751L97.3401 133.761Z" fill="#8DB79E"/>
<path d="M106.45 141.91C104.51 142.33 102.98 140.22 103.94 138.47C107.8 131.47 119.65 117.97 140.65 116.54C141.15 116.51 141.49 117.04 141.25 117.49C139.07 121.49 128.23 137.23 106.44 141.92L106.45 141.91Z" fill="#BFE2CE"/>
<path d="M96.5301 153.26C96.5301 153.26 96.4801 153.26 96.4501 153.25C96.3101 153.21 96.2101 153.06 96.2401 152.91C96.2601 152.76 98.6001 138.31 96.2401 128.56C96.1901 128.42 91.0901 112.29 101.4 97.0404C101.4 97.0204 103.87 92.2704 104.16 86.4404C104.32 83.3304 105.05 80.5304 106.35 78.1304C106.6 77.6604 106.88 77.2004 107.17 76.7604C108.87 74.1904 110.07 71.8204 110.85 69.5104C111.56 67.3804 112.11 65.2504 112.48 63.1804C113.68 56.5304 121.42 44.8604 121.75 44.3704C121.84 44.2304 122.02 44.2004 122.16 44.2904C122.3 44.3804 122.33 44.5704 122.24 44.7004C122.16 44.8204 114.24 56.7504 113.06 63.2804C112.68 65.3804 112.12 67.5404 111.4 69.7004C110.61 72.0604 109.39 74.4804 107.66 77.0904C107.38 77.5104 107.11 77.9604 106.87 78.4104C105.62 80.7304 104.91 83.4404 104.75 86.4604C104.45 92.4204 101.93 97.2904 101.9 97.3404C91.7401 112.37 96.7501 128.23 96.8001 128.39C98.6901 136.22 97.6101 146.99 97.0701 151.21C99.9501 145.96 111.08 129.15 140.89 116.74C141.04 116.68 141.21 116.74 141.28 116.9C141.35 117.06 141.28 117.23 141.12 117.29C105.79 132 96.8901 152.86 96.8001 153.07C96.7501 153.18 96.6401 153.25 96.5301 153.25V153.26Z" fill="#8DB79E"/>
<path d="M91.9501 137.701C91.9501 137.701 59.6501 126.491 43.3901 94.4306C43.1701 94.0006 43.5201 93.5006 43.9901 93.5606C50.2901 94.3306 83.6201 99.3706 91.9501 137.701Z" fill="#BFE2CE"/>
<path d="M97.02 148.46C96.91 148.46 96.8 148.39 96.75 148.28C83.05 117.3 43.93 94.3604 43.54 94.1304C43.4 94.0504 43.35 93.8704 43.43 93.7204C43.51 93.5804 43.69 93.5304 43.83 93.6104C44.23 93.8404 83.51 116.87 97.29 148.03C97.36 148.18 97.29 148.36 97.14 148.42C97.1 148.44 97.06 148.45 97.02 148.45V148.46Z" fill="#8DB79E"/>
<path d="M199.23 249.431L303.37 220.231C303.87 220.071 303.96 219.401 303.52 219.121L256.07 188.661C255.92 188.571 255.75 188.541 255.58 188.581L158.54 210.391C158.06 210.511 157.92 211.121 158.28 211.451L198.63 249.301C198.79 249.451 199.02 249.501 199.23 249.431Z" fill="#FDB09F"/>
<path d="M198.12 235.391L304.97 205.811L261.85 181.221L159.04 202.371L198.12 235.391Z" fill="#FDB09F"/>
<path d="M156.07 199.011C156.07 199.011 154.93 209.571 157.4 212.641L160.66 211.651C160.66 211.651 157.24 208.341 158.83 201.391L156.07 199.011Z" fill="#BFE2CE"/>
<path d="M301.02 206.7C301.02 206.7 299.83 214.83 301.13 219.86L198.96 246.31L160.67 211.65C160.67 211.65 157.06 208.31 158.29 201.21C158.31 201.1 158.44 201.05 158.53 201.12L198.14 235.39L301.04 206.7H301.02Z" fill="white"/>
<path d="M198.51 249.701C198.41 249.701 198.31 249.661 198.24 249.591L158 212.001C158 212.001 157.93 211.931 157.91 211.881C154.72 205.261 155.99 199.811 156.05 199.591C156.08 199.451 156.18 199.351 156.32 199.301C156.45 199.261 156.6 199.291 156.7 199.381L198.11 235.041L304.46 205.731C304.68 205.671 304.89 205.801 304.95 206.011C305.01 206.221 304.88 206.441 304.67 206.501L198.11 235.871C197.98 235.911 197.84 235.871 197.74 235.791L156.71 200.451C156.49 202.071 156.21 206.461 158.6 211.471L198.62 248.851L303.54 219.551C303.76 219.491 303.97 219.621 304.03 219.831C304.09 220.041 303.96 220.261 303.75 220.321L198.61 249.681C198.61 249.681 198.54 249.691 198.5 249.691L198.51 249.701Z" fill="#FF9794"/>
<path d="M159.04 204.41C158.86 204.41 158.69 204.28 158.65 204.1C158.6 203.88 158.74 203.67 158.96 203.62L261.77 180.83C261.99 180.78 262.2 180.92 262.25 181.14C262.3 181.36 262.16 181.57 261.94 181.62L159.13 204.41C159.13 204.41 159.07 204.41 159.04 204.41Z" fill="#FF9794"/>
<path d="M198.62 239.561C198.56 239.561 198.49 239.541 198.44 239.491L157.85 204.211C157.74 204.111 157.73 203.941 157.82 203.831C157.92 203.721 158.09 203.711 158.2 203.801L198.68 238.991L300.7 210.781C300.84 210.741 300.99 210.821 301.03 210.971C301.07 211.111 300.99 211.261 300.84 211.301L198.68 239.551C198.68 239.551 198.63 239.551 198.61 239.551L198.62 239.561Z" fill="#FFF6CF"/>
<path d="M198.95 243.7C198.88 243.7 198.82 243.68 198.77 243.63L158.13 207.08C158.02 206.98 158.01 206.81 158.11 206.7C158.21 206.59 158.38 206.58 158.49 206.68L199.02 243.13L300.49 215.29C300.63 215.25 300.78 215.33 300.82 215.48C300.86 215.62 300.78 215.77 300.63 215.81L199.02 243.68C199.02 243.68 198.97 243.68 198.95 243.68V243.7Z" fill="#FFF6CF"/>
<path d="M152.97 248.11L244.35 192.46C244.8 192.19 244.73 191.51 244.23 191.34L190.88 173.1C190.72 173.04 190.54 173.06 190.38 173.14L100.91 218.88C100.48 219.11 100.48 219.74 100.91 219.97L152.35 248.12C152.54 248.23 152.78 248.22 152.97 248.1V248.11Z" fill="#BFE2CE"/>
<path d="M150.64 234.011L242.46 178.081L187.56 159.431L96.25 207.061L150.64 234.011Z" fill="#BFE2CE"/>
<path d="M96.25 207.061C96.25 207.061 97.66 217.581 100.8 219.981L103.72 218.241C103.72 218.241 99.61 215.841 99.49 208.721L96.24 207.071L96.25 207.061Z" fill="#BFE2CE"/>
<path d="M238.53 180.391C238.53 180.391 237.3 186.541 239.75 191.121L152.06 244.101L103.72 218.241C103.72 218.241 99.4199 215.861 98.9099 208.671C98.9099 208.561 99.0199 208.471 99.1199 208.521L150.63 234.011L238.52 180.391H238.53Z" fill="white"/>
<path d="M152.58 248.611C152.51 248.611 152.45 248.591 152.39 248.561L100.73 220.341C100.73 220.341 100.64 220.281 100.61 220.241C95.8999 214.521 96.2699 207.561 96.2899 207.261C96.2899 207.131 96.3699 207.001 96.4899 206.941C96.6099 206.871 96.7499 206.871 96.8699 206.931L150.63 233.561L241.95 177.961C242.14 177.841 242.39 177.911 242.5 178.091C242.62 178.281 242.56 178.531 242.37 178.641L150.87 234.351C150.75 234.421 150.61 234.431 150.48 234.371L97.0999 207.921C97.1299 209.731 97.5299 215.161 101.2 219.661L152.59 247.741L244.27 191.691C244.46 191.571 244.71 191.631 244.82 191.821C244.94 192.011 244.88 192.261 244.69 192.371L152.81 248.541C152.75 248.581 152.67 248.601 152.6 248.601L152.58 248.611Z" fill="#8DC9A6"/>
<path d="M99.6699 209.12C99.5299 209.12 99.3899 209.04 99.3199 208.91C99.2199 208.71 99.2899 208.47 99.4799 208.37L189.45 160.13C189.65 160.03 189.89 160.1 189.99 160.29C190.09 160.49 190.02 160.73 189.83 160.83L99.8599 209.07C99.7999 209.1 99.7299 209.12 99.6699 209.12Z" fill="#8DC9A6"/>
<path d="M151.37 237.94C151.37 237.94 151.29 237.94 151.25 237.91L99.2299 211.68C99.0999 211.61 99.0399 211.45 99.1099 211.32C99.1799 211.19 99.3399 211.14 99.4699 211.2L151.36 237.36L237.89 184.07C238.01 183.99 238.18 184.03 238.26 184.16C238.34 184.29 238.3 184.45 238.17 184.53L151.51 237.89C151.51 237.89 151.42 237.93 151.37 237.93V237.94Z" fill="#FFF6CF"/>
<path d="M151.94 241.751C151.94 241.751 151.85 241.741 151.81 241.721L100.18 214.411C100.05 214.341 100 214.181 100.07 214.051C100.14 213.921 100.3 213.871 100.43 213.941L151.92 241.181L238.26 187.771C238.39 187.691 238.55 187.731 238.63 187.861C238.71 187.991 238.67 188.151 238.54 188.231L152.07 241.721C152.07 241.721 151.98 241.761 151.93 241.761L151.94 241.751Z" fill="#FFF6CF"/>
<path d="M150.91 227.071C150.85 227.071 150.79 227.061 150.74 227.031L110.95 208.211C110.81 208.151 110.72 208.011 110.72 207.861C110.72 207.711 110.8 207.571 110.93 207.501L189.58 165.551C189.68 165.501 189.79 165.491 189.89 165.521L231.03 179.091C231.18 179.141 231.29 179.271 231.3 179.431C231.32 179.591 231.24 179.741 231.1 179.821L151.11 227.011C151.05 227.051 150.98 227.071 150.91 227.071ZM112.01 207.831L150.89 226.211L229.94 179.571L189.81 166.331L112.02 207.821L112.01 207.831Z" fill="#8DC9A6"/>
<path d="M188.17 183.211C188.17 183.211 181.05 184.991 181.04 179.821C181.04 177.821 182.5 176.771 183.66 176.421C186.65 175.531 189.58 178.281 188.89 181.331C188.76 181.901 188.53 182.531 188.17 183.211Z" fill="#8DB79E"/>
<path d="M188.18 183.381C188.06 183.381 187.95 183.301 187.92 183.171C187.92 183.141 187.15 180.111 184.63 180.041C184.48 180.041 184.37 179.911 184.37 179.761C184.37 179.621 184.49 179.501 184.64 179.501C187.57 179.591 188.43 183.011 188.43 183.041C188.46 183.181 188.38 183.331 188.23 183.361C188.21 183.361 188.19 183.361 188.17 183.361L188.18 183.381Z" fill="#679B7C"/>
<path d="M173.37 191.201C173.37 191.201 166.25 192.981 166.24 187.811C166.24 185.811 167.7 184.761 168.86 184.411C171.85 183.521 174.78 186.271 174.09 189.321C173.96 189.891 173.73 190.521 173.37 191.201Z" fill="#8DB79E"/>
<path d="M173.02 191.331C172.9 191.331 172.79 191.251 172.76 191.121C172.76 191.091 171.99 188.061 169.47 187.991C169.32 187.991 169.21 187.861 169.21 187.711C169.21 187.561 169.31 187.461 169.49 187.451C172.42 187.541 173.28 190.961 173.28 190.991C173.31 191.131 173.23 191.281 173.08 191.311C173.06 191.311 173.04 191.311 173.02 191.311V191.331Z" fill="#679B7C"/>
<path d="M190.85 180.011C190.85 180.011 193.06 187.011 197.47 184.321C199.18 183.281 199.31 181.481 198.99 180.311C198.18 177.291 194.31 176.241 192.07 178.421C191.65 178.831 191.23 179.351 190.85 180.011Z" fill="#8DB79E"/>
<path d="M195.63 181.501C195.54 181.501 195.46 181.461 195.41 181.381C194.02 179.271 191.05 180.211 191.02 180.221C190.88 180.271 190.73 180.191 190.68 180.051C190.63 179.911 190.71 179.761 190.85 179.711C190.88 179.701 194.25 178.641 195.85 181.091C195.93 181.211 195.9 181.381 195.77 181.461C195.72 181.491 195.67 181.501 195.62 181.501H195.63Z" fill="#679B7C"/>
<path d="M180.21 188.201C180.21 188.201 177.46 195.001 182.57 195.741C184.55 196.031 185.79 194.721 186.3 193.621C187.6 190.781 185.28 187.501 182.17 187.761C181.58 187.811 180.93 187.951 180.21 188.211V188.201Z" fill="#8DB79E"/>
<path d="M182.76 192.411C182.76 192.411 182.74 192.411 182.73 192.411C182.58 192.391 182.48 192.261 182.49 192.111C182.77 189.601 179.88 188.431 179.85 188.421C179.71 188.371 179.64 188.211 179.7 188.071C179.76 187.931 179.91 187.871 180.05 187.921C180.08 187.931 183.35 189.261 183.03 192.171C183.01 192.311 182.9 192.411 182.76 192.411Z" fill="#679B7C"/>
<path d="M167.33 198.55C167.33 198.55 167.3 198.55 167.29 198.55C167.14 198.53 167.04 198.39 167.07 198.24C167.1 198.02 168.02 192.78 177.1 188.66C177.59 188.44 178.12 188.26 178.74 188.1C180.6 187.64 185.2 186.24 187.71 183.31C188.14 182.71 192.1 177.27 193.74 177.16C193.88 177.14 194.02 177.26 194.03 177.41C194.03 177.56 193.93 177.69 193.78 177.69C192.73 177.76 189.76 181.37 188.13 183.64C185.5 186.71 180.78 188.15 178.87 188.62C178.29 188.77 177.78 188.94 177.32 189.15C168.53 193.14 167.61 198.27 167.6 198.32C167.58 198.45 167.47 198.55 167.34 198.55H167.33Z" fill="#679B7C"/>
</g>
<defs>
<clipPath id="clip0_2095_2625">
<rect width="390.08" height="270.43" fill="white"/>
</clipPath>
</defs>
</svg>
