<svg width="23" height="23" viewBox="0 0 23 23" fill="none" xmlns="http://www.w3.org/2000/svg">
<g id="&#235;&#170;&#168;&#236;&#158;&#132;&#236;&#158;&#165; &#236;&#149;&#132;&#236;&#157;&#180;&#236;&#189;&#152;" clip-path="url(#clip0_1856_1697)">
<path id="Vector" d="M11.5 22.5C17.5751 22.5 22.5 17.5751 22.5 11.5C22.5 5.42487 17.5751 0.5 11.5 0.5C5.42487 0.5 0.5 5.42487 0.5 11.5C0.5 17.5751 5.42487 22.5 11.5 22.5Z" fill="#60B28D" stroke="white" stroke-miterlimit="10"/>
<g id="Group">
<path id="Vector_2" d="M11.4999 18.2496C11.4399 18.2496 11.3799 18.2396 11.3299 18.2096L4.37992 14.7396C4.24992 14.6696 4.16992 14.5396 4.16992 14.3896V5.12963C4.16992 4.99963 4.23992 4.86963 4.34992 4.79963C4.45992 4.72963 4.60992 4.71963 4.72992 4.77963L11.6799 8.24963C11.8099 8.31963 11.8899 8.44963 11.8899 8.59963V17.8596C11.8899 17.9896 11.8199 18.1196 11.7099 18.1896C11.6499 18.2296 11.5799 18.2496 11.5099 18.2496H11.4999ZM4.93992 14.1496L11.1199 17.2396V8.83963L4.93992 5.74963V14.1496Z" fill="white"/>
<path id="Vector_3" d="M11.4999 18.2496C11.4299 18.2496 11.3599 18.2296 11.2999 18.1896C11.1899 18.1196 11.1199 17.9896 11.1199 17.8596V8.59963C11.1199 8.44963 11.1999 8.31963 11.3299 8.24963L18.2799 4.77963C18.3999 4.71963 18.5399 4.72963 18.6599 4.79963C18.7699 4.86963 18.8399 4.99963 18.8399 5.12963V14.3896C18.8399 14.5396 18.7599 14.6696 18.6299 14.7396L11.6799 18.2096C11.6299 18.2396 11.5699 18.2496 11.5099 18.2496H11.4999ZM11.8899 8.83963V17.2396L18.0699 14.1496V5.75963L11.8899 8.84963V8.83963Z" fill="white"/>
<path id="Vector_4" d="M8.40987 7.06004V10.15L7.63987 8.61004L6.86987 9.38004V6.29004L8.40987 7.06004Z" fill="white"/>
</g>
</g>
<defs>
<clipPath id="clip0_1856_1697">
<rect width="23" height="23" fill="white"/>
</clipPath>
</defs>
</svg>
