<svg width="23" height="23" viewBox="0 0 23 23" fill="none" xmlns="http://www.w3.org/2000/svg">
<g clip-path="url(#clip0_1856_1697)">
<path d="M11.5 22.5C17.5751 22.5 22.5 17.5751 22.5 11.5C22.5 5.42487 17.5751 0.5 11.5 0.5C5.42487 0.5 0.5 5.42487 0.5 11.5C0.5 17.5751 5.42487 22.5 11.5 22.5Z" fill="#60B28D" stroke="white" stroke-miterlimit="10"/>
<path d="M11.4999 19.2496C11.4399 19.2496 11.3799 19.2396 11.3299 19.2096L4.37992 15.7396C4.24992 15.6696 4.16992 15.5396 4.16992 15.3896V6.12963C4.16992 5.99963 4.23992 5.86963 4.34992 5.79963C4.45992 5.72963 4.60992 5.71963 4.72992 5.77963L11.6799 9.24963C11.8099 9.31963 11.8899 9.44963 11.8899 9.59963V18.8596C11.8899 18.9896 11.8199 19.1196 11.7099 19.1896C11.6499 19.2296 11.5799 19.2496 11.5099 19.2496H11.4999ZM4.93992 15.1496L11.1199 18.2396V9.83963L4.93992 6.74963V15.1496Z" fill="white"/>
<path d="M11.4999 19.2496C11.4299 19.2496 11.3599 19.2296 11.2999 19.1896C11.1899 19.1196 11.1199 18.9896 11.1199 18.8596V9.59963C11.1199 9.44963 11.1999 9.31963 11.3299 9.24963L18.2799 5.77963C18.3999 5.71963 18.5399 5.72963 18.6599 5.79963C18.7699 5.86963 18.8399 5.99963 18.8399 6.12963V15.3896C18.8399 15.5396 18.7599 15.6696 18.6299 15.7396L11.6799 19.2096C11.6299 19.2396 11.5699 19.2496 11.5099 19.2496H11.4999ZM11.8899 9.83963V18.2396L18.0699 15.1496V6.75963L11.8899 9.84963V9.83963Z" fill="white"/>
<path d="M8.40987 8.06004V11.15L7.63987 9.61004L6.86987 10.38V7.29004L8.40987 8.06004Z" fill="white"/>
</g>
<defs>
<clipPath id="clip0_1856_1697">
<rect width="23" height="23" fill="white"/>
</clipPath>
</defs>
</svg>
