<svg width="54" height="54" viewBox="0 0 54 54" fill="none" xmlns="http://www.w3.org/2000/svg">
<circle cx="27" cy="27" r="27" fill="#60B28D" fill-opacity="0.12"/>
<g clip-path="url(#clip0_1851_600)">
<path d="M27.0001 39.7096C26.9201 39.7096 26.8401 39.7096 26.7601 39.6796C26.3701 39.5696 26.0901 39.2196 26.0901 38.8096V18.9096C26.0901 18.7396 26.1401 18.5696 26.2301 18.4296C31.0601 10.7096 41.6101 13.4796 41.7101 13.5096C42.1001 13.6196 42.3801 13.9696 42.3801 14.3796V34.2796C42.3801 34.5496 42.2601 34.7996 42.0601 34.9696C41.8601 35.1396 41.5901 35.2196 41.3301 35.1696C31.2801 33.4896 27.9201 39.0196 27.7901 39.2496C27.6201 39.5296 27.3201 39.6996 27.0101 39.6996L27.0001 39.7096ZM27.9001 19.1696V36.3896C29.9001 34.6096 33.8201 32.3896 40.5701 33.2296V15.1096C38.3901 14.6996 31.4101 13.8696 27.9001 19.1696Z" fill="#60B28D"/>
<path d="M26.9999 39.7096C26.6799 39.7096 26.3799 39.5396 26.2199 39.2596C26.0799 39.0196 22.7199 33.4996 12.6799 35.1796C12.4199 35.2196 12.1499 35.1496 11.9499 34.9796C11.7499 34.8096 11.6299 34.5596 11.6299 34.2896V14.3796C11.6299 13.9696 11.8999 13.6096 12.2999 13.5096C12.4099 13.4796 22.9599 10.7096 27.7799 18.4296C27.8699 18.5696 27.9199 18.7396 27.9199 18.9096V38.8096C27.9199 39.2196 27.6399 39.5796 27.2499 39.6796C27.1699 39.6996 27.0899 39.7096 27.0199 39.7096H26.9999ZM16.2999 33.0496C21.3199 33.0496 24.3999 34.8796 26.0999 36.3896V19.1696C22.5899 13.8696 15.6099 14.6996 13.4299 15.1096V33.2396C14.4499 33.1096 15.4099 33.0496 16.2999 33.0496Z" fill="#60B28D"/>
<path d="M45.1 40.6195C45 40.6195 44.9 40.5995 44.8 40.5695C30.75 35.6095 27.8 39.2395 27.78 39.2795L26.23 38.3495C26.54 37.8395 29.61 33.5795 44.2 38.4495V19.3395C43.79 19.0495 42.87 18.5095 41.2 17.9495L41.77 16.2295C44.61 17.1695 45.63 18.1495 45.74 18.2595C45.91 18.4295 46.01 18.6595 46.01 18.8995V39.7095C46.01 39.9995 45.87 40.2795 45.63 40.4495C45.48 40.5595 45.29 40.6195 45.11 40.6195H45.1Z" fill="#60B28D"/>
<path d="M8.9 40.6193C8.72 40.6193 8.53 40.5593 8.38 40.4493C8.14 40.2793 8 39.9993 8 39.7093V18.9093C8 18.6693 8.1 18.4393 8.27 18.2693C8.38 18.1593 9.41 17.1893 12.24 16.2393L12.81 17.9593C11.15 18.5093 10.22 19.0593 9.81 19.3493V38.4493C24.4 33.5793 27.47 37.8293 27.78 38.3493L26.25 39.3093C26.25 39.3093 23.41 35.5693 9.22 40.5793C9.12 40.6093 9.02 40.6293 8.92 40.6293L8.9 40.6193Z" fill="#60B28D"/>
<path opacity="0.5" d="M12 17.0703L9 19.0703V40.0703L18 37.0703L26 38.0703L22 35.0703L15 34.0703H12V17.0703Z" fill="#60B28D"/>
<path opacity="0.5" d="M42 17.0703L45 19.0703V40.0703L36 37.0703L28 38.0703L32 35.0703L39 34.0703H42V17.0703Z" fill="#60B28D"/>
</g>
<defs>
<clipPath id="clip0_1851_600">
<rect width="38" height="27.62" fill="white" transform="translate(8 13)"/>
</clipPath>
</defs>
</svg>
