<svg width="54" height="54" viewBox="0 0 54 54" fill="none" xmlns="http://www.w3.org/2000/svg">
<circle cx="27" cy="27" r="27" fill="#F05050" fill-opacity="0.12"/>
<g clip-path="url(#clip0_1856_1061)">
<path d="M24 11.12C26.72 11.12 28.94 13.33 28.94 16.06C28.94 18.79 26.73 21 24 21C21.27 21 19.06 18.79 19.06 16.06C19.06 13.33 21.27 11.12 24 11.12ZM24 9C20.1 9 16.95 12.16 16.95 16.05C16.95 19.94 20.11 23.1 24 23.1C27.89 23.1 31.05 19.94 31.05 16.05C31.05 12.16 27.9 9 24 9Z" fill="#F05050"/>
<path d="M27.16 38.6504H15.07C13.05 38.6504 11.19 37.0104 11.13 34.9904C10.98 30.4804 14.61 26.7604 19.08 26.7604H19.73C21.06 27.4704 22.52 27.8404 24.01 27.8404C25.5 27.8404 26.96 27.4704 28.29 26.7604H28.94C30.72 26.7604 32.36 27.3504 33.68 28.3404C33.96 28.5504 34.32 28.6204 34.66 28.5104H34.68C35.48 28.2604 35.66 27.1904 34.99 26.6804C33.31 25.4104 31.21 24.6504 28.94 24.6504H27.73C26.65 25.3204 25.39 25.7304 24.02 25.7304C22.65 25.7304 21.39 25.3204 20.31 24.6504H19.1C13.51 24.6404 9 29.1504 9 34.7204C9 38.0604 11.71 40.7704 15.05 40.7704H27.17C27.85 40.7704 28.32 40.1504 28.19 39.4804C28.19 39.4804 28.19 39.4704 28.19 39.4604C28.09 38.9804 27.66 38.6504 27.17 38.6504H27.16Z" fill="#F05050"/>
<g opacity="0.3">
<path d="M37.11 45.0004C41.4289 45.0004 44.93 41.4992 44.93 37.1804C44.93 32.8615 41.4289 29.3604 37.11 29.3604C32.7912 29.3604 29.29 32.8615 29.29 37.1804C29.29 41.4992 32.7912 45.0004 37.11 45.0004Z" fill="#F05050"/>
</g>
<path d="M40.04 40.6001C39.92 40.6001 39.79 40.5501 39.69 40.4601L33.83 34.6001C33.64 34.4101 33.64 34.1001 33.83 33.9101C34.02 33.7201 34.33 33.7201 34.52 33.9101L40.38 39.7701C40.57 39.9601 40.57 40.2701 40.38 40.4601C40.28 40.5601 40.16 40.6001 40.03 40.6001H40.04Z" fill="#F05050"/>
<path d="M34.18 40.6001C34.06 40.6001 33.93 40.5501 33.83 40.4601C33.64 40.2701 33.64 39.9601 33.83 39.7701L39.69 33.9101C39.88 33.7201 40.19 33.7201 40.38 33.9101C40.57 34.1001 40.57 34.4101 40.38 34.6001L34.52 40.4601C34.42 40.5601 34.3 40.6001 34.17 40.6001H34.18Z" fill="#F05050"/>
</g>
<defs>
<clipPath id="clip0_1856_1061">
<rect width="35.93" height="36" fill="white" transform="translate(9 9)"/>
</clipPath>
</defs>
</svg>
