<svg width="54" height="54" viewBox="0 0 54 54" fill="none" xmlns="http://www.w3.org/2000/svg">
<circle cx="27" cy="27" r="27" fill="#F05050" fill-opacity="0.12"/>
<g clip-path="url(#clip0_1853_723)">
<path d="M12.9236 40.3153C12.4181 40.3153 12 39.9069 12 39.3917V9.92361C12 9.40833 12.4083 9 12.9236 9H35.9458C36.4514 9 36.8694 9.40833 36.8694 9.92361V20.0542C36.8694 20.5597 36.4611 20.9778 35.9458 20.9778C35.4306 20.9778 35.0222 20.5694 35.0222 20.0542V10.8375H13.8375V39.3917C13.8375 39.8972 13.4292 40.3153 12.9139 40.3153H12.9236Z" fill="#F05050"/>
<path d="M26.7389 45.8477C26.4861 45.8477 26.2236 45.7893 25.9806 45.6824L12.6319 41.1907C12.2528 41.0643 12 40.7143 12 40.3157V9.92407C12 9.62268 12.1458 9.34073 12.3986 9.16573C12.6417 9.00045 12.9625 8.95184 13.2444 9.05879L27.9833 14.581C28.3431 14.7171 28.5764 15.0574 28.5764 15.4463V44.0005C28.5764 44.6421 28.2458 45.2255 27.7014 45.5657C27.4 45.7505 27.0694 45.838 26.7292 45.838L26.7389 45.8477ZM13.8375 39.6546L26.6125 43.9518C26.6125 43.9518 26.6903 43.981 26.7292 44.0005V16.088L13.8375 11.2463V39.6449V39.6546Z" fill="#F05050"/>
<path d="M45.2694 25.5767H32.2708C31.7652 25.5767 31.3472 25.1684 31.3472 24.6531C31.3472 24.1378 31.7555 23.7295 32.2708 23.7295H45.2694C45.7749 23.7295 46.193 24.1378 46.193 24.6531C46.193 25.1684 45.7847 25.5767 45.2694 25.5767Z" fill="#F05050"/>
<path d="M40.389 31.108C40.1459 31.108 39.9126 31.0108 39.7279 30.8261C39.3779 30.4664 39.3779 29.883 39.7473 29.5233L44.7543 24.6622L39.7473 19.8011C39.3779 19.4414 39.3779 18.8678 39.7279 18.4983C40.0779 18.1289 40.6612 18.1289 41.0307 18.4789L46.7182 24.0011C46.8932 24.1761 47.0001 24.4094 47.0001 24.6622C47.0001 24.915 46.9029 25.1483 46.7182 25.3233L41.0307 30.8455C40.8557 31.0205 40.6223 31.108 40.389 31.108Z" fill="#F05050"/>
<path d="M35.9459 40.3157H28.5764C28.0709 40.3157 27.6528 39.9073 27.6528 39.3921C27.6528 38.8768 28.0612 38.4684 28.5764 38.4684H35.0223V29.2615C35.0223 28.7559 35.4306 28.3379 35.9459 28.3379C36.4612 28.3379 36.8695 28.7462 36.8695 29.2615V39.3921C36.8695 39.8976 36.4612 40.3157 35.9459 40.3157Z" fill="#F05050"/>
<g opacity="0.4">
<path d="M12.9236 9.92383V40.3155L26.7389 44.9238V15.4461L12.9236 9.92383Z" fill="#F05050"/>
</g>
</g>
<defs>
<clipPath id="clip0_1853_723">
<rect width="35" height="36.8472" fill="white" transform="translate(12 9)"/>
</clipPath>
</defs>
</svg>
