<svg width="24" height="24" viewBox="0 0 24 24" fill="none" xmlns="http://www.w3.org/2000/svg">
<g id="Layer_2" clip-path="url(#clip0_1817_365)">
<g id="Group">
<path id="Vector" d="M3.67008 20.49C2.05008 18.87 2.05008 16.24 3.67008 14.62L8.24008 10.05C9.86008 8.42996 12.4901 8.42996 14.1101 10.05C14.4701 10.41 14.4701 10.99 14.1101 11.36C13.7501 11.73 13.1701 11.72 12.8001 11.36C11.9001 10.46 10.4401 10.46 9.54008 11.36L4.97008 15.93C4.07008 16.83 4.07008 18.29 4.97008 19.19C5.87008 20.09 7.33008 20.09 8.23008 19.19L11.1701 16.25C11.5301 15.89 12.1101 15.89 12.4801 16.25C12.8501 16.61 12.8401 17.19 12.4801 17.56L9.54008 20.5C7.92008 22.12 5.29008 22.12 3.67008 20.5V20.49Z" fill="#707070"/>
<path id="Vector_2" d="M3.67008 20.49C2.05008 18.87 2.05008 16.24 3.67008 14.62L8.24008 10.05C9.86008 8.42996 12.4901 8.42996 14.1101 10.05C14.4701 10.41 14.4701 10.99 14.1101 11.36C13.7501 11.73 13.1701 11.72 12.8001 11.36C11.9001 10.46 10.4401 10.46 9.54008 11.36L4.97008 15.93C4.07008 16.83 4.07008 18.29 4.97008 19.19C5.87008 20.09 7.33008 20.09 8.23008 19.19L11.1701 16.25C11.5301 15.89 12.1101 15.89 12.4801 16.25C12.8501 16.61 12.8401 17.19 12.4801 17.56L9.54008 20.5C7.92008 22.12 5.29008 22.12 3.67008 20.5V20.49Z" fill="#707070"/>
<path id="Vector_3" d="M10.2002 13.9599C9.84018 13.5999 9.84018 13.0199 10.2002 12.6499C10.5602 12.2799 11.1402 12.2899 11.5102 12.6499C12.4102 13.5499 13.8702 13.5499 14.7702 12.6499L19.3402 8.07992C20.2402 7.17992 20.2402 5.71992 19.3402 4.81992C18.4402 3.91992 16.9802 3.91992 16.0802 4.81992L13.1402 7.75992C12.7802 8.11992 12.2002 8.11992 11.8302 7.75992C11.4602 7.39992 11.4702 6.81992 11.8302 6.44992L14.7702 3.50992C16.3902 1.88992 19.0202 1.88992 20.6402 3.50992C22.2602 5.12992 22.2602 7.75992 20.6402 9.37992L16.0702 13.9499C14.4502 15.5699 11.8202 15.5699 10.2002 13.9499V13.9599Z" fill="#707070"/>
</g>
</g>
<defs>
<clipPath id="clip0_1817_365">
<rect width="24" height="24" fill="white"/>
</clipPath>
</defs>
</svg>
