<svg width="24" height="24" viewBox="0 0 24 24" fill="none" xmlns="http://www.w3.org/2000/svg">
<g id="Layer_2" clip-path="url(#clip0_1816_343)">
<g id="Group">
<path id="Vector" d="M12 17.7402C16.45 17.7402 18.76 18.8802 18.99 19.3702C18.76 19.8602 16.44 21.0002 12 21.0002C7.56 21.0002 5.24 19.8602 5.01 19.3702C5.24 18.8802 7.56 17.7402 12 17.7402ZM12 16.7402C7.58 16.7402 4 17.9202 4 19.3702C4 20.8202 7.58 22.0002 12 22.0002C16.42 22.0002 20 20.8202 20 19.3702C20 17.9202 16.42 16.7402 12 16.7402Z" fill="#707070"/>
<g id="Group_2">
<path id="Vector_2" d="M12 2.00977C8.79996 2.00977 6.20996 4.59977 6.20996 7.79977C6.20996 10.9998 12 19.8998 12 19.8998C12 19.8998 17.79 10.9998 17.79 7.79977C17.79 4.59977 15.2 2.00977 12 2.00977ZM12 9.37977C10.84 9.37977 9.89996 8.43977 9.89996 7.27977C9.89996 6.11977 10.84 5.17977 12 5.17977C13.16 5.17977 14.1 6.11977 14.1 7.27977C14.1 8.43977 13.16 9.37977 12 9.37977Z" fill="#707070"/>
<path id="Vector_3" d="M12.0001 20.1399L11.8901 19.9699C11.6501 19.6099 6.08008 10.9899 6.08008 7.79988C6.08008 4.60988 8.74008 1.87988 12.0001 1.87988C15.2601 1.87988 17.9201 4.53988 17.9201 7.79988C17.9201 11.0599 12.3501 19.6099 12.1101 19.9699L12.0001 20.1399ZM12.0001 2.13988C8.88008 2.13988 6.34008 4.67988 6.34008 7.79988C6.34008 10.6799 11.2001 18.4099 12.0001 19.6599C12.8001 18.4099 17.6601 10.6799 17.6601 7.79988C17.6601 4.67988 15.1201 2.13988 12.0001 2.13988ZM12.0001 9.50988C10.7701 9.50988 9.76008 8.50988 9.76008 7.26988C9.76008 6.02988 10.7601 5.02988 12.0001 5.02988C13.2401 5.02988 14.2401 6.02988 14.2401 7.26988C14.2401 8.50988 13.2401 9.50988 12.0001 9.50988ZM12.0001 5.29988C10.9101 5.29988 10.0301 6.17988 10.0301 7.26988C10.0301 8.35988 10.9101 9.23988 12.0001 9.23988C13.0901 9.23988 13.9701 8.35988 13.9701 7.26988C13.9701 6.17988 13.0901 5.29988 12.0001 5.29988Z" fill="white"/>
</g>
</g>
</g>
<defs>
<clipPath id="clip0_1816_343">
<rect width="24" height="24" fill="white"/>
</clipPath>
</defs>
</svg>
