<svg width="24" height="24" viewBox="0 0 24 24" fill="none" xmlns="http://www.w3.org/2000/svg">
<g id="Layer_2" clip-path="url(#clip0_1815_315)">
<g id="Group">
<g id="Group_2">
<path id="Vector" d="M14.4699 11.1C16.4305 11.1 18.0199 9.51061 18.0199 7.55C18.0199 5.58939 16.4305 4 14.4699 4C12.5093 4 10.9199 5.58939 10.9199 7.55C10.9199 9.51061 12.5093 11.1 14.4699 11.1Z" fill="#707070"/>
<path id="Vector_2" d="M16.9499 11.8799H16.3399C15.7999 12.2199 15.1599 12.4199 14.4699 12.4199C13.7799 12.4199 13.1399 12.2199 12.5999 11.8799H11.9899C9.18991 11.8799 6.90991 14.1499 6.90991 16.9599C6.90991 18.6399 8.26991 20.0099 9.95991 20.0099H18.9799C20.6599 20.0099 22.0299 18.6499 22.0299 16.9599C22.0299 14.1599 19.7599 11.8799 16.9499 11.8799Z" fill="#707070"/>
</g>
<g id="Group_3">
<path id="Vector_3" d="M6.88007 9.46961C8.15585 9.46961 9.19007 8.43539 9.19007 7.15961C9.19007 5.88383 8.15585 4.84961 6.88007 4.84961C5.60429 4.84961 4.57007 5.88383 4.57007 7.15961C4.57007 8.43539 5.60429 9.46961 6.88007 9.46961Z" fill="#707070"/>
<path id="Vector_4" d="M11.08 11.2597H11.24C10.65 10.3797 9.63996 9.96973 8.49996 9.96973H8.09996C7.74996 10.1897 7.32996 10.3197 6.87996 10.3197C6.42996 10.3197 6.01996 10.1897 5.65996 9.96973H5.25996C3.43996 9.96973 1.95996 11.4497 1.95996 13.2697C1.95996 14.3597 2.84996 15.2497 3.93996 15.2497H6.40996C6.77996 13.0897 8.88996 11.3497 11.07 11.2597H11.08Z" fill="#707070"/>
</g>
</g>
</g>
<defs>
<clipPath id="clip0_1815_315">
<rect width="24" height="24" fill="white"/>
</clipPath>
</defs>
</svg>
