<svg width="32" height="32" viewBox="0 0 32 32" fill="none" xmlns="http://www.w3.org/2000/svg">
<g clip-path="url(#clip0_1796_274)">
<path d="M18.7098 15.2502C20.8637 15.2502 22.6098 13.5041 22.6098 11.3502C22.6098 9.19629 20.8637 7.4502 18.7098 7.4502C16.5559 7.4502 14.8098 9.19629 14.8098 11.3502C14.8098 13.5041 16.5559 15.2502 18.7098 15.2502Z" fill="white"/>
<path d="M21.4299 16.0898H20.7599C20.1599 16.4598 19.4599 16.6898 18.7099 16.6898C17.9599 16.6898 17.2599 16.4698 16.6599 16.0898H15.9899C12.9199 16.0898 10.4199 18.5798 10.4199 21.6598C10.4199 23.4998 11.9199 24.9998 13.7599 24.9998H23.6599C25.4999 24.9998 26.9999 23.4998 26.9999 21.6598C26.9999 18.5898 24.5099 16.0898 21.4299 16.0898Z" fill="white"/>
<path d="M10.3901 13.4506C11.7874 13.4506 12.9201 12.3179 12.9201 10.9206C12.9201 9.52334 11.7874 8.39062 10.3901 8.39062C8.99283 8.39062 7.86011 9.52334 7.86011 10.9206C7.86011 12.3179 8.99283 13.4506 10.3901 13.4506Z" fill="white"/>
<path d="M14.99 15.4207H15.16C14.51 14.4507 13.41 14.0107 12.15 14.0107H11.71C11.32 14.2507 10.87 14.4007 10.38 14.4007C9.88999 14.4007 9.43999 14.2507 9.04999 14.0107H8.60999C6.60999 14.0107 4.98999 15.6307 4.98999 17.6307C4.98999 18.8307 5.95999 19.8007 7.15999 19.8007H9.86999C10.28 17.4307 12.59 15.5207 14.98 15.4207H14.99Z" fill="white"/>
</g>
<defs>
<clipPath id="clip0_1796_274">
<rect width="32" height="32" fill="white"/>
</clipPath>
</defs>
</svg>
