<svg width="390" height="245" viewBox="0 0 390 245" fill="none" xmlns="http://www.w3.org/2000/svg">
<g clip-path="url(#clip0_2033_1828)">
<path d="M390 0H0V245H390V0Z" fill="#FFF2D6"/>
<path d="M299.99 40.0996C331.42 40.0996 356.93 65.6196 356.93 97.0396V215.26C356.93 224.79 349.19 232.53 339.66 232.53H260.32C250.79 232.53 243.05 224.79 243.05 215.26V97.0396C243.05 65.6096 268.57 40.0996 299.99 40.0996Z" fill="#CBD9E6"/>
<path d="M251.04 215.26V97.0398C251.04 67.0398 272.62 42.4698 299.99 40.2698C298.67 40.1598 297.34 40.0898 295.99 40.0898C266.75 40.0898 243.04 65.5798 243.04 97.0298V215.25C243.04 224.79 250.23 232.52 259.1 232.52H267.09C258.22 232.52 251.03 224.79 251.03 215.25L251.04 215.26Z" fill="#FFD283"/>
<path d="M390 217.14H0V245H390V217.14Z" fill="#D4A980"/>
<path d="M82.43 62.5098C85.9536 62.5098 88.81 60.607 88.81 58.2598C88.81 55.9126 85.9536 54.0098 82.43 54.0098C78.9065 54.0098 76.05 55.9126 76.05 58.2598C76.05 60.607 78.9065 62.5098 82.43 62.5098Z" fill="#FFE7BD"/>
<path d="M82.4299 38.81V0" stroke="#3D322A" stroke-width="2" stroke-miterlimit="10"/>
<path d="M114.8 57.8305H50.0699C48.8899 57.8305 47.9299 56.8704 47.9299 55.6904V53.1505C47.9299 52.2805 48.4499 51.5004 49.2599 51.1704L81.6499 38.4905C82.1499 38.2905 82.7099 38.2805 83.2099 38.4705L115.55 51.1904C116.38 51.5004 116.93 52.3004 116.93 53.1904V55.6904C116.93 56.8704 115.97 57.8305 114.79 57.8305H114.8Z" fill="#60B28D"/>
<path d="M47.9299 53.1597V55.6997C47.9299 56.8797 48.8899 57.8397 50.0699 57.8397H114.8C115.98 57.8397 116.94 56.8797 116.94 55.6997V53.1997C116.94 53.0197 116.9 52.8497 116.86 52.6797H47.9999C47.9599 52.8397 47.9299 52.9897 47.9299 53.1597Z" fill="#4A8E6E"/>
<path d="M356.89 209.81H243.1V217.14H356.89V209.81Z" fill="#FFD283"/>
<path d="M275.83 157.69C284.507 157.69 291.54 150.656 291.54 141.98C291.54 133.303 284.507 126.27 275.83 126.27C267.154 126.27 260.12 133.303 260.12 141.98C260.12 150.656 267.154 157.69 275.83 157.69Z" fill="#FF8F71"/>
<path opacity="0.5" d="M112.91 57.8301H82.43H51.96L0 193.24V245H82.43H184.73L112.91 57.8301Z" fill="#FFFEF8"/>
<path d="M250.73 141.12C250.73 141.12 266.66 152.09 289.32 141.74C313.2 130.83 342.33 142.46 342.33 142.46C342.33 142.46 353.3 145.82 356.89 141.34V210.76H250.74V141.11L250.73 141.12Z" fill="#FFF7E6"/>
<g clip-path="url(#clip1_2033_1828)">
<path d="M390 0H0V245H390V0Z" fill="#FFF2D6"/>
<path d="M299.99 40.0996C331.42 40.0996 356.93 65.6196 356.93 97.0396V215.26C356.93 224.79 349.19 232.53 339.66 232.53H260.32C250.79 232.53 243.05 224.79 243.05 215.26V97.0396C243.05 65.6096 268.57 40.0996 299.99 40.0996Z" fill="#CBD9E6"/>
<path d="M278 158C287.941 158 296 150.165 296 140.5C296 130.835 287.941 123 278 123C268.059 123 260 130.835 260 140.5C260 150.165 268.059 158 278 158Z" fill="#FF8F71"/>
<path d="M250.73 147.049C250.73 147.049 266.66 158.019 289.32 147.669C313.2 136.759 342.33 148.389 342.33 148.389C342.33 148.389 353.3 151.749 356.89 147.269V216.689H250.74V147.039L250.73 147.049Z" fill="#FFF7E6"/>
<path d="M251.04 215.26V97.0398C251.04 67.0398 272.62 42.4698 299.99 40.2698C298.67 40.1598 297.34 40.0898 295.99 40.0898C266.75 40.0898 243.04 65.5798 243.04 97.0298V215.25C243.04 224.79 250.23 232.52 259.1 232.52H267.09C258.22 232.52 251.03 224.79 251.03 215.25L251.04 215.26Z" fill="#FFD695"/>
<path d="M390 217.14H0V245H390V217.14Z" fill="#FFD695"/>
<path d="M82.43 62.5098C85.9536 62.5098 88.81 60.607 88.81 58.2598C88.81 55.9126 85.9536 54.0098 82.43 54.0098C78.9065 54.0098 76.05 55.9126 76.05 58.2598C76.05 60.607 78.9065 62.5098 82.43 62.5098Z" fill="#FFE7BD"/>
<path d="M82.4299 38.81V0" stroke="#D4A980" stroke-width="3" stroke-miterlimit="10"/>
<path d="M114.8 57.8305H50.0699C48.8899 57.8305 47.9299 56.8704 47.9299 55.6904V53.1505C47.9299 52.2805 48.4499 51.5004 49.2599 51.1704L81.6499 38.4905C82.1499 38.2905 82.7099 38.2805 83.2099 38.4705L115.55 51.1904C116.38 51.5004 116.93 52.3004 116.93 53.1904V55.6904C116.93 56.8704 115.97 57.8305 114.79 57.8305H114.8Z" fill="#FFD283"/>
<path d="M47.9299 53.1597V55.6997C47.9299 56.8797 48.8899 57.8397 50.0699 57.8397H114.8C115.98 57.8397 116.94 56.8797 116.94 55.6997V53.1997C116.94 53.0197 116.9 52.8497 116.86 52.6797H47.9999C47.9599 52.8397 47.9299 52.9897 47.9299 53.1597Z" fill="#EFB860"/>
<path opacity="0.5" d="M112.91 57.8301H82.43H51.96L0 193.24V245H82.43H184.73L112.91 57.8301Z" fill="#FFFEF8"/>
</g>
<g clip-path="url(#clip2_2033_1828)">
<path d="M390 0H0V245H390V0Z" fill="#FFF9EA"/>
<path d="M308.75 40.0996C340.18 40.0996 365.69 65.6196 365.69 97.0396V215.26C365.69 224.79 357.95 232.53 348.42 232.53H269.08C259.55 232.53 251.81 224.79 251.81 215.26V97.0396C251.81 65.6096 277.33 40.0996 308.75 40.0996Z" stroke="#FFEBC0" stroke-miterlimit="10"/>
<path d="M312.58 40.0996C344.01 40.0996 369.52 65.6196 369.52 97.0396V215.26C369.52 224.79 361.78 232.53 352.25 232.53H272.91C263.38 232.53 255.64 224.79 255.64 215.26V97.0396C255.64 65.6096 281.16 40.0996 312.58 40.0996Z" fill="#FFFEFB"/>
<path d="M293.1 161.91C303.301 161.91 311.57 153.64 311.57 143.44C311.57 133.239 303.301 124.97 293.1 124.97C282.899 124.97 274.63 133.239 274.63 143.44C274.63 153.64 282.899 161.91 293.1 161.91Z" fill="#FF8F71"/>
<path d="M263.63 215.26V97.0398C263.63 67.0398 285.21 42.4698 312.58 40.2698C311.26 40.1598 309.93 40.0898 308.58 40.0898C279.34 40.0898 255.63 65.5798 255.63 97.0298V215.25C255.63 224.79 262.82 232.52 271.69 232.52H279.68C270.81 232.52 263.62 224.79 263.62 215.25L263.63 215.26Z" fill="#FFEBC0"/>
<path d="M390 217.14H0V245H390V217.14Z" fill="#FFF0C9"/>
<path opacity="0.5" d="M112.91 58H82.43H51.96L0 193.41V245.17H82.43H184.73L112.91 58Z" fill="white"/>
<path d="M369.53 147.76H263.63V217.13H369.53V147.76Z" fill="#D0E3F4"/>
<path d="M275.06 147.76L311.06 147.78C311.06 147.78 311.13 148.46 312.33 151.08C312.33 151.08 315 156.56 308.68 156.97C302.36 157.38 304.63 160.87 304.63 160.87C304.63 160.87 306.81 165.68 297.1 166.15C297.1 166.15 289.15 166.85 289.48 162.28C289.48 162.28 290.01 157.18 284.7 158.38C284.7 158.38 278.18 159.57 276.56 155.8C276.19 154.93 276.28 153.95 276.64 153.08C276.96 152.29 277.1 151.16 275.63 150.75C275.63 150.75 273.12 149.84 275.06 147.76Z" fill="#FFF7E6"/>
<path d="M217.59 194.17C217.59 194.17 220.22 166.54 229.46 170.64C237.61 174.26 217.59 194.17 217.59 194.17Z" fill="#87C6A8"/>
<path d="M217.46 161.56C217.46 161.56 216.35 138.79 208.62 141.8C201.8 144.46 217.46 161.56 217.46 161.56Z" fill="#87C6A8"/>
<path d="M217.06 204.119V161.389C217.06 161.389 220.11 149.089 229.4 151.999C230.09 152.219 230.75 152.559 231.27 153.069C231.95 153.749 232.54 154.859 231.85 156.429C230.91 158.579 227.31 157.929 225.57 157.479C223.83 157.029 221.94 157.159 220.36 158.039C219.24 158.659 218.07 159.689 217.07 161.399" fill="#87C6A8"/>
<path d="M217.26 193.549C217.26 193.549 214.75 168.819 206.7 173.379C197.09 178.819 217.26 193.549 217.26 193.549Z" fill="#87C6A8"/>
<path d="M231.85 156.42C232.54 154.85 231.94 153.74 231.27 153.06C230.76 152.55 230.1 152.21 229.4 151.99C224.69 150.52 221.58 152.96 219.66 155.72C219.68 155.72 222.16 155.51 225.28 157.41C225.37 157.43 225.47 157.45 225.56 157.47C227.3 157.92 230.9 158.57 231.84 156.42H231.85Z" fill="#BBEFD5"/>
<path d="M217.26 160.46V206.13" stroke="#87C6A8" stroke-miterlimit="10" stroke-linecap="round"/>
<path d="M229.65 212.39L224.34 201.68H210.2L204.89 212.39C204.89 212.39 201.38 218.82 208.3 219.69H214.4C214.5 220.07 214.83 220.35 215.24 220.35H219.52C219.93 220.35 220.26 220.07 220.36 219.69H226.25C233.17 218.82 229.66 212.39 229.66 212.39H229.65Z" fill="#87C6A8"/>
<path d="M82.43 62.5098C85.9536 62.5098 88.81 60.607 88.81 58.2598C88.81 55.9126 85.9536 54.0098 82.43 54.0098C78.9065 54.0098 76.05 55.9126 76.05 58.2598C76.05 60.607 78.9065 62.5098 82.43 62.5098Z" fill="#FEFFD0"/>
<path d="M82.4299 38.81V0" stroke="#FFE6A9" stroke-width="3" stroke-miterlimit="10"/>
<path d="M114.8 57.8305H50.0699C48.8899 57.8305 47.9299 56.8704 47.9299 55.6904V53.1505C47.9299 52.2805 48.4499 51.5004 49.2599 51.1704L81.6499 38.4905C82.1499 38.2905 82.7099 38.2805 83.2099 38.4705L115.55 51.1904C116.38 51.5004 116.93 52.3004 116.93 53.1904V55.6904C116.93 56.8704 115.97 57.8305 114.79 57.8305H114.8Z" fill="#FFEBC0"/>
<path d="M47.9299 53.1597V55.6997C47.9299 56.8797 48.8899 57.8397 50.0699 57.8397H114.8C115.98 57.8397 116.94 56.8797 116.94 55.6997V53.1997C116.94 53.0197 116.9 52.8497 116.86 52.6797H47.9999C47.9599 52.8397 47.9299 52.9897 47.9299 53.1597Z" fill="#FFDDA1"/>
</g>
</g>
<defs>
<clipPath id="clip0_2033_1828">
<rect width="390" height="245" fill="white"/>
</clipPath>
<clipPath id="clip1_2033_1828">
<rect width="390" height="245" fill="white"/>
</clipPath>
<clipPath id="clip2_2033_1828">
<rect width="390" height="245" fill="white"/>
</clipPath>
</defs>
</svg>
