<svg width="54" height="54" viewBox="0 0 54 54" fill="none" xmlns="http://www.w3.org/2000/svg">
<circle cx="27" cy="27" r="27" fill="#F05050" fill-opacity="0.12"/>
<g clip-path="url(#clip0_1806_238)">
<path d="M27.0189 39.0027C26.4978 39.0027 26.0715 38.5764 26.0715 38.0553V20.548C26.0715 20.0269 26.4978 19.6006 27.0189 19.6006C27.54 19.6006 27.9663 20.0269 27.9663 20.548V38.0648C27.9663 38.5859 27.54 39.0122 27.0189 39.0122V39.0027Z" fill="#F05050"/>
<path d="M33.4516 39.003C33.4516 39.003 33.4137 39.003 33.4042 39.003C32.8832 38.9746 32.4758 38.5294 32.5042 38.0083L33.4232 20.4915C33.4516 19.9704 33.9063 19.5725 34.4179 19.5915C34.9389 19.6199 35.3463 20.0652 35.3179 20.5862L34.3989 38.103C34.3705 38.6052 33.9537 39.003 33.4516 39.003Z" fill="#F05050"/>
<path d="M20.5484 39.0029C20.0463 39.0029 19.6295 38.6144 19.601 38.1029L18.6821 20.586C18.6537 20.065 19.0516 19.6197 19.5821 19.5913C20.1126 19.5629 20.5484 19.9607 20.5768 20.4913L21.4958 38.0081C21.5242 38.5292 21.1263 38.9744 20.5958 39.0029C20.5768 39.0029 20.5579 39.0029 20.5484 39.0029Z" fill="#F05050"/>
<path d="M44.0526 15.4992H9.94737C9.42632 15.4992 9 15.0729 9 14.5519C9 14.0308 9.42632 13.6045 9.94737 13.6045H44.0526C44.5737 13.6045 45 14.0308 45 14.5519C45 15.0729 44.5737 15.4992 44.0526 15.4992Z" fill="#F05050"/>
<path d="M34.8347 15.4989C34.5126 15.4989 34.2 15.3379 34.02 15.0347L31.5284 10.8853H22.4621L19.9705 15.0347C19.7052 15.48 19.1179 15.6316 18.6726 15.3568C18.2273 15.0916 18.0758 14.5042 18.3505 14.0589L21.1168 9.46421C21.2873 9.18 21.6 9 21.9315 9H32.0684C32.4 9 32.7126 9.17053 32.8831 9.46421L35.6494 14.0684C35.9147 14.5137 35.7726 15.1011 35.3273 15.3663C35.1758 15.4611 35.0052 15.4989 34.8442 15.4989H34.8347Z" fill="#F05050"/>
<path d="M35.5453 45.0003H18.4548C16.5316 45.0003 14.94 43.5508 14.76 41.6371L12.2306 14.6466C12.2021 14.3813 12.2969 14.1161 12.4769 13.9171C12.6569 13.7182 12.9127 13.6045 13.1779 13.6045H40.8316C41.0969 13.6045 41.3527 13.7182 41.5327 13.9171C41.7127 14.1161 41.7979 14.3813 41.779 14.6466L39.2495 41.6371C39.0695 43.5603 37.4779 45.0003 35.5548 45.0003H35.5453ZM14.2106 15.5087L16.6453 41.4571C16.7306 42.395 17.5074 43.1055 18.4548 43.1055H35.5453C36.4927 43.1055 37.2695 42.395 37.3548 41.4571L39.7895 15.5087H14.2106Z" fill="#F05050"/>
</g>
<defs>
<clipPath id="clip0_1806_238">
<rect width="36" height="36" fill="white" transform="translate(9 9)"/>
</clipPath>
</defs>
</svg>
