<svg width="22" height="19" viewBox="0 0 22 19" fill="none" xmlns="http://www.w3.org/2000/svg">
<path fill-rule="evenodd" clip-rule="evenodd" d="M21.8999 9.4918C21.8999 10.0993 21.4074 10.5918 20.7999 10.5918L9.0709 10.5918C8.46339 10.5918 7.9709 10.0993 7.9709 9.4918C7.9709 8.88428 8.46339 8.3918 9.0709 8.3918L20.7999 8.3918C21.4074 8.3918 21.8999 8.88428 21.8999 9.4918Z" fill="#8B95A1"/>
<path fill-rule="evenodd" clip-rule="evenodd" d="M14.7889 15.5014C14.3594 15.0717 14.3596 14.3753 14.7892 13.9458L19.2441 9.49258L14.7891 5.03755C14.3595 4.60797 14.3595 3.91149 14.7891 3.48191C15.2187 3.05234 15.9151 3.05234 16.3447 3.48191L21.5777 8.71491C21.784 8.92123 21.8999 9.20106 21.8999 9.49284C21.8999 9.78461 21.7839 10.0644 21.5776 10.2707L16.3446 15.5017C15.9149 15.9312 15.2184 15.9311 14.7889 15.5014Z" fill="#8B95A1"/>
<path fill-rule="evenodd" clip-rule="evenodd" d="M8.76294 16.7839C9.10772 16.7839 9.43838 16.6469 9.68218 16.4031C9.92598 16.1593 10.0629 15.8287 10.0629 15.4839L10.0629 13.7899C10.0629 13.1824 10.5554 12.6899 11.1629 12.6899C11.7705 12.6899 12.2629 13.1824 12.2629 13.7899L12.2629 15.4839C12.2629 16.4121 11.8942 17.3024 11.2378 17.9588C10.5814 18.6151 9.6912 18.9839 8.76294 18.9839L4.31494 18.9839C3.38668 18.9839 2.49644 18.6151 1.84006 17.9588C1.18369 17.3024 0.81494 16.4121 0.81494 15.4839L0.814941 3.49889C0.815328 2.57088 1.18425 1.68056 1.84058 1.0245C2.49692 0.368436 3.38694 -0.000115217 4.31494 -0.000115136L8.76294 -0.000114747C9.6912 -0.000114666 10.5814 0.368639 11.2378 1.02501C11.8942 1.68139 12.2629 2.57163 12.2629 3.49989L12.2629 5.18989C12.2629 5.7974 11.7705 6.28989 11.1629 6.28989C10.5554 6.28989 10.0629 5.7974 10.0629 5.18989L10.0629 3.49989C10.0629 3.15511 9.92598 2.82445 9.68218 2.58065C9.43838 2.33685 9.10772 2.19989 8.76294 2.19989L4.31494 2.19989C3.97025 2.19989 3.63968 2.33678 3.39589 2.58046C3.15211 2.82414 3.01508 3.15466 3.01494 3.49934L3.01494 15.4839C3.01494 15.8287 3.1519 16.1593 3.3957 16.4031C3.6395 16.6469 3.97016 16.7839 4.31494 16.7839L8.76294 16.7839Z" fill="#8B95A1"/>
</svg>
