<svg width="15" height="15" viewBox="0 0 15 15" fill="none" xmlns="http://www.w3.org/2000/svg">
<g clip-path="url(#clip0_1525_1840)">
<path fill-rule="evenodd" clip-rule="evenodd" d="M7.70942 3.40843L2.04568 9.07218L1.27318 11.9534L0.76505 13.8516C0.750936 13.9046 0.751007 13.9604 0.765254 14.0134C0.779502 14.0664 0.807426 14.1147 0.846229 14.1535C0.885032 14.1923 0.933351 14.2202 0.986344 14.2345C1.03934 14.2487 1.09515 14.2488 1.14818 14.2347L3.04505 13.7259L5.92692 12.9534H5.92755L11.5913 7.28968L7.71005 3.40843H7.70942ZM13.9332 4.06468L10.9357 1.06655C10.8777 1.00846 10.8088 0.962374 10.733 0.93093C10.6572 0.899486 10.5759 0.883301 10.4938 0.883301C10.4117 0.883301 10.3304 0.899486 10.2546 0.93093C10.1788 0.962374 10.1099 1.00846 10.0519 1.06655L8.50505 2.6128L12.3869 6.49468L13.9332 4.9478C13.9913 4.88981 14.0374 4.82093 14.0688 4.74511C14.1002 4.66929 14.1164 4.58801 14.1164 4.50593C14.1164 4.42384 14.1002 4.34257 14.0688 4.26674C14.0374 4.19092 13.9913 4.12204 13.9332 4.06405" fill="#8B95A1"/>
</g>
<defs>
<clipPath id="clip0_1525_1840">
<rect width="15" height="15" fill="white"/>
</clipPath>
</defs>
</svg>
