<svg width="32" height="32" viewBox="0 0 32 32" fill="none" xmlns="http://www.w3.org/2000/svg">
<g clip-path="url(#clip0_2056_383)">
<path d="M16 26C21.5228 26 26 21.5228 26 16C26 10.4772 21.5228 6 16 6C10.4772 6 6 10.4772 6 16C6 21.5228 10.4772 26 16 26Z" fill="#F05050"/>
<path d="M19.7499 20.3796C19.5899 20.3796 19.4299 20.3196 19.3099 20.1996L11.8099 12.6996C11.5699 12.4596 11.5699 12.0596 11.8099 11.8196C12.0499 11.5796 12.4499 11.5796 12.6899 11.8196L20.1899 19.3196C20.4299 19.5596 20.4299 19.9597 20.1899 20.1996C20.0699 20.3196 19.9099 20.3796 19.7499 20.3796Z" fill="white"/>
<path d="M12.2499 20.3796C12.0899 20.3796 11.9299 20.3196 11.8099 20.1996C11.5699 19.9597 11.5699 19.5596 11.8099 19.3196L19.3099 11.8196C19.5499 11.5796 19.9499 11.5796 20.1899 11.8196C20.4299 12.0596 20.4299 12.4596 20.1899 12.6996L12.6899 20.1996C12.5699 20.3196 12.4099 20.3796 12.2499 20.3796Z" fill="white"/>
</g>
<defs>
<clipPath id="clip0_2056_383">
<rect width="32" height="32" fill="white"/>
</clipPath>
</defs>
</svg>
